<svg version="1.1" id="Layer_1" xmlns="http://www.w3.org/2000/svg" xmlns:xlink="http://www.w3.org/1999/xlink" x="0px" y="0px"
	 width="500px" height="500px" viewBox="0 0 500 500" enable-background="new 0 0 500 500" xml:space="preserve">
<g>
	<path fill-rule="evenodd" clip-rule="evenodd" fill="#C2351E" d="M322.472,31.51c22.37,0.774,39.61,10.836,52.118,29.205
		c6.432,9.446,10.316,19.953,12.052,31.254c2.234,14.551,9.243,26.81,18.182,38.196c5.512,7.021,11.082,14.028,16.084,21.409
		c9.883,14.583,15.161,31.12,19.352,48.047c3.114,12.583,4.872,25.409,6.78,38.208c3.547,23.787,8.727,47.073,21.476,67.933
		c2.838,4.645,6.068,9.049,9.187,13.518c1.133,1.623,1.98,3.238,1.068,5.205c-0.948,2.044-2.781,2.276-4.764,2.217
		c-9.502-0.281-18.464-3.031-27.397-5.93c-0.676-0.219-1.443-0.879-2.074-0.348c-0.727,0.611-0.011,1.408,0.221,2.066
		c8.16,23.286,17.758,45.878,32.089,66.169c1.734,2.455,3.628,4.798,5.394,7.23c2.995,4.128,1.893,7.782-2.983,9.041
		c-15.472,3.995-29.832,2.319-42.101-8.894c-2.116-1.935-2.198-0.172-2.528,1.181c-1.894,7.778-5.46,14.574-11.604,19.858
		c-3.462,2.977-7.271,5.403-11.834,6.203c-5.241,0.919-8.026-1.377-7.984-6.673c0.101-12.619-1.187-25.143-2.372-37.676
		c-0.169-1.78-0.668-3.354-1.912-4.841c-13.682-16.347-31.841-24.998-51.911-30.378c-14.42-3.866-29.139-5.548-44.035-5.457
		c-16.789,0.102-33.19,3.101-49.541,6.736c-18.562,4.128-36.271,10.852-54.219,16.866c-18.538,6.213-37.416,11.052-56.781,13.8
		c-13.51,1.917-27.117,2.979-40.763,2.326c-11.152-0.534-22.292-1.483-33.252-3.84c-4.35-0.936-6.159-2.706-5.639-5.609
		c0.525-2.93,3.715-4.519,7.72-3.769c3.611,0.677,7.255,0.927,10.916,1.128c1.682,0.092,1.756-0.41,1.136-1.737
		c-2.263-4.845-4.406-9.747-6.715-14.569c-1.518-3.169-2.483-3.362-4.993-0.964c-7.674,7.332-16.803,11.908-27.023,14.423
		c-7.089,1.744-14.183,1.015-21.247-0.239c-1.587-0.281-2.819-1.241-3.138-2.876c-0.382-1.96,0.593-3.43,2.132-4.568
		c5.704-4.217,10.732-9.151,15.278-14.573c8.763-10.454,15.549-22.099,20.727-34.701c0.999-2.43,1.901-4.92,3.14-7.227
		c6.093-11.334,8.364-23.438,8.919-36.256c0.832-19.192,20.165-36,42.306-26.125c1.294,0.577,2.415,0.677,3.761,0.158
		c3.412-1.314,6.863-2.535,10.335-3.68c1.611-0.531,3.455-2.03,4.964-0.414c1.465,1.57,0.032,3.348-0.599,4.969
		c-1.428,3.667-3.109,7.238-4.024,11.097c-1.862,7.85-0.084,15.225,2.644,22.556c3.201,8.603,4.871,17.47,4.743,26.726
		c-0.256,18.588-12.559,36.68-29.862,43.447c-0.786,0.308-1.575,0.604-2.364,0.904c-1.186,0.451-1.506,0.979-0.79,2.298
		c3.816,7.025,8.012,13.802,12.535,20.394c1.111,1.619,2.453,1.466,3.925,1.371c12.479-0.804,24.794-2.774,37.032-5.271
		c7.626-1.556,15.168-3.462,22.694-5.442c2.381-0.627,2.901-1.401,1.04-3.34c-2.342-2.438-4.462-5.087-6.753-7.577
		c-1.421-1.545-6.906-1.511-9.53,0.037c-7.561,4.459-15.409,8.188-24.085,9.971c-3.245,0.667-6.492,0.997-9.795,0.857
		c-3.401-0.145-4.092-1.108-2.749-4.204c3.697-8.521,7.318-17.067,10.645-25.743c4.709-12.28,8.176-24.938,11.635-37.596
		c1.192-4.365,2.867-8.529,4.464-12.732c4.413-11.617,5.703-23.657,5.13-35.987c-0.205-4.412-0.22-8.844,0.804-13.188
		c3.004-12.746,16.042-23.173,29.154-23.468c5.613-0.126,11.082,0.304,16.146,2.994c1.027,0.546,1.935,0.299,2.962-0.032
		c5.084-1.64,10.199-3.184,15.289-4.807c1.042-0.333,1.989-0.637,2.812,0.374c0.801,0.984,0.427,1.938-0.08,2.882
		c-2.045,3.808-4.093,7.626-5.032,11.89c-1.578,7.158,0.005,13.964,2.363,20.699c3.778,10.789,8.981,21.071,11.454,32.32
		c3.953,17.988,2.641,35.126-8.367,50.619c-5.41,7.614-12.488,13.203-21.154,16.746c-1.022,0.419-2.468,0.632-2.546,1.887
		c-0.067,1.086,1.465,1.291,2.126,2.049c4.627,5.307,9.585,4.217,15.459,1.796c20.036-8.259,40.962-13.394,62.442-16.216
		c4.65-0.611,9.343-0.945,14.026-1.25c2.095-0.137,3.597-0.877,5.11-2.402c6.526-6.576,12.031-13.941,17.23-21.562
		c2.139-3.135,2.066-3.28-1.277-4.83c-15.41-7.144-29.422-16.313-41.065-28.801c-14.876-15.954-23.958-34.844-28.021-56.202
		c-1.854-9.748-2.381-19.62-1.604-29.48c1.276-16.213,6.169-31.409,13.767-45.77c3.592-6.792,7.736-13.365,9.563-20.945
		c1.896-7.869,1.65-15.36-4.881-21.321c-2.386-2.178-5.279-3.57-8.224-4.831c-6.397-2.74-12.535-6.009-18.73-9.161
		c-1.247-0.634-2.773-1.281-2.744-2.912c0.033-1.808,1.674-2.365,3.104-2.841c9.785-3.258,19.566-6.534,29.396-9.658
		c1.406-0.447,2.227-1.105,2.913-2.317c9.981-17.632,25.691-26.474,45.232-29.45C317.174,31.693,319.784,31.496,322.472,31.51z
		 M321.939,42.751c-1.41,0-2.826-0.068-4.23,0.019c-1.494,0.093-2.986,0.287-4.467,0.517c-15.613,2.429-27.449,10.593-34.856,24.408
		c-2.597,4.843-5.562,8.135-10.77,9.509c-0.948,0.25-2.155,0.444-2.317,1.733c-0.175,1.381,1.029,1.875,1.889,2.561
		c2.423,1.932,4.997,3.7,6.781,6.318c7.31,10.731,8.179,22.288,4.31,34.4c-2.304,7.21-6.476,13.529-9.905,20.199
		c-15.09,29.35-15.952,59.295-2.807,89.357c12.224,27.952,34.262,45.523,62.354,56.051c15.587,5.842,31.759,8.857,48.373,9.702
		c5.409,0.274,9.942,2.725,13.25,7.02c5.096,6.618,8.466,14.187,11.188,22.005c8.968,25.753,12.986,52.375,13.675,79.565
		c0.025,1.018-0.649,2.533,0.761,2.951c1.172,0.349,1.949-0.92,2.714-1.71c4.134-4.279,5.949-9.641,7.304-15.286
		c0.934-3.892,0.031-7.883,1.058-11.757c0.663-2.505,2.216-3.725,4.621-3.688c2.152,0.033,3.944,1.114,5.256,2.874
		c1.979,2.653,4.351,4.949,6.76,7.186c6.318,5.867,13.468,9.889,22.436,9.599c0.727-0.023,1.655,0.292,2.106-0.417
		c0.597-0.939-0.383-1.533-0.846-2.174c-8.012-11.082-14.503-23.026-20.164-35.444c-6.271-13.756-11.507-27.936-17.221-41.92
		c-0.452-1.104-0.732-2.236-1.971-2.928c-10.025-5.602-17.949-13.625-25.052-22.448c-6.267-7.785-11.312-16.365-14.877-25.755
		c-1.631-4.295,0.766-8.021,4.981-7.789c2.473,0.137,3.871,1.635,4.877,3.705c2.996,6.173,6.285,12.133,10.331,17.738
		c12.205,16.913,28.383,27.902,48.382,33.453c0.799,0.221,1.744,0.844,2.358,0.088c0.522-0.641-0.254-1.395-0.627-2.016
		c-9.673-16.046-15.407-33.564-18.839-51.836c-2.784-14.829-4.712-29.819-7.47-44.654c-5.195-27.951-15.252-53.674-34.597-75.246
		c-9.633-10.743-16.719-23.079-19.787-37.448c-1.76-8.24-3.203-16.56-6.492-24.42C361.977,56.613,344.59,42.213,321.939,42.751z
		 M175.887,334.242c4.732-0.305,8.68-1.498,12.683-2.359c24.988-5.376,38.13-26.479,37.184-49.145
		c-0.408-9.789-3.761-18.868-7.408-27.858c-5.018-12.366-9.935-24.79-8.862-38.568c0.158-2.025-0.693-2.122-2.362-1.528
		c-1.64,0.584-3.117,1.759-5.199,0.34c-11.988-8.172-30.471-2.213-34.865,14.997c-0.936,3.662-1.1,7.429-0.976,11.197
		c0.469,14.156-1.335,27.893-7.238,40.936c-1.114,2.461-1.861,5.106-2.597,7.718c-5.039,17.866-10.117,35.717-17.496,52.808
		c-0.295,0.684-0.865,1.45-0.34,2.105c0.688,0.859,1.602,0.073,2.312-0.137c9.45-2.789,17.424-8.236,25.123-14.145
		c3.129-2.401,6.128-4.972,9.268-7.358c3.17-2.409,6.515-1.479,7.339,1.918c0.457,1.883-0.466,3.215-1.656,4.514
		C179.427,331.168,177.359,331.893,175.887,334.242z M35.347,355.28c2.054,0.695,3.509,0.115,4.94-0.243
		c9.826-2.468,18.886-6.456,25.546-14.396c1.864-2.223,3.749-3.102,6.45-3.091c6.676,0.026,13.322-0.473,19.891-1.683
		c17.59-3.24,31.2-19.099,32.184-36.848c0.506-9.124-1.31-17.721-4.35-26.164c-2.183-6.064-3.693-12.207-3.093-18.717
		c0.207-2.242,0.346-4.493,0.613-6.729c0.237-1.978-0.528-2.416-2.217-1.607c-1.303,0.623-2.499,1.146-3.928,0.114
		c-10.656-7.702-27.775-2.118-31.875,13.003c-1.191,4.396-1.44,8.879-1.676,13.373c-0.401,7.655-1.792,15.055-5.113,22.045
		c-2.495,5.254-4.924,10.545-7.175,15.906c-4.418,10.521-9.85,20.449-16.667,29.616C44.855,345.269,40.581,350.45,35.347,355.28z
		 M373.547,308.297c-2.583-0.586-4.072,1.199-5.52,2.96c-4.172,5.079-8.309,10.187-12.45,15.291
		c-1.851,2.282-1.731,2.808,1.046,3.53c12.564,3.271,24.689,7.676,36.121,13.889c0.533,0.291,1.158,0.935,1.705,0.313
		c0.283-0.32,0.231-1.099,0.091-1.604c-2.933-10.519-6.544-20.759-12.699-29.899C379.922,309.926,377.425,307.884,373.547,308.297z
		 M339.621,326.644c1.348,0.349,1.988-0.692,2.702-1.523c4.157-4.841,8.241-9.745,12.452-14.537
		c1.463-1.664,0.932-2.456-0.887-2.854c-6.328-1.383-12.382-3.668-18.5-5.708c-2.369-0.789-3.578-0.045-4.949,1.662
		c-5.053,6.291-10.078,12.615-15.963,18.181c-0.457,0.433-1.229,0.787-1.055,1.533c0.223,0.957,1.198,0.745,1.879,0.839
		c4.188,0.583,8.437,0.174,12.631,0.865C331.807,325.74,335.723,326.139,339.621,326.644z M100.393,366.855
		c0.957-0.203,2.384,0.624,3.017-0.56c0.544-1.018-0.698-1.788-1.217-2.614c-3.49-5.545-6.877-11.147-9.886-16.974
		c-0.423-0.819-0.511-2.066-2.083-1.742c-1.455,0.3-2.964,0.389-4.455,0.441c-1.784,0.063-1.982,0.789-1.386,2.339
		c2.249,5.85,4.823,11.548,7.634,17.145c0.45,0.896,0.982,1.459,2.115,1.491C96.187,366.44,98.238,366.682,100.393,366.855z
		 M199.206,348.068c-0.194-0.262-0.357-0.485-0.524-0.706c-3.934-5.184-9.206-6.809-15.559-4.882
		c-1.076,0.326-1.438,0.559-0.736,1.678c4.922,7.84,6.943,8.517,15.264,4.969c0.345-0.147,0.726-0.229,1.04-0.424
		C198.904,348.571,199.029,348.296,199.206,348.068z"/>
	<path fill-rule="evenodd" clip-rule="evenodd" fill="#C2351E" d="M307.258,453.172c-3.726,0-6.991,0.023-10.256-0.015
		c-1.039-0.012-1.43,0.715-1.957,1.371c-4.706,5.862-9.424,11.717-14.143,17.569c-1.46,1.812-3.151,3.066-5.572,1.818
		c-2.445-1.259-2.692-3.723-0.544-6.477c3.237-4.147,6.581-8.211,9.88-12.312c0.352-0.438,0.705-0.879,1.043-1.329
		c2.061-2.736,2.059-2.737-1.193-4.027c-18.428-7.313-29.143-23.165-29.375-42.985c-0.084-7.205,0.951-14.221,2.473-21.19
		c1.387-6.354-0.05-11.692-4.977-16.036c-1.197-1.056-2.317-2.206-3.41-3.373c-0.68-0.728-1.637-1.449-1.102-2.655
		c0.511-1.151,1.602-1.118,2.661-1.123c3.853-0.02,7.71,0.143,11.541-0.501c0.946-0.159,1.797-0.278,2.53-1.006
		c13.305-13.202,36.367-8.228,44.24,10.251c1.029,2.417,2.008,4.849,2.563,7.432c1.49,6.943,4.767,12.98,9.24,18.445
		c6.137,7.496,10.627,16.163,16.843,23.621c7.74,9.286,16.069,17.904,26.276,24.53c0.236,0.153,0.451,0.34,0.688,0.492
		c1.788,1.152,3.532,2.449,3.021,4.886c-0.518,2.471-2.592,3.227-4.802,3.725c-11.819,2.667-23.315,1.931-34.323-3.376
		c-2.172-1.047-4.011,0.233-5.994,0.23c-4.861-0.008-7.373,2.723-9.388,6.796c-2.116,4.279-4.854,8.25-7.322,12.354
		c-0.193,0.321-0.393,0.641-0.6,0.953c-1.571,2.372-4.452,3.711-6.144,2.859c-1.57-0.792-1.904-3.689-0.389-6.431
		C301.307,463.079,304.059,458.605,307.258,453.172z M264.115,405.333c-0.682,20.992,13.725,35.278,30.299,38.669
		c9.667,1.978,19.289,0.968,28.695-1.671c2.846-0.799,5.246-0.514,7.859,0.508c5.517,2.157,11.192,3.761,17.109,4.416
		c0.754,0.083,1.679,0.444,2.071-0.301c0.511-0.968-0.567-1.416-1.143-1.916c-6.261-5.437-12.09-11.279-17.372-17.691
		c-6.768-8.215-12.053-17.479-18.568-25.87c-4.771-6.143-8.339-12.908-9.897-20.638c-0.368-1.823-1.042-3.608-1.759-5.334
		c-6.365-15.313-24.512-17.209-32.471-6.971c-0.551,0.706-1.201,1.18-2.156,1.069c-2.166-0.252-2.405,0.777-1.74,2.527
		c1.795,4.713,1.512,9.574,1.025,14.465C265.447,392.845,263.901,398.998,264.115,405.333z"/>
	<path fill-rule="evenodd" clip-rule="evenodd" fill="#C2351E" d="M199.649,373.145c2.844,0.216,5.923,0.608,8.717,2.09
		c1.886,1.001,3.686,0.97,5.689,0.337c2.858-0.901,5.798-1.549,8.706-2.292c1.166-0.299,2.248-0.206,3.075,0.807
		c0.777,0.95,0.478,1.91,0.063,2.908c-0.541,1.299-0.94,2.657-1.522,3.936c-2.606,5.725-2.417,11.545-1.286,17.62
		c1.797,9.65,2.496,19.416,0.066,29.087c-3.765,14.983-13.168,24.987-27.487,30.511c-3.1,1.195-3.092,1.175-1.015,3.818
		c1.915,2.437,3.773,4.919,5.707,7.341c1.41,1.766,1.502,3.472-0.279,4.936c-1.826,1.5-3.761,1.26-5.257-0.486
		c-2.751-3.212-5.528-6.427-7.962-9.875c-1.643-2.327-3.36-3.563-6.273-2.893c-1.775,0.408-4.468-0.855-5.242,0.605
		c-0.782,1.477,1.627,3.069,2.454,4.718c0.459,0.917,1.146,1.717,1.686,2.598c1.417,2.311,1.104,4.318-0.895,5.605
		c-2.174,1.4-3.938,0.281-5.127-1.35c-2.487-3.412-4.842-6.94-6.967-10.588c-1.244-2.137-2.536-3.104-5.143-2.726
		c-8.98,1.304-17.954,1.556-26.805-1.044c-4.161-1.223-8.156-2.81-11.903-5.01c-1.56-0.916-2.688-2.144-2.603-4.027
		c0.082-1.813,1.554-2.333,3.003-2.922c11.564-4.698,20.871-12.506,29.443-21.357c5.9-6.093,11.127-12.739,16.354-19.393
		c1.974-2.513,2.747-5.487,3.408-8.537c2.556-11.798,8.58-20.524,21.021-23.496C195.285,373.586,197.304,373.177,199.649,373.145z
		 M179.201,452.73c11.256-0.246,21.714-4.144,29.382-14.063c4.454-5.761,6.317-12.423,7.151-19.558
		c1.33-11.371-3.49-22.493-1.196-33.88c0.193-0.959-0.416-1.571-1.303-1.024c-2.724,1.682-4.856,0.413-7.069-1.086
		c-0.75-0.508-1.723-0.82-2.632-0.939c-9.245-1.202-18.125,2.258-21.388,12.328c-0.634,1.958-1.066,3.981-1.601,5.972
		c-1.1,4.092-2.287,8.172-5.008,11.532c-11.075,13.676-22.168,27.341-37.527,36.637c-0.519,0.313-1.381,0.57-1.241,1.362
		c0.158,0.894,1.07,0.857,1.784,1.053c4.966,1.352,10.038,1.235,15.114,1.176c4.384-0.051,8.669-1.619,13.134-0.603
		C170.566,452.493,174.437,452.583,179.201,452.73z"/>
	<path fill-rule="evenodd" clip-rule="evenodd" fill="#1A6C7A" d="M337.686,183.244c10.066-20.482,27.504-30.259,48.584-34.905
		c2.365-0.521,4.701-1.245,7.186-1.184c3.529,0.086,5.264,1.62,5.099,5.146c-0.36,7.704-0.535,15.407-0.442,23.119
		c0.198,16.364,0.383,32.729,0.552,49.093c0.067,6.496-1.242,7.541-7.592,8.7c-20.624,3.766-37.476,13.345-48.042,32.205
		c-2.617,4.671-7.384,5.001-9.9,0.481c-9.596-17.231-25.028-26.357-43.351-31.528c-1.974-0.557-4.017-0.942-6.054-1.198
		c-5.36-0.672-7.255-2.666-7.24-8.026c0.055-20.225,0.152-40.449,0.203-60.674c0.012-4.137-0.135-8.275-0.15-12.414
		c-0.016-3.948,1.232-5.47,4.99-4.837c14.625,2.461,28.559,6.705,40.423,16.22C328.674,168.834,333.908,175.316,337.686,183.244z
		 M287.973,191.021c0,9.591,0.028,19.182-0.024,28.773c-0.01,1.821,0.274,2.746,2.452,3.202c9.807,2.056,18.875,5.991,27.254,11.511
		c4.655,3.066,8.881,6.618,12.608,10.764c0.431,0.479,0.849,1.155,1.588,0.901c0.604-0.208,0.604-0.901,0.573-1.469
		c-0.131-2.427,0.213-4.856-0.303-7.287c-1.6-7.547-6.381-12.593-12.815-16.26c-3.684-2.098-7.321-4.239-10.396-7.168
		c-5.95-5.667-10.839-11.982-11.554-20.585c-0.245-2.948,0.33-3.494,3.119-2.875c6.307,1.399,11.68,4.306,16.555,8.77
		c5.576,5.106,9.843,10.967,13.371,17.521c0.354,0.657,0.104,2.044,1.266,1.836c1.044-0.187,0.682-1.376,0.713-2.177
		c0.229-5.831-0.01-11.652-1.141-17.373c-2.022-10.223-6.66-18.977-14.729-25.833c-7.533-6.4-16.393-9.997-25.66-12.909
		c-2.334-0.734-2.943-0.226-2.919,2.166C288.027,172.027,287.971,181.525,287.973,191.021z M343.244,246.287
		c0.328,0.172,0.658,0.344,0.986,0.516c0.568-0.746,1.077-1.55,1.715-2.231c10.785-11.537,23.978-18.733,39.457-21.736
		c1.445-0.28,1.789-0.974,1.789-2.295c-0.004-19.567,0.018-39.134,0.056-58.701c0.003-1.624-0.453-2.105-2.195-1.688
		c-6.146,1.473-11.964,3.717-17.445,6.852c-21.665,12.39-25.071,32.438-24.288,50.761c0.021,0.471,0.042,0.956,0.678,1.031
		c0.564,0.066,0.855-0.278,1.066-0.723c0.279-0.59,0.531-1.195,0.818-1.782c5.687-11.553,13.285-21.129,26.178-25.171
		c1.726-0.541,3.875-2.032,5.24-0.541c1.27,1.389,0.55,3.759,0.065,5.676c-2.828,11.183-10.41,18.418-20.05,23.843
		c-3.318,1.868-6.35,4.02-8.786,6.93C343.803,232.671,342.576,239.246,343.244,246.287z"/>
	<path fill-rule="evenodd" clip-rule="evenodd" fill="#C2351E" d="M309.021,88.562c-6.619,0.013-11.479-4.744-11.495-11.254
		c-0.018-6.53,5.114-11.85,11.424-11.841c6.24,0.009,11.533,5.405,11.606,11.833C320.629,83.694,315.657,88.549,309.021,88.562z"/>
	<path fill-rule="evenodd" clip-rule="evenodd" fill="#E49526" d="M188.177,297.355c-0.819,1.864-1.609,3.741-2.465,5.588
		c-1.122,2.423-2.6,4.555-4.985,5.938c-2.045,1.188-4.144,1.404-6.092,0.008c-2.012-1.441-2.699-3.585-2.214-5.988
		c0.735-3.647,2.711-6.539,5.615-8.85c0.593-0.473,1.726-0.873,1.275-1.906c-0.354-0.813-1.353-0.446-2.044-0.416
		c-2.185,0.098-4.315-0.285-6.431-0.682c-4.01-0.752-6.406-3.89-5.764-7.371c0.683-3.702,3.979-5.625,8.237-4.672
		c2.49,0.558,4.778,1.658,6.922,3.059c0.511,0.334,1.113,0.996,1.75,0.465c0.727-0.607-0.084-1.188-0.319-1.725
		c-1.391-3.179-1.813-6.517-1.406-9.912c0.426-3.557,2.93-6.013,5.927-6.141c3.125-0.133,5.443,1.969,6.15,5.793
		c0.604,3.27,0.599,6.542-0.626,9.712c-0.235,0.606-0.747,1.363-0.158,1.813c0.868,0.666,1.303-0.382,1.751-0.857
		c2.863-3.037,6.068-5.273,10.491-5.248c2.098,0.013,4.05,0.273,5.046,2.318c0.998,2.047,0.897,4.227-0.318,6.188
		c-2.156,3.479-5.672,4.719-9.433,5.516c-0.672,0.142-1.707-0.337-1.918,0.656c-0.173,0.813,0.699,1.291,1.276,1.701
		c1.931,1.374,3.648,2.982,5.139,4.797c1.764,2.146,2.63,4.584,1.371,7.307c-1.566,3.384-5.343,4.469-8.455,2.289
		C193.098,304.354,190.105,301.539,188.177,297.355z M187.629,292.997c2.658,0.03,3.832-1.124,3.873-3.642
		c0.038-2.297-1.146-3.543-3.293-3.736c-2.087-0.188-4.203,1.91-4.266,3.961C183.87,291.986,184.928,292.967,187.629,292.997z"/>
	<path fill-rule="evenodd" clip-rule="evenodd" fill="#C2351E" d="M198.077,227.926c-0.007,3.948-2.639,6.89-6.208,6.938
		c-3.929,0.053-6.82-2.907-6.814-6.977c0.007-4.177,2.827-7.224,6.644-7.178C195.187,220.751,198.083,224.028,198.077,227.926z"/>
	<path fill-rule="evenodd" clip-rule="evenodd" fill="#1A6C7A" d="M95.258,287.9c5.32-0.058,7.841,1.778,9.188,6.069
		c2.257,7.188,0.467,13.741-4.357,19.101c-6.427,7.141-14.916,10.82-24.321,12.421c-1.504,0.256-2.151-0.385-2.445-1.914
		c-2.107-10.931,5.184-27.562,14.594-33.147C90.55,288.866,93.367,287.969,95.258,287.9z"/>
	<path fill-rule="evenodd" clip-rule="evenodd" fill="#C2351E" d="M95.819,257.508c-0.044-3.55,3.023-6.799,6.463-6.847
		c3.318-0.046,6.543,3.325,6.535,6.828c-0.009,3.591-3.335,7.091-6.696,7.046C98.887,264.494,95.865,261.123,95.819,257.508z"/>
	<path fill-rule="evenodd" clip-rule="evenodd" fill="#1A6C7A" d="M313.832,432.481c-9.534-0.768-18.684-2.856-25.398-10.607
		c-4.391-5.068-7.235-10.806-5.646-17.791c0.902-3.973,3.047-5.398,7.13-5.225c5.255,0.225,9.567,2.717,13.396,5.968
		c7.537,6.399,12.968,14.567,18.352,22.73c1.28,1.942,0.118,4.148-2.338,4.584C317.582,432.449,315.77,432.376,313.832,432.481z"/>
	<path fill-rule="evenodd" clip-rule="evenodd" fill="#C2351E" d="M286.234,376.564c0.063,3.503-2.695,6.541-5.963,6.567
		c-3.114,0.025-5.938-3.047-6.049-6.582c-0.115-3.665,2.219-6.368,5.553-6.433C283.154,370.052,286.172,373.064,286.234,376.564z"/>
	<path fill-rule="evenodd" clip-rule="evenodd" fill="#E49526" d="M175,442.647c-2.14-0.205-4.318-0.063-6.396-0.812
		c-2.926-1.054-3.738-3.54-1.27-5.268c8.573-6.005,16.574-12.988,26.609-16.638c3.329-1.21,5.025-0.024,5.206,3.541
		c0.287,5.65-2.555,9.894-6.657,13.323C187.466,440.997,181.512,442.729,175,442.647z"/>
	<path fill-rule="evenodd" clip-rule="evenodd" fill="#C2351E" d="M200.466,388.935c3.106-0.038,5.937,2.728,6.022,5.882
		c0.091,3.35-2.657,6.425-5.738,6.423c-3.241-0.004-5.89-2.768-5.937-6.197C194.77,391.759,197.349,388.973,200.466,388.935z"/>
</g>
</svg>
