<svg version="1.1" id="Layer_1" xmlns="http://www.w3.org/2000/svg" xmlns:xlink="http://www.w3.org/1999/xlink" x="0px" y="0px"
	 width="500px" height="500px" viewBox="0 0 500 500" enable-background="new 0 0 500 500" xml:space="preserve">
<g>
	<path fill="#D03722" d="M131.072,136.718c-1.891-5.608-3.591-11.242-4.37-17.157c-1.547-11.776,0.617-22.949,5.15-33.745
		c4.741-11.29,11.39-21.266,20.948-29.099c4.222-3.46,10.044-1.188,10.945,4.208c1.434,8.594,3.211,17.08,7.179,24.951
		c5.252,10.417,12.89,18.826,21.794,26.207c10.07,8.345,21.328,14.938,32.231,22.06c11.939,7.798,23.189,16.389,31.505,28.238
		c0.749,1.069,1.476,2.156,2.226,3.253c6.347-7.587,10.388-16.347,14.035-25.354c4.757-11.746,10.624-22.858,20.023-31.646
		c9.874-9.23,21.537-14.753,35.059-16.126c18.653-1.895,35.086,3.218,49.109,15.741c5.4,4.823,9.765,10.494,12.936,17.008
		c0.956,1.964,2.218,3.011,4.33,3.615c9.714,2.774,19.379,5.715,29.058,8.615c1.339,0.401,2.673,0.777,2.85,2.602
		c0.172,1.797-1.014,2.33-2.239,3.099c-8.534,5.347-17.007,10.776-24.381,17.733c-3.771,3.556-5.896,7.971-7.089,12.892
		c-1.701,7.027-1.07,14.12-0.709,21.246c0.251,4.955,0.937,9.864,1.33,14.792c0.573,7.199,1.591,14.364,1.387,21.608
		c-0.631,22.245-5.126,43.413-17.466,62.389c-9.189,14.131-20.752,25.886-35.163,35.141c17.692,6.96,31.031,18.596,39.595,35.573
		c10.186-7.462,20.846-13.745,32.156-18.916c1.346-0.616,2.678-1.267,4.194-1.39c2.962-0.24,4.938,0.867,5.854,3.316
		c1.002,2.684,0.182,5.755-2.27,7.122c-3.189,1.781-6.528,3.3-9.828,4.879c-17.816,8.521-33.327,19.861-44.701,36.319
		c-1.452,2.101-3.371,3.624-6.2,2.965c-2.584-0.602-4.072-2.269-4.421-4.899c-0.262-1.979,0.789-3.536,1.83-5.042
		c3.694-5.348,7.797-10.374,12.427-14.935c1.226-1.206,1.261-2.056,0.521-3.533c-9.396-18.783-24.742-29.041-45.344-31.827
		c-1.488-0.201-2.91,0.004-4.345,0.608c-17.248,7.275-35.253,10.488-53.951,9.977c-5.335-0.146-10.677-0.162-15.942-1.14
		c-1.672-0.309-2.363,0.76-3.213,1.727c-10.081,11.478-21.535,21.305-34.789,28.97c-6.881,3.979-14.211,6.937-21.969,9.555
		c1.06,1.424,2.028,2.743,3.012,4.05c5.243,6.965,8.999,14.717,11.72,22.943c0.708,2.138,1.52,2.138,3.273,1.58
		c13.075-4.163,26.456-7.065,40.048-8.771c15.676-1.963,31.418-2.726,47.243-1.771c16.216,0.977,32.112,3.479,47.558,8.565
		c9.297,3.062,18.105,7.23,26.598,12.067c4.055,2.309,5.356,6.622,3.264,10.26c-2.065,3.591-6.197,4.617-10.27,2.316
		c-9.661-5.452-19.439-10.485-30.336-13.223c-21.172-5.319-42.604-6.959-64.349-5.78c-13.751,0.746-27.335,2.531-40.744,5.64
		c-14.93,3.461-29.208,8.806-43.107,15.198c-4.095,1.883-8.155,3.845-12.21,5.815c-3.923,1.908-7.981,0.771-9.895-2.831
		c-1.932-3.634-0.555-8.001,3.314-10.033c8.878-4.66,18.047-8.692,27.436-12.199c1.685-0.629,1.747-1.327,1.261-2.776
		c-3.79-11.319-9.974-21.098-18.652-29.301c-0.956-0.904-1.854-1.872-2.818-2.768c-1.325-1.228-2.026-2.688-1.48-4.468
		c0.532-1.735,2.029-2.325,3.65-2.582c24.389-3.875,43.234-17.289,60.053-34.754c-4.44-1.372-8.686-2.521-12.816-3.993
		c-8.726-3.107-16.976-7.255-24.906-12.023c-1.003-0.602-1.769-0.737-2.839-0.316c-21.625,8.525-41.121,20.349-57.501,37.02
		c-6.783,6.903-12.48,14.655-17.871,22.656c-3.295,4.893-7.119,5.275-11.261,1.177c-6.274-6.205-11.642-12.98-14.364-21.597
		c-2.813-8.904-2.118-17.583,1.173-26.15c0.584-1.521,0.259-2.1-1.11-2.89c-14.116-8.151-22.28-20.222-24.103-36.557
		c-0.977-8.75-0.289-17.306,2.196-25.708c1.595-5.395,6.193-6.644,10.586-3.213c12.285,9.595,25.972,16.246,41.43,18.742
		c17.411,2.813,34.017,1.242,48.399-10.32c3.886-3.126,7.302-6.73,10.357-11.075c-12.625-1.256-24.396-4.401-35.416-10.083
		c-14.884-7.677-26.733-18.417-33.89-33.841c-0.402-0.867-0.795-1.75-1.065-2.664c-1.476-4.99,0.493-11.105,8.376-9.256
		c6.491,1.522,13.118,1.803,20.447,2.046c-8.113-3.859-14.865-8.559-20.672-14.509c-10.119-10.369-16.347-22.702-18.565-37.075
		c-2.015-13.061-0.829-25.96,1.694-38.797c0.573-2.918,2.459-5.074,5.376-5.921c2.844-0.826,5.092,0.518,7.004,2.54
		c4.461,4.714,8.985,9.362,14.199,13.273c0.175,0.172,0.349,0.346,0.523,0.52C131.559,137.125,131.534,136.854,131.072,136.718z
		 M130.746,229.981c4.002,5.907,8.423,10.718,13.797,14.558c14.981,10.7,31.867,15.106,50.083,14.27
		c5.063-0.232,7.201,3.433,5.167,7.558c-8.637,17.509-21.352,30.547-40.405,36.362c-17.854,5.446-35.543,3.709-53.05-1.954
		c-8.323-2.692-16.037-6.646-23.489-11.192c-1.224,5.345-1.346,10.677-0.134,15.735c3.264,13.628,11.768,22.434,25.541,25.823
		c5.297,1.304,6.433,4.554,2.784,8.665c-3.397,3.827-5.636,8.394-6.156,13.238c-0.964,9.001,1.682,17.104,8.527,23.536
		c0.428-0.578,0.855-1.132,1.255-1.703c6.372-9.084,13.727-17.291,22.03-24.647c16.464-14.587,35.319-25.198,55.509-33.685
		c3.896-1.638,6.822-1.35,10.351,0.952c16.947,11.052,35.846,16.922,55.757,19.247c7.768,0.908,15.732,0.47,23.635-0.252
		c11.112-1.015,21.828-3.46,32.18-7.486c24.249-9.434,43.157-25.185,55.827-48.051c7.855-14.178,10.791-29.71,11.719-45.688
		c0.763-13.146-1.128-26.199-1.813-39.291c-0.53-10.13,0.063-20.083,2.196-29.958c1.392-6.45,2.57-12.966,1.633-19.522
		c-3.344-23.364-21.581-39.282-43.282-41.645c-18.931-2.061-34.334,5.239-45.771,20.614c-5.956,8.007-9.567,17.208-13.426,26.279
		c-4.92,11.567-11.604,21.932-20.684,30.686c-2.416,2.329-4.346,2.144-6.271-0.583c-0.553-0.784-1.048-1.61-1.541-2.435
		c-7.872-13.15-18.304-23.803-31.015-32.352c-9.863-6.633-20.132-12.658-29.671-19.773c-11.165-8.328-21.434-17.535-28.757-29.595
		c-4.392-7.232-7.63-14.97-9.92-23.549c-3.632,4.217-6.646,8.345-8.879,13.049c-5.018,10.567-7.488,21.574-5.44,33.239
		c2.086,11.883,7.564,22.046,16.328,30.386c1.842,1.752,3.85,3.337,5.623,5.152c2.421,2.479,1.841,6.187-1.124,7.431
		c-1.601,0.671-3.267,0.308-4.86-0.271c-12.953-4.692-25.354-10.428-36.189-19.124c-1.255-1.009-2.481-2.053-3.883-3.215
		c-0.206,1.344-0.378,2.356-0.515,3.374c-1.233,9.194-1.252,18.307,1.76,27.229c5.388,15.965,16.295,26.986,30.973,34.651
		c5.599,2.924,11.491,5.035,17.623,6.489c2.488,0.589,4.12,2.113,4.464,4.563c0.345,2.462-0.895,4.378-3.063,5.615
		c-0.982,0.56-1.984,1.101-3.019,1.555C152.981,228.724,142.319,230.475,130.746,229.981z"/>
	<path fill="#EF9D29" d="M414.743,392.405c0.236,1.479-0.46,1.944-1.905,1.881c-1.597-0.068-2.019-0.9-2.072-2.328
		c-0.07-1.898,1.114-1.629,2.378-1.718C414.979,390.112,414.821,391.223,414.743,392.405z"/>
	<path fill="#067889" d="M266,307.621c-20.821-0.669-37.264-8.96-47.193-27.931c-9.066-17.32-5.768-37.33,7.9-50.325
		c18.172-17.278,48.729-10.273,56.319,12.91c4.603,14.059-2.415,28.857-15.771,33.26c-10.587,3.49-21.571-1.791-24.71-12.01
		c-1.777-5.78-0.643-11.082,3.455-15.576c2.369-2.599,5.612-2.925,8.011-1.086c2.396,1.835,2.847,4.61,0.999,7.708
		c-1.552,2.604-1.871,5.117,0.118,7.523c2.026,2.452,4.775,3.19,7.815,2.474c7.946-1.876,11.822-10.936,8.363-19.409
		c-6.078-14.894-26.208-18.313-37.475-6.314c-6.513,6.935-9.196,15.199-7.595,24.594c2.675,15.697,12.338,25.637,27.12,30.15
		c16.662,5.087,31.842,0.685,45.557-9.474c8.905-6.595,15.31-15.283,20.506-24.947c0.452-0.842,0.829-1.742,1.385-2.51
		c1.452-2.001,3.476-2.729,5.768-1.846c2.234,0.862,3.032,2.762,2.726,5.096c-0.789,5.976-3.637,11.119-7,15.904
		c-11.372,16.175-26.504,26.899-46.052,30.96C272.896,307.473,269.475,307.652,266,307.621z"/>
	<path fill="#EF9D29" d="M291.288,234.811c0.874-2.876,1.796-5.97,2.755-9.052c0.751-2.417,1.4-4.881,2.369-7.211
		c0.963-2.321,0.164-3.767-1.677-5.101c-3.616-2.622-7.176-5.324-10.752-8.003c-0.63-0.472-1.212-1.006-1.833-1.49
		c-1.293-1.009-1.988-2.306-1.438-3.906c0.563-1.642,2.088-1.638,3.508-1.645c5.615-0.022,11.23-0.066,16.847-0.027
		c1.588,0.011,2.375-0.312,2.904-2.123c1.485-5.086,3.365-10.058,5.124-15.063c0.569-1.619,1.378-3.279,3.354-3.208
		c1.926,0.069,2.733,1.7,3.254,3.349c1.499,4.743,3.003,9.486,4.426,14.252c0.611,2.044,1.666,2.941,3.965,2.854
		c4.993-0.19,10.001-0.05,15.002-0.059c1.057-0.001,2.088,0.056,3.071,0.512c1.775,0.822,2.088,2.099,0.905,3.676
		c-1.987,2.651-4.972,4.087-7.467,6.114c-2.24,1.819-4.597,3.514-7.011,5.095c-1.485,0.972-1.839,1.87-1.249,3.653
		c1.806,5.469,3.282,11.046,5.035,16.533c0.5,1.563,0.268,2.769-0.85,3.767c-1.229,1.101-2.354,0.449-3.512-0.396
		c-4.737-3.461-9.58-6.78-14.254-10.322c-1.488-1.127-2.437-1.007-3.822,0.054c-4.52,3.461-9.13,6.807-13.717,10.178
		c-0.997,0.732-2.021,1.446-3.353,0.67C291.762,237.263,291.394,236.247,291.288,234.811z"/>
	<path fill="#D03722" d="M349.964,153.666c-6.773-0.01-12.002-5.324-11.975-12.17c0.027-6.766,5.396-12.126,12.139-12.122
		c6.764,0.005,12.188,5.542,12.138,12.387C362.214,148.364,356.725,153.676,349.964,153.666z"/>
</g>
</svg>
