<svg version="1.1" id="Layer_1" xmlns="http://www.w3.org/2000/svg" xmlns:xlink="http://www.w3.org/1999/xlink" x="0px" y="0px"
	 width="500px" height="500px" viewBox="0 0 500 500" enable-background="new 0 0 500 500" xml:space="preserve">
<g>
	<path fill-rule="evenodd" clip-rule="evenodd" fill="#C2351E" d="M127.676,342.681c-6.849-0.462-12.8-1.065-18.678-2.291
		c-22.294-4.649-37.789-17.8-47.632-38.015c-2.461-5.056-4.688-10.215-6.183-15.662c-0.608-2.217-1.783-4.52,0.409-6.428
		c2.302-2.004,4.875-1.34,7.359-0.232c8.532,3.803,17.153,7.373,25.988,10.431c14.53,5.029,29.455,8.215,44.823,8.291
		c19.836,0.1,39.015-3.236,56.536-13.29c0.507-0.291,0.983-0.636,1.539-0.999c-0.617-1.093-1.702-1.13-2.545-1.487
		c-39.685-16.806-65.51-46.489-80.164-86.459c-8.005-21.838-11.541-44.467-10.933-67.699c0.189-7.221,0.53-14.462,1.595-21.635
		c0.737-4.963,3.816-6.629,8.377-4.312c3.67,1.864,7.207,3.989,10.831,5.948c36.065,19.495,72.139,38.977,108.206,58.471
		c6.542,3.536,13.104,7.038,19.57,10.709c2.153,1.223,3.085,1.042,4.203-1.358c7.64-16.383,15.007-32.906,23.964-48.642
		c8.532-14.991,19.139-28.027,34.276-36.908c31.57-18.521,74.786-5.576,90.267,27.593c2.653,5.684,5.913,9.154,11.377,11.878
		c9.26,4.616,17.766,10.609,26.242,16.566c1.365,0.959,2.523,2.024,2.175,3.945c-0.343,1.894-2.055,1.823-3.299,2.093
		c-2.741,0.595-5.536,1.089-8.332,1.266c-6.177,0.393-11.389,3.052-16.249,6.567c-5.204,3.764-7.388,8.967-7.449,15.354
		c-0.091,9.505,1.716,18.798,2.752,28.176c1.904,17.241,2.479,34.477,0.581,51.767c-2.037,18.574-6.802,36.319-16.028,52.652
		c-18.245,32.303-45.852,52.105-81.783,60.551c-7.035,1.653-14.166,2.958-21.415,3.151c-3.062,0.081-4.882,1.332-6.413,3.936
		c-2.84,4.825-6.036,9.441-9.301,14.48c7.799,1.32,15.077,3.346,22.106,6.271c9.085,3.781,17.366,8.834,24.807,15.255
		c3.078,2.657,5.462,5.895,7.251,9.543c0.922,1.88,1.474,3.799-0.534,5.438c-2.046,1.669-4.125,1.47-6.064-0.063
		c-2.283-1.806-4.488-3.719-6.656-5.664c-12.042-10.807-26.671-15.695-42.216-18.476c-3.56-0.637-7.137-1.159-10.762-1.339
		c-1.594-0.08-3.184-0.39-4.598-1.278c-3.471-2.185-3.947-4.702-1.597-8.062c3.975-5.682,7.903-11.396,11.835-17.107
		c0.439-0.641,1.052-1.243,0.871-2.254c-5.734-0.8-11.588-0.74-17.299-1.901c-0.986-0.201-1.764,0.137-2.392,0.904
		c-8.449,10.33-16.901,20.658-25.689,31.397c4.97,0.821,9.358,1.536,13.662,2.708c9.658,2.628,17.261,8.376,23.968,15.494
		c1.147,1.218,1.98,2.784,2.742,4.297c1.035,2.055,0.401,3.933-1.142,5.496c-1.612,1.635-3.435,1.482-5.209,0.312
		c-1.759-1.162-3.426-2.463-5.165-3.655c-19.216-13.177-39.513-15.751-61.04-6.204c-1.375,0.61-2.761,1.198-4.134,1.813
		c-2.122,0.951-4.154,0.481-5.455-1.195c-1.411-1.818-1.064-4.031,0.277-5.897c0.634-0.883,1.484-1.654,2.356-2.318
		c5.654-4.309,11.831-7.606,18.794-9.217c1.422-0.329,2.325-1.058,3.12-2.131c8.19-11.074,16.359-22.163,24.597-33.201
		c1.303-1.746,1.763-2.475-1.016-3.18c-9.528-2.422-19.007-5.059-28.424-7.882c-3.316-0.995-6.083-0.846-9.136,0.872
		c-20.603,11.598-40.625,24.098-59.747,38.013c-5.935,4.319-11.742,8.812-17.613,13.217c-1.29,0.968-2.639,1.806-4.227,2.251
		c-4.386,1.229-6.8-0.181-7.429-4.632c-3.341-23.646,2.552-44.233,20.307-60.847c0.879-0.822,1.832-1.567,2.757-2.342
		C125.158,344.763,126.074,344.01,127.676,342.681z M210.74,348.141c1.03,0.362,2.043,0.791,3.094,1.077
		c8.911,2.422,17.925,4.381,26.949,6.344c20.674,4.498,41.368,5.534,62.22,1.504c29.117-5.628,52.685-19.967,69.938-44.34
		c14.434-20.391,20.132-43.566,21.554-68.01c1.062-18.236-1.114-36.332-3.266-54.415c-0.925-7.778-1.125-15.603-0.484-23.471
		c0.758-9.301,1.486-18.609,0.377-27.983c-3.468-29.304-34.512-49.564-65.163-40.065c-13.777,4.27-23.897,13.376-32.064,24.852
		c-9.022,12.678-15.209,26.92-22.037,40.8c-2.493,5.067-4.9,10.177-7.611,15.817c14.611-5.879,29.052-8.015,44.019-6.258
		c17.595,2.065,33.286,8.722,46.172,20.841c20.917,19.671,29.524,44.07,25.516,72.554c-2.948,20.947-12.608,38.517-28.954,51.979
		c-27.44,22.6-68.807,24.202-98.839,4.092c-14.192-9.503-24.401-22.292-30.661-38.216c-0.287-0.73-0.026-2.725-1.921-1.221
		c-3.556,2.823-7.614,4.869-11.437,7.278c-19.42,12.234-40.584,19.38-63.475,20.783c-23.15,1.42-45.419-2.716-66.655-12.17
		c-0.815-0.362-1.57-1.168-2.645-0.818c6.581,14.359,18.128,22.538,32.639,27.162c10.098,3.219,20.475,3.907,30.986,3.666
		c6.044-0.139,12.013-1.002,18.015-1.546c0.599-0.055,1.194-0.16,1.793-0.219c2.044-0.2,3.728,0.063,4.576,2.4
		c0.818,2.251-0.678,3.204-2.032,4.158c-7.556,5.327-15.436,10.181-22.726,15.897c-10.272,8.056-18.503,17.575-22.269,30.359
		c-1.02,3.465-1.848,7.001-1.949,11.039c0.734-0.479,1.069-0.674,1.379-0.903c15.829-11.758,32.225-22.681,49.155-32.775
		c9.217-5.496,18.309-11.303,28.625-14.688C199.458,344.487,205.011,346.65,210.74,348.141z M131.186,213.103
		c9.293,17.165,21.364,31.397,36.84,42.539c15.341,11.045,32.202,18.825,51.283,22.418c-4.885-16.073-4.341-31.537,0.287-46.9
		c4.601-15.272,12.67-28.464,24.681-39.27c-44.065-24.043-88.049-47.316-132.33-70.9c0,8.578,0.087,16.61-0.051,24.638
		c-0.043,2.51,1.002,3.749,3.134,4.805c12.871,6.378,25.685,12.871,38.521,19.321c1.452,0.729,2.798,1.612,3.841,2.864
		c2.027,2.432,1.172,5.235-1.878,6.082c-1.154,0.321-2.347,0.359-3.581,0.202c-6.848-0.865-13.164-3.503-19.561-5.834
		c-5.772-2.104-11.46-4.436-17.56-6.813c2.026,10.769,5.188,20.675,8.769,30.467c0.475,1.299,1.427,1.494,2.536,1.69
		c7.5,1.335,14.999,2.672,22.493,4.042c3.534,0.646,7.205,0.848,10.287,3.047c1.236,0.882,2.705,1.676,2.396,3.488
		c-0.313,1.835-1.863,2.519-3.451,2.973c-4.009,1.146-8.125,1.187-12.254,1.15C140.979,213.071,136.369,213.103,131.186,213.103z
		 M298.744,283.971c15.384-0.091,28.621-13.249,28.624-28.453c0.003-15.591-13.297-28.944-28.842-28.957
		c-15.604-0.013-29.16,13.412-29.042,28.757C269.606,271.225,282.719,284.064,298.744,283.971z M359.554,287.688
		c7.368-15.033,9.011-29.966,6.301-45.507c-0.23-1.323-0.973-1.718-2.219-1.951c-6.007-1.121-11.989-2.376-17.988-3.542
		c-3.157-0.615-6.33-1.146-10.044-1.813C344.777,252.147,351.294,269.84,359.554,287.688z M254.465,202.133
		c-12.031,10.173-19.148,22.422-22.455,36.977c-0.23,1.016-0.295,1.822,0.709,2.639c8.16,6.646,16.345,13.266,24.343,21.313
		C255.945,242.499,254.514,222.708,254.465,202.133z M360.127,226.049c-3.783-10.761-15.716-23.382-27.343-29.533
		c-2.518-1.332-4.498-1.518-6.831,0.225c-2.161,1.615-4.646,2.787-6.862,4.336c-5.309,3.711-10.332,7.781-15.432,12.42
		C322.741,217.739,341.317,221.868,360.127,226.049z M311.555,189.155c-0.268-0.168-0.564-0.497-0.903-0.548
		c-14.107-2.138-27.794-0.605-41.056,4.704c-1.475,0.591-1.808,1.561-1.744,3.047c0.229,5.319,0.293,10.646,0.511,15.965
		c0.19,4.637,0.503,9.269,0.771,14.07C283.229,213.592,297.353,201.41,311.555,189.155z M312.455,322.025
		c1.282-0.107,1.99-0.079,2.653-0.234c13.481-3.173,24.859-9.917,34.271-20.072c1.12-1.208,1.022-2.12,0.432-3.444
		c-3.347-7.506-6.595-15.056-9.947-22.559c-0.443-0.993-0.44-2.337-1.725-2.996C328.772,288.666,320.709,305.125,312.455,322.025z
		 M311.026,296.479c-18.645,2.776-36.328,7.249-54.066,11.915c0.575,1.35,1.652,1.969,2.589,2.65
		c9.551,6.959,20.365,10.586,31.985,12.156c3.493,0.473,6.021-0.271,7.22-3.925c0.399-1.216,1.255-2.28,1.873-3.43
		C304.033,309.516,307.43,303.18,311.026,296.479z M230.183,256.627c-0.011,12.538,3.241,23.474,9.135,33.659
		c3.802,6.571,3.875,6.528,11.397,5.197c0.197-0.034,0.404-0.022,0.601-0.06c7.24-1.372,14.418-2.999,21.723-5.106
		C258.764,279.096,244.745,268.075,230.183,256.627z"/>
	<path fill-rule="evenodd" clip-rule="evenodd" fill="#1A6C7A" d="M87.393,446.841c-9.349,0-18.698-0.003-28.048,0.001
		c-5.692,0.002-8.338-2.563-8.343-8.213c-0.019-18.3-0.021-36.599-0.006-54.898c0.003-4.931,2.564-7.464,7.403-7.441
		c4.563,0.021,6.95,2.568,6.954,7.498c0.011,14.88,0.062,29.762-0.056,44.642c-0.021,2.663,0.589,3.593,3.448,3.565
		c15.482-0.146,30.968-0.08,46.452-0.067c5.353,0.005,8.113,2.437,8.13,7.086c0.02,5.111-2.703,7.745-8.184,7.801
		c-4.625,0.047-9.25,0-13.875-0.002c-4.625-0.003-9.25-0.001-13.875-0.001C87.393,446.82,87.393,446.831,87.393,446.841z"/>
	<path fill-rule="evenodd" clip-rule="evenodd" fill="#1A6C7A" d="M87.364,55.73c9.458,0,18.916-0.017,28.374,0.007
		c5.134,0.013,7.797,2.843,7.579,7.956c-0.19,4.433-2.575,6.7-7.488,6.79c-5.832,0.106-11.667,0.029-17.502,0.031
		c-9.858,0.003-19.72,0.111-29.576-0.055c-2.848-0.048-3.496,0.887-3.473,3.59c0.127,14.891,0.071,29.783,0.065,44.675
		c-0.001,5.064-2.477,7.729-7.124,7.728c-4.527-0.002-7.223-2.86-7.226-7.738c-0.011-18.212-0.012-36.424,0-54.636
		c0.004-5.68,2.858-8.392,8.603-8.372c9.256,0.032,18.512,0.008,27.769,0.008C87.364,55.72,87.364,55.726,87.364,55.73z"/>
	<path fill-rule="evenodd" clip-rule="evenodd" fill="#1A6C7A" d="M418.472,55.704c9.15,0,18.301,0.008,27.452-0.003
		c5.786-0.007,8.5,2.617,8.504,8.441c0.01,18.201-0.011,36.4-0.046,54.601c-0.011,5.322-2.229,7.681-7.046,7.638
		c-4.489-0.04-6.838-2.648-6.84-7.661c-0.009-14.783-0.085-29.567,0.07-44.348c0.031-2.982-0.64-3.933-3.782-3.898
		c-15.181,0.165-30.364,0.079-45.546,0.045c-5.532-0.013-8.067-2.241-8.175-7.026c-0.119-5.271,2.327-7.763,7.653-7.767
		c9.252-0.008,18.503-0.002,27.755-0.002C418.472,55.716,418.472,55.709,418.472,55.704z"/>
	<path fill-rule="evenodd" clip-rule="evenodd" fill="#1A6C7A" d="M454.388,411.471c0,9.249,0.019,18.498-0.008,27.747
		c-0.015,4.975-2.629,7.605-7.601,7.609c-18.598,0.014-37.195,0.018-55.793-0.026c-5.875-0.014-8.853-3.692-7.829-9.46
		c0.597-3.359,3.248-5.396,7.246-5.402c15.382-0.024,30.764-0.012,46.145-0.01c3.946,0,3.949,0.003,3.949-3.841
		c0.001-14.78-0.015-29.559,0.005-44.338c0.007-5.544,4.109-8.685,9.454-7.308c2.757,0.71,4.375,2.905,4.396,6.378
		c0.055,9.55,0.019,19.101,0.019,28.65C454.376,411.471,454.381,411.471,454.388,411.471z"/>
	<path fill-rule="evenodd" clip-rule="evenodd" fill="#E49526" d="M216.463,116.813c0.03-5.373,5.046-9.993,10.801-9.948
		c4.754,0.038,9.514,4.799,9.512,9.517c-0.002,5.426-4.873,10.383-10.165,10.348C221.23,126.693,216.434,122.006,216.463,116.813z"
		/>
	<path fill-rule="evenodd" clip-rule="evenodd" fill="#E49526" d="M189.755,101.193c-0.042,4.57-4.09,8.577-8.684,8.596
		c-4.712,0.02-8.755-4.12-8.684-8.892c0.066-4.479,4.615-8.936,8.988-8.805C185.574,92.216,189.796,96.802,189.755,101.193z"/>
	<path fill-rule="evenodd" clip-rule="evenodd" fill="#E49526" d="M193.558,343.647c6.153-3.368,12.298-6.75,18.461-10.101
		c5.091-2.768,10.458-5.019,15.297-8.264c0.803-0.538,1.83-0.764,2.773-1.069c1.512-0.487,2.104,0.955,2.905,1.655
		c0.846,0.74-0.036,1.691-0.578,2.355c-6.268,7.677-14.015,13.75-21.675,19.916C205.011,346.65,199.458,344.487,193.558,343.647z"/>
	<path fill-rule="evenodd" clip-rule="evenodd" fill="#C2351E" d="M352.469,151.646c-10.254-0.046-18.868-8.763-18.704-18.928
		c0.173-10.732,8.482-19.204,18.87-19.04c9.786,0.154,18.417,7.985,18.783,19.374C371.744,143.178,362.79,151.692,352.469,151.646z"
		/>
	<path fill-rule="evenodd" clip-rule="evenodd" fill="#E49526" d="M186.357,335.406c-1.262,0.052-2.233-0.416-2.878-1.421
		c-0.677-1.055-0.38-2.118,0.254-3.096c1.332-2.049,3.24-3.517,5.176-4.918c8.432-6.104,17.432-11.191,27.167-14.919
		c0.874-0.335,1.956-1.424,2.849,0.132c0.669,1.167,0.785,2.338-0.157,3.334c-2.378,2.517-4.735,5.086-7.593,7.066
		c-7.167,4.965-13.929,10.643-22.544,13.124C187.869,334.929,187.115,335.173,186.357,335.406z"/>
	<path fill-rule="evenodd" clip-rule="evenodd" fill="#1A6C7A" d="M173.267,165.451c3.363,0.937,6.731,2.707,10.091,4.429
		c6.046,3.1,11.773,6.74,17.312,10.684c7.505,5.344,14.05,11.747,20.345,18.412c0.593,0.628,2.082,1.58,0.968,3.06
		c-1.014,1.348-2.153,0.968-3.484,0.541c-7.375-2.365-14.045-6.145-20.746-9.93c-5.53-3.124-10.94-6.422-15.981-10.262
		c-4.339-3.306-8.362-7.012-11.961-11.138c-0.963-1.104-1.545-2.311-0.706-3.821C169.958,165.891,171.345,165.548,173.267,165.451z"
		/>
	<path fill-rule="evenodd" clip-rule="evenodd" fill="#1A6C7A" d="M210.281,218.098c-8.721-0.804-17.138-2.862-25.122-6.468
		c-4.703-2.125-9.599-3.887-13.74-7.172c-1.288-1.021-2.542-2.016-1.947-3.557c0.616-1.595,2.083-2.662,4.033-2.643
		c4.72,0.045,9.31,1.034,13.92,1.883c8.19,1.51,15.719,4.718,22.794,9.018c1.754,1.066,3.416,2.375,4.852,3.835
		c0.556,0.565,1.81,1.579,1.037,2.549c-0.81,1.016-1.444,2.505-3.114,2.55C212.09,218.118,211.185,218.098,210.281,218.098z"/>
	<path fill-rule="evenodd" clip-rule="evenodd" fill="#1A6C7A" d="M177.213,239.104c-2.178,0.423-4.188-0.287-6.115-1.099
		c-2.193-0.922-2.5-2.918-0.709-4.505c3.078-2.728,6.859-3.685,10.824-4.458c2.395-0.466,5.008,0.499,7.206-1.119
		c0.218-0.16,0.594-0.204,0.876-0.162c6.113,0.905,12.286-0.985,18.41,0.465c1.826,0.432,2.954,1.64,3.387,3.007
		c0.455,1.435-1.153,2.479-2.316,3.092c-6.485,3.418-13.489,4.732-20.749,4.781c0.315-0.019,0.377-0.148,0.169-0.351
		c-0.053-0.051-0.194-0.022-0.292-0.012C184.348,239.107,180.758,238.433,177.213,239.104z"/>
	<path fill-rule="evenodd" clip-rule="evenodd" fill="#1A6C7A" d="M177.213,239.104c3.544-0.671,7.135,0.002,10.69-0.359
		c0.098-0.01,0.24-0.04,0.292,0.012c0.208,0.202,0.146,0.332-0.169,0.351C184.409,239.89,180.811,239.893,177.213,239.104z"/>
</g>
</svg>
