<svg version="1.1" id="Layer_1" xmlns="http://www.w3.org/2000/svg" xmlns:xlink="http://www.w3.org/1999/xlink" x="0px" y="0px"
	 width="500px" height="500px" viewBox="0 0 500 500" enable-background="new 0 0 500 500" xml:space="preserve">
<g>
	<path fill-rule="evenodd" clip-rule="evenodd" fill="#C2351E" d="M427.121,348.819c-2.866-4.345-6.746-7.58-11.221-10.362
		c-5.047,12.404-11.488,23.89-19.457,34.507c-0.14,0.061-0.222,0.166-0.246,0.315c0,0-0.038,0.051-0.038,0.052
		c-0.153,0.22-0.31,0.438-0.464,0.656c-0.137,0.185-0.274,0.37-0.411,0.555c-1.16,1.428-2.322,2.855-3.483,4.284l0.197,0.017
		c0,0-0.195-0.036-0.194-0.036c-0.679,0.787-1.359,1.572-2.041,2.357c-0.169,0.181-0.338,0.361-0.507,0.541
		c-0.266,0.284-0.532,0.568-0.799,0.852c0,0-0.02,0.037-0.018,0.039c-1.579,1.703-3.159,3.404-4.74,5.106
		c0,0,0.038-0.024,0.037-0.024c-0.203,0.196-0.405,0.394-0.608,0.591l0.027-0.041c-1.143,1.066-2.287,2.133-3.43,3.2
		c0,0,0.009-0.042,0.009-0.04c-0.191,0.174-0.384,0.348-0.576,0.521c0,0-0.033,0.009-0.032,0.011
		c-0.172,0.158-0.346,0.315-0.519,0.474c0,0-0.076,0.047-0.076,0.049c-0.277,0.268-0.556,0.534-0.833,0.8
		c-0.176,0.168-0.353,0.335-0.528,0.503c-0.597,0.5-1.194,1.001-1.791,1.501l0.172,0.135c0,0-0.172-0.141-0.172-0.14
		c-0.382,0.296-0.764,0.591-1.146,0.885c-0.123,0.006-0.192,0.069-0.21,0.19c-0.44,0.393-0.881,0.786-1.322,1.179l0.016,0.008
		c-0.223,0.161-0.446,0.321-0.669,0.481c0,0-0.068-0.013-0.067-0.012c-0.882,0.672-1.766,1.344-2.647,2.016
		c-0.134-0.012-0.211,0.049-0.233,0.183c-0.991,0.782-1.982,1.565-2.974,2.349l0.042-0.037c-0.547,0.393-1.092,0.784-1.64,1.176
		l0.012-0.012c-1.404,0.941-2.809,1.884-4.641,3.114c15.417,0.405,30.014,2.617,44.518,5.649c8.431,1.763,16.661,4.211,24.86,6.795
		c0,0-0.041-0.039-0.04-0.039c0.378,0.204,0.756,0.408,1.133,0.611l-0.054-0.039c0.396,0.331,0.79,0.661,1.186,0.992
		c2.597,2.517,3.308,5.596,2.707,9.068c-0.19,0.437-0.382,0.874-0.574,1.312l0.036-0.053c-0.382,0.546-0.765,1.09-1.148,1.635
		c0,0,0.047-0.031,0.047-0.03c-0.21,0.192-0.42,0.386-0.63,0.578l0.024-0.049c-3.194,2.112-6.434,2.063-10.066,0.91
		c-17.663-5.602-35.7-9.425-54.225-10.719c-1.126-0.564-2.319-0.407-3.507-0.338c-15.425-0.695-30.495,1.104-45.268,5.784
		c-15.956,5.055-32.201,8.851-48.971,10.115c-17.388,1.311-34.604,0.216-51.702-3.115c-9.15-1.782-17.991-4.771-27.057-6.868
		c-10.112-2.339-20.364-3.832-30.675-5.037c-15.451-1.807-30.81-0.785-46.097,1.382c-12.862,1.824-25.507,4.809-37.851,8.927
		c-4.119,1.374-7.653,0.856-10.524-2.594l0.014,0.015c-2.021-5.27-1.251-8.428,2.829-11.601c0.165,0.049,0.281-0.006,0.347-0.165
		c0.475-0.252,0.927-0.573,1.431-0.744c21.53-7.304,43.652-11.406,66.377-12.185c4.721-0.161,9.435-0.606,14.824-0.103
		c-2.826-1.894-5.076-3.4-7.326-4.908c-0.187-0.155-0.375-0.311-0.562-0.465c-1.291-1.002-2.583-2.003-3.874-3.006
		c-0.057-0.144-0.162-0.214-0.317-0.21c-0.447-0.371-0.894-0.742-1.341-1.112l-0.046-0.026c-0.508-0.401-1.015-0.804-1.522-1.205
		l0.017,0.019c-0.431-0.421-0.862-0.843-1.293-1.264c-0.022-0.111-0.091-0.169-0.205-0.172c-5.57-4.922-10.801-10.183-15.766-15.711
		c0,0-0.121-0.146-0.122-0.145c-0.606-0.651-1.212-1.303-1.817-1.955l0.02,0.018c-0.284-0.404-0.568-0.81-0.851-1.215l-0.126-0.158
		c-4.468-5.542-8.357-11.491-12.226-17.453c0.033-0.127-0.006-0.227-0.117-0.298c-1.787-3.344-3.574-6.687-5.361-10.03l0.012,0.027
		c-1.489-3.795-3.008-7.578-4.44-11.395c-0.259-0.689-0.653-1.009-1.26-1.281c-3.912-1.753-7.813-3.529-11.758-5.314
		c-5.758,17.414-11.372,34.809-17.279,52.102c-3.307,9.684-6.478,19.52-13.903,27.13c0,0-0.09,0.11-0.089,0.112
		c-0.158,0.16-0.317,0.32-0.476,0.479c0,0-0.061,0.055-0.06,0.055c-0.548,0.505-1.099,1.007-1.648,1.51
		c-0.277,0.29-0.195,0.514,0.129,0.694c-0.476-0.708-0.724-0.177-1.002,0.188c0,0,0.038-0.032,0.037-0.032
		c-0.231,0.16-0.461,0.319-0.692,0.479c0,0,0.027-0.056,0.027-0.055c-5.882,4.034-12.321,6.039-19.52,5.865
		c-7.527-0.183-14.16-2.73-20.317-6.837l0.021,0.021c-0.656-0.603-1.312-1.206-1.967-1.809c0,0-0.069-0.037-0.071-0.036
		c-0.167-0.173-0.333-0.348-0.5-0.522c0,0-0.062-0.1-0.063-0.1c-4.048-4.789-4.106-5.37-1.095-10.878c0,0,0.049-0.139,0.047-0.14
		c0.318-0.566,0.638-1.132,0.958-1.698c0,0-0.023,0.012-0.024,0.011c1.142-1.524,2.088-3.159,2.775-4.938
		c0,0-0.022,0.002-0.023,0.001c1.146-2.21,2.293-4.421,3.44-6.632c0.063-0.169,0.125-0.338,0.186-0.508
		c0.268-0.557,0.536-1.113,0.804-1.671l-0.034,0.028c0.186-0.39,0.371-0.779,0.557-1.169l0,0.022
		c6.511-13.051,11.124-26.782,14.644-40.903c3.646-14.631,5.619-29.511,6.633-44.534c0.708-10.481,1.265-20.976,2.207-31.435
		c2.168-24.089,6.605-47.683,17.203-69.664c5.47-11.344,12.402-21.892,20.56-31.471c9.527-11.187,16.203-23.84,21.489-37.42
		c5.499-14.125,12.69-27.24,24.171-37.552c12.724-11.427,27.501-17.517,44.716-16.041c16.715,1.435,29.591,9.843,39.206,23.432
		c0.842,1.189,1.88,2.328,2.375,3.659c2.161,5.809,7.009,7.886,12.338,9.833c6.818,2.49,13.406,5.611,20.089,8.468
		c1.008,0.431,2.272,0.839,2.32,2.069c0.052,1.341-1.186,1.96-2.261,2.491c-6.202,3.061-12.296,6.295-18.115,10.063
		c-5.617,3.638-10.016,8.056-11.328,14.92c-0.96,5.028-0.435,9.999,0.828,14.848c2.559,9.822,6.502,19.217,9.061,29.46
		c4.479-5.343,9.19-9.844,14.885-13.182c8.181-4.795,16.922-6.883,26.414-5.453c16.24,2.445,26.337,12.089,31.844,27.096
		c1.118,3.044,2.572,5.562,5.98,6.497c3.531,0.97,4.314,0.617,5.517-2.929c2.986-8.813,4.473-17.862,3.776-27.155
		c-0.545-7.271-2.747-14.009-8.453-18.967c-4.129-3.587-8.701-6.605-13.662-8.978c-1.477-0.706-2.978-1.368-4.407-2.159
		c-1.066-0.59-2.57-0.894-2.554-2.52c0.018-1.65,1.535-1.932,2.641-2.404c8.095-3.461,16.266-6.748,24.705-9.276
		c2.331-0.698,3.891-1.866,5.246-3.891c8.952-13.377,21.363-21.603,37.401-23.519c15.52-1.854,29.314,2.805,41.382,12.663
		c9.526,7.78,16.628,17.502,21.397,28.696c6.918,16.237,16.332,30.805,27.137,44.673c14.481,18.587,22.941,39.922,27.357,62.964
		c2.659,13.869,4.051,27.849,5.063,41.939c1.636,22.755,4.991,45.294,12.506,66.994c2.848,8.219,5.825,16.394,9.68,24.215
		l0.007,0.003c1.153,3.05,2.613,5.952,4.223,8.781c-0.079,0.107-0.062,0.197,0.053,0.269c1.077,2.177,2.121,4.37,3.24,6.526
		c1.136,2.186,0.914,4.147-0.73,5.987c-0.66,0.738-1.233,1.555-1.846,2.336l0.121,0.109l-0.107-0.123
		c-1.074,0.948-2.149,1.896-3.226,2.844l0.021-0.018c-8.153,5.917-17.044,7.918-26.851,5.044c-0.086-0.113-0.199-0.156-0.339-0.129
		c-1.983-0.976-3.966-1.951-5.949-2.927c0,0-0.141-0.082-0.141-0.081c-0.49-0.33-0.979-0.663-1.466-0.994
		c0,0-0.161-0.088-0.163-0.087c-0.817-0.691-1.636-1.384-2.455-2.076c-0.018-0.16-0.106-0.242-0.269-0.248
		c-0.063-0.133-0.163-0.231-0.297-0.295c-0.002-0.13-0.067-0.204-0.195-0.223c-0.263-0.229-0.523-0.458-0.784-0.688
		c-0.352-0.368-0.705-0.736-1.056-1.103c-0.191-0.199-0.382-0.398-0.572-0.597l0.043,0.04c-0.529-0.766-1.059-1.53-1.588-2.296
		c0,0,0.035,0.033,0.033,0.033c-4.815-7.925-6.776-16.91-9.54-25.602c-2.209-6.944-3.632-14.188-7.613-20.476
		c-0.017-0.162-0.053-0.322-0.106-0.476c-0.52-2.15-1.834-3.869-3.056-5.639l0.031,0.022c-0.374-0.558-0.747-1.116-1.121-1.674
		c0,0,0.029,0.014,0.028,0.014c-0.375-0.54-0.748-1.081-1.123-1.622c0,0,0,0.025-0.001,0.025c-0.235-0.349-0.469-0.698-0.703-1.047
		c-0.248-0.353-0.495-0.704-0.745-1.056C427.392,349.179,427.257,348.999,427.121,348.819z M226.126,200.541l0.057-0.056
		c-0.164,0.219-0.328,0.438-0.491,0.657v-0.001c-0.218,0.354-0.436,0.709-0.654,1.064l0.038-0.05
		c-0.832,0.768-1.318,1.74-1.665,2.796l0.034-0.038c-0.484,0.215-0.52,0.688-0.64,1.112l0.041-0.052
		c-1.033,1.319-1.701,2.828-2.281,4.384l0.03-0.021c-0.184,0.389-0.367,0.778-0.551,1.167l0.043-0.047
		c-0.42,0.873-0.841,1.746-1.26,2.619l0.007,0.141c-0.379,0.82-0.759,1.639-1.139,2.458c-0.129,0.102-0.134,0.21-0.016,0.324
		c-0.474,1.104-0.947,2.209-1.421,3.313l0.051-0.053c-0.133,0.215-0.265,0.429-0.397,0.644c-0.087,0.141-0.128,0.294-0.124,0.459
		c-0.911,1.66-1.823,3.319-2.734,4.979c-0.707,1.124-1.413,2.249-2.12,3.373c-0.347,0.543-0.694,1.087-1.042,1.63
		c-0.42,0.679-0.841,1.358-1.261,2.037c-0.255,0.308-0.51,0.615-0.765,0.923l-0.123,0.161c-0.322,0.459-0.646,0.917-0.968,1.375
		c-0.127,0.032-0.185,0.112-0.174,0.243c-0.255,0.414-0.51,0.828-0.765,1.242l0.054-0.048c-0.179,0.21-0.359,0.42-0.538,0.631
		l0.015-0.021c-0.394,0.549-0.788,1.1-1.182,1.648c-0.148,0.19-0.296,0.381-0.445,0.571c-0.382,0.54-0.763,1.079-1.146,1.618
		l0.012-0.011c-0.611,0.788-1.223,1.576-1.834,2.365c-0.131,0.028-0.189,0.109-0.173,0.243c-0.119,0.196-0.237,0.394-0.355,0.591
		l0.06-0.035c-0.159,0.233-0.317,0.467-0.476,0.701l0.027-0.038c-0.25,0.329-0.499,0.658-0.749,0.986l0.069-0.018
		c-0.165,0.235-0.33,0.47-0.495,0.705c-0.142,0.195-0.283,0.39-0.425,0.585c-0.443,0.637-0.886,1.272-1.329,1.909l0.005,0.096
		c-0.136,0.237-0.272,0.474-0.408,0.71l0.031-0.04c-0.616,0.402-0.886,1.031-1.106,1.692l0.021-0.025
		c-0.485,0.188-0.554,0.646-0.686,1.063l0.039-0.048c-0.227,0.335-0.453,0.671-0.681,1.008l0.02,0.043
		c-0.122,0.235-0.243,0.472-0.365,0.707l0.023-0.033c-2.875,4.451-5.094,9.211-6.708,14.256l0.049-0.045
		c-3.782,9.292-5.23,18.992-4.992,28.971c0.197,8.29,1.595,16.345,4.955,23.987l-0.043-0.006c0.429,1.346,0.873,2.684,1.733,3.833
		l-0.047-0.056c0.214,0.408,0.429,0.816,0.643,1.226c-0.025,0.144,0.016,0.264,0.125,0.361c0.145,0.238,0.291,0.478,0.435,0.716
		c-0.021,0.148,0.021,0.275,0.126,0.383c0.141,0.214,0.282,0.429,0.422,0.644l-0.05-0.051c0.345,0.583,0.69,1.165,1.034,1.748
		l-0.034-0.031c0.234,0.348,0.469,0.696,0.703,1.046l-0.028-0.033c0.171,0.695,0.499,1.289,1.106,1.701l-0.032-0.04
		c0.159,0.231,0.317,0.464,0.476,0.695c0,0-0.063-0.025-0.062-0.025c0.25,0.324,0.501,0.649,0.751,0.973l-0.016-0.021
		c0.174,0.221,0.347,0.44,0.521,0.661l-0.067-0.056c0.238,0.664,0.598,1.234,1.223,1.603c0.323,0.371,0.646,0.743,0.969,1.115
		c0.205,0.217,0.41,0.435,0.614,0.651l-0.075-0.057c0.198,0.206,0.396,0.412,0.595,0.619l-0.06-0.05
		c0.182,0.211,0.364,0.424,0.546,0.636l-0.037-0.022c0.188,0.197,0.377,0.394,0.567,0.59l-0.035-0.018
		c0.172,0.192,0.344,0.386,0.515,0.578l0.022,0.046c0.173,0.17,0.347,0.342,0.521,0.512l0.027,0.04
		c0.173,0.17,0.347,0.34,0.52,0.509l0.044-0.003c0.56,0.917,1.293,1.363,2.451,1.403c8.404,0.293,16.813,0.529,25.204,1.052
		c6.071,0.377,11.418-1.569,16.63-4.277c0.16,0.013,0.299-0.035,0.417-0.145c0.228-0.141,0.454-0.281,0.681-0.422
		c0.156,0.015,0.295-0.026,0.416-0.127c0.212-0.139,0.423-0.278,0.636-0.417l-0.048,0.047c1.08-0.297,2.016-0.85,2.844-1.596
		l-0.041,0.043c0.359-0.226,0.718-0.451,1.076-0.676l-0.036,0.031c0.578-0.354,1.156-0.71,1.734-1.063l-0.01,0.024
		c0.168-0.016,0.305-0.09,0.41-0.221c4.438-2.764,8.54-5.946,12.109-9.786c0.181-0.188,0.361-0.376,0.542-0.564l0.006-0.006
		c0.442-0.47,0.887-0.939,1.331-1.408l-0.016-0.022c0.91-1.029,1.821-2.06,2.731-3.09c0.113-0.022,0.17-0.091,0.171-0.206
		c0.448-0.611,0.896-1.224,1.344-1.835c0.159-0.18,0.318-0.359,0.476-0.538c0.44-0.591,0.88-1.183,1.32-1.774
		c0.15-0.03,0.221-0.122,0.21-0.275c0.242-0.418,0.484-0.835,0.727-1.253l-0.023,0.028c0.626-0.393,0.894-1.021,1.109-1.685
		c0.236-0.344,0.474-0.687,0.71-1.03c0.557-0.975,1.113-1.95,1.67-2.925c0.163-0.057,0.213-0.164,0.147-0.324
		c0.085-0.215,0.171-0.429,0.256-0.643l-0.034,0.041c0.93-1.031,1.286-2.361,1.866-3.574c0.108-0.088,0.113-0.181,0.013-0.278
		c0.566-1.346,1.133-2.691,1.699-4.036l0.102-0.201l-0.13-0.183c2.783-6.243,3.563-12.923,3.997-19.621
		c0.651-10.026-1.005-19.834-4.097-29.309c-3.607-11.059-3.232-21.836,1.029-32.534c1.913-4.804,0.669-9.207-1.21-13.611
		l0.021,0.018c-0.061-1.045-0.17-2.07-1.127-2.748l0.021,0.026c-0.11-0.416-0.003-0.941-0.568-1.127l0.023,0.028
		c-0.083-1.34-0.744-2.411-1.574-3.406l0.042,0.045c-0.133-0.417-0.188-0.882-0.679-1.071l0.017,0.017
		c-0.219-0.344-0.438-0.688-0.657-1.031c-1.447-2.134-2.969-4.2-5.228-5.574c-0.243-0.198-0.486-0.396-0.73-0.596
		c-0.188-0.148-0.376-0.297-0.564-0.445c-0.357-0.222-0.714-0.444-1.071-0.666l0.053,0.039c-0.43-0.587-1.042-0.893-1.71-1.11
		c-0.19-0.444-0.598-0.459-0.99-0.504c-7.563-3.832-15.301-4.569-23.263-1.308l-0.127-0.124l-0.167,0.064
		c-0.477,0.242-0.953,0.485-1.43,0.727l0.05-0.039c-0.418,0.219-0.837,0.438-1.255,0.658c-0.309,0.134-0.617,0.268-0.925,0.401
		c-0.58,0.353-1.16,0.706-1.739,1.058l-0.119,0.02c-0.557,0.42-1.114,0.841-1.672,1.263c-0.374,0.055-0.696,0.181-0.815,0.589
		c-0.208,0.185-0.417,0.369-0.625,0.553c-0.171,0.134-0.343,0.267-0.515,0.4c-0.22,0.21-0.44,0.421-0.66,0.631l0.048-0.081
		c-0.21,0.189-0.421,0.379-0.631,0.568l0.033-0.052c-0.567,0.553-1.133,1.105-1.701,1.657l0.154,0.15l-0.135-0.167
		c-0.183,0.204-0.367,0.409-0.55,0.614c0,0,0.046-0.044,0.046-0.043c-0.179,0.221-0.359,0.44-0.539,0.661l0.063-0.062
		c-0.192,0.213-0.384,0.426-0.576,0.639l0.03-0.044c-0.745,0.597-1.416,1.253-1.743,2.184l0.064-0.049
		c-0.169,0.226-0.339,0.451-0.508,0.677l0.023-0.033c-0.257,0.278-0.515,0.556-0.772,0.834l-0.056,0.149
		C226.353,200.094,226.239,200.318,226.126,200.541z M431.21,202.092c-0.118-0.195-0.237-0.391-0.355-0.585
		c0.014-0.109-0.03-0.183-0.133-0.222c-0.236-0.27-0.471-0.539-0.705-0.808l0.039,0.051c-0.231-0.341-0.464-0.682-0.694-1.023
		l-0.006-0.009c-0.17-0.207-0.341-0.414-0.513-0.621l0.036,0.027c-0.385-0.544-0.77-1.089-1.154-1.633
		c-0.139-0.188-0.277-0.376-0.416-0.563c-0.185-0.229-0.368-0.459-0.555-0.688l0.065-0.026c-0.793-1.038-1.587-2.077-2.381-3.115
		c-0.157-0.182-0.313-0.363-0.473-0.546c-0.275-0.418-0.551-0.836-0.828-1.254l-0.101-0.143c-0.26-0.272-0.518-0.545-0.777-0.816
		l0.022,0.028c-0.18-0.217-0.359-0.434-0.54-0.65l0.063,0.054c-0.138-0.225-0.273-0.449-0.411-0.675l-0.026-0.107
		c-0.132-0.152-0.262-0.305-0.393-0.458l-0.13-0.195c-0.248-0.262-0.495-0.523-0.743-0.785l0.035,0.044
		c-0.166-0.23-0.331-0.459-0.497-0.69l0.066,0.036c-0.251-0.324-0.501-0.648-0.752-0.973l0.004,0.004
		c-0.265-0.4-0.528-0.799-0.794-1.199l-0.094-0.105c-0.121-0.169-0.243-0.339-0.364-0.508c0.019-0.127-0.033-0.211-0.156-0.25
		c-0.226-0.264-0.453-0.528-0.679-0.792l0.034,0.046c-0.232-0.344-0.466-0.688-0.699-1.032l0.004,0.005
		c-0.248-0.418-0.494-0.836-0.742-1.254c0.012-0.111-0.037-0.183-0.144-0.214c-1.34-2.09-2.68-4.181-4.019-6.271l0.029,0.036
		c-0.104-0.222-0.207-0.445-0.311-0.667c0.047-0.109,0.016-0.19-0.089-0.243c-0.792-1.357-1.583-2.714-2.375-4.07l0.029,0.028
		c-0.026-0.171-0.088-0.329-0.184-0.474c-0.129-0.197-0.257-0.394-0.385-0.591c-0.13-0.726-0.422-1.342-1.139-1.666l0.018,0.023
		c-0.112-0.412,0.003-0.938-0.566-1.12l0.017,0.017c-0.774-2.868-2.352-5.347-3.821-7.878c0.029-0.137-0.012-0.248-0.123-0.333
		c-0.146-0.241-0.294-0.482-0.439-0.723c0.022-0.145-0.018-0.271-0.121-0.376c-0.142-0.244-0.283-0.487-0.426-0.731
		c0.024-0.145-0.017-0.266-0.123-0.366c-0.133-0.225-0.264-0.45-0.396-0.675l0.06,0.063c-0.199-0.38-0.4-0.761-0.602-1.141
		l0.042,0.043c-0.23-0.844-0.533-1.649-1.183-2.275c0.014-0.154-0.031-0.291-0.132-0.408c-0.145-0.22-0.289-0.439-0.435-0.659
		c-0.05-0.407-0.108-0.81-0.55-1.001c-0.132-0.238-0.263-0.477-0.393-0.715l0.054-0.01c-0.405-0.71-0.811-1.419-1.216-2.128
		l0.041,0.046c-0.214-0.37-0.429-0.739-0.643-1.108l0.029,0.025c-0.026-0.171-0.091-0.325-0.194-0.463
		c-3.641-6.563-7.862-12.675-13.638-17.584c-0.013-0.116-0.077-0.189-0.19-0.219l-0.127-0.077c-0.198-0.16-0.398-0.319-0.597-0.479
		l0.022,0.04c-0.229-0.165-0.46-0.33-0.688-0.494l0.05,0.035c-1.541-1.699-3.449-2.88-5.48-3.889v0.018
		c-0.844-0.883-1.993-1.246-3.043-1.777c-0.071-0.115-0.161-0.132-0.271-0.053c-7.752-4.156-16.075-4.816-24.597-3.78
		c-5.226,0.636-10.232,2.135-14.682,5.116c-0.142-0.023-0.257,0.021-0.347,0.134c-1.416,0.405-2.345,1.533-3.486,2.347l-0.147,0.092
		c-1.432,1.263-2.861,2.526-4.292,3.79l-0.081,0.055c-0.159,0.161-0.318,0.323-0.478,0.484l-0.064,0.08
		c-0.151,0.202-0.304,0.403-0.455,0.606l0.051-0.037c-0.696,0.443-1.212,1.046-1.573,1.785l0.024-0.022
		c-0.424,0.514-0.848,1.028-1.271,1.542l0.044-0.009c-0.155,0.231-0.311,0.463-0.466,0.696l0.032-0.043
		c-1.013,0.919-1.709,2.05-2.227,3.302l0.021-0.012c-1.227,1.676-2.238,3.455-2.668,5.516c0.122,0.104,0.243,0.207,0.364,0.311
		l0.001,0.105c-0.195-0.242-0.408-0.27-0.64-0.05c-1.852,3.521-2.297,7.414-2.931,11.249c-0.225,1.362,0.021,2.683,0.624,3.982
		c6.282,13.53,6.796,27.562,3.384,41.858c-1.405,5.889-3.089,11.713-4.742,17.539c-3.849,13.562-4.562,27.269-2.061,41.142
		c1.649,9.145,4.128,18.016,8.698,26.189l-0.021-0.018c1.222,2.712,2.55,5.365,4.38,7.733l-0.03-0.024
		c0.021,0.17,0.087,0.32,0.2,0.448c4.225,6.917,9.189,13.233,15.179,18.72c0.21,0.2,0.418,0.398,0.628,0.598l-0.051-0.046
		c0.198,0.196,0.397,0.394,0.598,0.589l-0.045-0.044c0.201,0.194,0.4,0.387,0.602,0.582c0.357,0.349,0.716,0.698,1.074,1.048
		c0.194,0.177,0.389,0.355,0.584,0.532c8.747,7.738,18.703,13.437,29.634,17.459c0.71,0.262,1.427,0.757,2.343,0.509
		c6.801-1.845,13.612-3.646,21.099-5.642c-5.896-2.413-11.079-4.499-16.053-7.077c-8.936-4.629-17.016-10.482-24.759-16.849
		c-0.222-0.206-0.444-0.412-0.668-0.618c-2.003-1.981-4.006-3.961-6.009-5.941c-0.194-0.209-0.389-0.418-0.582-0.626
		c-0.146-0.166-0.292-0.332-0.438-0.497c-0.646-0.789-1.292-1.578-1.937-2.367c-0.001-0.12-0.061-0.191-0.179-0.213
		c-0.419-0.432-0.836-0.863-1.254-1.295l0.021,0.02c-1.018-1.324-2.033-2.647-3.05-3.973l-0.095-0.163
		c-0.393-0.479-0.786-0.955-1.178-1.434l0.032,0.038c-0.244-0.338-0.487-0.676-0.73-1.015c-0.139-0.19-0.275-0.381-0.414-0.572
		c-0.162-0.232-0.321-0.463-0.481-0.694l0.023-0.121c-0.611-0.832-1.224-1.665-1.834-2.497l0.032,0.035
		c-1.65-2.998-3.301-5.997-4.95-8.995c0.037-0.128-0.001-0.227-0.113-0.297c-0.67-1.691-1.341-3.382-2.012-5.073l0.052,0.01
		c-0.17-0.607-0.334-1.219-0.512-1.825c-3.221-10.939-4.528-21.94-1.065-33.095c0.11-0.358,0.22-0.716,0.331-1.073
		c0.429-0.662,0.858-1.323,1.288-1.984l0.029-0.08c0.174-0.188,0.348-0.374,0.521-0.562l-0.028,0.04
		c0.338-0.232,0.675-0.464,1.013-0.695l-0.015,0.028c1.04-0.259,2.078-0.209,3.115,0.013l-0.063-0.048
		c0.296,0.237,0.594,0.476,0.89,0.714l0.082,0.065c1.207,1.515,1.389,3.285,1.376,5.145c-0.035,5.561-0.401,11.127,0.527,16.664
		c1.587,9.479,4.339,18.482,10.385,26.188l-0.003-0.001c0.242,0.632,0.511,1.246,1.114,1.63l0,0
		c0.178,0.214,0.354,0.429,0.532,0.644c0.01,0.18,0.088,0.324,0.23,0.434c0.297,0.375,0.595,0.751,0.892,1.127
		c0.161,0.186,0.319,0.37,0.48,0.556c0.187,0.216,0.374,0.433,0.56,0.648l-0.067-0.056c0.15,0.228,0.301,0.456,0.449,0.684
		l-0.027,0.029c0.259,0.3,0.521,0.6,0.781,0.899l-0.014-0.019c0.188,0.201,0.374,0.402,0.561,0.604l-0.044-0.043
		c0.186,0.214,0.37,0.427,0.556,0.642l-0.059-0.051c0.335,0.413,0.672,0.826,1.009,1.239l-0.018,0.01
		c0.157,0.186,0.313,0.369,0.471,0.554l0.072,0.108c0.123,0.142,0.249,0.282,0.373,0.424c0.003,0.111,0.06,0.18,0.167,0.205
		c0.257,0.238,0.514,0.477,0.771,0.715l-0.008-0.009c0.736,0.744,1.473,1.489,2.209,2.233c0.353,0.353,0.704,0.705,1.057,1.058
		c0.993,0.982,1.986,1.964,2.979,2.946l0.149,0.122c0.161,0.148,0.323,0.298,0.485,0.447l0.068,0.052
		c0.197,0.158,0.396,0.316,0.594,0.476l-0.025-0.038c0.224,0.171,0.446,0.343,0.671,0.516l-0.045-0.03
		c0.441,0.4,0.885,0.8,1.326,1.2c0.022,0.148,0.108,0.223,0.257,0.224c0.82,0.656,1.64,1.314,2.461,1.971
		c0.026,0.152,0.118,0.227,0.272,0.224c0.508,0.565,1.059,1.066,1.816,1.272l-0.029-0.025c0.543,0.814,1.395,1.217,2.221,1.648
		l-0.012-0.012c0.381,0.624,0.979,0.926,1.653,1.118l-0.013-0.015c2.461,2.055,5.273,3.558,8.052,5.115l0.079,0.006
		c0.787,0.456,1.573,0.912,2.358,1.368c0.07,0.115,0.168,0.156,0.298,0.124c2.703,1.674,5.493,3.174,8.486,4.273
		c0.08,0.11,0.187,0.148,0.319,0.116c1.562,1.06,3.325,1.666,5.087,2.278l-0.038-0.044c4.939,2.041,9.879,4.082,14.818,6.124
		l-0.045-0.055c0.235,0.12,0.472,0.24,0.708,0.36c0.085,0.11,0.192,0.149,0.327,0.117c0.256,0.14,0.513,0.278,0.768,0.417
		c0.104,0.105,0.228,0.146,0.374,0.122c0.241,0.145,0.483,0.289,0.726,0.435c0.094,0.109,0.21,0.15,0.35,0.123
		c2.498,1.518,4.996,3.036,7.494,4.554c0.035,0.128,0.118,0.177,0.248,0.147c0.69,0.509,1.383,1.019,2.074,1.527l0.068,0.069
		c0.842,0.697,1.683,1.395,2.523,2.093c0.02,0.106,0.084,0.164,0.191,0.173c0.353,0.316,0.706,0.632,1.057,0.948l0.032,0.024
		c0.39,0.344,0.78,0.688,1.17,1.034l-0.043-0.046c0.618,0.672,1.236,1.346,1.854,2.019c0.346,0.379,0.692,0.757,1.038,1.135
		c0.189,0.206,0.378,0.411,0.565,0.616l-0.051-0.047c0.181,0.219,0.36,0.439,0.541,0.659l-0.067-0.054
		c0.381,0.885,0.972,1.604,1.732,2.187l-0.018-0.015c0.234,0.649,0.564,1.228,1.175,1.602l-0.009-0.01
		c1.091,1.478,2.182,2.956,3.273,4.434l-0.024-0.032c0.155,0.233,0.312,0.467,0.469,0.7l-0.045,0.022
		c4.138,6.044,6.975,12.66,9.021,19.688c2.606,8.957,5.402,17.861,8.238,26.751c1.133,3.553,2.581,7.008,5.516,9.562
		c0.012,0.156,0.095,0.248,0.249,0.273c0.479,0.459,0.955,0.918,1.434,1.378c0.023,0.149,0.109,0.222,0.261,0.214
		c0.414,0.24,0.826,0.479,1.242,0.719l-0.017-0.016c4.155,3.609,11.671,4.125,17.208,1.181l-0.039,0.045
		c0.37-0.213,0.74-0.425,1.112-0.637l-0.05,0.04c0.419-0.119,0.882-0.163,1.081-0.647l-0.015,0.011
		c0.216-0.175,0.431-0.349,0.646-0.523l-0.054,0.058c0.227-0.17,0.452-0.34,0.678-0.509l0.022,0.043
		c1.399-0.75,0.179-1.323-0.132-1.958l0.041,0.052c-0.181-0.393-0.363-0.786-0.545-1.179l0.042,0.046
		c-0.204-0.378-0.408-0.756-0.61-1.134l0.042,0.053c-0.188-0.389-0.376-0.777-0.565-1.165l0.033,0.027
		c-0.098-0.203-0.197-0.407-0.295-0.612c0.062-0.118,0.037-0.214-0.072-0.289c-0.26-0.437-0.52-0.874-0.777-1.312l0.042,0.049
		c-0.19-0.387-0.38-0.772-0.571-1.157l0.037,0.028c-1.499-3.338-2.996-6.676-4.494-10.013c0.032-0.131-0.006-0.233-0.116-0.309
		c-0.36-1.594-1.079-3.037-1.859-4.456l0.103-0.159l-0.097-0.165c-10.752-25.977-15.745-53.228-17.818-81.102
		c-1.095-14.729-2.372-29.423-5.566-43.877c-2.627-11.881-6.016-23.513-11.461-34.459c0.011-0.165-0.033-0.314-0.128-0.449
		c-1.476-2.729-2.18-5.854-4.262-8.271l0.009,0.016c-0.112-0.442,0.015-0.986-0.536-1.238c0.015-0.151-0.035-0.28-0.145-0.386
		c-1.293-2.556-2.86-4.942-4.534-7.261l-0.071-0.059c-0.246-0.331-0.491-0.661-0.738-0.992l0.026,0.035
		c-0.161-0.232-0.323-0.464-0.485-0.695L431.21,202.092z M157.165,313.256c0.23-0.162,0.459-0.323,0.689-0.485l-0.025,0.061
		c0.324-0.251,0.648-0.502,0.973-0.753l-0.031,0.021c0.25-0.183,0.5-0.365,0.752-0.547c2.952-1.885,5.519-4.234,8.04-6.641
		c0.551-0.541,1.102-1.081,1.652-1.622l-0.001,0.003c0.722-0.598,1.761-0.975,1.537-2.226c-0.004-0.37-0.008-0.74-0.013-1.11
		c-0.22-9.85,0.998-19.533,3.352-29.086c0.112-0.093,0.149-0.21,0.112-0.352c1.112-3.145,2.225-6.29,3.337-9.436l-0.027,0.016
		c0.322-0.769,0.643-1.539,0.964-2.307c0.111-0.072,0.148-0.171,0.11-0.299c0.133-0.262,0.268-0.525,0.401-0.788
		c0.089-0.136,0.126-0.284,0.112-0.446c1.176-2.305,2.353-4.608,3.529-6.912l0.072-0.2c0.222-0.411,0.443-0.822,0.665-1.234
		c0.109-0.108,0.156-0.239,0.142-0.392c0.44-0.663,0.879-1.325,1.319-1.986c0.099-0.052,0.13-0.13,0.094-0.234
		c0.324-0.497,0.647-0.993,0.971-1.489l-0.01-0.093c0.133-0.237,0.266-0.474,0.399-0.71l-0.03,0.04
		c0.614-0.403,0.905-1.02,1.112-1.69l-0.022,0.027c0.75-1.101,1.5-2.203,2.25-3.305l-0.032,0.039c0.762-0.588,1.24-1.385,1.637-2.24
		l-0.019,0.019c0.306-0.387,0.611-0.773,0.917-1.159c0.949-1.285,1.898-2.57,2.847-3.854c0.229-0.342,0.459-0.685,0.688-1.026
		l-0.049,0.042c0.168-0.212,0.336-0.425,0.505-0.637l0.001-0.002c0.442-0.588,0.884-1.177,1.325-1.766
		c0.142-0.026,0.207-0.11,0.196-0.254c0.246-0.41,0.491-0.819,0.736-1.229l-0.018,0.016c0.957-0.965,1.705-2.069,2.225-3.325
		l-0.029,0.032c0.617-0.396,0.887-1.018,1.088-1.683l-0.021,0.017c0.148-0.196,0.296-0.394,0.445-0.592
		c0.106-0.109,0.153-0.241,0.137-0.395c5.32-7.474,6.535-15.646,4.586-24.546c-1.902-8.688-5.267-16.906-7.697-25.417
		c-2.258-7.912-3.921-15.868-2.515-24.201c0.667-3.951,2.269-7.634,2.897-11.573l-0.019,0.017c0.713-0.355,0.506-1.05,0.603-1.633
		l-0.045,0.03c0.148-0.22,0.296-0.439,0.443-0.659c0.11-0.083,0.147-0.193,0.111-0.326c0.683-0.468,0.385-1.234,0.563-1.855
		l-0.036,0.049c0.708-0.352,0.588-1.042,0.671-1.648l-0.059,0.048c0.437-0.3,0.446-0.759,0.429-1.211
		c-0.244-6.401-1.601-12.52-4.645-18.208l0.092-0.172l-0.113-0.159c-0.254-0.448-0.509-0.896-0.763-1.345
		c-0.06-0.396-0.071-0.816-0.517-1.016c-0.079-0.212-0.159-0.424-0.239-0.636l-0.112-0.218c-0.226-0.302-0.451-0.604-0.677-0.907
		l0.039,0.044c-0.217-0.366-0.435-0.732-0.652-1.098l0.034,0.04c-0.13-0.226-0.26-0.452-0.391-0.678l-0.036-0.151
		c-0.356-0.49-0.712-0.981-1.068-1.471l-0.043-0.122c-1.332-1.921-2.723-3.791-4.562-5.273l0.022,0.032
		c-0.197-0.197-0.395-0.395-0.592-0.593l0.033,0.021c-0.828-1.164-1.899-2.072-3.037-2.912l-0.156-0.091
		c-2.189-1.916-4.608-3.461-7.315-4.545c-0.121-0.102-0.259-0.144-0.417-0.128c-11.89-5.374-23.862-5.682-35.922-0.586l0.037-0.043
		c-2.476,0.575-4.584,1.885-6.632,3.314l0.008-0.021c-0.169,0.012-0.311,0.08-0.427,0.204c-2.039,1.1-3.87,2.489-5.591,4.031
		c-0.405,0.32-0.811,0.641-1.216,0.961c-0.116,0.003-0.186,0.063-0.208,0.178c-0.248,0.26-0.495,0.521-0.743,0.781
		c-1.415,1.136-2.717,2.382-3.796,3.85c-0.26,0.308-0.521,0.616-0.782,0.924l0.036-0.024c-0.167,0.224-0.333,0.449-0.5,0.673
		l0.065-0.063c-0.184,0.218-0.369,0.436-0.554,0.654l0.049-0.05c-0.186,0.207-0.372,0.414-0.558,0.621l0.021-0.028
		c-0.764,0.579-1.292,1.335-1.662,2.209l0.014-0.014c-0.297,0.385-0.594,0.77-0.891,1.154c-0.133,0.11-0.204,0.252-0.209,0.426
		c-0.173,0.22-0.346,0.439-0.519,0.659l0,0c-0.222,0.352-0.444,0.704-0.666,1.055l0.037-0.049c-0.807,0.779-1.299,1.748-1.69,2.779
		l0.037-0.04c-0.755,0.817-1.27,1.772-1.623,2.82l0.036-0.038c-0.145,0.204-0.289,0.407-0.434,0.611
		c-0.231,0.486-0.462,0.972-0.693,1.458c-1.216,1.735-2.101,3.636-2.813,5.622l0.043-0.042c-0.983,1.528-1.728,3.167-2.284,4.895
		l0.031,0.018c-0.934,2.205-1.867,4.409-2.8,6.613l0.035-0.039c-0.173,0.397-0.346,0.795-0.519,1.192l0.044-0.055
		c-0.5,1.135-0.999,2.269-1.5,3.404c-0.107,0.1-0.149,0.222-0.126,0.367c-0.596,1.3-1.192,2.6-1.789,3.899l0.025-0.03
		c-0.175,0.393-0.35,0.787-0.524,1.18l0.063-0.071c-0.126,0.228-0.253,0.456-0.38,0.684c-0.101,0.116-0.141,0.251-0.121,0.404
		c-0.49,0.262-0.49,0.767-0.604,1.216l0.037-0.056c-0.463,0.223-0.464,0.669-0.524,1.088c-3.843,6.975-7.821,13.86-12.772,20.139
		c-3.31,4.197-6.965,8.132-9.741,12.738c-0.255,0.285-0.51,0.569-0.766,0.854l-0.162,0.192c-0.165,0.253-0.33,0.506-0.495,0.759
		c-0.131,0.115-0.2,0.261-0.207,0.436c-0.612,0.411-0.987,0.988-1.185,1.689l0.033-0.038c-0.577,0.425-0.977,0.972-1.149,1.674
		l0.039-0.042c-0.568,0.443-0.929,1.018-1.1,1.715l0.037-0.041c-0.838,0.745-1.325,1.717-1.763,2.722l0.034-0.034
		c-0.223,0.336-0.446,0.673-0.669,1.009l0.015,0.049c-0.122,0.235-0.245,0.47-0.367,0.705l0.027-0.036
		c-0.431,0.644-0.862,1.286-1.293,1.93l-0.054,0.203c-0.43,0.776-0.86,1.552-1.29,2.327c-0.112,0.088-0.155,0.201-0.128,0.341
		c-0.216,0.412-0.433,0.824-0.648,1.235l0.04-0.062c-0.204,0.377-0.409,0.754-0.614,1.131l0.064-0.066
		c-0.13,0.237-0.26,0.475-0.391,0.711c-0.114,0.042-0.148,0.119-0.104,0.232c-0.389,0.8-0.778,1.599-1.167,2.398l0.026-0.007
		c-1.02,1.525-1.709,3.203-2.28,4.937l0.043-0.014c-0.489,1.063-1.042,2.101-1.458,3.191c-8.712,22.832-12.371,46.61-13.237,70.909
		c-0.116,0.95-0.232,1.9-0.348,2.851c-1.632,30.238-5.996,59.949-17.057,88.367c-0.108,0.11-0.147,0.24-0.114,0.392
		c-0.824,1.384-1.337,2.888-1.732,4.438c-3.397,7.595-6.958,15.11-10.974,22.401c-1.938,2.789-1.94,2.795,0.978,4.178
		c0.557,0.265,1.144,0.465,1.717,0.695l-0.015-0.03c0.495,0.227,0.99,0.451,1.485,0.677l0.15,0.032l0.088-0.126
		c4.947,2.035,9.949,2.21,15.008,0.442l-0.043,0.051c0.999-0.218,1.992-0.451,2.773-1.181l-0.041,0.04
		c1.08-0.311,2.043-0.813,2.772-1.697l-0.036,0.026c0.23-0.164,0.459-0.33,0.689-0.494l-0.031,0.063
		c0.903-0.383,1.563-1.044,2.101-1.842c0.17-0.169,0.34-0.338,0.51-0.508c0.785-0.559,1.432-1.234,1.821-2.132l-0.125-0.09
		l0.106,0.112c0.661-0.676,1.274-1.384,1.543-2.321c0.673-1.296,1.347-2.593,2.02-3.889c0.372-0.925,0.743-1.849,1.114-2.774
		c-0.011-0.248-0.021-0.497-0.031-0.745l0.009-0.068l0.09-0.088c2.681-5.344,4.269-11.097,6.153-16.729
		c2.351-7.029,4.97-13.979,6.631-21.226l-0.049,0.039c0.517-1.328,1.086-2.639,1.542-3.988c2.956-8.761,5.368-17.705,8.897-26.271
		c0.164-0.15,0.329-0.301,0.493-0.451c1.805-0.812,3.61-1.624,5.415-2.436c12.264-4.353,24.192-9.484,35.466-15.996
		c11.019-6.364,21.335-13.7,29.948-23.202c0.552-0.609,1.105-1.22,1.657-1.829c0.165-0.173,0.33-0.346,0.494-0.52
		c0.437-0.47,0.873-0.941,1.31-1.412l0.005-0.081c0.158-0.222,0.315-0.443,0.474-0.666l-0.028,0.044
		c0.578-0.646,1.157-1.29,1.736-1.937l0.141-0.193c0.133-0.195,0.266-0.391,0.399-0.586l-0.048,0.024
		c0.165-0.229,0.33-0.457,0.494-0.686l-0.056,0.056c0.178-0.214,0.355-0.429,0.533-0.643l-0.013,0.021
		c1.741-2.02,3.289-4.173,4.495-6.559l-0.039,0.04c2.646-3.576,4.452-7.602,6.24-11.638c0.183-0.14,0.204-0.301,0.066-0.483
		c8.164-18.523,9.956-37.58,4.639-57.181c-0.634-2.336-0.822-4.433,0.549-6.503l-0.032,0.021c0.214-0.184,0.428-0.368,0.642-0.552
		l-0.056,0.07c1.126-0.307,2.249-0.562,3.339,0.12c0.022,0.125,0.098,0.188,0.226,0.185c0.102,0.157,0.237,0.275,0.404,0.356
		l0.102,0.086c0.153,0.151,0.305,0.302,0.459,0.454l0.089,0.12c0.425,0.454,0.849,0.907,1.273,1.361l-0.022-0.021
		c7.076,13.117,8.409,27.098,6.392,41.63c-0.993,7.152-3.144,13.977-5.404,20.785l0.046-0.041c-1.116,2.562-2.231,5.122-3.347,7.685
		l0.046-0.032c-0.118,0.236-0.236,0.473-0.354,0.71c-0.114,0.066-0.153,0.164-0.118,0.291c-0.213,0.434-0.425,0.866-0.638,1.299
		l0.041-0.067c-0.191,0.389-0.384,0.776-0.575,1.166l0.044-0.058c-0.212,0.374-0.423,0.747-0.635,1.119l0.039-0.046
		c-0.408,0.669-0.815,1.337-1.223,2.006l-0.039,0.212c-0.522,0.867-1.044,1.735-1.566,2.603l0.024,0.069
		c-0.131,0.239-0.263,0.479-0.396,0.717l0.021-0.028c-0.228,0.355-0.456,0.71-0.683,1.065l0.04-0.049
		c-0.534,0.469-0.908,1.035-1.066,1.734l0.035-0.039c-0.265,0.373-0.529,0.747-0.793,1.121
		c-7.73,11.124-17.489,20.224-28.229,28.358c-8.271,6.267-17.233,11.388-26.435,16.123c-1.222,0.281-2.31,0.851-3.333,1.557
		l0.031-0.042c-1.177,0.435-2.34,0.915-3.538,1.283c-0.596,0.184-1.366,0.378-1.352,0.948c0.019,0.775,0.985,0.593,1.52,0.866
		l0.027-0.008c0.382,0.194,0.763,0.39,1.145,0.583l-0.046-0.04c0.373,0.203,0.745,0.407,1.118,0.609l-0.049-0.051
		c0.24,0.116,0.48,0.231,0.721,0.347l0.101,0.111l0.15-0.006c0.281,0.146,0.562,0.291,0.844,0.438
		c0.068,0.113,0.167,0.152,0.295,0.115c0.617,0.776,1.459,1.068,2.41,1.133l-0.045-0.039c1.156,0.843,2.442,1.403,3.819,1.768
		l-0.02-0.042c0.963,0.462,1.888,1.046,2.897,1.36c1.865,0.579,3.559,2.205,5.6,1.631c3.533-0.992,7.141-1.828,10.433-3.552
		l-0.022,0.047c1.914-0.542,3.789-1.182,5.515-2.194l0.003,0.021c1.73-0.623,3.464-1.24,4.968-2.344
		c0.149,0.021,0.279-0.02,0.389-0.123c0.225-0.132,0.451-0.263,0.676-0.394l-0.064,0.061c0.387-0.19,0.774-0.382,1.161-0.572
		l-0.031,0.034c0.208-0.105,0.415-0.212,0.624-0.318l0.246-0.064c0.431-0.275,0.863-0.551,1.295-0.826l-0.034,0.028
		c1.12-0.297,2.082-0.873,2.928-1.654c0.139,0.026,0.251-0.018,0.335-0.132c0.211-0.146,0.422-0.294,0.633-0.44l-0.043,0.045
		c0.693-0.168,1.279-0.51,1.729-1.071l-0.038,0.037c1.015-0.413,1.937-0.968,2.698-1.768l-0.006,0.006
		c0.546-0.372,1.092-0.745,1.638-1.117l-0.009,0.006c0.216-0.171,0.432-0.343,0.648-0.514L157.165,313.256z M322.987,313.08
		c-0.203-0.266-0.404-0.533-0.607-0.799c-0.458-1.036-1.3-1.751-2.099-2.502c-0.412-0.544-0.823-1.088-1.236-1.633
		c-0.163-0.181-0.326-0.361-0.49-0.542c-1.098-1.484-2.196-2.97-3.294-4.454l0.036,0.039c-0.741-1.112-1.482-2.225-2.223-3.337
		l0.035,0.039c-0.569-0.919-1.139-1.838-1.708-2.758l0.018,0.018c-0.688-1.28-1.36-2.569-2.068-3.839
		c-6.532-11.715-10.488-24.356-12.165-37.551c-1.414-11.132-1.324-22.4,0.902-33.72c-2.15,0.832-4.132,1.487-5.013,3.671
		l-0.021,0.016c-2.302,2.593-2.85,5.806-3.085,9.079c-0.423,5.837,1.3,11.34,2.946,16.813c3.979,13.223,4.694,26.615,2.582,40.227
		c-0.936,6.034-3.021,11.71-4.972,17.44c-0.105,0.097-0.146,0.216-0.119,0.357c-1.092,2.247-2.184,4.492-3.274,6.739l0.02-0.017
		c-0.137,0.196-0.272,0.392-0.408,0.587c-0.245,0.481-0.489,0.962-0.733,1.443c-0.717,1.149-1.434,2.299-2.15,3.448
		c-1.081,1.486-2.163,2.974-3.245,4.461c-0.13,0.037-0.214,0.121-0.25,0.252l-0.046,0.103c-0.474,0.604-0.947,1.207-1.42,1.811
		c-0.17,0.188-0.34,0.375-0.51,0.562c-0.26,0.31-0.521,0.619-0.781,0.929l-0.012-0.021c-1.045,1.151-2.091,2.304-3.136,3.456
		c-0.718,0.695-1.436,1.39-2.152,2.085c-0.213,0.209-0.426,0.419-0.639,0.627l0.029-0.064c-0.891,0.763-1.783,1.526-2.675,2.289
		l0.003-0.003c-0.791,0.607-1.583,1.216-2.374,1.822c-0.139-0.014-0.223,0.046-0.252,0.182c-0.578,0.442-1.156,0.886-1.733,1.328
		c-0.191,0.154-0.385,0.308-0.576,0.462c-1.353,0.823-2.706,1.646-4.059,2.47c31.197-0.301,62.111-2.693,92.785-8.453
		c-1.664-0.616-2.877-2.013-4.668-2.191l-0.003-0.001c-0.449-0.94-1.429-1.125-2.229-1.564c-0.079-0.112-0.186-0.153-0.319-0.123
		c-0.389-0.242-0.776-0.483-1.162-0.726l0.033,0.035c-0.236-0.138-0.473-0.277-0.708-0.417l0.034,0.025
		c-0.396-0.613-1.021-0.877-1.675-1.101l0.016,0.018c-0.342-0.239-0.687-0.48-1.03-0.72l0.056,0.067
		c-0.232-0.161-0.464-0.322-0.695-0.484l0.036,0.028c-0.39-0.632-0.971-1.007-1.662-1.235c-0.177-0.129-0.353-0.257-0.529-0.386
		c-0.284-0.265-0.568-0.529-0.853-0.795l-0.126-0.104c-1.297-1.04-2.597-2.08-3.894-3.12l0.051,0.058
		c-0.213-0.189-0.426-0.38-0.637-0.571l0.057,0.068c-0.222-0.19-0.443-0.38-0.665-0.569c-0.733-0.698-1.467-1.396-2.198-2.095
		c-0.244-0.26-0.484-0.521-0.727-0.78c-0.021-0.121-0.092-0.183-0.213-0.187c-0.08-0.146-0.192-0.258-0.34-0.334
		c-0.01-0.122-0.077-0.188-0.199-0.197c-0.073-0.147-0.183-0.26-0.327-0.341c-0.002-0.12-0.063-0.192-0.184-0.213
		c-0.259-0.236-0.518-0.473-0.776-0.709c-1.248-1.282-2.497-2.563-3.746-3.846c-0.204-0.209-0.409-0.417-0.613-0.625L322.987,313.08
		z M169.558,318.517l0.051-0.07c-0.212,0.192-0.424,0.383-0.636,0.574l0.043-0.063c-0.205,0.143-0.41,0.283-0.614,0.426
		l-0.117,0.056c-0.277,0.265-0.554,0.529-0.832,0.794c-0.18,0.139-0.36,0.277-0.54,0.416c-0.539,0.413-1.076,0.827-1.614,1.241
		c-0.355,0.248-0.71,0.496-1.065,0.745c-0.259,0.175-0.517,0.35-0.776,0.524l-0.186,0.158c-0.799,0.612-1.597,1.225-2.396,1.837
		l0.012-0.014c-0.639,0.242-1.277,0.484-1.665,1.104l0.012-0.013c-1.321,0.79-2.642,1.579-3.962,2.369
		c-0.152-0.025-0.251,0.035-0.299,0.183c-0.627,0.377-1.253,0.754-1.88,1.131l-0.037-0.011c-4.485,2.094-8.873,4.405-14.106,6.136
		c15.767,3.376,31.194,5.213,46.735,6.519c-0.111-1.024-0.983-1.46-1.588-2.092l-0.091,0.104l0.1-0.095
		c-0.204-0.158-0.408-0.316-0.613-0.475c-2.873-5.096-6.017-10.048-8.198-15.511c-0.767-2.585-1.454-5.198-2.326-7.747
		c-0.71-2.073-1.086,0.044-1.621,0.214c-0.374,0.336-0.747,0.672-1.121,1.007C170.006,318.148,169.782,318.333,169.558,318.517z
		 M372.338,380.129l-0.038,0.04c0.194-0.196,0.388-0.393,0.582-0.589l-0.033,0.034c0.196-0.192,0.395-0.386,0.592-0.578l-0.038,0.04
		c0.196-0.196,0.394-0.392,0.592-0.587l-0.044,0.043c0.201-0.199,0.402-0.398,0.604-0.598c1.442-1.457,2.884-2.915,4.327-4.372
		c0.192-0.209,0.385-0.417,0.579-0.625c3.986-4.091,7.551-8.529,10.878-13.165c0.237-0.345,0.475-0.689,0.714-1.034
		c0.147-0.191,0.296-0.383,0.443-0.574c0.91-0.985,1.76-2.013,2.269-3.274l-0.029,0.033c0.63-0.386,0.965-0.975,1.145-1.67
		l-0.033,0.037c0.616-0.399,0.938-1,1.136-1.682l-0.034,0.039c1.158-1.334,2.107-2.797,2.76-4.444l-0.033,0.039
		c0.487-0.215,0.506-0.694,0.631-1.115l-0.039,0.05c1.621-2.239,2.765-4.696,3.68-7.478c-13.68,4.166-27.253,7.319-41.042,9.755
		c-14.24,2.516-28.556,4.326-42.918,5.765c-12.246,1.229-24.545,1.912-36.854,2.442c-26.964,1.163-53.911,0.923-80.857-0.307
		c-4.1-0.188-8.277,0.023-12.276-0.555c-6.372-0.921-12.789-1.157-19.162-1.961c-9.747-1.231-19.495-2.422-29.162-4.185
		c-10.77-1.963-21.38-4.575-32.261-8.51c1.206,1.996,2.12,3.508,3.033,5.02l-0.032-0.033c0.364,1.047,0.879,2.003,1.675,2.79
		l-0.044-0.05c0.221,0.356,0.441,0.713,0.662,1.069l-0.007-0.009c0.362,0.558,0.725,1.115,1.087,1.674l-0.009-0.011
		c0.239,0.64,0.501,1.266,1.109,1.66l-0.014-0.016c0.223,0.651,0.531,1.244,1.122,1.645l-0.009-0.014c0.17,0.22,0.34,0.44,0.51,0.66
		l-0.067-0.053c0.199,0.744,0.638,1.317,1.255,1.766c-0.014,0.172,0.065,0.273,0.234,0.304c0.928,1.689,2.077,3.215,3.429,4.589
		l0.095-0.102l-0.115,0.078c0.141,0.212,0.281,0.424,0.421,0.637l0.077,0.152c1.489,1.759,2.979,3.516,4.468,5.273l-0.021-0.033
		c0.168,0.217,0.337,0.436,0.505,0.651l-0.037,0.002c0.262,0.302,0.523,0.604,0.784,0.906l-0.005-0.006
		c0.721,0.75,1.443,1.5,2.165,2.25l-0.029-0.038c0.194,0.207,0.389,0.414,0.583,0.62l-0.058-0.055
		c0.198,0.206,0.396,0.412,0.594,0.618l-0.061-0.057c0.193,0.213,0.387,0.425,0.581,0.638l-0.065-0.061
		c1.073,1.506,2.384,2.781,3.838,3.915l-0.017-0.044c0.203,0.202,0.405,0.404,0.607,0.607l-0.045-0.013
		c1.756,1.663,3.512,3.327,5.267,4.99l0.165,0.113c1.642,1.447,3.145,3.066,5.064,4.178c0,0-0.025-0.047-0.026-0.047
		c0.216,0.18,0.433,0.359,0.648,0.54l-0.028-0.019c0.483,0.427,0.966,0.853,1.448,1.28l0.061,0.034c0.67,0.54,1.34,1.079,2.011,1.62
		l0.179,0.1c0.217,0.129,0.434,0.257,0.649,0.385c0,0-0.035-0.026-0.034-0.028c0.213,0.173,0.426,0.346,0.639,0.52
		c0.186,0.149,0.372,0.299,0.557,0.448c0.378,0.628,0.997,0.933,1.634,1.211c0.19,0.144,0.379,0.288,0.569,0.432
		c0.546,0.381,1.091,0.763,1.638,1.145l-0.019-0.018c0.956,0.955,2.063,1.688,3.299,2.229l-0.019-0.021
		c1.861,1.544,3.92,2.774,6.09,3.826l-0.019-0.017c0.191,0.141,0.381,0.279,0.572,0.42c0.128,0.106,0.273,0.158,0.439,0.157
		c0.377,0.229,0.755,0.459,1.132,0.688l-0.05-0.039c5.804,3.609,11.862,6.708,18.256,9.138c0.093,0.109,0.209,0.151,0.352,0.127
		c2.449,0.992,4.898,1.986,7.346,2.979l0.23,0.143l0.256-0.088c16.547,6.262,33.729,9.323,51.354,10.003
		c11.775,0.453,23.524-0.054,35.206-1.657c8.258-1.132,16.465-2.548,24.424-5.126l0.121,0.084l0.136-0.058
		c7.851-2.183,15.561-4.755,22.874-8.402l-0.016,0.028c1.142-0.508,2.283-1.014,3.425-1.521c0.159-0.213,0.317-0.426,0.477-0.639
		l0.091-0.036l-0.062,0.022c0.423,0.585,0.7,0.21,0.979-0.148l-0.026,0.017c0.439-0.083,0.915-0.094,1.141-0.587
		c0.162,0.001,0.311-0.043,0.446-0.135c1.148-0.627,2.299-1.254,3.449-1.88l0.027,0.022c0.733-0.424,1.467-0.849,2.202-1.273
		c0.146,0.021,0.27-0.023,0.367-0.136c0.217-0.147,0.435-0.295,0.651-0.442c0.166,0.003,0.313-0.049,0.438-0.158
		c0.911-0.529,1.822-1.058,2.733-1.588c2.901-1.597,5.685-3.371,8.302-5.405c0.802-0.447,1.656-0.823,2.209-1.614l-0.017,0.017
		c1.098-0.503,2.029-1.228,2.842-2.111l-0.044,0.036c0.337-0.241,0.674-0.48,1.011-0.721l0.001-0.001
		c0.923-0.728,1.845-1.455,2.768-2.183l-0.012,0.01c1.844-1.232,3.535-2.65,5.073-4.249l-0.078-0.138l0.054,0.148
		c0.213-0.173,0.424-0.346,0.636-0.519l0.012,0.025c0.485-0.44,0.971-0.882,1.456-1.323c0.728-0.716,1.453-1.432,2.181-2.146
		C371.947,380.523,372.143,380.326,372.338,380.129z"/>
	<path fill-rule="evenodd" clip-rule="evenodd" fill="#E49526" d="M367.673,423.383c-1.183,0.01-2.374,0.103-3.51-0.338
		C365.354,422.976,366.547,422.818,367.673,423.383z"/>
	<path fill-rule="evenodd" clip-rule="evenodd" fill="#1A6C7A" d="M82.451,286.231c-3.754,5.542-8.6,10.098-13.348,14.737
		c-0.84,0.822-1.745,1.636-2.759,2.207c-1.734,0.976-3.377,0.597-4.617-0.953c-1.189-1.486-1.054-3.114,0.145-4.482
		c1.438-1.642,3.095-3.091,4.6-4.676c6.648-7,7.338-16.236,1.834-24.063c-1.358-1.932-2.686-3.885-4.028-5.829
		c-0.157-0.192-0.315-0.386-0.472-0.579l0.022,0.022c-0.1-0.393-0.2-0.785-0.299-1.178c0,0,0.016-0.123,0.014-0.123
		c-0.467-1.296-0.362-2.584,0.053-3.868c0,0,0.002-0.189,0-0.191c0.163-0.306,0.326-0.61,0.489-0.917c0,0-0.029-0.107-0.03-0.109
		c0.132-0.229,0.265-0.459,0.397-0.688c0.334-0.362,0.668-0.724,1.001-1.087c0.213-0.187,0.425-0.374,0.638-0.562
		c0.169,0,0.316-0.059,0.439-0.175c2.13-1.151,4.314-1.192,6.541-0.311l-0.042-0.038c0.373,0.239,0.745,0.478,1.118,0.718
		c0.544,0.479,1.088,0.96,1.631,1.439c0.191,0.229,0.382,0.457,0.572,0.687c4.699,7.269,2.796,15.035,1.482,23.364
		c3.285-4.314,6.725-7.788,8.729-12.159c1.778-3.876,0.795-8.063-0.071-12.064c-1.044-4.824-3.297-9.214-5.419-13.614
		c-5.129-10.637-2.71-20.696,2.192-30.545c1.123-2.257,2.603-2.29,4.998-0.563c8.715,6.287,12.884,14.778,12.492,25.557
		c-0.182,4.978-1.282,9.705-3.133,14.296c-0.368,0.914-0.619,1.875-0.924,2.815c0.001-0.001-0.063,0.084-0.063,0.084l0.08-0.067
		c2.571-4.226,5.272-8.379,7.22-12.953c0.221-0.415,0.442-0.829,0.664-1.243c0,0-0.044,0.055-0.044,0.054
		c0.227-0.393,0.455-0.784,0.684-1.177c0.084-0.217,0.168-0.434,0.252-0.65c0.272-0.479,0.544-0.955,0.816-1.433
		c0,0-0.037-0.031-0.037-0.031c0.509-1.132,1.02-2.263,1.53-3.395l-0.034,0.036c0.709-0.803,0.994-1.767,1.062-2.813l-0.013,0.015
		c0.657-0.263,0.505-0.983,0.818-1.44c0,0-0.021-0.114-0.023-0.114c0.208-0.47,0.417-0.938,0.627-1.407l0.063-0.176
		c0,0-0.134-0.129-0.135-0.129c0.389-0.986,0.78-1.974,1.169-2.961l0.059-0.222c0,0-0.194-0.124-0.193-0.124
		c1.327-2.715,1.867-5.7,1.889-8.606c0.06-8.02,0.125-16.007,2.371-23.797l-0.033,0.039c1.04-2.033,2.08-4.066,3.12-6.1
		c0.121-0.121,0.179-0.266,0.177-0.435c0.244-0.354,0.488-0.708,0.732-1.061c0,0-0.067,0.038-0.067,0.037
		c0.164-0.232,0.327-0.464,0.49-0.696c4.012-5.074,8.716-9.433,13.941-13.213c2.81-2.034,4.528-1.781,6.516,0.607
		c0.098,0.995,0.245,1.988,0.285,2.985c0.29,7.134-0.264,14.178-2.329,21.053c0,0,0.043-0.053,0.044-0.052
		c-0.379,0.925-0.759,1.85-1.138,2.775c0,0,0.049-0.045,0.049-0.044c-0.134,0.22-0.268,0.44-0.402,0.66
		c-0.117,0.08-0.161,0.189-0.131,0.327c-0.154,0.26-0.308,0.52-0.462,0.779l-0.008,0.016c-0.218,0.348-0.436,0.695-0.652,1.043
		l0.034-0.044c-0.251,0.295-0.503,0.591-0.753,0.886c0,0-0.039,0.079-0.037,0.08c-0.144,0.213-0.289,0.425-0.434,0.637l0.062-0.049
		c-0.175,0.226-0.35,0.449-0.525,0.674c0,0,0.055-0.053,0.055-0.053c-0.192,0.207-0.384,0.413-0.577,0.62
		c-0.346,0.36-0.692,0.722-1.038,1.081c-0.374,0.373-0.747,0.745-1.121,1.117l0.02-0.017c-0.193,0.19-0.387,0.38-0.58,0.569
		c0,0,0.028-0.027,0.028-0.026c-0.2,0.188-0.399,0.376-0.599,0.564c0,0,0.039-0.039,0.038-0.038
		c-0.206,0.188-0.412,0.379-0.618,0.567c0,0,0.058-0.052,0.058-0.051c-0.223,0.199-0.445,0.398-0.667,0.598
		c-4.256,3.335-7.975,6.978-9.315,12.574c-0.877,3.667-2.354,7.189-3.562,10.777c-0.305,0.37-1.034,0.775-0.468,1.225
		c0.496,0.394,0.775-0.365,1.061-0.738c4.911-4.216,9.778-8.481,14.747-12.629c3.162-2.638,6.658-4.677,10.82-5.429
		c5.233-0.945,8.519,2.411,7.363,7.537c-0.99,4.39-3.776,7.382-7.352,9.771c-4.896,3.271-10.553,4.705-16.098,6.276
		c-8.881,2.518-16.17,6.89-20.338,15.532c-1.02,2.112-2.422,4.041-3.649,6.054c-1.261,1.762-2.523,3.523-3.784,5.285
		c0.107,0.071,0.215,0.142,0.323,0.212c1.526-1.42,3.052-2.84,4.577-4.26l0.032-0.021c0.587-0.506,1.175-1.014,1.762-1.521
		l-0.043,0.031c0.221-0.178,0.441-0.355,0.663-0.533l-0.036,0.059c0.204-0.129,0.409-0.255,0.613-0.381c0,0,0.156-0.087,0.155-0.089
		c0.284-0.26,0.568-0.519,0.853-0.777c0.327-0.21,0.654-0.418,0.981-0.627c0.21-0.158,0.42-0.316,0.631-0.474l-0.042,0.038
		c0.236-0.146,0.471-0.292,0.707-0.438c0,0-0.035,0.052-0.035,0.051c0.368-0.243,0.737-0.484,1.105-0.727
		c0.156,0.017,0.283-0.036,0.383-0.155c0.932-0.506,1.863-1.011,2.794-1.516l-0.024,0.017c0.223-0.078,0.446-0.156,0.669-0.234
		c0.1,0.055,0.183,0.037,0.249-0.056c0.808-0.363,1.616-0.727,2.425-1.09c0.089,0.117,0.186,0.124,0.29,0.02
		c7.045-2.091,14.096-2.263,21.153-0.06c0,0,0.197,0.15,0.197,0.15c0.258,0.229,0.515,0.459,0.772,0.688l-0.01-0.012
		c0.593,1.25,0.292,2.445-0.225,3.626c0,0-0.048,0.052-0.047,0.053c-0.231,0.416-0.464,0.831-0.697,1.247
		c-0.114,0.118-0.165,0.258-0.155,0.421c-0.242,0.365-0.483,0.728-0.725,1.092c0,0,0.078-0.058,0.078-0.057
		c-0.174,0.23-0.348,0.461-0.522,0.691c-0.319,0.405-0.638,0.809-0.957,1.213c-0.232,0.323-0.465,0.646-0.698,0.968l0.062-0.058
		c-0.182,0.213-0.363,0.427-0.544,0.641l0.034-0.034c-0.184,0.198-0.368,0.396-0.551,0.595l0.011-0.014
		c-0.265,0.247-0.53,0.493-0.795,0.738c0,0-0.122,0.166-0.121,0.167c-0.139,0.164-0.278,0.325-0.417,0.486
		c0,0-0.036,0.037-0.035,0.038c-0.35,0.345-0.701,0.688-1.052,1.031c0,0-0.062,0.076-0.061,0.077
		c-0.161,0.185-0.323,0.367-0.485,0.55l0.16,0.023c0,0-0.163-0.033-0.162-0.032c-0.179,0.155-0.358,0.31-0.538,0.463
		c0,0-0.1,0.065-0.1,0.066c-0.263,0.268-0.527,0.535-0.792,0.803c-0.369,0.338-0.737,0.676-1.106,1.014
		c-0.232,0.193-0.466,0.387-0.699,0.581c-0.84,0.32-1.487,0.894-2.059,1.566c-0.574,0.373-1.149,0.747-1.723,1.12
		c0,0,0.056-0.041,0.056-0.039c-0.408,0.213-0.814,0.426-1.222,0.639c-0.145-0.026-0.265,0.018-0.358,0.131
		c-1.133,0.489-2.267,0.979-3.401,1.467c0,0,0.038-0.037,0.038-0.036c-3.434,0.936-6.942,1.14-10.483,1.389
		c-4.813,0.337-9.838-0.207-14.286,2.412c0,0-0.013-0.043-0.013-0.041c-0.794,0.312-1.62,0.57-2.178,1.283
		c-0.162-0.009-0.3,0.043-0.415,0.158c-0.423,0.308-0.847,0.617-1.27,0.925c-0.31,0.207-0.619,0.412-0.928,0.619
		c-0.207,0.169-0.412,0.338-0.619,0.506c0,0,0.038-0.035,0.038-0.035c-0.227,0.167-0.454,0.334-0.681,0.501
		c0,0,0.056-0.066,0.056-0.065c-0.325,0.248-0.649,0.494-0.974,0.74l-0.012,0.009c-0.199,0.173-0.399,0.346-0.598,0.519
		c-0.178,0.162-0.355,0.323-0.533,0.484c-0.198,0.199-0.396,0.397-0.594,0.598c0,0,0.041-0.043,0.041-0.042
		c-0.206,0.19-0.411,0.382-0.617,0.572c0,0,0.051-0.051,0.051-0.051c-0.192,0.204-0.384,0.409-0.576,0.614
		c0,0,0.041-0.042,0.041-0.041c-0.201,0.193-0.402,0.389-0.603,0.583l0.047-0.047c-0.194,0.2-0.388,0.4-0.582,0.601l0.037-0.038
		c-0.194,0.197-0.389,0.393-0.583,0.59c0,0,0.038-0.038,0.038-0.037c-0.192,0.197-0.384,0.396-0.576,0.594l0.033-0.035
		C82.793,285.824,82.622,286.027,82.451,286.231z"/>
	<path fill-rule="evenodd" clip-rule="evenodd" fill="#C2351E" d="M170.835,126.035c-6.337-0.027-11.062-4.883-11.037-11.344
		c0.026-6.212,4.931-11.206,11.012-11.21c6.059-0.004,11.369,5.289,11.357,11.32C182.156,120.984,177.034,126.061,170.835,126.035z"
		/>
	<path fill-rule="evenodd" clip-rule="evenodd" fill="#1A6C7A" d="M101.082,189.154c0.181,0.163,0.362,0.326,0.544,0.489
		c0.337,0.404,0.674,0.809,1.01,1.213c0,0-0.04-0.052-0.039-0.052c0.2,0.38,0.4,0.76,0.6,1.14l-0.042-0.044
		c1.751,5.892,3.157,11.85,3.43,18.022l-0.267,0.054l-0.271-0.027c-0.182-0.147-0.363-0.295-0.545-0.442
		c-3.043-2.33-6.089-4.656-9.126-6.994c-1.164-0.896-2.155-1.943-2.987-3.177c-1.747-2.589-2.528-5.28-0.737-8.104
		c1.805-2.844,4.495-3.507,7.648-2.629C100.561,188.786,100.821,188.97,101.082,189.154z"/>
	<path fill-rule="evenodd" clip-rule="evenodd" fill="#1A6C7A" d="M422.652,279.116c0-0.377,0-0.755,0.001-1.133
		c0.336-2.085,0.671-4.17,1.008-6.256c0,0-0.013-0.222-0.015-0.223c0.13-0.366,0.26-0.732,0.39-1.098c0,0-0.035,0.035-0.035,0.034
		c0.16-0.399,0.322-0.797,0.482-1.196l-0.024,0.036c0.202-0.373,0.405-0.745,0.607-1.118l-0.036,0.047
		c0.245-0.328,0.49-0.658,0.734-0.987c0,0-0.072,0.013-0.074,0.012c0.187-0.231,0.373-0.462,0.56-0.691
		c0.078-0.05,0.162-0.09,0.229-0.15c3.166-2.877,6.552-3.618,9.107-1.991c2.528,1.606,3.532,5.546,2.106,9.398
		c-1.32,3.567-2.953,7.018-4.408,10.537c-2.553,6.169-1.872,12.203,0.829,18.139c1.061,2.331,2.59,4.374,3.976,6.507
		c0.686,1.055,1.289,2.162,1.836,3.317c0.873,1.841,0.571,3.2-1.08,4.168c-1.644,0.962-2.992,0.125-4.034-1.169
		c-2.058-2.554-3.97-5.227-6.084-7.731c-5.561-6.587-12.346-9.68-21.234-8.287c-4.442,0.696-9.104,0.691-13.655,0.116
		c-5.111-0.647-7.179-3.879-5.584-8.576c0.252-0.298,0.505-0.594,0.757-0.891c0,0,0.146-0.128,0.146-0.129
		c0.256-0.247,0.512-0.493,0.769-0.739l-0.039,0.031c0.226-0.117,0.453-0.234,0.679-0.352c0,0,0.117-0.003,0.117-0.004
		c7.743-2.595,15.277-1.935,22.636,1.459c0.468,0.385,0.783,1.101,1.78,0.79c-0.481-0.484-0.851-0.854-1.219-1.225
		c-0.698-0.787-1.397-1.574-2.096-2.361c-0.185-0.206-0.371-0.411-0.557-0.617c-0.358-0.379-0.716-0.758-1.074-1.136
		c-0.163-0.18-0.328-0.358-0.491-0.538c-0.195-0.199-0.39-0.399-0.585-0.599l0.041,0.042c-0.194-0.214-0.387-0.429-0.579-0.643
		c-0.855-1.057-1.692-2.127-2.568-3.165c-1.418-1.679-2.186-3.47-0.473-5.333c1.263-1.374,3.466-0.9,5.228,0.983
		c3.418,3.657,6.814,7.331,10.221,10.997c0.193,0.228,0.389,0.454,0.583,0.681c0,0-0.074-0.036-0.073-0.036
		c0.178,0.205,0.354,0.41,0.532,0.615c0,0-0.01,0.012-0.009,0.011c0.172,0.184,0.345,0.369,0.515,0.553c0,0,0.014,0.049,0.015,0.047
		c0.146,0.166,0.292,0.333,0.438,0.5c0.007,0.114,0.068,0.177,0.183,0.188c0.667,0.771,1.335,1.543,2.452,2.83
		C424.14,287.807,422.783,283.589,422.652,279.116z"/>
	<path fill-rule="evenodd" clip-rule="evenodd" fill="#E49526" d="M399.7,246.71c-0.366,0.543-0.733,1.086-1.101,1.629
		c-0.508,0.565-1.015,1.131-1.522,1.696c-0.598,0.512-1.195,1.023-1.793,1.534c-0.609,0.369-1.219,0.739-1.828,1.109
		c-0.133-0.02-0.243,0.019-0.337,0.114c-4.929,1.883-9.716,1.686-14.328-0.994l-0.23,0.023l-0.041,0.229l-0.115-0.1
		c0.174-0.557-0.226-0.706-0.613-0.863c-0.334-0.236-0.668-0.474-1.002-0.71c0,0,0.045,0.024,0.044,0.024
		c-0.251-0.287-0.5-0.576-0.75-0.864c-0.189-0.207-0.379-0.414-0.568-0.622c-0.168-0.192-0.334-0.385-0.5-0.577
		c-0.153-0.187-0.306-0.373-0.459-0.56c-0.184-0.214-0.37-0.427-0.555-0.64c0,0,0.087-0.038,0.085-0.036
		c-0.239-0.8-0.506-1.582-1.216-2.11c0,0,0.027,0.016,0.026,0.016c-0.771-2.864-0.888-5.781-0.707-8.724
		c0.057-0.353,0.113-0.706,0.171-1.059c0.181-0.551,0.361-1.101,0.54-1.651c0,0-0.048,0.041-0.048,0.04
		c0.134-0.202,0.267-0.403,0.399-0.605c0.647-1.074,1.296-2.148,1.943-3.223c0.343-0.38,0.686-0.761,1.026-1.142
		c0.16-0.148,0.319-0.296,0.479-0.445c0.237-0.213,0.476-0.426,0.711-0.639c0.664-0.415,1.325-0.83,1.989-1.246
		c5.145-2.473,10.225-2.229,15.247,0.376l0.138,0.079c0,0,0.139-0.084,0.139-0.087c0.617,1.078,1.662,1.715,2.576,2.489
		c0.337,0.371,0.674,0.741,1.012,1.111c0.381,0.56,0.762,1.118,1.144,1.677c0,0-0.026-0.042-0.025-0.042
		c0.201,0.369,0.404,0.737,0.605,1.106l-0.012-0.016c1.057,2.83,1.347,5.767,1.204,8.762c-0.064,0.351-0.128,0.7-0.192,1.05
		C400.724,244.118,400.212,245.414,399.7,246.71z"/>
	<path fill-rule="evenodd" clip-rule="evenodd" fill="#C2351E" d="M355.299,144.502c-0.021,6.231-4.914,11.164-11.025,11.116
		c-5.868-0.046-10.928-5.3-10.963-11.385c-0.036-6.186,4.882-11.181,10.996-11.17C350.557,133.074,355.322,138.035,355.299,144.502z
		"/>
	<path fill-rule="evenodd" clip-rule="evenodd" fill="#E49526" d="M424.96,236.355c2.02,2.742,1.819,3.843-1.104,6.045
		c-5.498,0.709-10.988,0.585-16.476-0.127c0,0-0.218-0.016-0.218-0.017c-0.285-0.14-0.571-0.278-0.855-0.419
		c-0.521-0.398-1.041-0.797-1.562-1.195c-0.053-0.171-0.113-0.338-0.184-0.501c-0.162-1.299,0.211-2.403,1.188-3.291
		c0.252-0.168,0.504-0.335,0.758-0.503c0.128,0.026,0.24-0.006,0.335-0.096C412.887,235.552,418.929,235.193,424.96,236.355z"/>
	<path fill-rule="evenodd" clip-rule="evenodd" fill="#E49526" d="M364.029,235.688c0.337,0.086,0.674,0.172,1.011,0.258
		c0.557,0.195,1.113,0.391,1.67,0.587c0.547,0.643,1.096,1.286,1.645,1.93c-0.007,0.38-0.013,0.76-0.019,1.14
		c-0.757,1.6-2.034,2.505-3.759,2.813c-4.727,0.438-9.454,0.415-14.183,0.061c-4.123-1.416-4.665-3.531-1.694-6.6
		C353.804,235.309,358.921,235.79,364.029,235.688z"/>
	<path fill-rule="evenodd" clip-rule="evenodd" fill="#E49526" d="M415.379,265.872c-2.183,2.685-4.013,2.937-6.391,0.603
		c-2.739-2.688-5.324-5.531-7.955-8.326c-0.372-0.395-0.71-0.86-0.923-1.353c-0.682-1.572-1.702-3.214-0.015-4.754
		c1.578-1.441,3.231-0.597,4.484,0.393c4.158,3.28,8.074,6.838,11.047,11.295C415.544,264.444,415.46,265.158,415.379,265.872z"/>
	<path fill-rule="evenodd" clip-rule="evenodd" fill="#E49526" d="M402.19,226.771c-1.899,0.038-3.183-1.415-2.828-3.222
		c0.322-1.646,1.154-3.074,2.301-4.275c2.702-2.834,5.451-5.627,8.191-8.426c1.295-1.322,2.849-1.726,4.45-0.745
		c1.812,1.109,2.047,3.275,1.072,4.587c-3.35,4.509-7.03,8.79-11.953,11.739C403.049,226.654,402.554,226.676,402.19,226.771z"/>
	<path fill-rule="evenodd" clip-rule="evenodd" fill="#E49526" d="M358.002,214.851c0-0.184-0.039-0.358-0.119-0.522
		c0.007-0.914,0.015-1.827,0.023-2.741c0.578-0.585,1.156-1.171,1.734-1.757c1.115-0.455,2.197-0.185,3.277,0.148
		c3.072,3.113,6.147,6.227,9.219,9.34c0.926,1.516,2.006,2.973,1.888,4.892c-0.033,0.933-0.69,1.514-1.223,2.165
		c-0.911,0.02-1.822,0.039-2.733,0.058c-0.094-0.089-0.204-0.121-0.333-0.096c-0.251-0.132-0.5-0.263-0.751-0.395
		c-0.707-0.587-1.412-1.175-2.118-1.762c-0.204-0.201-0.409-0.403-0.613-0.604c-1.626-1.63-3.252-3.261-4.877-4.891
		c-0.745-0.763-1.49-1.525-2.235-2.287c-0.133-0.16-0.265-0.319-0.396-0.479C358.496,215.563,358.25,215.207,358.002,214.851z"/>
	<path fill-rule="evenodd" clip-rule="evenodd" fill="#E49526" d="M390.422,268.455c0,2.887,0.041,5.254-0.012,7.618
		c-0.042,1.898-1.007,3.097-2.967,3.229c-1.94,0.132-3.349-0.943-3.464-2.746c-0.343-5.342-0.594-10.712,0.143-16.045
		c0.216-1.566,0.931-3.174,2.815-3.18c1.945-0.006,2.697,1.5,3.13,3.226C390.768,263.349,390.208,266.175,390.422,268.455z"/>
	<path fill-rule="evenodd" clip-rule="evenodd" fill="#E49526" d="M373.949,253.998c0.036,1.616-0.468,3.118-1.517,4.269
		c-2.635,2.889-5.348,5.708-8.132,8.451c-1.132,1.115-2.558,1.699-4.237,0.964c-2.271-0.993-2.911-3.608-1.06-5.633
		c2.879-3.151,5.955-6.125,8.983-9.137c0.709-0.707,1.612-1.16,2.599-1.434C372.684,250.898,373.92,251.814,373.949,253.998z"/>
	<path fill-rule="evenodd" clip-rule="evenodd" fill="#E49526" d="M389.652,219.219c-0.63,1.006-1.378,1.878-2.567,2.242
		c-0.355-0.034-0.713-0.067-1.068-0.1c-1.392-0.615-1.912-1.861-2.317-3.191c-0.681-3.448-0.252-6.949-0.492-10.418
		c0-0.555,0.001-1.109,0.001-1.664c0.204-1.275,0.408-2.551,0.612-3.826c0.192-0.315,0.385-0.631,0.577-0.946
		c0.992-0.626,2.088-0.794,3.234-0.749c1.056,0.472,1.814,1.25,2.346,2.265c0.121,0.195,0.242,0.393,0.363,0.589l-0.043-0.041
		c0.046,0.353,0.092,0.706,0.138,1.06c-0.012,3.665-0.023,7.33-0.034,10.995C390.152,216.695,389.901,217.957,389.652,219.219z"/>
	<path fill-rule="evenodd" clip-rule="evenodd" fill="#1A6C7A" d="M325.422,392.103c-0.148-0.022-0.273,0.023-0.374,0.134
		c-0.229,0.144-0.458,0.285-0.688,0.428c-0.152-0.018-0.285,0.024-0.399,0.127c-1.681,0.765-3.506,1.222-5.022,2.339l-0.175-0.092
		c0,0-0.165,0.11-0.164,0.11c-1.705,0.718-3.411,1.435-5.116,2.15l-0.192-0.076c0,0-0.165,0.127-0.164,0.128
		c-3.378,1.532-6.756,3.064-10.134,4.597c0,0,0.035-0.04,0.035-0.039c-11.019,3.551-22.448,4.134-33.879,4.528
		c-10.307,0.355-20.575-0.425-30.814-1.596c-0.109-0.099-0.236-0.136-0.381-0.111c-0.457-0.422-0.914-0.844-1.37-1.266
		c0.021-0.144-0.038-0.241-0.175-0.291c-0.646-1.696-0.543-3.343,0.327-4.939c0.35-0.222,0.7-0.443,1.05-0.665
		c6.338-1.12,12.506-2.778,18.249-5.778l0.021,0.009c1.545-0.569,3.065-1.188,4.362-2.242c0,0-0.002,0.021-0.002,0.02
		c0.815-0.212,1.566-0.542,2.149-1.179l-0.036,0.03c1.063-0.332,2.002-0.876,2.818-1.632l-0.035,0.036
		c2.192-1.034,4.197-2.359,6.064-3.899l-0.041,0.04c0.693-0.19,1.262-0.556,1.646-1.177l-0.018,0.018
		c1.146-0.445,2.031-1.233,2.819-2.148l-0.015,0.021c0.394-0.268,0.789-0.535,1.183-0.804c0.119,0.004,0.192-0.053,0.219-0.169
		c0.239-0.26,0.479-0.519,0.719-0.778l-0.013,0.011c1.322-0.24,2.575-0.008,3.782,0.549l-0.008-0.009
		c0.366,0.372,0.733,0.743,1.101,1.114l-0.014-0.014c0.53,1.021,0.709,2.117,0.72,3.252c-0.021,0.37-0.044,0.739-0.065,1.108
		c-0.235,0.528-0.472,1.056-0.707,1.583l0.033-0.036c-0.284,0.396-0.567,0.792-0.852,1.188c-0.431,0.536-0.862,1.072-1.293,1.607
		c-0.938,0.901-1.876,1.802-2.814,2.703l0.038-0.027c-0.226,0.173-0.451,0.345-0.677,0.517c0,0,0.043-0.063,0.043-0.063
		c-0.867,0.616-1.736,1.231-2.604,1.847c-0.201,0.129-0.403,0.259-0.604,0.388c-0.575,0.376-1.151,0.752-1.727,1.128
		c0,0,0.034-0.039,0.034-0.038c-1.137,0.604-2.274,1.208-3.412,1.812c5.615,0.627,11.053,1.097,16.205-1.283
		c0.162,0.147,0.314,0.139,0.457-0.028c1.663-0.647,3.338-1.274,4.735-2.44c4.547-2.322,7.576-6.199,10.285-10.319
		c2.043-3.104,3.802-6.396,5.679-9.609c0.366-0.627,0.649-1.305,1.043-1.912c1.321-2.047,4.586-3.521,6.338-2.747
		c2.596,1.147,2.602,3.49,2.428,5.83c-0.404,5.431-2.508,10.235-5.813,14.835c8.972-2.87,15.602-9.004,23.113-13.654
		c0.188-0.197,0.376-0.396,0.563-0.592l-0.019,0.02c0.418-0.103,0.941,0.004,1.127-0.565c0.172-0.031,0.343-0.071,0.51-0.119
		c0.263-0.126,0.525-0.252,0.787-0.378c0.13,0.031,0.232-0.01,0.304-0.123c0.231-0.125,0.464-0.25,0.695-0.375l-0.036,0.049
		c0.695-0.29,1.391-0.577,2.086-0.866c2.91,2.383,6.614,3.06,9.912,4.608c-6.742,4.919-13.993,9.056-20.977,13.604
		C327.323,391.025,326.373,391.563,325.422,392.103z"/>
	<path fill-rule="evenodd" clip-rule="evenodd" fill="#1A6C7A" d="M190.515,384.138c0.371,0.156,0.743,0.313,1.114,0.469
		c8.144,3.451,16.773,5.326,25.231,7.759c0.18,0.131,0.36,0.261,0.54,0.391c0.98,1.526,0.796,3.166,0.471,4.82
		c0,0,0.042-0.039,0.042-0.038c-1.112,1.385-2.543,1.833-4.317,1.822c-6.633-0.038-12.838-2.205-19.182-3.687
		c-0.172,0.018-0.344,0.033-0.516,0.051c-5.505-2.016-11.067-3.889-16.354-6.458c0,0-0.004,0.021-0.004,0.022
		c-1.623-0.948-3.246-1.896-4.869-2.845c0,0-0.006,0.041-0.007,0.041c-0.238-0.144-0.475-0.286-0.711-0.43l0.032,0.024
		c-0.387-0.618-1.006-0.895-1.659-1.12l0.017,0.019c-0.306-0.256-0.612-0.51-0.917-0.765c0,0-0.049,0.007-0.051,0.008
		c-0.231-0.132-0.463-0.266-0.694-0.397c0,0,0.042,0.032,0.042,0.033c-0.261-0.247-0.522-0.494-0.783-0.741
		c0,0-0.207-0.145-0.208-0.144c-0.184-0.124-0.367-0.248-0.55-0.373c0,0,0.004,0.063,0.002,0.063
		c-0.231-0.177-0.463-0.353-0.694-0.528c-1.664-1.669-3.417-3.26-4.97-5.026c-1.861-2.12-1.934-4.767-0.317-6.403
		c1.938-1.959,3.9-0.982,5.651,0.232c3.793,2.633,7.528,5.349,11.665,7.438c2.582,1.611,5.28,2.987,8.117,4.09
		c0,0-0.032-0.036-0.031-0.036c0.398,0.173,0.796,0.347,1.193,0.52l-0.048-0.037C188.531,383.637,189.507,383.924,190.515,384.138z"
		/>
	<path fill-rule="evenodd" clip-rule="evenodd" fill="#1A6C7A" d="M250.956,372.357c0.35,0.21,0.698,0.42,1.047,0.628
		c0.332,0.408,0.664,0.816,0.995,1.224c0,0-0.043-0.064-0.043-0.063c0.328,1.093,0.273,2.162-0.199,3.206
		c-0.425,0.531-0.85,1.063-1.273,1.596c-1.489,0.582-2.946,1.275-4.474,1.729c-12.458,3.69-24.868,3.372-37.217-0.562l-0.105-0.109
		l-0.153,0.004c-0.788-0.398-1.575-0.798-2.362-1.197c0,0,0.041,0.07,0.04,0.07c-0.225-0.176-0.45-0.352-0.675-0.528
		c-0.34-0.35-0.681-0.7-1.021-1.05c-0.708-1.367-0.939-2.789-0.484-4.288c0.518-0.483,1.035-0.968,1.552-1.452
		c1.26-0.423,2.475-0.267,3.754,0.064c8.439,2.183,16.974,3.119,25.729,2.558C241.084,373.864,245.932,372.433,250.956,372.357z"/>
	<path fill-rule="evenodd" clip-rule="evenodd" fill="#1A6C7A" d="M349.25,376.884c-3.298-1.549-7.002-2.226-9.912-4.608
		c2.056-0.993,4.111-1.985,6.169-2.979c0,0,0.001,0.052,0.001,0.051c0.349-0.137,0.697-0.273,1.045-0.41
		c0.124,0.104,0.235,0.09,0.33-0.041c4.2-1.268,8.279-3.239,12.873-2.225l0.207,0.154c0.114,0.208,0.229,0.417,0.343,0.624
		c-1.26,3.237-4.529,4.381-6.848,6.511C352.211,375.104,350.663,375.92,349.25,376.884z"/>
	<path fill-rule="evenodd" clip-rule="evenodd" fill="#1A6C7A" d="M216.829,333.4c-1.82,0.763-3.071,3.49-5.475,2.09
		c-2.059-1.199-0.848-3.509-1.037-5.319c-0.411-3.941-2.537-6.956-5.079-9.749c-3.993-4.385-8.126-8.64-9.424-14.774
		c-0.725-3.423-1.051-6.854-0.869-10.333c0.13-2.489,1.117-3.188,3.521-2.646c7.871,1.773,14.072,8.746,14.857,16.626
		c0.281,2.814,1.025,5.573,1.274,8.493c2.021-6.265,4.075-12.521,6.036-18.806c0.365-1.169,0.734-2.232,1.783-2.938
		c0.9,0.061,1.802,0.121,2.703,0.181c0.193,0.147,0.387,0.296,0.581,0.443c0.314,0.413,0.628,0.826,0.943,1.239
		c0,0-0.037-0.055-0.036-0.055c0.029,0.874,0.059,1.748,0.087,2.622l0.04-0.053c-1.357,4.33-2.715,8.659-4.073,12.988
		c0,0,0.07,0.187,0.071,0.187c-1.047,3.05-2.094,6.098-3.231,9.407c1.256-0.565,1.814-1.372,2.406-2.145l-0.005,0.004
		c0.563-0.545,1.126-1.09,1.689-1.635c0,0-0.042,0.027-0.042,0.026c0.233-0.19,0.464-0.38,0.696-0.57
		c4.01-3.127,7.999-6.232,13.179-7.324c4.467-0.941,8.875-0.622,13.257,0.261c2.501,0.504,3.186,2.287,1.908,4.528
		c-1.922,3.369-4.65,6.023-7.721,8.345c-1.486,0.746-2.971,1.492-4.456,2.238c0,0,0.048-0.043,0.047-0.043
		c-1.141,0.259-2.296,0.472-3.422,0.785c-4.082,1.136-8.426,0.589-12.466,1.97l-0.084-0.236c0,0-0.249,0.027-0.249,0.028
		c-0.648,0.262-1.297,0.521-1.945,0.782c0,0,0.041-0.046,0.041-0.045c-0.39,0.163-0.78,0.325-1.17,0.487c0,0-0.014-0.02-0.014-0.019
		c-0.489,0.27-0.978,0.538-1.467,0.807l-0.009,0.006c-0.428,0.282-0.857,0.564-1.286,0.848c0,0.001,0.049,0.177,0.049,0.177
		s-0.056-0.18-0.056-0.179C217.864,332.534,217.347,332.968,216.829,333.4z"/>
	<path fill-rule="evenodd" clip-rule="evenodd" fill="#E49526" d="M245.498,246.091c0.006,2.929-0.758,5.665-2.68,7.865
		c-4.836,5.541-7.208,5.577-12.12,0.12c-2.491-2.766-3.273-6.328-2.684-10.006c0.77-4.805,5.024-8.144,9.472-7.664
		C242.472,236.943,245.5,240.606,245.498,246.091z"/>
	<path fill-rule="evenodd" clip-rule="evenodd" fill="#E49526" d="M247.084,262.573c0.272-7.271,3.956-12.155,9.867-13.257
		c3.398-0.634,6.157,0.537,8.16,3.09c2.139,2.726,2.265,5.863,0.638,8.989c-3.196,6.142-12.178,8.342-17.855,4.407
		C246.631,264.927,247.099,263.712,247.084,262.573z"/>
	<path fill-rule="evenodd" clip-rule="evenodd" fill="#E49526" d="M254.922,272.503c7.077-0.032,12.559,5.253,11.733,10.671
		c-0.547,3.595-2.702,5.958-6.149,6.97c-3.918,1.148-7.229-0.264-9.932-3.047c-2.51-2.583-3.614-5.848-3.884-9.422
		c-0.12-1.585,0.595-2.631,1.913-3.329C250.811,273.176,253.181,272.584,254.922,272.503z"/>
	<path fill-rule="evenodd" clip-rule="evenodd" fill="#E49526" d="M246.097,294.101c0.088,3.632-1.376,6.634-4.805,8.353
		c-3.143,1.576-6.253,1.101-8.928-1.142c-3.178-2.664-3.924-6.225-3.147-10.144c0.391-1.972,1.347-3.707,2.553-5.346
		c3.478-4.721,5.22-5.067,9.729-1.354C244.42,286.874,246.216,289.979,246.097,294.101z"/>
	<path fill-rule="evenodd" clip-rule="evenodd" fill="#E49526" d="M225.648,255.661c-0.013,0.142,0.023,0.271,0.107,0.385
		c0.511,3.077,1.461,6.109,0.958,9.291c-0.702,0.383-1.403,0.766-2.104,1.148c-0.44,0.03-0.896,0.021-1.182,0.45l0.045-0.036
		c-3.318,0.834-6.592,0.782-9.807-0.48l0.019,0.021c-0.373-0.201-0.746-0.402-1.119-0.604c0,0,0.051,0.044,0.051,0.044
		c-0.205-0.136-0.409-0.271-0.614-0.406c-0.494-0.417-0.989-0.834-1.484-1.251c-0.221-0.201-0.443-0.402-0.664-0.604
		c0,0,0.081-0.014,0.08-0.014c-0.388-0.536-0.775-1.074-1.162-1.611c0,0,0.03,0.023,0.029,0.023
		c-0.023-0.172-0.083-0.328-0.182-0.471c-2.03-5.509-0.995-9.128,3.521-11.582c3.256-1.768,6.341-0.665,9.232,1.083
		c0.997,0.603,1.823,1.489,2.727,2.246c0.167,0.197,0.334,0.395,0.501,0.592c0.123,0.188,0.246,0.376,0.369,0.564
		C225.196,254.854,225.422,255.258,225.648,255.661z"/>
	<path fill-rule="evenodd" clip-rule="evenodd" fill="#C2351E" d="M260.512,218.949c-5.047-0.041-9.303-4.243-9.268-9.149
		c0.038-5.348,4.208-9.401,9.606-9.339c5.057,0.059,9.159,4.21,9.135,9.248C269.962,214.845,265.709,218.991,260.512,218.949z"/>
	<path fill-rule="evenodd" clip-rule="evenodd" fill="#E49526" d="M219.174,272.484c7.079-0.004,9.995,4.522,6.934,10.882
		c-1.897,3.942-4.76,6.672-9.453,6.732c-3.929,0.051-6.883-1.903-8.084-5.292c-1.2-3.388-0.101-7.327,2.771-9.607
		C213.62,273.389,216.199,272.339,219.174,272.484z"/>
	<path fill-rule="evenodd" clip-rule="evenodd" fill="#C2351E" d="M237.037,278.021c-4.263,0.027-7.801-3.429-7.939-7.756
		c-0.134-4.199,3.725-8.098,7.98-8.063c4.146,0.035,7.765,3.73,7.805,7.97C244.922,274.403,241.333,277.994,237.037,278.021z"/>
</g>
</svg>
