<svg version="1.1" id="Layer_1" xmlns="http://www.w3.org/2000/svg" xmlns:xlink="http://www.w3.org/1999/xlink" x="0px" y="0px"
	 width="1024.191px" height="1024.191px" viewBox="0 0 1024.191 1024.191" enable-background="new 0 0 1024.191 1024.191"
	 xml:space="preserve">
<g>
	<path fill-rule="evenodd" clip-rule="evenodd" fill="#5AAFB0" d="M509.487,993.332c-83.854,0-167.714,0.649-251.557-0.283
		c-40.076-0.445-79.423-7.215-115.253-26.854c-50.716-27.798-82.599-70.369-96.717-126.238
		c-7.804-30.881-10.826-62.451-11.329-94.22c-2.424-153.325-0.92-306.661-0.718-459.992c0.045-33.994,2.262-68.098,11.017-101.207
		C66.554,102.76,120.3,55.292,202.379,38.563c31.262-6.372,62.956-7.134,94.698-7.131c144.311,0.016,288.622-0.033,432.932,0.153
		c36.129,0.046,72.168,1.501,107.408,10.937c70.319,18.829,116.368,62.899,138.743,132.13c8.063,24.945,10.957,50.595,12.102,76.542
		c2.798,63.433,1.176,126.904,1.358,190.357c0.28,97.519,0.323,195.042-0.287,292.56c-0.244,38.899-2.546,77.827-13.983,115.427
		c-21.025,69.118-66.64,113.431-136.086,133c-31.67,8.924-64.232,11.122-96.979,11.135c-77.6,0.029-155.198,0.01-232.799,0.01
		C509.487,993.565,509.487,993.449,509.487,993.332z M120.356,593.212c-17.872,0.035-35.201,15.921-35.442,36.652
		c-0.564,48.343,17.681,87.757,57.247,116.461c3.105,2.254,3.654,3.706,1.647,7.104c-10.646,18.019-8.588,35.838,1.514,53.336
		c8.777,15.202,20.412,28.042,33.296,39.795c19.96,18.204,41.203,34.532,67.077,43.606c21.478,7.534,39.803,1.357,52.632-17.542
		c22.478-33.115,53.297-56.165,88.671-73.771c6.079-3.026,12.14-3.462,18.809-1.754c18.841,4.825,37.998,8.086,57.344,10.144
		c5.199,0.553,15.338,9.727,16.249,14.767c0.405,2.24-1.059,2.833-2.526,3.487c-3.593,1.604-7.229,3.111-10.827,4.702
		c-27.058,11.962-38.495,41.488-25.389,65.516c11.294,20.706,34.605,29.153,60.267,20.251
		c42.436-14.723,85.687-25.044,130.648-27.395c32.647-1.708,65.212-1.678,97.561,4.289c16.165,2.982,31.685,8.59,47.976,11.015
		c28.226,4.198,53.814-19.098,51.243-47.003c-1.696-18.424-13.518-29.484-28.678-37.416c-28.505-14.911-59.182-22.414-91.126-24.639
		c-10.126-0.706-19.081-1.406-24.78-12.027c-2.967-5.524-1.749-6.659,2.904-8.703c32.109-14.103,60.948-33.456,86.558-57.176
		c59.929-55.507,88.965-125.798,95.174-206.091c3.5-45.245-0.777-90.159-10.068-134.58c-4.211-20.136-9.396-40.155-7.507-61.06
		c1.144-12.635,5.035-23.945,14.774-32.687c5.509-4.945,10.725-10.231,16.396-14.976c11.712-9.801,23.771-19.188,35.447-29.03
		c11.979-10.101,17.095-28.61,12.112-42.259c-5.321-14.578-17.786-22.584-35.386-22.85c-3.462-0.052-6.927-0.364-10.374-0.718
		c-14.597-1.504-28.247-7.334-42.566-9.677c-9.644-1.579-15.582-6.563-21.348-13.572c-38.903-47.299-88.955-70.428-150.157-64.868
		c-68.071,6.186-120.061,39.91-156.768,97.488c-12.86,20.174-22.923,41.807-33.518,63.153c-17.63,35.518-40.27,67.6-66.496,97.143
		c-35.388,39.867-69.137,80.972-98.947,125.24c-20.175,29.96-38.279,61.267-59.323,90.66c-11.499,16.06-25.652,28.582-44.773,34.648
		c-18.6,5.899-37.626,6.716-56.991,5.095C142.939,597.135,133.616,592.906,120.356,593.212z"/>
	<path fill-rule="evenodd" clip-rule="evenodd" fill="#FDF6ED" d="M120.356,593.212c13.259-0.306,22.583,3.923,32.556,4.758
		c19.365,1.621,38.392,0.805,56.991-5.095c19.121-6.066,33.274-18.589,44.773-34.648c21.044-29.394,39.148-60.7,59.323-90.66
		c29.811-44.268,63.56-85.373,98.947-125.24c26.226-29.543,48.865-61.625,66.496-97.143c10.595-21.346,20.658-42.979,33.518-63.153
		c36.707-57.578,88.696-91.302,156.768-97.488c61.202-5.56,111.254,17.569,150.157,64.868c5.766,7.009,11.704,11.993,21.348,13.572
		c14.319,2.343,27.97,8.173,42.566,9.677c3.447,0.354,6.912,0.667,10.374,0.718c17.6,0.266,30.064,8.272,35.386,22.85
		c4.982,13.649-0.133,32.158-12.112,42.259c-11.676,9.843-23.735,19.229-35.447,29.03c-5.671,4.744-10.887,10.03-16.396,14.976
		c-9.739,8.742-13.631,20.052-14.774,32.687c-1.89,20.905,3.296,40.923,7.507,61.06c9.291,44.421,13.568,89.335,10.068,134.58
		c-6.209,80.293-35.245,150.584-95.174,206.091c-25.609,23.72-54.448,43.073-86.558,57.176c-4.653,2.044-5.871,3.179-2.904,8.703
		c5.699,10.621,14.654,11.321,24.78,12.027c31.944,2.225,62.621,9.728,91.126,24.639c15.16,7.932,26.981,18.992,28.678,37.416
		c2.571,27.905-23.018,51.201-51.243,47.003c-16.291-2.425-31.811-8.032-47.976-11.015c-32.349-5.967-64.913-5.997-97.561-4.289
		c-44.961,2.351-88.212,12.672-130.648,27.395c-25.662,8.902-48.973,0.455-60.267-20.251c-13.106-24.027-1.669-53.554,25.389-65.516
		c3.599-1.591,7.234-3.099,10.827-4.702c1.467-0.654,2.931-1.247,2.526-3.487c-0.911-5.04-11.049-14.214-16.249-14.767
		c-19.346-2.058-38.503-5.318-57.344-10.144c-6.669-1.708-12.73-1.272-18.809,1.754c-35.374,17.605-66.193,40.655-88.671,73.771
		c-12.829,18.899-31.155,25.076-52.632,17.542c-25.875-9.074-47.117-25.402-67.077-43.606
		c-12.885-11.753-24.52-24.593-33.296-39.795c-10.103-17.498-12.161-35.317-1.514-53.336c2.007-3.397,1.458-4.85-1.647-7.104
		c-39.566-28.704-57.811-68.118-57.247-116.461C85.156,609.133,102.485,593.247,120.356,593.212z M627.414,763.416
		c14.185-4.764,27.504-9.432,40.383-15.239c13.098-5.905,25.76-12.607,37.928-20.294c42.409-26.788,76.857-61.078,100.214-105.856
		c19.697-37.765,28.885-78.247,30.841-120.564c2.122-45.894-3.818-90.975-13.459-135.717c-6.027-27.969-7.188-55.946,1.238-83.749
		c0.948-3.132,2.439-5.682,4.712-8.206c18.503-20.534,39.81-37.852,61.709-54.516c2.401-1.827,5.024-3.565,6.143-6.468
		c1.403-3.647,1.584-6.905-3.784-7.344c-26.876-2.202-52.741-9.844-79.129-14.681c-4.068-0.745-6.495-2.565-8.502-6.001
		c-7.404-12.677-16.673-23.948-27.879-33.375c-49.025-41.234-103.42-45.077-160.54-20.658
		c-46.48,19.872-75.267,57.443-96.096,102.064c-12.52,26.819-25.687,53.291-42.199,77.98
		c-21.253,31.781-47.612,59.332-72.501,88.093c-27.513,31.795-52.012,65.866-75.254,100.782
		c-17.109,25.702-32.755,52.389-50.823,77.469c-19.728,27.387-45.732,45.019-79.404,50.916c-23.685,4.148-47.022,2.468-70.308-2.579
		c-11.182-2.424-14.729,0.282-14.069,11.766c2.562,44.64,24.427,76.476,64.46,96.021c8.082,3.945,16.765,6.209,26.287,8.222
		c-10.905,7.242-20.36,14.677-29.55,22.445c-11.278,9.533-12.285,14.247-4.715,26.622c19.861,32.47,48.807,54.442,82.805,70.22
		c5.112,2.373,10.754,1.948,14.626-3.93c28.971-43.976,70.266-72.692,117.182-94.461c3.612-1.677,6.854-1.903,10.584-0.732
		c25.009,7.849,50.538,13.282,76.697,15.245c7.092,0.532,12.046,2.999,16.798,8.572c14.846,17.405,28.066,35.875,40.203,55.729
		c-19.654,5.047-38.737,10.097-55.716,20.729c-8.359,5.234-10.833,11.164-7.558,18.367c3.213,7.068,9.418,9.414,18.796,6.461
		c11.237-3.541,22.242-7.834,33.518-11.23c36.085-10.869,73.147-16.417,110.639-18.991c40.831-2.804,81.453-1.521,121.374,8.773
		c9.17,2.365,18.251,5.116,27.497,7.116c6.416,1.387,12.001-0.761,14.928-7.057c2.88-6.196-0.232-10.104-5.202-13.987
		c-5.034-3.934-10.573-6.582-16.257-9.084c-25.623-11.274-52.83-15.972-80.463-16.213c-14.034-0.122-23.016-3.449-30.055-16.329
		C654.204,792.714,640.187,778.794,627.414,763.416z"/>
	<path fill-rule="evenodd" clip-rule="evenodd" fill="#BE2D12" d="M627.414,763.416c12.772,15.378,26.79,29.298,36.1,46.329
		c7.039,12.88,16.021,16.207,30.055,16.329c27.633,0.241,54.84,4.938,80.463,16.213c5.684,2.502,11.223,5.15,16.257,9.084
		c4.97,3.884,8.082,7.791,5.202,13.987c-2.927,6.296-8.512,8.443-14.928,7.057c-9.246-2-18.327-4.751-27.497-7.116
		c-39.921-10.295-80.543-11.577-121.374-8.773c-37.491,2.574-74.554,8.122-110.639,18.991c-11.276,3.396-22.281,7.689-33.518,11.23
		c-9.378,2.953-15.583,0.607-18.796-6.461c-3.275-7.203-0.801-13.133,7.558-18.367c16.979-10.632,36.062-15.682,55.716-20.729
		c-12.137-19.854-25.357-38.323-40.203-55.729c-4.752-5.573-9.706-8.04-16.798-8.572c-26.16-1.963-51.688-7.396-76.697-15.245
		c-3.73-1.171-6.972-0.944-10.584,0.732c-46.916,21.769-88.211,50.485-117.182,94.461c-3.873,5.878-9.514,6.303-14.626,3.93
		c-33.998-15.777-62.944-37.75-82.805-70.22c-7.57-12.375-6.563-17.089,4.715-26.622c9.19-7.769,18.646-15.203,29.55-22.445
		c-9.522-2.013-18.205-4.276-26.287-8.222c-40.033-19.545-61.899-51.381-64.46-96.021c-0.659-11.483,2.888-14.189,14.069-11.766
		c23.286,5.047,46.623,6.728,70.308,2.579c33.671-5.897,59.676-23.529,79.404-50.916c18.068-25.08,33.714-51.767,50.823-77.469
		c23.242-34.916,47.741-68.987,75.254-100.782c24.889-28.762,51.248-56.313,72.501-88.093c16.512-24.689,29.679-51.161,42.199-77.98
		c20.829-44.621,49.615-82.192,96.096-102.064c57.12-24.419,111.515-20.576,160.54,20.658c11.206,9.426,20.475,20.697,27.879,33.375
		c2.007,3.436,4.434,5.256,8.502,6.001c26.388,4.837,52.253,12.479,79.129,14.681c5.368,0.438,5.188,3.696,3.784,7.344
		c-1.118,2.903-3.741,4.641-6.143,6.468c-21.899,16.664-43.206,33.982-61.709,54.516c-2.272,2.524-3.764,5.074-4.712,8.206
		c-8.426,27.803-7.266,55.78-1.238,83.749c9.641,44.742,15.581,89.823,13.459,135.717c-1.956,42.317-11.144,82.8-30.841,120.564
		c-23.356,44.778-57.805,79.068-100.214,105.856c-12.168,7.687-24.83,14.389-37.928,20.294
		C654.918,753.984,641.599,758.652,627.414,763.416z M151.024,658.348c0.396,1.709,0.506,2.635,0.83,3.48
		c0.744,1.944,1.492,3.897,2.411,5.761c14.996,30.383,40.392,44.553,73.313,46.964c13.933,1.02,27.753-0.144,41.519-2.214
		c6.145-0.923,11.256,0.589,13.749,6.65c2.579,6.27-0.736,10.762-5.659,14.141c-3.615,2.481-7.505,4.581-11.359,6.694
		c-20.877,11.447-40.862,24.234-59.605,38.962c-3.349,2.632-3.515,4.223-0.724,7.591c12.403,14.966,26.787,27.418,43.604,37.244
		c4.554,2.661,6.683,1.477,9.577-1.994c33.583-40.272,75.922-68.568,123.32-89.94c6.303-2.841,12.427-2.781,18.874-0.608
		c68.416,23.078,137.734,24.611,207.199,6.34c70.395-18.515,127.377-56.5,165.091-120.268
		c23.522-39.771,32.958-83.455,34.156-129.124c0.87-33.195-3.104-66.046-10.358-98.367c-7.876-35.09-11.279-70.172-4.51-105.801
		c2.866-15.084,4.662-30.332,1.794-45.544c-10.078-53.453-55.028-94.216-115.157-91.971c-35.484,1.325-65.355,15.563-90.733,40.262
		c-21.386,20.813-34.536,46.846-46.697,73.255c-19.073,41.412-42.667,79.694-72.82,113.925
		c-16.779,19.049-33.931,37.808-49.958,57.479c-23.134,28.394-44.529,58.127-64.573,88.808
		c-15.667,23.982-30.781,48.325-47.379,71.703c-23.559,33.186-53.662,56.671-94.388,64.608
		C192.466,660.296,172.206,660.794,151.024,658.348z M637.551,825.432c-11.374-17.872-25.369-33.125-38.887-48.782
		c-3.33-3.856-6.689-4.688-11.457-3.939c-12.097,1.899-24.226,3.769-36.411,4.849c-8.36,0.743-16.839,0.143-27.138,0.143
		c15.301,18.615,28.377,35.639,38.9,54.433c1.406,2.51,2.868,2.215,5.051,1.835c6.602-1.149,13.216-2.291,19.867-3.063
		C603.947,828.992,620.44,827.288,637.551,825.432z"/>
	<path fill-rule="evenodd" clip-rule="evenodd" fill="#FDF6ED" d="M151.024,658.348c21.182,2.446,41.441,1.948,61.514-1.964
		c40.726-7.938,70.829-31.423,94.388-64.608c16.598-23.378,31.711-47.721,47.379-71.703c20.044-30.681,41.439-60.415,64.573-88.808
		c16.027-19.671,33.179-38.43,49.958-57.479c30.153-34.231,53.747-72.514,72.82-113.925c12.161-26.409,25.312-52.442,46.697-73.255
		c25.378-24.699,55.249-38.937,90.733-40.262c60.129-2.245,105.079,38.518,115.157,91.971c2.868,15.212,1.072,30.46-1.794,45.544
		c-6.77,35.629-3.366,70.711,4.51,105.801c7.254,32.321,11.229,65.172,10.358,98.367c-1.198,45.668-10.634,89.352-34.156,129.124
		c-37.714,63.768-94.696,101.753-165.091,120.268c-69.465,18.271-138.783,16.738-207.199-6.34
		c-6.447-2.173-12.571-2.232-18.874,0.608c-47.398,21.372-89.737,49.668-123.32,89.94c-2.894,3.471-5.022,4.655-9.577,1.994
		c-16.817-9.826-31.201-22.278-43.604-37.244c-2.791-3.368-2.625-4.959,0.724-7.591c18.744-14.728,38.728-27.515,59.605-38.962
		c3.854-2.113,7.744-4.213,11.359-6.694c4.923-3.379,8.238-7.871,5.659-14.141c-2.493-6.062-7.604-7.573-13.749-6.65
		c-13.766,2.07-27.586,3.233-41.519,2.214c-32.921-2.411-58.317-16.581-73.313-46.964c-0.919-1.863-1.667-3.816-2.411-5.761
		C151.531,660.982,151.421,660.057,151.024,658.348z M430.732,606.724c2.161-5.638,3.661-9.645,5.229-13.625
		c5.142-13.046,7.949-26.281,5.373-40.469c-3.605-19.851-17.154-31.887-32.397-42.712c-3.822-2.715-7.782-2.275-9.773,2.253
		c-8.631,19.622-11.52,39.652-2.327,59.918c3.669,8.09,8.358,15.735,10.055,24.604c1.579,8.252-0.972,20.29-10.951,25.276
		c-9.795,4.895-20.002,8.454-30.441,11.548c-5.025,1.487-8.291,4.537-8.367,10.236c-0.132,9.993,6.007,14.382,17.426,11.796
		c37.288-8.443,70.297-25.537,100.022-49.421c5.536-4.446,10.69-9.461,18.211-11.47c11.687-3.121,22.127-0.218,32.61,4.157
		c18.826,7.855,38.146,11.033,58.179,5.439c14.541-4.062,27.725-10.794,39.698-20.176c8.795-6.892,9.51-6.996,1.203-13.256
		c-21.238-16.007-44.873-22.696-71.473-17.04c-12.255,2.606-23.569,7.658-35.977,13.286c8.404-11.605,17.425-21.049,24.335-32.075
		c10.21-16.291,24.563-21.304,43.11-16.966c14.241,3.333,28.756,5.492,43.426,2.588c20.488-4.055,36.828-15.229,51.019-30.043
		c3.539-3.695,3.502-6.334-1.31-9.075c-17.639-10.045-35.563-17.322-56.795-13.633c-12.282,2.134-23.761,5.211-34.209,12.041
		c-4.229,2.765-8.735,5.108-14.666,8.54c3.528-8.493,7.524-14.746,11.724-20.773c8.941-12.832,18.589-25.06,34.472-29.913
		c9.514-2.908,19.245-5.415,27.858-10.45c23.242-13.588,33.902-35.858,40.644-60.599c0.806-2.962-0.037-5.609-4.022-5.604
		c-7.408,0.009-14.943-0.906-22.202,0.131c-30.883,4.409-51.446,22.283-62.469,50.91c-5.363,13.929-13.321,25.555-24.859,36.489
		c0.292-8.999-2.962-16.318-0.728-24.666c3.646-13.621,4.712-27.577,0.545-41.645c-5.612-18.947-19.356-31.235-33.944-42.82
		c-2.733-2.169-6.445-1.292-8.366,2.968c-4.812,10.671-8.503,21.602-9.23,33.375c-1.204,19.471,6.106,36.116,18.606,50.197
		c13.314,14.998,19.551,31.088,11.107,50.221c-8.063,18.275-18.029,35.572-31.137,50.811c-5.014,5.827-8.727,12.85-16.305,18.39
		c2.043-8.41,3.428-15.574,5.544-22.515c4.208-13.806,5.086-28.04,3.52-42.06c-2.343-20.986-12.924-38.413-27.191-53.682
		c-4.708-5.038-8.124-5.286-11.713,0.269c-17.03,26.354-22.626,54.169-8.865,83.718c4.143,8.898,9.907,17.028,14.379,25.789
		c6.715,13.149,4.735,26.224-4.907,37.241c-5.915,6.759-12.476,12.873-19.839,17.912C447.341,597.089,440.481,602.8,430.732,606.724
		z M436.289,691.897c-8.764-0.705-17.533-1.356-26.29-2.132c-5.064-0.449-8.936,1.917-10.508,6.216
		c-1.54,4.21,0.811,7.864,4.602,10.51c3.897,2.72,8.417,3.589,12.816,4.65c46.617,11.26,92.716,6.485,137.68-7.455
		c72.723-22.55,131.028-64.593,169.436-131.736c19.415-33.944,28.651-70.507,27.5-109.569c-0.32-10.862-1.625-21.753-6.005-31.908
		c-2.716-6.296-7.126-8.443-11.916-6.329c-6.815,3.011-13.381,14.563-12.762,22.027c3.407,41.125-4.751,79.917-25.943,115.258
		c-24.774,41.319-59.633,72.435-102.188,94.751C543.778,681.841,491.57,693.646,436.289,691.897z M670.61,223.971
		c-0.785,19.041,16.403,32.477,31.889,32.305c18.938-0.212,34.028-14.831,33.822-33.084c-0.198-17.492-15.045-31.694-33.011-31.577
		C685.083,191.732,670.416,206.245,670.61,223.971z"/>
	<path fill-rule="evenodd" clip-rule="evenodd" fill="#FDF6ED" d="M637.551,825.432c-17.11,1.856-33.604,3.561-50.074,5.474
		c-6.651,0.772-13.266,1.914-19.867,3.063c-2.183,0.38-3.645,0.675-5.051-1.835c-10.523-18.794-23.6-35.817-38.9-54.433
		c10.299,0,18.777,0.601,27.138-0.143c12.186-1.08,24.314-2.949,36.411-4.849c4.768-0.749,8.127,0.083,11.457,3.939
		C612.182,792.307,626.177,807.56,637.551,825.432z"/>
	<path fill-rule="evenodd" clip-rule="evenodd" fill="#067D8A" d="M430.732,606.724c9.749-3.924,16.608-9.635,23.832-14.58
		c7.363-5.039,13.924-11.153,19.839-17.912c9.642-11.018,11.623-24.092,4.907-37.241c-4.473-8.761-10.236-16.891-14.379-25.789
		c-13.761-29.549-8.165-57.365,8.865-83.718c3.589-5.555,7.006-5.306,11.713-0.269c14.267,15.269,24.848,32.695,27.191,53.682
		c1.566,14.02,0.688,28.254-3.52,42.06c-2.116,6.94-3.501,14.104-5.544,22.515c7.578-5.54,11.291-12.563,16.305-18.39
		c13.107-15.239,23.074-32.536,31.137-50.811c8.443-19.133,2.207-35.223-11.107-50.221c-12.5-14.081-19.811-30.726-18.606-50.197
		c0.728-11.773,4.419-22.705,9.23-33.375c1.921-4.26,5.633-5.137,8.366-2.968c14.588,11.584,28.332,23.873,33.944,42.82
		c4.167,14.068,3.102,28.024-0.545,41.645c-2.234,8.348,1.02,15.667,0.728,24.666c11.538-10.934,19.496-22.561,24.859-36.489
		c11.022-28.627,31.586-46.501,62.469-50.91c7.259-1.037,14.794-0.122,22.202-0.131c3.985-0.005,4.828,2.642,4.022,5.604
		c-6.741,24.741-17.401,47.011-40.644,60.599c-8.613,5.035-18.345,7.542-27.858,10.45c-15.883,4.853-25.53,17.081-34.472,29.913
		c-4.199,6.027-8.195,12.28-11.724,20.773c5.931-3.432,10.437-5.774,14.666-8.54c10.448-6.829,21.927-9.907,34.209-12.041
		c21.232-3.689,39.156,3.588,56.795,13.633c4.812,2.741,4.849,5.38,1.31,9.075c-14.19,14.815-30.53,25.989-51.019,30.043
		c-14.67,2.904-29.185,0.745-43.426-2.588c-18.547-4.338-32.9,0.675-43.11,16.966c-6.91,11.026-15.931,20.47-24.335,32.075
		c12.407-5.628,23.722-10.68,35.977-13.286c26.6-5.656,50.234,1.033,71.473,17.04c8.307,6.26,7.592,6.364-1.203,13.256
		c-11.974,9.382-25.157,16.114-39.698,20.176c-20.032,5.594-39.353,2.416-58.179-5.439c-10.483-4.375-20.924-7.278-32.61-4.157
		c-7.521,2.009-12.676,7.023-18.211,11.47c-29.725,23.884-62.734,40.978-100.022,49.421c-11.419,2.586-17.558-1.803-17.426-11.796
		c0.076-5.699,3.342-8.749,8.367-10.236c10.439-3.094,20.646-6.653,30.441-11.548c9.979-4.986,12.529-17.024,10.951-25.276
		c-1.697-8.869-6.386-16.515-10.055-24.604c-9.193-20.266-6.304-40.296,2.327-59.918c1.991-4.529,5.951-4.969,9.773-2.253
		c15.243,10.826,28.792,22.862,32.397,42.712c2.577,14.188-0.231,27.423-5.373,40.469
		C434.394,597.079,432.894,601.086,430.732,606.724z"/>
	<path fill-rule="evenodd" clip-rule="evenodd" fill="#BE2D12" d="M436.289,691.897c55.282,1.748,107.49-10.057,156.42-35.717
		c42.556-22.316,77.414-53.432,102.188-94.751c21.192-35.341,29.351-74.133,25.943-115.258c-0.619-7.464,5.946-19.017,12.762-22.027
		c4.79-2.115,9.2,0.033,11.916,6.329c4.38,10.155,5.685,21.046,6.005,31.908c1.151,39.062-8.085,75.625-27.5,109.569
		c-38.407,67.144-96.713,109.187-169.436,131.736c-44.963,13.94-91.063,18.715-137.68,7.455c-4.398-1.062-8.918-1.931-12.816-4.65
		c-3.791-2.646-6.141-6.3-4.602-10.51c1.572-4.299,5.443-6.665,10.508-6.216C418.755,690.541,427.525,691.192,436.289,691.897z"/>
	<path fill-rule="evenodd" clip-rule="evenodd" fill="#BE2D12" d="M670.61,223.971c-0.194-17.726,14.473-32.238,32.7-32.356
		c17.966-0.117,32.813,14.085,33.011,31.577c0.206,18.253-14.885,32.872-33.822,33.084
		C687.014,256.447,669.825,243.012,670.61,223.971z"/>
</g>
</svg>
