<svg version="1.1" id="Layer_1" xmlns="http://www.w3.org/2000/svg" xmlns:xlink="http://www.w3.org/1999/xlink" x="0px" y="0px"
	 width="500px" height="500px" viewBox="0 0 500 500" enable-background="new 0 0 500 500" xml:space="preserve">
<path fill-rule="evenodd" clip-rule="evenodd" fill="#C03B16" d="M413.241,314.182c-0.09,0.908-0.181,1.818-0.27,2.73
	c-0.246,0.686-0.492,1.367-0.738,2.05c-0.07,0.403-0.14,0.807-0.21,1.211c-0.684,2.281-1.426,4.548-2.044,6.848
	c-6.889,25.603-19.974,47.139-40.783,63.97c-14.127,11.426-29.932,19.399-47.408,24.962c4.882,8.426,9.487,16.544,14.305,24.536
	c0.824,1.367,2.395,2.771,3.883,3.166c5.568,1.474,11.245,2.535,16.882,3.751c5.575,2.475,11.307,4.659,16.653,7.556
	c2.409,1.306,4.053,4.03,6.042,6.11l-0.216,0.444l0.321,0.397c-0.049,0.573-0.098,1.148-0.148,1.724
	c-0.285,0.605-0.57,1.209-0.856,1.812c-2.763,3.705-6.43,3.668-10.257,2.282c-23.93-8.666-48.781-10.992-73.857-9.074
	c-16.262,1.244-32.347,4.793-48.518,7.259c-2.338,0.356-5.351,1.428-6.935,0.418c-2.518-1.606-5.069-4.466-5.692-7.228
	c-0.352-1.556,2.761-5.078,4.953-5.814c9.07-3.051,18.384-5.376,29.19-8.41c-5.309-7.567-9.049-17.229-16.082-21.636
	c-6.279-3.934-16.249-6.775-24.466-2.196c-19.115,10.65-38.593,20.264-60.253,24.454c-18.503,3.581-36.964,4.208-54.933-2.871
	c-2.951-1.162-5.855-2.64-8.458-4.438c-6.437-4.447-5.83-9.367,0.908-13.221c15.406-8.808,30.645-17.908,45.951-26.891
	c-0.222-0.658-0.443-1.315-0.665-1.974c-5.383-0.449-10.775-0.814-16.148-1.361c-29.946-3.043-55.548-14.317-73.918-39.194
	c-0.946-1.28-1.847-2.623-2.558-4.042c-3.385-6.76-1.421-10.497,6.042-12.001c6.259-1.262,12.579-2.382,18.699-4.16
	c25.22-7.328,45.772-21.616,61.496-42.607c19.657-26.242,39.374-52.451,58.459-79.107c12.568-17.552,19.545-37.905,26.563-58.147
	c11.092-31.993,30.864-55.866,64.213-66.098c18.297-5.614,36.686-4.281,54.754,1.842c3.18,1.489,6.36,2.979,9.541,4.468
	c3.106,2.036,6.214,4.071,9.321,6.107c1.842,1.516,3.683,3.034,5.524,4.55c4.664,5.253,9.327,10.507,13.991,15.759
	c0.496,0.771,0.991,1.542,1.489,2.313c1.271,2.457,2.792,4.819,3.765,7.389c1.877,4.951,5.292,7.663,10.513,8.189
	c3.963,1.285,7.925,2.57,11.886,3.855l-0.072-0.066c0.448,0.229,0.894,0.46,1.34,0.691c0.442,0.124,0.886,0.247,1.328,0.369
	c0.313,0.141,0.626,0.281,0.94,0.422c3.926,1.128,7.852,2.256,11.777,3.384c2.471,0.776,4.94,1.553,7.411,2.328
	c3.61,2.073,9.118,2.107,8.908,8.288c-0.453,1.212-0.906,2.426-1.358,3.64c-1.576,1.375-3.151,2.752-4.728,4.127
	c-1.758,0.971-3.514,1.941-5.271,2.912c-6.014,3.83-12.026,7.66-18.04,11.491c-6.903,3.321-12.333,8.156-13.54,16.004
	c-0.799,5.191-0.377,10.57-0.501,15.865c0.128,1.231,0.257,2.462,0.386,3.692c0.202,0.893,0.404,1.785,0.606,2.677
	c0.385,1.59,0.769,3.18,1.152,4.769l-0.158,0.437l0.358,0.342c0.084,0.447,0.167,0.892,0.25,1.339
	c0.275,0.878,0.55,1.757,0.826,2.635c0.616,2.339,1.233,4.679,1.849,7.018c0.192,0.446,0.385,0.89,0.577,1.335
	c0.141,0.741,0.281,1.482,0.422,2.224c0.239,0.529,0.478,1.058,0.716,1.585c0.195,1.079,0.392,2.157,0.588,3.235
	c0.22,0.468,0.44,0.937,0.66,1.405c0.137,0.729,0.273,1.458,0.41,2.186c0.324,1.083,0.648,2.167,0.973,3.251
	c0.121,0.529,0.242,1.059,0.363,1.588c0.283,1.056,0.565,2.111,0.85,3.166c0.104,0.543,0.205,1.086,0.309,1.629
	c0.252,1.205,0.505,2.41,0.757,3.617c0.161,16.309,0.323,32.617,0.484,48.927C413.576,311.643,413.409,312.911,413.241,314.182z
	 M83.107,354.277c14.361,13.978,31.944,21.008,51.229,22.348c14.617,1.015,29.452-0.544,44.148-1.549
	c5.64-0.386,9.276,1.501,11.839,6.087c2.684,4.806-0.893,7.441-3.928,10.012c-6.558,5.551-13.033,11.23-19.923,16.345
	c-9.366,6.953-19.089,13.428-28.659,20.107c0.129,0.589,0.258,1.178,0.387,1.768c9.417-0.979,18.993-1.188,28.218-3.098
	c19.24-3.982,36.131-13.738,52.826-23.608c5.725-3.386,11.247-3.964,17.685-2.685c26.078,5.181,52.087,5.101,77.66-2.928
	c41.279-12.959,67.973-39.792,77.616-82.559c5.479-24.293,3.186-48.146-4.681-71.52c-6.206-18.441-6.031-37.257-5.128-56.345
	c0.476-10.072,0.367-20.53-1.794-30.302c-8.089-36.568-39.108-57.482-75.435-51.006c-31.646,5.643-49.413,26.708-58.658,56.009
	c-6.029,19.104-11.724,38.536-23.433,54.886c-22.683,31.675-46.155,62.804-69.959,93.649c-11.866,15.373-27.244,27.006-45.174,34.82
	C99.932,348.2,91.628,351.02,83.107,354.277z M315.335,443.351c0.267-0.704,0.533-1.407,0.801-2.111
	c-4.048-6.118-7.974-12.323-12.233-18.289c-0.98-1.373-3.161-2.813-4.694-2.716c-8.229,0.511-16.428,1.498-24.976,2.354
	c3.636,6.202,6.92,12.098,10.546,17.773c0.875,1.368,2.86,2.81,4.378,2.856C297.876,443.488,306.607,443.351,315.335,443.351z"/>
<path fill-rule="evenodd" clip-rule="evenodd" fill="#2F7473" d="M226.602,318.627c9.265-4.556,18.935-6.304,29.071-3.748
	c7.253,1.829,8.886,6.679,4.053,12.393c-6.011,7.105-14.103,10.326-23.207,10.974c-3.771,0.268-7.785,0.655-11.347-0.296
	c-13.689-3.653-23.003,3.922-32.383,11.82c15.028-3.819,29.405-2.682,42.765,5.569c7.773,4.801,7.641,10.009-0.561,13.98
	c-14.722,7.13-30.17,7.908-44.404,0.015c-11.31-6.273-22.188-7.728-34.805-6.4c-10.735,1.131-21.812-0.899-32.729-1.645
	c-1.555-0.105-3.131-0.691-4.586-1.315c-3.29-1.409-6.38-3.395-5.202-7.56c1.249-4.414,4.832-4.655,8.755-3.811
	c4.063,0.876,8.225,2.336,12.259,2.101c9.463-0.551,15.518-7.133,18.168-17.941c1.085-4.417,2.106-9.149,4.53-12.834
	c1.623-2.468,6.055-5.029,8.518-4.461c2.549,0.588,5.424,4.644,6.081,7.639c1.933,8.803-2.505,15.835-8.183,22.103
	c-1.314,1.451-2.994,2.57-5.044,4.298c16.466,1.002,26.399-8.586,25.641-23.921c-0.285-5.776-1.211-11.516-1.7-17.285
	c-0.723-8.508,0.105-16.803,4.428-24.371c4.494-7.867,9.372-8.039,14.441-0.587c9.142,13.439,8.507,27.352,1.848,41.513
	c-0.748,1.247-1.498,2.492-2.243,3.737c0.003-0.001-0.174,0.168-0.174,0.168l0.16-0.112c1.019-1.03,2.038-2.061,3.057-3.09
	c2.524-2.832,5.112-5.607,7.56-8.506c6.776-8.021,9.691-16.454,5.186-27.039c-4.229-9.935-5.104-20.556-1.186-31.016
	c0.965-2.572,2.333-5.152,4.095-7.238c3.825-4.526,7.164-4.465,10.846,0.251c9.651,12.362,11.473,26.21,6.226,40.718
	c-3.046,8.423-7.304,16.408-11.016,24.591c-0.285,0.52-0.571,1.039-0.856,1.558c-0.236,0.321-0.473,0.643-0.708,0.963
	c0.385-0.136,0.771-0.271,1.153-0.41C225.604,319.16,226.104,318.895,226.602,318.627z"/>
<path fill-rule="evenodd" clip-rule="evenodd" fill="#F3AF1F" d="M279.052,327.988c-0.307-5.502-3.118-9.186-7.299-12.847
	c-12.982-11.367-16.102-31.82-8.12-48.536c8.04-16.84,25.898-26.668,43.69-24.045c32.509,4.792,48.737,39.23,31.065,66.02
	c-1.306,1.98-2.766,4.126-4.686,5.385c-5.156,3.38-7.384,8.055-7.438,14.009C310.526,327.977,294.789,327.982,279.052,327.988z
	 M306.771,324.549c4.994,1.212,7.873,0.332,7.06-5.242c-0.846-5.79,1.926-9.503,6.141-13.268
	c12.845-11.474,11.987-31.993-1.335-42.034c-11.497-8.666-28.178-6.718-37.194,4.346c-9.307,11.419-7.991,28.683,3.64,38.202
	c4.993,4.086,7.65,8.33,6.909,14.709c-0.129,1.104,0.316,2.273,0.572,3.895c2.317-0.114,4.369-0.215,6.828-0.337
	c0-3.765-0.059-6.935,0.011-10.102c0.218-9.898,1.524-20.122-8.457-26.806c-0.309-0.206-0.688-0.671-0.652-0.97
	c0.272-2.33-0.07-5.25,1.218-6.768c0.896-1.055,4.383-0.841,6.142,0.001c2.188,1.048,3.789,3.324,5.668,5.093
	c1.521-1.958,2.776-3.764,4.226-5.395c2.782-3.129,5.727-2.457,8.271,0.205c3.024,3.162,0.769,5.842-1.212,8.438
	c-2.615,3.427-6.977,6.623-7.479,10.339C305.992,307.246,306.771,315.894,306.771,324.549z"/>
<path fill-rule="evenodd" clip-rule="evenodd" fill="#C03B16" d="M334.35,172.59c-11.296,0.028-20.05-8.649-20.219-20.045
	c-0.149-9.992,9.4-19.477,19.682-19.548c11.185-0.078,20.554,8.896,20.685,19.809C354.635,164.268,346.19,172.561,334.35,172.59z"/>
<path fill-rule="evenodd" clip-rule="evenodd" fill="#2F7473" d="M279.052,327.988c15.737-0.006,31.475-0.012,47.214-0.015
	c3.184,8.195,1.265,11.172-7.423,11.225c-11.006,0.068-22.012,0.06-33.017-0.019C278.004,339.123,275.876,335.525,279.052,327.988z"
	/>
<path fill-rule="evenodd" clip-rule="evenodd" fill="#2F7473" d="M302.776,342.949c5.778,0,11.562,0.135,17.335-0.039
	c5.279-0.161,4.014,3.706,4.427,6.631c0.455,3.215-0.243,5.771-4.045,5.79c-11.955,0.063-23.911,0.026-35.866-0.083
	c-4.544-0.042-4.679-3.254-4.613-6.725c0.072-3.707,0.902-6.029,5.429-5.765c5.76,0.335,11.554,0.08,17.334,0.08
	C302.776,342.876,302.776,342.913,302.776,342.949z"/>
<path fill-rule="evenodd" clip-rule="evenodd" fill="#2F7473" d="M289.022,359.593c8.911,0,17.311,0,25.722,0
	c-0.1,6.607-5.254,12.62-11.207,13.291C296.833,373.638,291.061,368.669,289.022,359.593z"/>
<path fill-rule="evenodd" clip-rule="evenodd" fill="#F3AF1F" d="M294.858,216.938c-0.095-2.19-0.884-4.672-0.112-6.494
	c0.917-2.167,3.301-5.362,4.818-5.24c2.266,0.182,5.813,2.594,6.185,4.554c0.908,4.812,0.841,9.992,0.065,14.848
	c-0.314,1.975-3.459,4.811-5.357,4.844c-1.84,0.032-4.487-2.71-5.394-4.826C294.127,222.434,294.855,219.53,294.858,216.938z"/>
<path fill-rule="evenodd" clip-rule="evenodd" fill="#F3AF1F" d="M364.687,285.391c-2.184,0-4.815,0.766-6.441-0.185
	c-2.244-1.313-4.778-3.747-5.162-6.038c-0.239-1.434,3.015-4.573,5.119-5.033c3.992-0.871,8.285-0.442,12.453-0.413
	c3.737,0.026,6.739,2.129,5.976,5.676c-0.489,2.271-3.654,4.343-6.074,5.681c-1.521,0.841-3.885,0.155-5.87,0.155
	C364.687,285.286,364.687,285.338,364.687,285.391z"/>
<path fill-rule="evenodd" clip-rule="evenodd" fill="#F3AF1F" d="M250.947,226.573c4.936,0.033,15.191,9.379,15.559,13.07
	c0.422,4.254-3.746,7.728-7.294,5.495c-4.304-2.709-8.142-6.281-11.728-9.925c-1.036-1.051-1.232-4.003-0.511-5.422
	C247.809,228.143,250.079,227.224,250.947,226.573z"/>
<path fill-rule="evenodd" clip-rule="evenodd" fill="#F3AF1F" d="M348.72,225.166c4.522,0.07,7.521,4.838,4.764,8.316
	c-2.921,3.682-6.519,6.962-10.289,9.795c-3.249,2.441-7.874-0.442-7.979-4.537C335.109,234.523,344.484,225.1,348.72,225.166z"/>
<path fill-rule="evenodd" clip-rule="evenodd" fill="#C03B16" d="M326.136,47.146c0.181-3.318,1.692-7.076,0.215-9.836
	c-1.755-3.282-6.317-8.122-9.224-7.937c-4.336,0.275-11.126,3.928-11.836,6.897c-1.738,7.287-1.609,15.134-0.125,22.488
	c0.603,2.991,6.621,7.287,10.254,7.336c3.522,0.048,8.589-4.104,10.322-7.31C327.536,55.471,326.141,51.073,326.136,47.146z"/>
<path fill-rule="evenodd" clip-rule="evenodd" fill="#C03B16" d="M192.489,150.823c4.179,0,9.216,1.16,12.329-0.279
	c4.295-1.989,9.146-5.675,9.879-9.145c0.458-2.171-5.77-6.927-9.797-7.623c-7.641-1.319-15.858-0.67-23.835-0.626
	c-7.153,0.04-12.898,3.225-11.437,8.597c0.936,3.438,6.994,6.577,11.625,8.604c2.91,1.273,7.436,0.235,11.235,0.235
	C192.489,150.665,192.489,150.743,192.489,150.823z"/>
<path fill-rule="evenodd" clip-rule="evenodd" fill="#C03B16" d="M410.179,61.739c-9.447,0.05-29.076,14.205-29.778,19.796
	c-0.808,6.444,7.17,11.704,13.96,8.323c8.236-4.103,15.582-9.513,22.445-15.032c1.982-1.592,2.359-6.063,0.978-8.213
	C416.184,64.118,411.84,62.725,410.179,61.739z"/>
<path fill-rule="evenodd" clip-rule="evenodd" fill="#C03B16" d="M223.048,59.609c-8.655,0.106-14.395,7.327-9.117,12.595
	c5.59,5.577,12.476,10.544,19.692,14.835c6.218,3.698,15.071-0.669,15.27-6.871C249.098,73.781,231.155,59.509,223.048,59.609z"/>
<path fill-rule="evenodd" clip-rule="evenodd" fill="#FDF8F0" d="M203.809,325.559c-1.019,1.029-2.038,2.06-3.057,3.09l0.012-0.056
	c0.748-1.245,1.498-2.49,2.246-3.737C203.283,325.082,203.549,325.315,203.809,325.559z"/>
<path fill-rule="evenodd" clip-rule="evenodd" fill="#FDF8F0" d="M225.109,319.434c-0.385,0.135-0.771,0.271-1.155,0.406
	c0.236-0.32,0.473-0.642,0.708-0.963C224.824,319.052,224.973,319.238,225.109,319.434z"/>
<path fill-rule="evenodd" clip-rule="evenodd" fill="#FDF8F0" d="M224.663,318.877c0.285-0.519,0.571-1.038,0.856-1.558
	c0.36,0.436,0.721,0.87,1.083,1.307c-0.499,0.269-0.998,0.534-1.495,0.804C224.973,319.238,224.824,319.052,224.663,318.877z"/>
<polygon fill-rule="evenodd" clip-rule="evenodd" fill="#FDF8F0" points="200.751,328.648 200.592,328.761 200.766,328.593 "/>
</svg>
