<svg version="1.1" id="Layer_1" xmlns="http://www.w3.org/2000/svg" xmlns:xlink="http://www.w3.org/1999/xlink" x="0px" y="0px"
	 width="500px" height="500px" viewBox="0 0 500 500" enable-background="new 0 0 500 500" xml:space="preserve">
<g>
	<path fill-rule="evenodd" clip-rule="evenodd" fill="#D03722" d="M99.903,104.112c-2.412-7.151-4.58-14.335-5.572-21.877
		c-1.973-15.016,0.786-29.263,6.567-43.029c6.046-14.396,14.524-27.117,26.712-37.105c5.383-4.412,12.808-1.514,13.956,5.365
		c1.828,10.958,4.094,21.779,9.154,31.815c6.697,13.283,16.436,24.006,27.791,33.417c12.84,10.641,27.196,19.047,41.099,28.129
		c15.223,9.944,29.568,20.898,40.173,36.008c0.956,1.363,1.881,2.749,2.838,4.148c8.093-9.675,13.245-20.845,17.896-32.329
		c6.066-14.977,13.547-29.147,25.533-40.353c12.591-11.77,27.463-18.812,44.704-20.563c23.786-2.416,44.739,4.103,62.621,20.072
		c6.886,6.15,12.451,13.381,16.494,21.687c1.219,2.505,2.828,3.84,5.522,4.609c12.386,3.537,24.711,7.287,37.052,10.985
		c1.707,0.512,3.409,0.991,3.633,3.318c0.22,2.291-1.292,2.971-2.855,3.952c-10.882,6.818-21.686,13.741-31.088,22.612
		c-4.808,4.535-7.52,10.164-9.04,16.439c-2.169,8.961-1.364,18.005-0.903,27.092c0.319,6.318,1.194,12.577,1.696,18.861
		c0.73,9.18,2.028,18.316,1.767,27.554c-0.803,28.365-6.536,55.356-22.271,79.553c-11.718,18.02-26.461,33.008-44.837,44.81
		c22.56,8.875,39.568,23.712,50.488,45.361c12.989-9.515,26.581-17.528,41.004-24.122c1.716-0.785,3.414-1.614,5.348-1.771
		c3.776-0.307,6.297,1.105,7.464,4.229c1.278,3.421,0.232,7.338-2.894,9.082c-4.067,2.271-8.325,4.207-12.532,6.22
		c-22.718,10.866-42.496,25.327-57,46.313c-1.852,2.678-4.299,4.621-7.906,3.78c-3.294-0.768-5.193-2.893-5.637-6.247
		c-0.334-2.524,1.006-4.51,2.333-6.43c4.712-6.818,9.942-13.227,15.846-19.042c1.563-1.539,1.608-2.623,0.665-4.506
		c-11.982-23.951-31.549-37.031-57.819-40.584c-1.898-0.257-3.711,0.005-5.54,0.776c-21.994,9.276-44.952,13.374-68.794,12.722
		c-6.803-0.186-13.615-0.208-20.329-1.453c-2.132-0.395-3.014,0.967-4.098,2.2c-12.854,14.635-27.46,27.167-44.36,36.94
		c-8.774,5.074-18.122,8.846-28.014,12.184c1.351,1.816,2.586,3.498,3.841,5.165c6.686,8.88,11.475,18.765,14.945,29.255
		c0.902,2.725,1.938,2.725,4.173,2.015c16.673-5.308,33.735-9.01,51.067-11.183c19.989-2.504,40.062-3.477,60.241-2.26
		c20.677,1.245,40.947,4.437,60.643,10.922c11.854,3.904,23.087,9.219,33.915,15.387c5.17,2.945,6.83,8.445,4.162,13.083
		c-2.634,4.579-7.902,5.888-13.096,2.955c-12.319-6.953-24.787-13.372-38.682-16.862c-26.997-6.783-54.327-8.873-82.052-7.37
		c-17.535,0.951-34.857,3.228-51.954,7.191c-19.038,4.414-37.244,11.229-54.967,19.38c-5.222,2.401-10.399,4.902-15.57,7.415
		c-5.002,2.433-10.177,0.983-12.617-3.61c-2.463-4.634-0.708-10.202,4.226-12.793c11.321-5.943,23.012-11.085,34.984-15.557
		c2.149-0.801,2.227-1.691,1.608-3.539c-4.833-14.434-12.719-26.903-23.784-37.363c-1.219-1.152-2.363-2.387-3.593-3.528
		c-1.689-1.566-2.584-3.427-1.888-5.698c0.679-2.212,2.588-2.965,4.655-3.293c31.099-4.94,55.129-22.045,76.575-44.315
		c-5.662-1.749-11.075-3.214-16.342-5.09c-11.127-3.964-21.646-9.253-31.758-15.333c-1.279-0.767-2.256-0.94-3.62-0.403
		c-27.575,10.871-52.434,25.947-73.322,47.204c-8.649,8.803-15.914,18.687-22.787,28.89c-4.202,6.239-9.078,6.726-14.359,1.501
		c-8.001-7.913-14.845-16.552-18.316-27.539c-3.586-11.354-2.7-22.421,1.496-33.345c0.745-1.94,0.33-2.677-1.416-3.685
		c-18-10.394-28.41-25.785-30.734-46.614c-1.246-11.157-0.369-22.068,2.799-32.781c2.035-6.879,7.897-8.472,13.499-4.097
		c15.665,12.234,33.118,20.716,52.829,23.899c22.201,3.588,43.376,1.583,61.715-13.161c4.956-3.985,9.311-8.581,13.207-14.121
		c-16.098-1.602-31.108-5.612-45.159-12.857c-18.979-9.789-34.089-23.485-43.214-43.152c-0.513-1.105-1.014-2.232-1.358-3.396
		c-1.882-6.363,0.628-14.161,10.68-11.803c8.277,1.941,16.727,2.299,26.073,2.609c-10.345-4.921-18.955-10.913-26.359-18.501
		c-12.903-13.222-20.845-28.948-23.673-47.275c-2.569-16.654-1.057-33.102,2.16-49.471c0.731-3.721,3.136-6.47,6.855-7.55
		c3.627-1.053,6.493,0.66,8.932,3.238c5.688,6.012,11.457,11.938,18.105,16.925c0.223,0.22,0.445,0.441,0.667,0.663
		C100.523,104.63,100.491,104.285,99.903,104.112z M99.486,223.034c5.104,7.532,10.74,13.667,17.593,18.563
		c19.103,13.644,40.634,19.262,63.862,18.195c6.457-0.296,9.182,4.378,6.588,9.638c-11.013,22.326-27.226,38.951-51.521,46.366
		c-22.766,6.945-45.322,4.729-67.646-2.492c-10.613-3.433-20.449-8.475-29.952-14.272c-1.561,6.816-1.716,13.614-0.171,20.065
		c4.162,17.378,15.005,28.606,32.568,32.928c6.755,1.663,8.203,5.807,3.55,11.049c-4.332,4.88-7.187,10.703-7.849,16.881
		c-1.229,11.476,2.144,21.809,10.873,30.012c0.546-0.738,1.09-1.443,1.601-2.172c8.125-11.583,17.503-22.049,28.091-31.429
		c20.994-18.6,45.037-32.131,70.781-42.953c4.968-2.088,8.699-1.72,13.199,1.215c21.61,14.092,45.708,21.577,71.097,24.543
		c9.904,1.157,20.061,0.598,30.138-0.322c14.169-1.294,27.833-4.411,41.032-9.547c30.921-12.029,55.032-32.112,71.188-61.27
		c10.016-18.078,13.76-37.884,14.942-58.258c0.973-16.763-1.438-33.407-2.311-50.1c-0.676-12.917,0.081-25.608,2.8-38.2
		c1.776-8.225,3.278-16.534,2.082-24.894c-4.263-29.792-27.518-50.09-55.189-53.102c-24.14-2.628-43.781,6.681-58.365,26.286
		c-7.595,10.21-12.199,21.942-17.12,33.509c-6.274,14.75-14.796,27.966-26.374,39.128c-3.081,2.97-5.541,2.734-7.996-0.744
		c-0.705-1-1.336-2.053-1.965-3.104c-10.038-16.768-23.341-30.352-39.548-41.253c-12.577-8.458-25.671-16.141-37.835-25.213
		c-14.237-10.619-27.331-22.359-36.669-37.737c-5.6-9.222-9.729-19.089-12.649-30.029c-4.632,5.378-8.474,10.641-11.323,16.64
		c-6.398,13.474-9.547,27.509-6.937,42.384c2.66,15.153,9.645,28.112,20.821,38.746c2.348,2.234,4.908,4.255,7.169,6.57
		c3.088,3.161,2.348,7.889-1.433,9.475c-2.041,0.856-4.165,0.392-6.197-0.345c-16.517-5.983-32.33-13.297-46.146-24.386
		c-1.601-1.286-3.164-2.617-4.952-4.099c-0.263,1.714-0.482,3.005-0.657,4.302c-1.572,11.723-1.596,23.343,2.244,34.721
		c6.871,20.358,20.778,34.41,39.495,44.184c7.139,3.729,14.652,6.421,22.471,8.275c3.173,0.751,5.253,2.694,5.692,5.818
		c0.44,3.139-1.141,5.583-3.906,7.159c-1.253,0.714-2.53,1.404-3.85,1.983C127.84,221.431,114.243,223.663,99.486,223.034z"/>
	<path fill-rule="evenodd" clip-rule="evenodd" fill="#EF9D29" d="M461.619,430.146c0.302,1.884-0.586,2.478-2.429,2.398
		c-2.036-0.087-2.574-1.148-2.642-2.969c-0.09-2.421,1.421-2.077,3.031-2.19C461.921,427.222,461.719,428.638,461.619,430.146z"/>
	<path fill-rule="evenodd" clip-rule="evenodd" fill="#067889" d="M271.952,322.035c-26.549-0.853-47.516-11.426-60.176-35.616
		c-11.56-22.085-7.355-47.6,10.073-64.17c23.172-22.031,62.135-13.1,71.814,16.462c5.869,17.927-3.079,36.796-20.108,42.411
		c-13.501,4.451-27.507-2.284-31.509-15.313c-2.266-7.372-0.82-14.132,4.405-19.862c3.021-3.313,7.157-3.729,10.215-1.385
		c3.055,2.34,3.63,5.879,1.274,9.829c-1.979,3.32-2.386,6.525,0.151,9.594c2.584,3.126,6.088,4.067,9.966,3.153
		c10.132-2.392,15.074-13.945,10.664-24.749c-7.751-18.991-33.418-23.351-47.786-8.051c-8.305,8.842-11.726,19.381-9.684,31.36
		c3.411,20.017,15.733,32.691,34.581,38.446c21.246,6.487,40.601,0.873,58.09-12.079c11.355-8.41,19.522-19.489,26.147-31.812
		c0.578-1.074,1.058-2.222,1.767-3.201c1.852-2.551,4.432-3.48,7.354-2.353c2.849,1.1,3.867,3.521,3.475,6.498
		c-1.006,7.62-4.637,14.179-8.926,20.279c-14.5,20.625-33.796,34.301-58.721,39.479
		C280.746,321.845,276.384,322.074,271.952,322.035z"/>
	<path fill-rule="evenodd" clip-rule="evenodd" fill="#EF9D29" d="M304.198,229.192c1.114-3.668,2.29-7.613,3.513-11.543
		c0.958-3.082,1.786-6.224,3.02-9.195c1.229-2.96,0.21-4.803-2.137-6.504c-4.612-3.343-9.15-6.789-13.71-10.205
		c-0.803-0.602-1.546-1.283-2.338-1.9c-1.648-1.287-2.534-2.94-1.834-4.98c0.718-2.094,2.663-2.088,4.473-2.097
		c7.161-0.029,14.321-0.084,21.482-0.035c2.024,0.014,3.028-0.397,3.703-2.706c1.894-6.486,4.291-12.826,6.534-19.208
		c0.726-2.065,1.757-4.181,4.278-4.09c2.455,0.088,3.485,2.167,4.149,4.27c1.911,6.048,3.829,12.095,5.643,18.173
		c0.779,2.606,2.125,3.75,5.055,3.639c6.368-0.242,12.753-0.064,19.13-0.075c1.348-0.002,2.662,0.071,3.916,0.652
		c2.264,1.049,2.662,2.677,1.155,4.688c-2.535,3.38-6.339,5.212-9.522,7.796c-2.856,2.319-5.86,4.48-8.939,6.496
		c-1.894,1.239-2.345,2.384-1.593,4.659c2.303,6.973,4.185,14.085,6.421,21.082c0.637,1.992,0.341,3.53-1.083,4.802
		c-1.569,1.404-3.003,0.573-4.478-0.504c-6.041-4.413-12.216-8.645-18.177-13.162c-1.897-1.437-3.106-1.284-4.873,0.069
		c-5.763,4.414-11.641,8.679-17.49,12.978c-1.271,0.934-2.577,1.843-4.275,0.855C304.803,232.319,304.333,231.023,304.198,229.192z"
		/>
	<path fill-rule="evenodd" clip-rule="evenodd" fill="#D03722" d="M379.018,125.722c-8.638-0.013-15.305-6.788-15.27-15.518
		c0.035-8.627,6.88-15.462,15.479-15.457c8.624,0.006,15.541,7.067,15.476,15.795C394.638,118.961,387.639,125.735,379.018,125.722z
		"/>
</g>
</svg>
