<svg version="1.1" id="Layer_1" xmlns="http://www.w3.org/2000/svg" xmlns:xlink="http://www.w3.org/1999/xlink" x="0px" y="0px"
	 width="500px" height="500px" viewBox="0 0 500 500" enable-background="new 0 0 500 500" xml:space="preserve">
<path fill="#05768D" d="M266.539,366.645c8.23-3.979,15.285-9.196,19.188-17.857c0.737-1.641,1.076-2.489-1.31-2.609
	c-11.64-0.591-15.584-7.885-17.478-17.014c-1.123-5.409-3.148-9.999-8.392-12.758c-2.679-1.412-0.489-2.995,0.687-3.789
	c3.746-2.531,7.721-1.934,11.574-0.137c3.575,1.668,6.615,4.061,9.15,8.17c-0.064-3.448-0.27-5.989,0.391-8.52
	c1.359-5.201,5.65-8.951,9.967-8.484c4.738,0.517,8.938,5.129,9.217,10.246c0.09,1.683,0.248,3.401-0.319,5.057
	c-0.042,0.289-0.204,0.77-0.107,0.826c0.41,0.25,0.418-0.181,0.515-0.428c3.916-6.709,9.263-10.963,17.521-10.361
	c1.525,0.111,2.889,0.466,4.031,1.484c1.787,1.6,2.368,2.993-0.436,4.239c-4.25,1.892-6.44,5.452-7.579,9.815
	c-0.624,2.395-1.281,4.787-2.103,7.115c-2.803,7.969-8.627,12.485-16.743,14.09c-1.688,0.334-2.129,0.881-2.35,2.518
	c-0.424,3.184-1.41,6.27-2.766,9.729c12.886-5.271,23.14-13.074,31.326-23.666c6.9-8.928,14.419-17.158,25.272-21.442
	c12.362-4.882,24.788-5.394,37.309-0.604c1.059,0.402,2.46,0.656,2.473,1.936c0.012,1.207-1.284,2.031-2.324,2.214
	c-13.102,2.319-22.059,11.918-32.725,18.5c-6.789,4.19-12.998,10.235-21.12,10.969c-11.649,1.054-20.643,7.183-30.213,12.714
	c-13.299,7.688-27.409,13.637-42.354,17.43c-2.068,0.524-4.222,0.75-6.345,1.031c-0.611,0.079-1.512,0.371-1.838-0.322
	c-0.465-0.979,0.57-1.365,1.159-1.758c2.458-1.635,4.81-3.367,6.8-5.578c4.567-5.076,5.14-9.213,2.14-15.315
	c-1.32-2.69,1.012-3.593,2.639-4.043c2.854-0.787,5.603-0.128,7.664,2.317c2.021,2.395,2.547,4.949,1.09,7.832
	c-1.086,2.143-2.696,3.894-4.146,5.769c-0.627,0.295-1.707,0.808-1.342,1.292C265.2,367.969,265.816,366.674,266.539,366.645z"/>
<path fill="#05768D" d="M148.627,408.682c3.656-2.73,6.716-5.947,8.689-9.914c3.033-6.101,4.474-12.218-0.344-18.404
	c-2.32-2.979-4.362-6.297-4.64-10.367c-0.373-5.398,2.889-9.135,8.33-9.245c1.02-0.022,2.041-0.037,3.059-0.026
	c6.888,0.086,11.138,5.203,9.792,11.948c-0.682,3.423-1.58,6.806-2.47,10.183c-0.849,3.221-1.816,6.406-2.81,9.89
	c5.371-3.972,10.835-6.433,17.499-4.847c6.511,1.55,10.184,5.758,10.377,12.408c0.103,3.5-1.588,6.086-4.417,7.907
	c-2.636,1.698-5.168,0.892-7.62-0.649c-5.073-3.188-10.239-5.693-16.564-3.709c-6.357,1.996-9.457,7.406-13.34,12.035
	c-0.271,0.32-0.591,0.826-0.074,1.112c0.325,0.181,1.024,0.187,1.25-0.038c3.082-3.051,7.012-2.695,10.769-2.531
	c4.972,0.217,7.898,3.379,8.134,8.265c0.182,3.737-2.289,6.314-6.891,7.538c-2.916,0.773-5.86,0.762-8.772,0.523
	c-6.081-0.497-10.132,2.333-13.085,7.313c-1.631,2.752-2.9,5.632-3.024,8.86c-0.129,3.368,1.09,4.316,4.341,3.458
	c2.397-0.636,4.075-2.322,5.707-4.099c0.701-0.765,1.328-2.365,2.564-1.708c1.206,0.641,0.803,2.156,0.592,3.424
	c-0.902,5.449-3.677,9.892-7.332,13.872c-2.701,2.942-9.115,3.537-12.033-1.06c-4.369-6.883-3.723-13.938-1.779-21.201
	c1.652-6.179,3.461-12.316,5.069-18.506c2.272-8.753,0.971-16.976-3.741-24.726c-1.238-2.037-2.917-4.021-1.849-6.881
	c1.458-3.896,5.859-6.721,10.21-6.211c4.413,0.514,6.401,2.693,6.619,7.859C151.09,397.063,150.159,402.864,148.627,408.682z"/>
<path fill="#05768D" d="M343.556,118.198c-5.68-3.217-11.252-6.375-16.49-10.094c-7.253-5.146-11.4-15.927-9.184-24.272
	c0.284-1.072,0.79-2.098,1.295-3.094c0.729-1.441,1.775-3.027,3.322-3.105c1.739-0.087,1.811,2.041,2.438,3.27
	c4.975,9.756,12.987,16.313,23.24,22.014c-3.062-4.095-5.462-7.49-7.346-11.215c-5.525-10.925-5.214-21.682,0.733-32.326
	c0.367-0.657,0.638-1.678,1.644-1.348c1.004,0.328,0.585,1.404,0.542,2.081c-0.806,12.394,4.951,22.11,12.417,31.246
	c8.738,10.696,16.95,21.763,21.185,35.168c0.454,1.437,2.218,3.501,0.365,4.522c-1.527,0.844-2.383-1.597-3.299-2.7
	c-4.438-5.33-10.26-6.342-16.587-5.313c-9.188,1.498-18.364,2.743-27.635,1.009c-5.204-0.975-10.308-2.542-15.533-3.317
	c-9.66-1.434-19.336-1.319-28.925,0.874c-2.161,0.494-5.183,1.41-6.25-0.237c-0.805-1.237,2.305-2.813,3.654-4.235
	c3.443-3.626,6.368-7.642,9.256-11.694c5.192-7.289,11.137-8.019,17.938-2.003c3.471,3.072,6.692,6.443,10.636,8.937
	C327.854,116.718,335.538,118.184,343.556,118.198z"/>
<path fill="#05768D" d="M430.803,180.03c-0.135,0.851,0.438,1.975-0.479,2.509c-1.037,0.603-1.98-0.167-2.709-0.849
	c-10.36-9.687-22.87-6.633-32.391,1.455c-7.139,6.066-12.49,13.692-18.109,21.082c-2.328,3.061-4.661,6.119-7.031,9.147
	c-0.553,0.708-1.331,1.592-2.256,1.149c-1.135-0.543-0.281-1.607-0.01-2.291c5.001-12.583,10.001-25.166,18.715-35.821
	c6.465-7.905,14.26-13.143,24.914-12.88c8.962,0.221,15.968,4.799,18.618,12.185C430.558,177.095,431.022,178.512,430.803,180.03z"
	/>
<path fill="#DB9221" d="M196.821,342.511c0.045-7.907,8.236-15.185,16.991-15.094c9.919,0.103,17.763,7.392,17.655,16.409
	c-0.124,10.509-7.804,18.531-17.909,17.992C202.203,361.212,197.421,354.875,196.821,342.511z M207.034,344.664
	c0.008,5.089,2.661,7.876,7.484,7.863c4-0.012,6.25-3.17,6.239-8.752c-0.012-4.959-2.063-6.822-7.486-6.799
	C208.877,336.996,207.024,339.277,207.034,344.664z"/>
<path fill="#05768D" d="M420.625,158.966c-5.436,0.049-10.133-4.932-10.249-10.864c-0.106-5.461,4.595-10.306,9.959-10.263
	c5.371,0.043,9.688,4.852,9.578,11.009C429.811,154.582,425.097,158.626,420.625,158.966z"/>
<path fill="#05768D" d="M398.037,107.298c-1.49,3.834-1.559,8.449-2.956,12.673c-1.582,4.783-5.252,8.079-9.854,10.115
	c-2.579,1.143-3.447,0.307-3.029-2.537c0.431-2.915,0.457-5.774-0.203-8.711c-1.272-5.674,4.068-12.365,10.804-13.79
	c0.989-0.209,2.004-0.349,3.013-0.412C397.875,104.508,398.268,104.929,398.037,107.298z"/>
<path fill="#05768D" d="M404.37,148.42c-0.042,5.858-3.928,10.068-9.202,9.967c-4.75-0.091-8.68-4.646-8.577-9.948
	c0.111-5.933,3.703-10.142,8.642-10.122C400.496,138.339,404.411,142.666,404.37,148.42z"/>
<path fill="#DB9221" d="M198.097,359.35c-0.573,4.592-7.712,12.557-12.06,13.414c-2.126,0.42-3.165-0.916-2.412-2.738
	c2.216-5.361,5.392-10.118,10.072-13.698c0.932-0.714,2.117-0.962,3.145-0.16C197.897,356.986,198.088,358.234,198.097,359.35z"/>
<path fill="#DB9221" d="M213.897,320.568c0.257,2.213-0.878,3.521-2.845,4.004c-2.089,0.516-3.055-0.993-3.796-2.605
	c-1.819-3.953-2.253-8.229-2.806-12.47c-0.159-1.218-0.422-2.563,1.1-3.203c1.5-0.631,2.628,0.08,3.554,1.188
	C212.276,311.27,213.474,315.786,213.897,320.568z"/>
<path fill="#DB9221" d="M237.364,340.537c-2.084-0.037-3.728-0.811-4.384-2.709c-0.638-1.85,0.889-2.859,2.163-3.807
	c3.235-2.403,6.971-3.615,10.854-4.434c1.386-0.292,2.731,0.141,3.908,0.786c1.225,0.672,1.912,1.787,0.607,2.995
	C246.729,336.861,242.322,339.227,237.364,340.537z"/>
<path fill="#DB9221" d="M223.348,324.09c0.07-4.314,6.004-12.352,9.95-13.464c1.95-0.55,3.374,0.187,2.856,2.345
	c-1.262,5.268-4.219,9.674-7.77,13.66c-0.826,0.928-2.175,1.1-3.458,0.414C223.661,326.37,223.17,325.359,223.348,324.09z"/>
<path fill="#DB9221" d="M246.366,362.723c-3.9-0.924-8.332-2.474-11.75-6.031c-1.284-1.338-1.693-2.979-0.61-4.633
	c1.116-1.707,2.66-1.729,4.46-1.01c4.029,1.614,7.745,3.653,10.504,7.112c0.797,1.001,1.417,2.177,0.793,3.43
	C249.281,362.566,248.252,362.883,246.366,362.723z"/>
<path fill="#DB9221" d="M186.476,339.479c2.263,0.131,5.399-0.188,6.153,2.645c0.849,3.188-2.622,3.374-4.562,4.384
	c-3.863,2.015-7.917,1.138-11.91,0.406c-0.994-0.183-2.094-0.647-2.209-1.812c-0.139-1.39,0.82-2.315,1.974-2.877
	C179.188,340.635,182.623,339.618,186.476,339.479z"/>
<path fill="#DB9221" d="M231.563,376.568c-0.146,1.514,0.295,3.152-1.259,3.793c-1.658,0.686-2.767-0.555-3.693-1.715
	c-2.496-3.125-4.292-6.617-5.034-10.564c-0.344-1.827-0.216-3.656,1.721-4.707c2.144-1.163,3.123,0.661,4.134,1.85
	C230.247,368.525,231.336,372.512,231.563,376.568z"/>
<path fill="#DB9221" d="M203.668,377.468c0.301-3.44,0.876-7.102,2.397-10.53c1.139-2.568,2.362-2.701,4.174-0.567
	c0.823,0.968,1.417,2.096,1.435,3.356c0.055,3.733-0.505,7.396-1.934,10.852c-0.651,1.574-1.884,3.322-3.661,2.986
	c-1.796-0.338-2.063-2.44-2.296-4.137C203.706,378.873,203.715,378.307,203.668,377.468z"/>
<path fill="#DB9221" d="M189.295,319.377c3.568,0.355,7.264,1.878,10.326,4.727c1.313,1.223,2.695,2.67,1.505,4.685
	c-1.215,2.055-3.211,1.942-5.092,1.249c-3.755-1.387-7.079-3.48-9.501-6.754c-0.625-0.848-1.617-1.697-0.839-2.998
	C186.424,319.07,187.573,319.251,189.295,319.377z"/>
<g>
	<path fill="#BE2D12" d="M172.754,307.352c-4.736,13.64-11.563,26.217-19.583,38.152c-11.302,16.82-22.44,33.838-37.136,47.971
		c-12.298,11.825-24.041,24.368-38.791,33.382c-1.056,0.645-2.016,1.468-2.953,2.283c-3.997,3.487-4.916,7.318-2.967,12.18
		c5.206,12.979,23.378,21.775,36.82,17.812c0.646-0.191,1.274-0.48,1.861-0.811c0.441-0.251,1.218-0.322,1.051-1.092
		c-0.164-0.765-0.907-0.44-1.396-0.554c-4.646-1.055-9.134-2.554-13.32-4.854c-3.639-2.002-6.674-4.663-8.634-8.399
		c-3.264-6.229-0.629-12.68,6.041-14.979c4.114-1.42,8.327-1.537,12.325-0.122c2.632,0.929,2.331-0.092,2.38-1.935
		c0.132-5.039,1.836-9.479,5.506-13.085c3.647-3.584,8.086-4.389,12.87-3.521c3.419,0.621,5.859,4.451,6.084,8.851
		c0.241,4.733-1.329,9.103-2.563,13.562c-2.461,8.884-6.025,17.526-6.382,26.896c-0.231,6.118,1.392,11.65,5.948,16.019
		c3.738,3.585,8.043,4.366,12.799,2.298c7.303-3.18,12.297-9.137,17.518-14.778c13.249-14.314,25.031-29.83,36.937-45.241
		c13.123-16.983,29.66-28.353,51.384-30.942c23.725-2.827,45.982-11.061,68.477-18.369c20.423-6.639,40.396-14.508,58.624-26.055
		c32.936-20.867,56.098-49.772,69.313-86.44c5.063-14.046,7.457-28.719,8.393-43.661c1.981-31.622-7.011-60.636-21.403-88.121
		c-8.905-17.005-10.21-34.342-6.764-52.761c1.536-8.22,2.611-16.851-2.355-24.578c-4.002-6.227-9.066-11.523-15.091-15.859
		c-13.579-9.773-28.788-14.184-45.365-12.446c-14.146,1.484-25.826,8.827-36.549,17.735c-9.747,8.099-16.469,18.553-22.754,29.358
		c-8.467,14.56-17.979,28.299-31.795,38.429c-10.48,7.686-21.974,12.865-35.177,13.405c-5.959,0.245-11.838-0.223-17.263-3.25
		c5.774-0.926,11.563-1.374,17.15-3.08c19.919-6.081,34.214-19.173,45.583-36.085c6.187-9.203,11.105-19.159,17.237-28.377
		C311.085,27.838,327.3,14.55,349.047,8.931c12.271-3.171,24.547-2.884,37.068-0.197c15.255,3.274,28.172,10.174,38.763,21.431
		c3.925,4.171,7.443,8.772,9.619,14.195c1.083,2.707,2.94,4.127,5.838,4.988c11.406,3.392,22.624,7.374,33.789,11.495
		c0.846,0.313,1.988,0.642,1.946,1.626c-0.04,0.915-1.19,1.247-1.986,1.666c-6.555,3.451-13.755,5.493-20.086,9.495
		c-12.168,7.692-16.684,19.816-12.708,33.67c2.703,9.42,7.625,17.797,11.672,26.581c6.15,13.344,11.619,26.919,14.295,41.413
		c2.439,13.219,3.234,26.581,2.288,40.027c-1.265,17.988-4.602,35.547-11.073,52.414c-10.832,28.232-27.853,51.988-51.134,71.408
		C383.972,358.63,356.884,370,327.684,377.08c-10.23,2.479-20.271,5.462-29.196,11.299c-1.412,0.921-2.759,2.001-3.935,3.201
		c-2.435,2.488-2.92,5.498-0.976,8.361c5.312,7.819,11.994,14.498,18.971,20.758c2.752,2.471,7.253,2.075,11.021,2.588
		c8.59,1.169,17.179,2.247,25.314,5.504c4.813,1.926,9.103,4.561,12.191,8.805c1.563,2.148,2.671,4.548,1.701,7.293
		c-0.914,2.593-2.843,2.986-4.417,0.783c-6.264-8.766-18.552-12.706-29.904-12.739c0.477,0.883,1.278,1.025,2.053,1.338
		c7.174,2.896,12.73,7.64,16.429,14.497c0.783,1.45,1.239,2.979,0.861,4.563c-0.44,1.853-0.896,4.019-2.983,4.604
		c-2.339,0.652-2.881-1.667-3.895-3.063c-9.003-12.41-21.306-18.729-36.458-19.978c-7.832-0.646-15.509-0.072-23.078,2.055
		c-4.239,1.192-8.077,3.315-12.069,5.086c-1.756,0.778-4.121,2.054-5.338,0.554c-1.302-1.604,0.729-3.517,1.92-4.85
		c6.058-6.795,14.025-10.024,22.732-11.718c3.107-0.604,6.25-1.024,9.755-1.593c-9.101-7.519-16.636-16.241-26.755-21.825
		c-13.596-7.496-27.146-8.056-40.839-0.086c-13.941,8.111-23.556,20.251-31.959,33.587c-7.837,12.439-15.54,24.991-25.113,36.213
		c-7.956,9.327-17.073,17.069-29.408,20.062c-14.021,3.401-29.147-2.62-36.905-14.736c-1.613-2.521-2.853-5.129-2.469-8.255
		c0.088-0.729,0.734-1.674-1.102-1.547c-11.885,0.828-23.074-1.597-33.476-7.527c-11.5-6.555-20.224-15.875-27.169-26.995
		c-0.418-0.672-0.839-1.351-1.183-2.06c-1.813-3.744-1.279-5.67,2.663-7.166c27.18-10.313,49.232-28.345,70.706-47.144
		c6.614-5.789,12.087-12.814,17.618-19.727c-1.184-0.896-1.61,0.105-2.146,0.519c-18.038,13.849-36.247,27.446-56.256,38.413
		c-8.539,4.681-17.317,8.841-26.981,10.524c-9.614,1.677-18.658,0.089-26.645-5.899c-0.633-0.473-1.223-1.019-1.761-1.598
		c-2.795-3.018-2.023-6.084,1.949-7c5.708-1.31,11.536-2.039,17.086-4.08c25.192-9.266,48.935-21.457,71.791-35.447
		c17.864-10.936,35.364-22.375,51.085-36.334c3.627-3.223,6.71-7.09,11.058-9.473C172.369,307.016,172.561,307.184,172.754,307.352z
		"/>
	<path fill="#BE2D12" d="M353.605,188.968c5.576-11.214,8.273-22.332,6.714-34.267c-0.556-4.25-2.948-6.964-7.05-8.194
		c-0.952-0.286-2.212-0.399-2.298-1.629c-0.063-0.928,0.896-1.52,1.589-2.092c5.091-4.214,16.661-4.884,20.714-0.73
		c4.301,4.406,5.919,10.124,5.438,16.224c-0.766,9.737-4.743,18.486-8.854,27.166c-4.132,8.722-9.63,16.601-15.116,24.483
		c-4.475,6.426-7.542,13.543-10.517,20.729c-0.798,1.932-0.334,2.364,1.567,2.309c4.078-0.116,8.162-0.035,12.236-0.2
		c1.964-0.08,2.447,0.701,1.949,2.408c-1.822,6.277-2.394,6.905-8.229,6.574c-0.113-0.007-0.227-0.001-0.34-0.001
		c-9.815,0.005-9.894,0.005-9.943,9.668c-0.042,8.148-0.086,16.313,0.262,24.449c0.353,8.301,6.682,11.603,14.015,7.615
		c1.063-0.576,2.128-1.662,3.394-0.83c0.847,0.558,0.442,1.687,0.282,2.541c-1.152,6.151-7.096,11.481-14.267,12.851
		c-6.604,1.261-13.277-1.46-16.455-6.899c-2.383-4.08-3.314-8.617-3.354-13.299c-0.091-10.99-0.205-21.982-0.053-32.973
		c0.044-3.125-1.291-3.453-3.709-2.957c-0.665,0.136-1.326,0.3-1.998,0.393c-1.473,0.205-2.824-0.204-3.479-1.541
		c-0.694-1.425-0.393-2.909,0.846-4.01c0.925-0.824,1.887-1.648,2.947-2.271c8.541-5.015,15.426-11.79,21.211-19.755
		c0.806-1.11,1.543-2.109,1.109-3.687c-4.701-17.158-8.646-34.527-14.658-51.321c-1.974-5.516-4.028-10.777-9.292-14.079
		c-0.847-0.532-2.104-1.192-1.771-2.625c0.352-1.491,1.691-1.706,2.9-1.919c3.78-0.671,7.579-1.241,11.36-1.911
		c5.824-1.035,9.028,1.729,10.359,6.633c2.886,10.622,5.889,21.211,8.677,31.857C350.771,181.406,352.261,184.919,353.605,188.968z"
		/>
	<path fill="#BE2D12" d="M60.369,107.684c5.784,0.227,11.457,0.917,16.54,4.058c2.92,1.805,5.493,1.146,7.816-1.169
		c0.722-0.719,1.44-1.454,2.249-2.067c0.486-0.369,1.055-0.915,1.794-0.326c0.519,0.414,0.534,0.896,0.431,1.499
		c-1.584,9.31-3.122,18.628-4.746,27.931c-0.304,1.74-1.207,3.439-3.211,3.362c-2.062-0.079-2.364-1.938-2.821-3.648
		c-2.046-7.666-4.912-14.846-12.679-18.608c-2.481-1.202-5.171-1.601-7.921-1.36c-4.424,0.389-7.483,3.271-8.15,7.694
		c-0.963,6.388,1.513,11.475,6.065,15.752c5.294,4.979,11.292,9.043,17.14,13.313c7.092,5.176,13.208,11.358,15.032,20.229
		c2.96,14.399,0.102,24.012-13.436,32.442c-12.654,7.88-26.292,8.49-39.728,1.69c-9.415-4.766-13.405-13.238-12.033-23.705
		c0.751-5.724,5.816-11.008,12.198-12.727c5.22-1.406,11.927,0.721,15.011,4.758c2.031,2.658,1.475,4.301-1.699,5.017
		c-8.046,1.815-10.498,8.718-5.529,15.568c3.866,5.328,10.484,7.441,17.242,5.5c6.048-1.736,11.367-8.027,11.712-14.003
		c0.427-7.423-2.028-13.752-7.446-18.891c-4.296-4.073-9.261-7.247-14.196-10.443c-5.373-3.479-10.319-7.505-13.988-12.715
		c-9.914-14.076-2.946-33.099,13.642-37.682C53.145,108.184,56.702,107.528,60.369,107.684z"/>
	<path fill="#BE2D12" d="M97.6,273.609c0.166,12.133-0.291,24.207-3.417,36.029c-2.921,11.045-7.961,20.688-18.316,26.549
		c-9.073,5.136-18.41,4.967-27.56,0.301c-5.8-2.959-7.192-6.84-5.115-12.979c1.521-4.495,3.601-8.616,9.06-9.461
		c4.743-0.735,7.2,1.285,7.241,6.065c0.003,0.339-0.029,0.683,0.011,1.019c0.359,3.007,0.368,6.313,3.817,7.638
		c2.771,1.063,6.489-0.627,8.788-3.77c3.884-5.314,5.817-11.461,6.976-17.814c2.586-14.188,3.269-28.504,2.454-42.896
		c-0.131-2.322-0.395-4.653-0.308-6.971c0.075-1.981-0.891-2.301-2.472-2.156c-2.919,0.268-5.84,0.518-8.757,0.789
		c-2.583,0.24-4.226-1.137-4.564-3.452c-0.343-2.36,1.004-4.087,3.417-4.741c3.344-0.905,6.67-1.898,10.052-2.643
		c2.295-0.505,3.229-1.666,2.991-3.997c-0.292-2.847,0.441-5.633,0.928-8.394c2.357-13.375,13.563-17.972,22.32-19.561
		c5.153-0.934,10.363-1.229,15.49,0.05c3.503,0.874,7.289,1.829,8.217,6.072c1.034,4.734,0.325,9.282-3.12,12.944
		c-2.208,2.346-4.575,1.546-5.838-1.781c-1.654-4.362-4.22-7.615-9.133-8.637c-3.859-0.802-6.846,0.109-9.067,3.453
		c-3.731,5.619-3.876,12.04-3.992,18.457c-0.035,1.975,1.473,1.312,2.44,1.328c4.299,0.064,8.6,0.095,12.895,0.023
		c1.593-0.027,3.075,0.281,3.871,1.608c0.821,1.369-0.426,2.475-1.085,3.614c-2.046,3.537-5.12,4.567-9.123,4.545
		c-9.234-0.053-9.223,0.106-9.104,9.254C97.635,267.266,97.6,270.438,97.6,273.609z"/>
	<path fill="#BE2D12" d="M314.085,173.708c0.169,6.899-0.313,13.79,0.214,20.708c0.309,4.017,2.085,6.506,5.262,8.449
		c0.736,0.449,1.856,0.825,1.629,1.923c-0.229,1.1-1.373,0.988-2.249,1.095c-8.243,1.001-16.521,0.396-24.779,0.402
		c-1.853,0.001-2.996-1.506-1.249-3.096c5.009-4.553,5.103-10.455,4.934-16.484c-0.25-8.824,0.489-17.651-0.316-26.48
		c-0.52-5.692-2.172-8.686-5.94-9.564c-4.667-1.088-9.966,1.298-12.467,5.516c-1.535,2.588-2.246,5.48-2.315,8.345
		c-0.25,10.406-0.617,20.819,0.146,31.228c0.172,2.349,0.943,4.086,3.092,5.216c0.876,0.46,1.7,1.167,2.307,1.948
		c0.438,0.563,1.369,0.991,1.076,1.963c-0.354,1.175-1.439,0.944-2.277,1.037c-6.099,0.668-12.226,0.401-18.34,0.445
		c-1.813,0.012-3.629,0.02-5.439,0.015c-1.152-0.001-2.387-0.011-2.805-1.354c-0.328-1.059,0.102-2.111,1.017-2.677
		c4.414-2.742,4.196-7.032,4.612-11.534c0.937-10.052,0.115-20.089,0.447-30.125c0.101-3.034-0.358-6.095-0.658-9.134
		c-0.24-2.428-1.596-4.174-3.678-5.386c-1.029-0.6-1.839-1.376-1.75-2.675c0.11-1.656,1.776-1.384,2.604-1.599
		c4.862-1.254,9.79-2.289,14.722-3.257c3.395-0.669,4.461,0.379,4.571,3.831c0.052,1.646-0.869,4.076,0.502,4.748
		c1.455,0.714,2.565-1.671,3.871-2.631c4.93-3.624,10.271-5.979,16.507-6.251c5.639-0.247,13.567,4.122,15.351,11.4
		C314.642,157.709,313.847,165.708,314.085,173.708z"/>
	<path fill="#BE2D12" d="M422.813,262.607c-0.002,12.642-4.1,21.238-11.359,28.396c-9.585,9.45-27.348,9.758-37.883,0.824
		c-15.458-13.109-16.047-38.063-2.521-52.517c14.518-15.515,39.979-10.39,48.826,9.535
		C422.164,253.99,422.703,259.396,422.813,262.607z M405.512,266.741c-0.04-8.427-1.276-15.104-5.051-21.161
		c-2.345-3.762-5.662-6.051-10.062-5.71c-4.366,0.339-6.86,3.521-8.506,7.322c-3.146,7.273-3.365,14.951-2.516,22.623
		c0.534,4.803,1.87,9.556,4.724,13.61c2.247,3.192,4.857,6.185,9.315,5.735c4.384-0.441,6.952-3.305,8.759-7.096
		C404.713,276.752,405.259,271.066,405.512,266.741z"/>
	<path fill="#BE2D12" d="M179.042,197.608c-1.58,1.087-2.497,2.329-3.48,3.551c-4.305,5.342-14.405,7.209-20.482,4.244
		c-9.234-4.505-8.809-18.005-4.351-24.755c4.641-7.028,12.076-9.85,19.27-13.051c1.336-0.595,2.736-1.224,4.161-1.402
		c4.193-0.526,4.738-3.191,4.341-6.664c-0.287-2.507-0.905-4.903-2.207-7.041c-1.781-2.924-5.051-3.941-8.25-2.758
		c-3.194,1.18-5.135,3.961-4.852,6.947c0.408,4.274-0.639,6.016-4.066,6.772c-3.916,0.865-7.495-1.105-8.607-4.736
		c-1.641-5.358,0.82-11.723,6.058-14.923c6.426-3.926,13.374-5.826,21-4.942c7.234,0.84,11.994,4.641,14.592,11.387
		c1.771,4.596,2.479,9.385,2.601,14.245c0.198,7.792,0.004,15.582-0.476,23.372c-0.307,4.994-0.001,9.963,4.08,13.747
		c1.142,1.059-0.063,1.675-0.677,2.099c-3.643,2.519-7.487,3.922-12.094,2.803C180.917,205.361,179.744,201.798,179.042,197.608z
		 M178.981,180.472c-0.563-2.361,1.506-6.044-0.688-7.113c-2.799-1.364-5.953,0.963-8.694,2.521
		c-0.295,0.167-0.579,0.352-0.854,0.551c-4.748,3.437-6.469,8.503-4.636,13.637c1.331,3.723,4.433,4.964,8.08,3.444
		C178.08,191.056,180.456,186.831,178.981,180.472z"/>
	<path fill="#BE2D12" d="M149.666,264.178c-3.966,0-7.939,0.115-11.898-0.052c-1.869-0.076-2.36,0.511-2.186,2.267
		c0.725,7.26,2.635,14.074,9.854,17.338c7.105,3.211,13.667,1.444,19.281-3.969c0.955-0.923,1.919-2.738,3.596-1.533
		c1.598,1.147,0.828,2.853,0.238,4.336c-3.583,9.035-9.935,14.744-19.815,15.57c-10.903,0.915-19.843-2.688-25.445-12.605
		c-7.25-12.842-5.032-32.348,4.42-44.432c6.819-8.717,15.307-12.105,26.135-10.314c8.584,1.421,14.417,8.709,14.413,17.571
		c-0.002,3.47,0.662,6.992-0.588,10.427c-1.49,4.094-3.176,5.354-7.465,5.344c-1.813-0.003-3.626,0.031-5.439,0.038
		c-1.7,0.008-3.4,0.003-5.101,0.003C149.666,264.17,149.666,264.173,149.666,264.178z M144.425,256.641
		c1.788-0.375,3.687,0.5,5.47-0.836c2.877-2.154,3.869-6.852,2.07-11.292c-2.12-5.234-7.946-6.278-11.726-2.055
		c-2.994,3.346-4.031,7.466-4.47,11.806c-0.107,1.059,0.015,1.777,1.316,1.758C139.548,255.986,141.897,257.277,144.425,256.641z"/>
	<path fill="#BE2D12" d="M117.91,197.224c3.504-0.122,7.038-0.132,10.422-1.172c4.486-1.38,8.238-3.679,9.785-8.496
		c0.451-1.407,0.822-2.899,2.941-2.424c2.154,0.482,2.187,2.11,2.01,3.684c-0.582,5.163-1.591,10.249-3.048,15.245
		c-0.611,2.098-1.756,3.376-4.141,3c-13.623-2.152-27.289-1.334-40.966-0.712c-5.663,0.258-6.038-0.614-3.112-5.707
		c6.855-11.932,14.742-23.259,20.906-35.597c2.314-4.633,4.587-9.288,6.886-13.928c0.566-1.146,1.372-2.38-0.885-2.466
		c-5.324-0.201-10.642-0.399-15.501,2.452c-2.075,1.217-4.036,2.444-5.011,4.82c-0.666,1.618-2.125,2.401-3.774,2.136
		c-1.923-0.31-2.384-1.943-2.268-3.642c0.32-4.738,0.939-9.426,2.709-13.889c0.927-2.334,2.333-3.195,5.012-2.613
		c11.506,2.504,23.161,1.98,34.806,1.328c2.373-0.133,4.743-0.417,7.115-0.423c3.263-0.008,3.983,1.264,2.277,4.141
		c-5.877,9.903-11.902,19.719-17.732,29.649c-4.343,7.396-8.477,14.917-12.689,22.391c-0.374,0.664-1.062,1.586-0.854,2.053
		c0.439,0.988,1.579,0.269,2.409,0.337C116.093,197.461,117.006,197.29,117.91,197.224z"/>
	<path fill="#BE2D12" d="M247.542,241.66c-7.714-0.071-13.997,1.692-18.42,7.841c-0.82,1.142-1.901,2.426-3.665,1.873
		c-1.963-0.618-1.463-2.326-1.417-3.722c0.157-4.781,1.475-9.344,2.78-13.902c0.842-2.938,3.279-2.561,5.3-2.156
		c11.414,2.287,22.932,1.122,34.412,1.243c2.938,0.03,5.774-0.79,8.745-0.765c3.059,0.025,3.101,1.193,1.892,3.247
		c-0.974,1.65-2.196,3.148-3.246,4.756c-9.336,14.284-17.917,29.017-25.939,44.073c-1.715,3.218-1.606,3.291,2.128,3.252
		c8.89-0.094,16.742-2.402,22.017-10.278c0.834-1.243,1.902-2.429,3.639-1.567c1.637,0.813,1.09,2.232,0.801,3.573
		c-0.805,3.726-1.381,7.505-2.391,11.173c-1.806,6.557-3.873,7.864-10.541,6.487c-8.173-1.688-16.384-1.386-24.622-1.021
		c-4.07,0.18-8.146,0.416-12.214,0.355c-3.97-0.059-4.899-1.75-2.777-5.083c8.255-12.951,16.748-25.756,24.136-39.238
		c1.513-2.763,2.872-5.615,4.24-8.457c0.65-1.351,0.912-2.465-1.381-1.926C249.711,241.723,248.31,241.615,247.542,241.66z"/>
	<path fill="#BE2D12" d="M193.062,297.657c-3.149,0.186-6.373-0.818-9.53-2.025c-2.683-1.026-5.162-1.815-8.005-0.057
		c-1.841,1.14-2.6-0.427-2.548-2.169c0.151-5.027,2.507-9.489,3.729-14.245c0.473-1.835,1.21-3.634,2.07-5.327
		c0.665-1.307,1.674-2.52,3.465-2.162c1.615,0.32,2.091,1.654,2.307,3.016c0.691,4.357,2.205,8.267,5.735,11.16
		c1.049,0.859,2.094,1.803,3.434,2.073c3.048,0.615,6.165,0.912,8.475-1.751c1.866-2.152,1.402-6.048-0.822-9.127
		c-2.173-3.014-5.206-4.967-8.33-6.835c-3.292-1.968-6.669-3.835-9.757-6.093c-7.21-5.271-9.261-11.346-6.822-20.249
		c2.109-7.702,7.548-11.795,15.265-12.914c5.846-0.85,11.653-0.076,17.263,1.516c2.564,0.727,4.527,1.047,6.254-1.322
		c0.497-0.682,1.173-1.596,2.229-0.955c0.896,0.543,0.822,1.563,0.677,2.449c-1.021,6.25-2.857,12.28-4.931,18.249
		c-0.564,1.623-1.77,1.797-3.222,1.814c-1.617,0.02-2.076-1.01-2.475-2.273c-0.851-2.691-1.819-5.331-3.497-7.652
		c-2.396-3.315-6.906-4.703-9.805-2.99c-2.645,1.563-3.572,6.286-1.895,9.843c1.317,2.797,3.782,4.419,6.289,5.98
		c3.925,2.443,7.942,4.748,11.767,7.342c7.445,5.049,10.021,11.605,8.182,20.193c-1.755,8.199-7.724,11.809-15.144,13.627
		C200.154,297.576,196.797,298.292,193.062,297.657z"/>
	<path fill="#BE2D12" d="M225.367,150.736c2.25-3.653,4.679-6.878,7.807-9.533c4.149-3.521,9.641-4.334,13.14-2.05
		c4.067,2.655,6.6,9.404,4.918,14.164c-1.269,3.586-4.055,5.914-7.783,6.901c-1.508,0.398-2.789,0.023-3.901-1.315
		c-2.981-3.591-6.254-3.804-9.866-0.799c-2.782,2.316-4.167,5.403-4.215,8.921c-0.117,8.724-0.079,17.451-0.021,26.176
		c0.027,3.915,1.577,6.947,5.431,8.513c1.038,0.422,2.148,1.078,1.936,2.462c-0.247,1.613-1.641,1.714-2.883,1.734
		c-7.814,0.134-15.631,0.225-23.446,0.32c-1.044,0.013-2.167-0.099-2.649-1.142c-0.522-1.126,0.687-1.574,1.281-2.116
		c2.949-2.677,4.105-5.877,4.038-9.914c-0.194-11.669-0.092-23.343-0.086-35.015c0.002-5.541-1.189-10.462-6.341-13.65
		c-1.273-0.786-2.263-2.126,0.262-2.715c5.816-1.354,11.578-2.988,17.575-3.419c3.151-0.226,4.656,1.412,4.782,4.382
		C225.457,145.334,225.367,148.037,225.367,150.736z"/>
	<path fill="#BE2D12" d="M306.313,262.391c0,6.799,0.055,13.598-0.022,20.396c-0.045,4.189,1.308,7.49,5.184,9.518
		c0.657,0.344,1.657,0.609,1.621,1.557c-0.04,1.062-1.057,1.34-1.862,1.74c-1.599,0.789-3.347,0.666-5.012,0.672
		c-6.563,0.033-13.128-0.09-19.691-0.141c-0.938-0.007-1.99-0.023-2.413-0.891c-0.386-0.79,0.375-1.529,0.983-1.984
		c4.004-2.988,4.555-7.426,4.754-11.843c0.424-9.394,0.516-18.806,0.021-28.201c-0.232-4.426-1.645-8.408-5.813-10.781
		c-1.601-0.91-1.356-1.552,0.174-2.156c5.791-2.295,11.781-3.876,17.956-4.599c3.271-0.382,3.988,2.043,4.013,4.62
		c0.068,7.363,0.023,14.728,0.023,22.093C306.256,262.391,306.286,262.391,306.313,262.391z"/>
	<path fill="#BE2D12" d="M365.927,55.168c-0.018-9.468,8.196-17.265,18.83-16.188c8.259,0.835,15.539,9.678,14.739,18.209
		c-0.934,9.946-9.322,17.073-19.021,16.161C371.221,72.479,365.121,64.854,365.927,55.168z"/>
	<path fill="#BE2D12" d="M405.214,223.94c-2.977,0.038-4.108-1.511-2.742-3.903c2.904-5.081,6.067-10.012,9.143-14.993
		c0.639-1.035,1.688-1.523,2.838-1.398c2.933,0.313,5.843,0.83,8.773,1.127c1.888,0.191,2.286,1.276,1.904,2.802
		c-0.299,1.183-0.591,2.539-1.353,3.405c-4.87,5.55-10.666,9.884-17.549,12.675C405.819,223.82,405.371,223.897,405.214,223.94z"/>
	<path fill="#BE2D12" d="M385.523,224.013c-3.384-0.009-4.24-1.383-2.757-4.404c2.351-4.776,4.96-9.395,8.355-13.525
		c3.079-3.749,7.022-4.112,10.687-1.091c1.517,1.25,1.536,3,0.913,4.329c-3.327,7.109-9.2,11.543-16.189,14.676
		C386.253,224.124,385.862,224.013,385.523,224.013z"/>
	<path fill="#BE2D12" d="M305.07,213.767c3.102-0.44,4.375,1.48,4.708,4.491c0.519,4.678-2.063,8.875-7.08,11.208
		c-2.474,1.148-5.093,1.857-7.859,1.573c-3.671-0.377-4.774-1.862-4.141-5.41C291.746,219.756,298.811,213.797,305.07,213.767z"/>
	<path fill="#BE2D12" d="M173.421,131.074c-1.055-0.053-1.959-0.058-2.854-0.151c-1.957-0.205-2.649-1.248-1.648-2.997
		c2.941-5.141,6.85-9.549,11.105-13.588c2.134-2.025,4.912-1.407,6.797,1.008c0.962,1.234,1.668,2.67,2.474,4.024
		c1.384,2.327,0.9,4.287-1.176,5.942C183.768,128.781,178.783,130.576,173.421,131.074z"/>
	<path fill="#BE2D12" d="M172.176,306.848c0.152-0.262,0.317-0.652,0.659-0.361c0.126,0.106-0.046,0.565-0.083,0.865
		C172.561,307.184,172.369,307.016,172.176,306.848z"/>
</g>
</svg>
