<svg version="1.1" id="Layer_1" xmlns="http://www.w3.org/2000/svg" xmlns:xlink="http://www.w3.org/1999/xlink" x="0px" y="0px"
	 width="500px" height="500px" viewBox="0 0 500 500" enable-background="new 0 0 500 500" xml:space="preserve">
<g>
	<path fill-rule="evenodd" clip-rule="evenodd" fill="#6E9699" d="M20.119,284.07c0-28.427,0-56.852,0-85.279
		c11.102,6.407,22.098,12.927,33.869,18.136c6.801,3.01,13.77,4.53,20.796,5.851c7.53,1.414,15.168,1.915,21.906,6.221
		c5.491,3.511,11.102,6.821,16.66,10.219c8.726,6.701,17.12,14.09,28.511,15.597c3.676,0.488,7.64-0.211,11.07,0.92
		c11.111,3.664,22.843,3.975,34.062,7.18c4.222,1.206,7.824,2.666,11.468,5.063c5.429,3.568,11.313,6.469,18.187,4.711
		c4.776,0.986,8.911,3.264,13.208,5.642c6.156,3.403,12.966,6.835,19.738,7.449c7.327,0.662,13.697,3.209,20.128,5.906
		c8.519,3.571,15.948,3.804,23.811-2.377c4.93-3.872,11.19-6.093,16.41-9.853c2.709,1.057,4.893,0.772,7.764-0.703
		c4.899-2.519,9.096-5.946,13.67-8.857c2.472-1.574,5.04-3.924,8.232-2.666c3.046,1.2,5.476,0.269,7.924-1.268
		c3.819-2.396,7.721-4.684,11.36-7.342c3.16-2.306,6.35-3.613,10.339-3.498c14.204,0.417,26.576-7.134,40.047-10.006
		c10.965-2.338,18.864-11.922,30.141-13.782c1.459-0.241,2.701-1.933,4.02-2.985c1.169-0.934,2.2-2.547,3.471-2.766
		c10.037-1.729,18.34-7.493,27.205-11.946c1.355-0.681,2.7-1.352,4.279-0.978c-0.055,17.667-0.108,35.337-0.163,53.005
		c-5.459,0.619-7.41,5.212-9.896,9.196c-1.47,0.106-2.939,0.211-4.409,0.313c0.688-4.649-4.581-3.562-5.214-5.017
		c-3.314-7.637-4.893-2.319-7.1,0.462c-0.684,0.861-1.88,1.282-2.63,2.106c-3.463,3.815-8.799,5.034-11.685,9.99
		c-2.064,3.545-5.455,8.985-9.591,7.612c-4.505-1.492-7.224,0.417-10.772,1.387c-2.524,0.689-7.979,0.484-7.22-1.225
		c2.818-6.341-0.335-7.975-4.881-9.675c-0.383-0.143-0.44-1.385-0.53-2.132c-0.356-2.956-1.673-2.662-3.875-1.645
		c-4.398,2.031-6.048,6.319-7.656,10.184c-2.625,6.302-11.57,5.867-12.748,13.348c-0.016,0.095-1.14,0.262-1.463,0.011
		c-3.818-2.978-8.274,1.996-10.025,0.708c-2.764-2.034-4.208-6.316-7.622-8.424c-0.319-0.197-0.619-0.431-0.914-0.666
		c-1.446-1.154-3.366-1.967-4.549-0.414c-4.466,5.855-11.506,8.353-16.393,13.765c-2.377,2.631-6.172,5.55-10.403,2.755
		c-5.187-3.425-10.169-7.184-15.694-0.617c-0.422,0.503-1.462,0.399-2.061,0.814c-6.718,4.67-14.874,3.316-22.125,5.622
		c-7.988,2.541-13.263,8.59-17.425,15.732c-0.644,1.104-1.23,2.697,0.55,3.387c1.522,0.587,2.42-0.534,2.994-1.863
		c0.533-1.236,0.065-3.813,2.313-2.965c2.217,0.838,1.246,3.319,1.04,5.101c-0.21,1.806-2.4,2.938-1.634,5.238
		c1.687,5.06,11.561,8.843,16.063,5.826c1.237-0.831,2.149-1.89,3.126-0.301c1.364,2.224,3.298,4.459,2.618,7.337
		c-0.544,2.292-2.338,0.771-3.683,0.871c-4.479,0.331-10.926,1.302-10.961,5.549c-0.037,4.602-2.159,6.958-4.131,9.73
		c-2.06,2.896-1.626,5.623-1.064,8.603c-2.679,4.239-5.473,0.585-8.29,0.238c-4.61-0.57-9.665-4.103-13.574,1.819
		c-0.839,1.271-2.151,3.174-4.087,1.618c-1.512-1.215-3.667-2.359-2.768-5.041c1.123-3.343-0.18-4.928-3.404-4.417
		c-4.627,0.734-6.766-0.886-7.647-5.776c-0.451-2.502-3.174-6.068-5.722-5.081c-2.683,1.04-7.343-0.165-8.006,4.511
		c-0.355,2.506-1.294,4.909-3.58,4.809c-2.845-0.128-6.935-2.025-7.12-4.281c-0.37-4.5-2.935-4.29-5.616-4.51
		c-2.73-0.224-5.811-2.131-4.764-4.044c2.749-5.025-1.606-6.794-3.049-9.883c-0.34-3.025,0.835-5.645,2.298-8.092
		c1.855-3.105-0.606-4.425-2.141-6.213c-1.743-2.031-3.042-1.465-4.392,0.503c-0.684,0.995-2.062,1.415-3.037,0.936
		c-4.488-2.208-8.25,1.24-12.414,1.574c-3.419,0.272-4.28,3.373-3.765,6.51c0.586,3.563,3.152,2.395,5.253,1.923
		c2.128-0.479,4.229-1.297,2.11,2.352c-0.652,1.122,0.642,1.473,1.568,1.645c-1.33,2.167,0.425,5.952-3.397,6.809
		c-0.222-1.025,0.182-3.005-1.196-2.653c-1.536,0.39-0.054,1.844,0.14,2.834c-6.34,0.853-11.049-3.374-16.871-5.722
		c3.262-2.097,4.75-4.035-0.244-5.482c-2.772-0.8-0.458-3.325-1.051-4.94c2.75-3.882,1.745-9.341,5.692-12.831
		c-2.147-1.044-3.976-0.093-5.776-1.029c-3.05-1.591-6.353-3.153-9.442,0.552c-0.876,1.048-2.906,0.985-4.162-0.104
		c-1.306-1.134-0.256-2.434,0.163-3.659c0.456-1.339,1.828-2.592,0.535-4.116c-1.012-0.333-1.387,0.426-1.849,0.991
		c-1.173,1.435-2.469,1.932-3.596,0.098c-0.893-1.451-0.253-2.502,1.296-3.073c0.689-0.254,1.382-0.62,1.94-1.099
		c1.018-0.874,2.146-2.014,1.448-3.41c-0.758-1.515-2.31,0.315-2.71,0.056c-2.669-1.731-5.27-2.854-8.576-2.07
		c-0.594,0.141-0.854-2.014-0.131-2.986c0.663-0.893,1.708-1.475,2.467-2.306c1.15-1.26,2.768-2.952,1.898-4.439
		c-1.192-2.038-3.042-0.203-4.383,0.515c-2.446,1.308-5.415,2.417-6.915,4.539c-1.889,2.676-3.403,1.807-5.11,0.687
		c-1.701-1.117-3.235-2.554-4.673-4.023c-1.359-1.391-2.432-1.588-3.645,0.103c-0.623,0.87-0.362,3.282-2.408,1.907
		c-0.959-0.646-2.542-1.51-2.012-3.121c0.982-2.974-1.41-3.461-2.905-4.745c-1.969-1.692-5.201-1.269-6.172-5.001
		c-0.493-1.893-2.677-0.319-2.543,1.448c0.28,3.722-1.962,5.107-4.726,6.133c-3.131,1.162-10.235-2.001-12.476-5.376
		c-3.676-5.536-7.43-11.005-14.387-12.063c-0.328-1.721,6.082-3.927-0.999-4.652c-4.189-0.428-9.008-2.708-10.998-7.796
		c-0.276-0.708-0.687-1.363-1.067-2.022c-1.625-2.812-2.593-1.171-3.276,0.626c-0.393,1.034-0.383,2.241-0.492,3.379
		c-0.365,3.786-1.768,5.935-5.187,2.593c-2.445-2.39-3.08-0.869-3.813,1.188c-1.393,3.907-4.174,4.655-7.656,3.435
		c-4.503-1.576-7.519-0.171-8.953,4.785c-0.699-0.591-1.134-0.885-1.479-1.263c-1.02-1.114-1.33-3.842-3.583-2.286
		c-1.434,0.989-0.507,2.664,0.07,4.154C25.448,287.768,20.995,283.104,20.119,284.07z"/>
	<path fill-rule="evenodd" clip-rule="evenodd" fill="#EFF0E6" d="M479.574,123.885c0,7.298,0,14.597,0,21.896
		c-1.834,1.671-0.83,3.97-1.254,5.952c-5.596-0.091-10.08-4.262-15.484-4.69c-11.281-0.893-21.545-5.57-31.942-9.292
		c-9.522-3.407-18.301-3.17-27.066,0.943c-6.086,2.856-11.729,6.689-17.639,9.958c-16.3,9.019-31.536,20.084-50.333,23.977
		c-16.899,3.499-31.565,13.597-47.893,18.988c-6.397,2.112-12.104,7.232-19.564,4.951c-9.955-4.76-20.312-8.748-30.908-11.233
		c-12.416-2.915-23.287-9.58-35.188-13.711c-8.943-3.105-17.978-8.004-26.552-13.016c-9.691-5.667-19.623-7.459-31.055-3.854
		c-7.808,2.46-15.417,6.321-24.121,6.439c-4.939,0.067-10.336,0.651-15.089,3.074c-2.536,0.399-4.539-0.717-6.486-2.226
		c-2.038-1.578-4.203-2.984-6.978-2.448c-1.109-0.073-2.218-0.147-3.327-0.222c-2.947-1.953-5.476-4.625-9.032-5.531
		c-5.291-3.491-10.464-7.189-15.899-10.427c-8.049-4.794-16.301-6.144-25.345-2.076c-5.785,2.601-12.178,3.78-18.298,5.597
		c0-4.226,0-8.451,0-12.676c2.563,0.205,4.973-0.167,6.292-2.744c2.647-5.168,6.497-4.922,10.93-2.87
		c2.522,1.168,5.135,2.13,7.703,3.195c2.547,1.055,4.828,1.875,6.461-1.681c0.962-2.097,3.481-2.628,4.244-0.146
		c1.559,5.076,4.076,3.663,7.128,1.963c1.103-0.613,2.743-1.386,3.667-0.973c6.129,2.734,8.936-1.48,11.787-5.625
		c1.021-1.485,1.645-2.551,3.955-1.757c5.632,1.939,11.162,0.489,16.576-1.512c8.628-3.188,15.018-10.843,24.029-13.035
		c5.755-1.4,12.098-6.564,17.456-2.275c7.028,5.625,13.508-0.207,20.287,0.735c5.575,0.776,12.229,1.471,18.222-0.79
		c0.682-0.258,1.962,0.276,2.58,0.867c4.136,3.956,9.735,2.13,13.562,1.445c6.506-1.164,13.263,1.527,19.319-1.609
		c4.027-2.086,8.517-0.162,12.121-1.695c3.943-1.677,8.013-2.349,11.392-1.067c9.234,3.5,18.264-1.032,27.435,0.287
		c5.484,0.788,11.105,3.167,16.926,0.712c1.434-0.603,2.313,1.625,2.833,3.056c1.16,3.192,3.54,3.333,5.054,1.086
		c4.657-6.914,10.471-4.633,16.403-2.916c4.186,1.212,8.724-0.827,12.825,1.371c4.611-5.801,13.594-3.688,17.782-10.393
		c1.256-2.012,3.769-1.172,5.647-1.762c4.424-1.388,9.606-0.198,13.377-3.102c5.195-4.002,9.981-7.184,16.099-1.993
		c1.071,0.908,2.644,0.829,3.706-0.043c3.449-2.83,6.484-1.096,9.904,0.25c4.888,1.924,9.467,3.9,15.017-0.342
		c4.974-3.803,11.894-6.122,17.775-1.499c4.371,3.436,9.306,4.657,14.183,6.379c3.419,1.206,6.141,2.878,6.362,7.003
		c0.105,1.972,1.215,2.559,2.936,2.685c3.479,0.252,6.147,2.568,9.21,3.851c4.558,1.91,7.952,7.205,13.291,6.177
		c3.988-0.767,5.87,1.06,7.009,3.86C473.209,123.302,475.847,124.354,479.574,123.885z"/>
	<path fill-rule="evenodd" clip-rule="evenodd" fill="#D8E4E1" d="M479.574,123.885c-3.728,0.47-6.365-0.583-7.973-4.535
		c-1.139-2.8-3.021-4.627-7.009-3.86c-5.339,1.028-8.733-4.267-13.291-6.177c-3.063-1.283-5.73-3.599-9.21-3.851
		c-1.721-0.125-2.83-0.712-2.936-2.685c-0.222-4.125-2.943-5.797-6.362-7.003c-4.877-1.722-9.812-2.943-14.183-6.379
		c-5.882-4.623-12.802-2.304-17.775,1.499c-5.55,4.242-10.129,2.266-15.017,0.342c-3.42-1.347-6.455-3.081-9.904-0.25
		c-1.063,0.872-2.635,0.951-3.706,0.043c-6.117-5.191-10.903-2.009-16.099,1.993c-3.771,2.904-8.953,1.714-13.377,3.102
		c-1.879,0.59-4.392-0.25-5.647,1.762c-4.188,6.706-13.171,4.592-17.782,10.393c-4.102-2.197-8.64-0.158-12.825-1.371
		c-5.933-1.718-11.746-3.999-16.403,2.916c-1.514,2.247-3.894,2.106-5.054-1.086c-0.52-1.431-1.399-3.659-2.833-3.056
		c-5.82,2.455-11.441,0.076-16.926-0.712c-9.171-1.319-18.201,3.213-27.435-0.287c-3.379-1.282-7.449-0.61-11.392,1.067
		c-3.604,1.533-8.093-0.391-12.121,1.695c-6.056,3.137-12.813,0.445-19.319,1.609c-3.827,0.686-9.426,2.511-13.562-1.445
		c-0.618-0.591-1.898-1.125-2.58-0.867c-5.993,2.261-12.647,1.565-18.222,0.79c-6.778-0.942-13.259,4.889-20.287-0.735
		c-5.358-4.289-11.701,0.875-17.456,2.275c-9.011,2.192-15.4,9.847-24.029,13.035c-5.414,2.001-10.944,3.452-16.576,1.512
		c-2.311-0.794-2.934,0.272-3.955,1.757c-2.851,4.145-5.657,8.359-11.787,5.625c-0.924-0.413-2.564,0.36-3.667,0.973
		c-3.053,1.7-5.569,3.113-7.128-1.963c-0.763-2.482-3.282-1.951-4.244,0.146c-1.633,3.556-3.915,2.736-6.461,1.681
		c-2.568-1.065-5.181-2.027-7.703-3.195c-4.433-2.052-8.283-2.298-10.93,2.87c-1.318,2.577-3.729,2.948-6.292,2.744
		c0-17.286,0-34.572,0-51.858c2.29-0.16,2.917-1.66,3.493-3.746c0.831-3.014,2.314-4.673,6.249-4.938
		c4.201-0.283,8.961-1.773,11.595-6.266c2.211-3.77,7.237-3.569,9.691,0.11c1.318,1.978,0.739,4.242,1.251,6.57
		c0.87-0.488,1.417-0.661,1.788-1.023c2.794-2.72,2.605-2.599,4.727,0.434c1.754,2.507,3.697,1.693,5.579-0.309
		c1.596-1.699,2.162-5.016,5.245-4.558c3.272,0.486,5.409-1.63,8.293-3.577c0.173,5.3,1.531,6.154,6.163,4.06
		c3.557-1.608,8.255-1.433,12.424,0.906c3.863,2.167,6.129,0.606,5.922-3.857c-0.104-2.23,0.179-3.504,2.413-3.329
		c4.376,0.345,8.726-0.814,13.179,1.376c3.14,1.544,7.2,3.492,10.785-0.419c1.616-1.763,3.574-1.029,5.453,0.556
		c3.373,2.846,13.651,1.626,16.121-1.804c1.783-2.476,3.071-5.423,6.975-3.417c2.801,1.439,6.146-2.234,8.965,0.947
		c1.701,1.919,3.851,2.904,6.558,1.77c1.278-0.535,2.867-0.188,3.321,1.304c1.583,5.208,8.347,3.726,10.309,8.504
		c0.172,0.421,2.451,0.563,3.139,0.019c3.036-2.397,6.01-1.089,8.998-0.231c2.137,0.612,4.724,1.014,5.129-1.601
		c0.675-4.364,0.444-8.751,6.876-6.295c0.905,0.346,1.29-1.133,1.651-2.001c0.678-1.627,2.604-2.928,3.48-1.979
		c4.208,4.563,7.909,2.81,11.922-0.115c0.728-0.53,2.352-0.373,3.274,0.083c4.642,2.294,8.484-1.51,9.159-3.977
		c0.901-3.291,5.915-3.313,4.538-7.006c-1.183-3.173-0.145-6.873,2.328-4.386c4.559,4.589,3.176-2.272,5.225-1.881
		c1.21,0.231,2.597-0.455,3.371,1.068c0.253,0.493,0.205,1.14,0.423,1.659c1.636,3.92,3.16,7.816,1.234,12.147
		c-0.365,0.824-0.319,1.95,0.6,2.57c0.812,0.545,1.793-0.081,1.823-0.671c0.359-7.208,3.258-6.551,7.356-2.63
		c0.169,0.162,0.841,0.072,1.034-0.137c2.818-3.063,5.526-0.027,8.776,0.395c-1.714-6.01,1.007-6.159,5.07-4.403
		c1.547,0.669,3.118,1.286,4.637,2.017c4.768,2.299,8.459,7.357,14.869,5.537c1.303-0.37,3.676,0.604,4.014,3.176
		c0.206,1.584,2.112,2.726,2.554,1.145c1.223-4.381,3.217-1.986,5.613-1.708c3.604,0.417,7.55-0.02,10.577-2.467
		c5.605-4.53,14.781-5.518,21.391-1.963c1.483,0.798,3.264,2.037,4.634,0.478c2.214-2.514,4.897-1.707,7.531-2.203
		c2.89-0.543,5.53,0.385,8.2,0.449c5.66,0.135,12.186-3.217,16.968,2.895c0.392,0.5,1.35,0.544,2.05,0.777
		c5.565,1.848,11.005,4.628,17.041,1.307c1.11-0.612,3.001-0.399,4.194,0.856c2.022,2.123,3.154,0.729,4.396-0.996
		c0.994-1.382,2.19-2.621,3.363-3.856c2.275-2.396,9.464-1.408,11.821-0.367c4.379,1.935,9.077,2.99,12.32,6.988
		c0.051,0.062,0.69-0.233,0.916-0.489c2.572-2.932,7.302-1.821,9.556-5.535c1.021-1.683,2.438-0.572,3.879,0.149
		c4.722,2.365-0.262,5.713,0.837,8.763c1.086-0.485,1.929-0.8,2.713-1.225c1.456-0.788,1.883-4.042,4.327-2.292
		c1.854,1.328,1.047,3.401,0.469,5.279c-1.287,4.183,1.464,5.374,4.547,6.338c4.457,1.392,8.624-0.672,12.931-1.057
		c0.019,10.317,0,20.634,0.086,30.95c0.017,2.012-0.712,4.255,1.117,5.941C479.574,115.434,479.574,119.659,479.574,123.885z
		 M109.463,66.063c-0.899,2.19-1.344,2.841-1.207,3.02c0.409,0.529,1.045,0.871,1.594,1.285c0.246-0.406,0.731-0.844,0.687-1.214
		C110.451,68.421,110.07,67.726,109.463,66.063z M128.55,69.736c-1.374-0.92-1.779-1.193-2.185-1.465
		c-0.158,0.301-0.509,0.672-0.434,0.885c0.151,0.429,0.476,0.983,0.84,1.09C127.158,70.358,127.673,70.014,128.55,69.736z"/>
	<path fill-rule="evenodd" clip-rule="evenodd" fill="#D1E1E0" d="M478.371,74.317c-4.307,0.385-8.474,2.449-12.931,1.057
		c-3.083-0.964-5.834-2.155-4.547-6.338c0.578-1.878,1.386-3.951-0.469-5.279c-2.444-1.75-2.871,1.504-4.327,2.292
		c-0.784,0.425-1.627,0.739-2.713,1.225c-1.099-3.05,3.885-6.398-0.837-8.763c-1.44-0.721-2.857-1.832-3.879-0.149
		c-2.254,3.714-6.983,2.604-9.556,5.535c-0.226,0.256-0.865,0.551-0.916,0.489c-3.243-3.998-7.941-5.053-12.32-6.988
		c-2.357-1.042-9.546-2.029-11.821,0.367c-1.173,1.235-2.369,2.474-3.363,3.856c-1.242,1.725-2.374,3.119-4.396,0.996
		c-1.193-1.255-3.084-1.468-4.194-0.856c-6.036,3.321-11.476,0.541-17.041-1.307c-0.7-0.233-1.658-0.277-2.05-0.777
		c-4.782-6.112-11.308-2.76-16.968-2.895c-2.67-0.064-5.311-0.993-8.2-0.449c-2.634,0.496-5.317-0.312-7.531,2.203
		c-1.37,1.559-3.15,0.321-4.634-0.478c-6.609-3.555-15.785-2.566-21.391,1.963c-3.027,2.447-6.973,2.884-10.577,2.467
		c-2.396-0.278-4.391-2.672-5.613,1.708c-0.441,1.581-2.348,0.439-2.554-1.145c-0.338-2.571-2.711-3.546-4.014-3.176
		c-6.41,1.82-10.102-3.238-14.869-5.537c-1.519-0.731-3.09-1.348-4.637-2.017c-4.063-1.756-6.784-1.607-5.07,4.403
		c-3.25-0.422-5.958-3.458-8.776-0.395c-0.193,0.209-0.865,0.299-1.034,0.137c-4.099-3.921-6.997-4.578-7.356,2.63
		c-0.03,0.59-1.012,1.216-1.823,0.671c-0.919-0.62-0.965-1.746-0.6-2.57c1.926-4.331,0.401-8.228-1.234-12.147
		c-0.218-0.519-0.17-1.166-0.423-1.659c-0.774-1.522-2.161-0.836-3.371-1.068c-2.049-0.391-0.666,6.47-5.225,1.881
		c-2.473-2.487-3.511,1.213-2.328,4.386c1.377,3.693-3.637,3.715-4.538,7.006c-0.675,2.467-4.517,6.271-9.159,3.977
		c-0.922-0.456-2.546-0.614-3.274-0.083c-4.013,2.924-7.714,4.677-11.922,0.115c-0.876-0.95-2.802,0.351-3.48,1.979
		c-0.361,0.868-0.746,2.347-1.651,2.001c-6.432-2.456-6.201,1.931-6.876,6.295c-0.405,2.615-2.992,2.213-5.129,1.601
		c-2.988-0.858-5.962-2.166-8.998,0.231c-0.688,0.544-2.967,0.402-3.139-0.019c-1.962-4.778-8.725-3.296-10.309-8.504
		c-0.454-1.492-2.042-1.839-3.321-1.304c-2.707,1.134-4.857,0.149-6.558-1.77c-2.82-3.181-6.164,0.493-8.965-0.947
		c-3.904-2.007-5.192,0.94-6.975,3.417c-2.47,3.431-12.748,4.65-16.121,1.804c-1.879-1.585-3.836-2.318-5.453-0.556
		c-3.584,3.911-7.645,1.963-10.785,0.419c-4.454-2.191-8.803-1.031-13.179-1.376c-2.234-0.176-2.516,1.098-2.413,3.329
		c0.207,4.463-2.059,6.023-5.922,3.857c-4.168-2.339-8.867-2.514-12.424-0.906c-4.632,2.094-5.99,1.241-6.163-4.06
		c-2.884,1.946-5.021,4.063-8.293,3.577c-3.083-0.458-3.649,2.859-5.245,4.558c-1.882,2.002-3.825,2.815-5.579,0.309
		c-2.122-3.032-1.933-3.153-4.727-0.434c-0.372,0.362-0.918,0.535-1.788,1.023c-0.512-2.329,0.067-4.592-1.251-6.57
		c-2.454-3.679-7.48-3.879-9.691-0.11c-2.634,4.493-7.394,5.983-11.595,6.266c-3.935,0.265-5.418,1.924-6.249,4.938
		c-0.575,2.086-1.203,3.586-3.493,3.746c0-16.134,0-32.268,0-48.402C30.666,22.003,44.042,19.873,59.212,19.92
		c130.956,0.403,261.914,0.273,392.871,0.169c7.461-0.005,13.98,2.32,20.058,6.208c4.056,2.596,6.668,6.03,6.437,11.754
		C478.088,50.123,478.394,62.227,478.371,74.317z"/>
	<path fill-rule="evenodd" clip-rule="evenodd" fill="#4A6962" d="M163.815,338.313c0.594,1.615-1.721,4.141,1.051,4.94
		c4.994,1.447,3.506,3.386,0.244,5.482c5.822,2.348,10.531,6.574,16.87,5.721c0.355-0.037,0.708-0.097,1.057-0.18
		c3.822-0.856,2.067-4.642,3.396-6.809c4.09,0.045,8.518,2.54,12.05-1.817c0.228-0.282,1.62,0.431,2.47,0.681
		c1.443,3.089,5.798,4.857,3.049,9.883c-1.046,1.913,2.034,3.82,4.764,4.044c2.681,0.22,5.247,0.01,5.616,4.51
		c0.185,2.256,4.275,4.153,7.12,4.281c2.286,0.101,3.225-2.303,3.58-4.809c0.663-4.676,5.323-3.471,8.006-4.511
		c2.548-0.987,5.271,2.579,5.722,5.081c0.881,4.891,3.021,6.511,7.647,5.776c3.225-0.511,4.527,1.074,3.404,4.417
		c-0.899,2.682,1.256,3.826,2.768,5.041c1.936,1.556,3.248-0.347,4.087-1.618c3.909-5.922,8.964-2.39,13.574-1.819
		c2.817,0.347,5.611,4.001,8.289-0.239c3.563-0.532,5.031-2.972,6.512-6.155c1.11-2.389,2.879-8.211,6.746-3.718
		c3.59,4.173,4.33,2.309,5.965-0.896c0.943-1.853,2.119-3.581,3.19-5.362c3.036,1.147,4.636,3.644,5.639,6.578
		c0.807,2.358,2.559,2.509,4.508,2.381c2.092-0.139,2.229-1.681,2.146-3.305c-0.122-2.385,0.639-4.01,3.098-4.712
		c3.698-1.062,3.497-3.854,2.591-6.845c1.702-8.268,5.686-10.523,12.754-6.491c4.951,2.824,8.456,0.737,11.064-2.89
		c1.303-1.81,3.433-4.098,2.46-7.203c-0.558-1.782,0.795-2.901,2.199-3.515c1.604-0.698,2.31,0.675,3.008,1.821
		c1.126,1.851,2.537,3.933,4.813,3.128c4.56-1.617,10.403,0.731,13.735-5.602c0.862-1.639,5.603-8.018,9.279-2.539
		c2.747,4.094,4.131,1.317,6.535,0.766c2.122-0.485,4.825,2.384,5.945-2.27c0.884-3.67,3.19-7.911,7.633-6.66
		c3.587,1.01,4.751,0.61,6.926-2.505c1.87-2.677,2.821-4.664,1.771-7.642c-0.403-1.143-0.662-2.591,0.705-2.902
		c3.998-0.91,4.854-4.902,7.046-7.464c1.877-2.195,3.2-2.114,4.187-0.052c1.79,3.748,4.54,4.96,8.189,4.1
		c0.786,2.897-3.77,3.79-1.791,6.335c1.858,2.393,4.358,0.905,6.728,0.402c3.163-0.672,5.269,0.317,4.206,4.29
		c-0.306,1.146-1.163,2.316,0.014,3.5c3.278-3.267,3.885-9.434,10.494-8.812c2.23,0.211,1.563-1.863,0.282-3.12
		c-1.356-1.331-2.797-2.574-1.501-4.889c1.42-2.538,3.137-1.016,4.86-0.695c0.876,0.164,2.238,0.268,2.676-0.241
		c2.564-2.979,1.407-8.476,6.469-9.924c0.77-0.222,0.611-1.699-0.076-2.534c-1.703-2.061-1.072-3.38,1.188-4.34
		c2.531-1.077,3.035-3.479,2.402-5.677c-0.62-2.153,0.505-3.705,0.751-5.535c1.469-0.104,2.938-0.209,4.408-0.315
		c1.742,2.897,3.86,5.633,5.106,8.737c1.031,2.569,2.634,2.872,4.769,2.852c0.009,16.117,0.018,32.236,0.026,48.354
		c-3.724,0.351-8.273-0.962-6.996-4.739c1.153-3.412,1.176-5.381-0.139-8.37c-0.556-1.26,0.833-3.766-1.82-3.613
		c-2.198,0.125-2.027,2.401-2.044,4.101c-0.072,7.282-6.016,12.224-7.244,19.145c-0.316,1.775-2.65,3.601-5.212,3.807
		c-3.958,0.316-9.249-2.53-9.854-3.751c-2.252-4.53-6.814-4.451-9.673-7.172c-1.355-1.291-2.857-2.561-4.18-0.589
		c-1.743,2.6,0.911,3.346,2.434,3.982c5.32,2.231,7.408,7.278,10.217,11.737c0.746,1.185,0.788,2.198-0.512,2.824
		c-3.871,1.861-7.285,7.291-12.231,0.993c-0.785,2.011-1.038,3.627-1.915,4.718c-2.943,3.661-7.178,8.769-10.93,7.309
		c-5.983-2.328-7.429-0.685-8.158,5.295c-1.135-3.375-3.916-4.079-5.723-5.919c-2.892-2.941-6.774-1.476-10.079-0.627
		c-3.468,0.889-0.905,3.829-1.127,5.841c-0.189,1.71-0.721,4.602-2.415,3.37c-4.116-2.994-6.481,0.361-8.895,2.024
		c-2.925,2.016-4.812,1.184-7.35-0.404c-5.177-3.232-6.548-8.687-8.477-14.458c-3.212,9.859-10.444,13.532-19.453,14.229
		c0.249,2.012,3.381,1.801,2.054,3.905c-1.086,1.72-2.511,4.046-4.785,3.275c-5.512-1.867-5.691,0.875-4.693,5.054
		c-1.284,1.207-0.902,2.836-1.019,4.327c-0.13,1.657-1.137,2.884-2.51,2.086c-3.323-1.931-6.907-1.145-10.318-1.394
		c-10.872-0.795-21.774-1.463-32.671-1.525c-6.795-0.039-13.574,2.66-20.417-0.055c-1.164-0.464-2.761-0.353-3.697,0.741
		c-3.599,4.203-7.667,2.815-11.736,1.145c-2.55-1.049-5.125-1.529-7.522,0.03c-2.995,1.95-6.018,1.61-9.156,0.736
		c-3.962-1.103-7.581-1.466-11.878,0.092c-3.88,1.405-9.081,1.358-12.91-0.152c-3.728-1.474-5.158-1.071-6.198,2.968
		c-2.127-2.363-0.41-5.269-2.417-6.834c-0.889-4.078,1.689-1.021,2.567-1.22c1.19-0.271,2.992,0.616,3.435-0.959
		c0.564-2.001-1.876-3.136-2.693-2.839c-4.277,1.548-9.016-6.457-12.933,0.734c-0.561,1.029-1.641-0.034-2.418-0.489
		c-2.87-1.682-4.174-0.313-3.35,2.461c0.73,2.455-0.531,4.519-0.247,6.77c-1.636,1.029-3.363,1.556-5.308,1.162
		c-6.045-1.228-12.157-1.249-18.281-0.997c-2.697-2.609-5.512-4.979-8.572-7.193c-2.979-2.157-6.071,0.483-8.177-1.99
		c-2.845-3.34-6.813-2.916-10.497-3.534c-3.144-0.526-6.268-1.182-9.944-1.882c2.128-2.338,4.92-1.813,6.295-3.938
		c-7.092-2.656-6.562-6.937,0.232-11.217c-7.488,1.309-3.822-7.101-8.953-7.492c-2.917,7.422-3.879,7.652-9.784,2.221
		c-2.938-2.703-6.362-4.395-9.799-6.318c-7.411-4.147-14.141-4.949-21.674-1.597c-1.175,0.523-3.092,0.832-3.683-0.325
		c-2.751-5.383-5.105-0.813-7.572,0.137c-2.455,0.948-4.369,5.183-7.166,2.94c-5.437-4.356-11.516-8.165-15.378-14.289
		c-1.615-2.563-2.941-4.345-5.073-0.721c-1.063,1.808-1.775,1.677-3.431,0.528c-5.966-4.145-12.267-7.795-18.117-12.096
		c-1.921-1.414-3.083-3.854-5.948-3.537c0-6.532,0-13.062,0-19.592c0.986,0.093,1.688,0.586,2.317,1.395
		c1.938,2.486,2.726,5.958,7.614,4.747c3.637-0.899,6.382-0.857,5.398-5.712c-0.068-0.336,1.009-1.285,1.6-1.332
		c2.654-0.202,2.867-1.881,3.49-4.147c0.809-2.938,2.411-6.26,5.686-6.978c1.942-0.425,9.57,13.957,8.474,16.186
		c-1.284,2.61,1.072,3.424,1.73,4.936c0.845,1.941,2.163,0.188,3.177-0.395c1.906-1.096,3.586-0.375,5.307,0.497
		c5.239,2.658,3.505,6.902,1.92,11.13c9.423-2.267,9.357-2.247,12.308,7.828c0.574,1.96,2.026,4.358,3.878,4.392
		c1.923,0.039,2.83-1.846,2.824-4.52c-0.007-3.436,4.323-3.394,6.366-5.536c1.54-1.612,1.799,2.034,2.893,3.078
		c0.929,0.887,1.986,2.558,3.184,1.201c4.318-4.894,6.506-1.627,9.075,1.957c1.229,1.714,3.642,2.39,5.569,2.043
		c2.366-0.424,1.519-2.586,1.059-4.227c-0.577-2.058,1.341-1.71,2.043-2.509c0.986-1.126,7.79,0.808,2.469-4.209
		c-0.555-0.524,0.481-1.253,1.096-1.67c2.299-1.557,4.652-4.325,7.464-2.724c2.965,1.688,4.645,4.882,4.221,8.726
		c-0.067,0.177-0.136,0.353-0.205,0.528c0.099-0.144,0.199-0.289,0.298-0.434c4.338-0.368,3.176,3.339,3.664,5.525
		c1.134,5.077,5.957,6.121,8.981,9.101c2.437,2.399,1.901-3.028,4.061-1.864c3.06,2.384,3.666,2.521,4.009,0.901
		c0.83-3.909,0.823-3.884,4.628-2.734c1.271,0.384,1.475-0.68,1.739-1.574C160.371,336.913,162.168,337.206,163.815,338.313z"/>
	<path fill-rule="evenodd" clip-rule="evenodd" fill="#495941" d="M20.119,463.846c0-6.53,0-13.06,0-19.591
		c2.79-0.265,2.175-3.125,3.349-4.623c1.176-1.499,0.591-4.351,3.37-4.617l0.042,0.045c-0.009,5.362-0.432,10.843,3.792,15.447
		c1.012-4.646,1.733-8.837,2.933-12.879c0.318-1.072,1.124-4.696,2.903-2.533c3.396,4.132,3.129-0.181,3.622-1.367
		c1.968-4.747,3.649-9.616,5.437-14.44c0.712,6.386-2.237,11.526-4.127,16.993c-0.427,1.234-1.423,2.6,0.556,3.261
		c1.29,0.433,2.702,1.688,4.016-0.146c0.771-1.076,1.667-2.069,2.577-3.03c5.047-5.332,5.054-5.326,8.271,0.88
		c2.509,4.838,6.294,5.631,9.91,2.063c2.241-2.211,4.459-3.989,7.753-4.929c3.168-0.903,6.408-3.169,7.527-7.138
		c0.482-1.711,1.581-3.612,3.41-3.216c3.055,0.662,4.144-0.488,4.439-3.336c0.111-1.068,0.933-1.95,1.92-1.398
		c1.085,0.605,2.239,1.592,2.709,2.704c0.481,1.137-0.878,1.383-1.766,1.563c-1.501,0.302-2.212,1.45-2.582,2.75
		c-0.634,2.229-1.398,5.275,0.221,6.556c2.107,1.664,3.347-1.509,4.719-2.791c2.877-2.688,5.636-4.898,9.657-6.216
		c2.909-0.955,8.424,2.39,9.003-4.604c0.678,3.353,1.061,6.156,0.07,8.945c-0.741,2.091-0.218,4.07,1.427,5.121
		c2.168,1.385,2.714-1.234,3.76-2.337c3.063-3.222,6.238-6.251,10.71-7.791c-3.647,6.087-12.525,8.84-10.974,18.137
		c1.888-0.411,1.94-2.136,2.473-3.477c0.423-1.069,0.783-2.464,2.154-2.165c1.626,0.356,0.924,1.741,0.656,2.793
		c-0.541,2.131,0.673,3.873,0.847,5.832c3.533-1.761,3.792-6.721,8.108-7.775c0.249,3.897-3.295,6.084-3.372,10.409
		c2.484-1.766,4.414-2.896,6.058-4.363c2.11-1.885,3.864-4.615,6.754-4.877c3.41-0.31,6.062-0.935,7.508-4.595
		c0.548-1.385,2.43-2.326,3.448-0.205c0.815,1.694-0.794,2.881-1.907,3.768c-1.968,1.569-3.976,5.955-5.713,4.404
		c-4.029-3.597-3.633,0.782-5.201,1.552c0.841,2.398,4.287-0.694,4.137,2.772c-0.104,2.432-1.558,3.254-3.624,3.571
		c-1.055,0.162-1.757,0.812-1.149,1.98c0.468,0.901,1.427,1.529,2.332,1.046c1.121-0.598,2.222-1.45,3.001-2.462
		c2.097-2.719,4.949-0.784,7.292-1.034c2.563-0.276-0.781,3.333,1.41,4.633c2.721-0.419,4.528-4.733,8.334-2.242
		c4.634,3.03,10.569,0.496,15.416,3.371c1.222,0.727,1.688-0.958,1.918-2.124c0.09-0.459,0.025-1.296,0.539-1.045
		c1.681,1.017,1.012,3.202,2.634,3.717c2.36-1.053,0.171-4.268,3.245-5.615c0.334,2.453-0.986,6.635,3.637,5.396l0.065,0.058
		c-0.061,3.053-3.226,5.298-2.445,9.612c4.063-4.709,6.025-9.659,8.745-14.107c0.83-1.355,1.889-3.259,3.802-2.883
		c1.672,0.327,0.829,2.265,1.19,3.457c0.345,1.137,0.748,2.392,2.13,2.121c1.475-0.287,1.047-1.753,1.133-2.834
		c0.177-2.196-2.1-3.893-1.193-7.79c1.871,4.586,3.366,4.507,4.45,0.974c0.263-0.855,0.451-2.186,1.642-1.555
		c0.525,0.276,0.481,1.686,0.697,2.581c-0.263,0.399-0.528,0.801-0.771,1.213c-0.005,0.009,0.251,0.18,0.386,0.275
		c0.157-0.471,0.315-0.94,0.474-1.411c4.836-0.038,6.329,2.066,4.352,6.762c-0.792,1.881-1.886,3.983,0.083,6.724
		c3.55-6.031,2.053-12.108,2.31-17.924c1.493,0.025,2.872-2.215,4.463-0.237c0.074,4.076-2.016,7.979-1.119,12.276
		c3.213-0.768,2.376-5.733,6.022-5.974c0.555,2.212-1.084,3.451-1.318,5.099c-0.253,1.784,1.067,3.926,2.097,3.229
		c4.589-3.105,7.907,1.14,11.807,1.609c10.725,1.291,21.663,1.326,32.066,4.657c5.299,1.694,8.023-0.469,9.448-4.857
		c4.928,1.834,9.794,2.941,14.769,2.59c3.025-0.216,6.165-0.684,8.031-4.183c4.054-7.599,7.872-7.576,15.294-2.982
		c4.725,2.925,9.972,5.09,14.104,9.46c1.331-2.914-1.272-4.259-0.394-6.705c2.497,0.688,6.806-0.805,5.101-2.627
		c-3.304-3.53,0.687-5.976-0.44-8.684c-0.392-0.94-0.257-2.051,0.939-2.25c1.308-0.216,1.282,0.965,1.471,1.893
		c1.568,7.748,7.571,11.233,13.528,14.758c0.146,0.078,0.291,0.16,0.436,0.239c-0.143-0.082-0.285-0.164-0.428-0.247
		c-1.229-4.537-2.161-9.042,1.163-13.396c2.477,2.769-0.451,5.361,0.544,8.703c2.713-5.141,5.103-10.341,11.963-4.517
		c-1.158-4.677,1.564-6.268,3.95-7.334c2.925-1.309,3.139,2.439,4.521,3.929c2.436-2.801,1.313-7.259,4.789-9.007
		c1.557-0.783,2.475-1.571,2.135-3.415c-0.187-1.012-0.694-1.938-1.646-2.095c-1.983-0.33-2.356,1.275-2.867,2.768
		c-0.495,1.439-1.218,2.761-2.1,0.157c0.78-1.427,1.286-2.929,1.186-4.596c1.981-0.461,4.472-3.735,5.82-0.859
		c2.451,5.231,8.042,7.391,10.349,12.485c1.782,3.938,3.448,7.931,5.454,12.561c1.553-11.609,1.553-11.609,7.482-12.992
		c-2.08-1.723-3.761-3.553-5.805-4.712c-3.786-2.147-2.35,2.696-4.026,3.854c-0.31-7.184,0.412-7.982,4.846-5.698
		c1.286,0.664,2.481,2.258,3.99,1.14c1.554-1.148,1.221-3.185,0.969-4.835c-0.486-3.192-1.968-5.629-5.21-6.853
		c-2.341-0.882-5.252-1.271-5.999-4.508c2.02-1.952,4.476-0.82,6.747-1.01c2.895,3.326,5.275,7.056,6.487,11.302
		c2.262,7.922,5.942,10.895,13.618,9.881c1.927-0.253,3.229,0.449,4.655,1.323c1.517,0.929,2.732,4.717,4.781,1.122
		c1.266-2.216,4.829-2.096,4.688-4.966c-0.101-2.042-0.701-3.977,1.74-4.646c2.418-0.664,3.046,1.661,4.104,3.147
		c1.612,2.271,2.745,2.163,4.714-0.043c2.163-2.425,2.553-6.337,5.61-7.678c3.104-1.362,1.777-2.44,0.488-4.097
		c-1.777-2.285-4.994-3.595-5.315-7.642c5.754,2.681,7.831,8.446,11.88,12.089c2.138-2.554-0.343-5.994,2.577-8.394
		c0.303,1.166,0.676,1.868,0.63,2.542c-0.435,6.348,2.579,11.864,4.042,17.749c0.31,1.245,0.941,2.943,2.367,2.911
		c2.171-0.05,1.143-2.44,1.902-3.6c1.324-2.021-1.76-4.696,0.878-6.861c2.851,4.326,1.413,9.492,2.979,14.905
		c2.406-4.628,0.492-9.403,4.573-11.836c0.054,7.674,0.124,15.347,0.159,23.02c0.05,11.07-2.988,15.37-13.504,19.063
		c-4.258,1.496-8.636,2.081-13.159,2.075c-49.2-0.081-98.399-0.123-147.599-0.114c-82.672,0.012-165.344-0.149-248.012,0.311
		C41.804,478.345,29.677,475.155,20.119,463.846z M87.552,431.952c-0.262-1.382,0.36-3.596-1.799-3.422
		c-2.225,0.176-2.54,2.424-2.597,4.315c-0.05,1.659,0.737,3.143,2.517,3.025C88.198,435.702,87.273,433.442,87.552,431.952z"/>
	<path fill-rule="evenodd" clip-rule="evenodd" fill="#5F7156" d="M189.711,454.593c-4.624,1.239-3.303-2.942-3.637-5.396
		c-3.073,1.348-0.884,4.563-3.245,5.615c-1.622-0.515-0.953-2.7-2.634-3.717c-0.514-0.251-0.449,0.586-0.539,1.045
		c-0.229,1.166-0.696,2.851-1.918,2.124c-4.847-2.875-10.782-0.341-15.416-3.371c-3.806-2.491-5.613,1.823-8.334,2.242
		c-2.191-1.3,1.152-4.909-1.41-4.633c-2.343,0.25-5.195-1.685-7.292,1.034c-0.779,1.012-1.88,1.864-3.001,2.462
		c-0.905,0.483-1.864-0.145-2.332-1.046c-0.607-1.169,0.094-1.818,1.149-1.98c2.066-0.317,3.52-1.14,3.624-3.571
		c0.15-3.467-3.296-0.374-4.137-2.772c1.567-0.77,1.171-5.148,5.201-1.552c1.737,1.551,3.745-2.835,5.713-4.404
		c1.113-0.887,2.722-2.073,1.907-3.768c-1.019-2.121-2.9-1.18-3.448,0.205c-1.446,3.66-4.098,4.285-7.508,4.595
		c-2.89,0.262-4.644,2.992-6.754,4.877c-1.644,1.468-3.573,2.598-6.058,4.363c0.077-4.325,3.621-6.512,3.372-10.409
		c-4.316,1.055-4.575,6.015-8.108,7.775c-0.174-1.959-1.387-3.701-0.847-5.832c0.268-1.052,0.97-2.437-0.656-2.793
		c-1.372-0.299-1.731,1.096-2.154,2.165c-0.532,1.341-0.585,3.065-2.473,3.477c-1.551-9.297,7.327-12.05,10.974-18.137
		c-4.473,1.54-7.648,4.569-10.71,7.791c-1.046,1.103-1.592,3.722-3.76,2.337c-1.646-1.051-2.168-3.03-1.427-5.121
		c0.991-2.789,0.608-5.593-0.07-8.945c-0.579,6.994-6.094,3.649-9.003,4.604c-4.021,1.317-6.78,3.527-9.657,6.216
		c-1.372,1.282-2.611,4.455-4.719,2.791c-1.62-1.28-0.855-4.327-0.221-6.556c0.37-1.3,1.08-2.448,2.582-2.75
		c0.888-0.18,2.247-0.426,1.766-1.563c-0.47-1.112-1.625-2.099-2.709-2.704c-0.988-0.552-1.81,0.33-1.92,1.398
		c-0.295,2.848-1.385,3.998-4.439,3.336c-1.83-0.396-2.928,1.505-3.41,3.216c-1.119,3.969-4.358,6.234-7.527,7.138
		c-3.294,0.939-5.512,2.718-7.753,4.929c-3.616,3.567-7.401,2.774-9.91-2.063c-3.217-6.206-3.224-6.212-8.271-0.88
		c-0.91,0.961-1.806,1.954-2.577,3.03c-1.314,1.834-2.726,0.578-4.016,0.146c-1.979-0.661-0.983-2.026-0.556-3.261
		c1.891-5.467,4.84-10.607,4.127-16.993c-1.788,4.824-3.469,9.693-5.437,14.44c-0.493,1.187-0.226,5.499-3.622,1.367
		c-1.78-2.163-2.585,1.461-2.903,2.533c-1.2,4.042-1.921,8.233-2.933,12.879c-4.223-4.604-3.8-10.085-3.792-15.447
		c1.231-0.094,2.709,0.211,3.095-1.521c0.17-0.769-0.27-1.61-1.145-1.459c-1.519,0.26-1.867,1.567-1.993,2.936
		c-2.778,0.267-2.194,3.118-3.37,4.617c-1.174,1.498-0.559,4.358-3.349,4.623c0-20.358,0-40.717,0-61.077
		c3.828,2.51,2.779,8.569,7.307,10.566c2.862-3.513,0.408-9.015,4.31-12.624c1.394,2.527,2.416,4.799,3.814,6.789
		c1.168,1.66,1.684,4.554,3.833,4.613c2.235,0.062,2.318-3.299,4.029-4.618c0.845,3.063-0.535,8.665,4.701,6.877
		c3.696-1.263,4.045,0.52,5.161,2.492c2.119-0.169,1.941-4.596,4.77-2.731c2.658,1.748,4.477,2.021,6.509-1.029
		c0.429-0.644,3.196-0.925,5.18-0.338c4.052,1.196,8.289,1.769,12.299-0.465c0.802-0.445,2.069-1.515,2.423-0.801
		c2.799,5.658,7.496,2.69,11.409,2.733c11.645,0.129,23.292-0.056,34.937,0.06c3.375,0.034,5.095-0.82,3.88-4.588l0.033-0.04
		c0.373,0.005,0.746,0.025,1.117,0.063c1.874,3.821,3.741,7.657,8.965,4.59c6.767-0.406,13.484,0.162,20.185,1.068
		c0.653,2.1-3.123,3.423-1.085,5.619c1.875,2.024,4.124,0.648,6.307,0.361c1.821-0.238,3.753-2.057,5.65,0.302
		c5.646,7.017,13.479,2.722,20.27,3.863c0.415,0.069,0.98-0.989,1.519-1.471c2.559-2.275,12.207,1.174,12.918,4.604
		c0.369,1.783-0.917,2.158-2.074,2.859c-3.292,2-6.623-0.331-9.789,0.191c-10.549,1.736-20.955-0.29-31.411-0.827
		c-2.053-0.106-2.881-0.502-2.828,2.357c0.062,3.253-1.668,3.273-3.761,0.973c-4.468-4.913-6.095,5.669-10.604,2.173
		c-0.722-0.561-1.854,1.015-1.836,2.297c0.014,0.934,0.051,1.977,0.447,2.777c1.44,2.908,4.789,3.987,6.634,2.51
		c5.674-4.549,10.431,1.176,12.021,3.152c5.244,6.517,12.477,6.336,18.962,8.713c4.679,1.716,9.229-1.51,13.982-0.179
		c1.844,0.517,3.949,1.92,5.951,0.753c4.593-2.678,7.661-0.348,10.505,3.043c-0.258,5.813,1.239,11.891-2.311,17.922
		c-1.969-2.74-0.875-4.843-0.083-6.724c1.977-4.695,0.484-6.8-4.352-6.762l-0.089-0.077c-0.215-0.896-0.172-2.305-0.697-2.581
		c-1.191-0.631-1.379,0.699-1.642,1.555c-1.083,3.533-2.579,3.612-4.45-0.974c-0.907,3.897,1.371,5.594,1.193,7.79
		c-0.086,1.081,0.342,2.547-1.133,2.834c-1.382,0.271-1.786-0.984-2.13-2.121c-0.361-1.192,0.481-3.13-1.19-3.457
		c-1.913-0.376-2.972,1.527-3.802,2.883c-2.72,4.448-4.683,9.398-8.745,14.107c-0.781-4.314,2.384-6.56,2.445-9.612
		c2.003-1.185,2.877-3.142,3.745-5.647C189.409,449.226,189.803,452.08,189.711,454.593z M60.566,425.825
		c0.077-0.154,0.155-0.31,0.232-0.464c-0.082,0.148-0.165,0.299-0.246,0.449c-0.08,0.151-0.159,0.303-0.238,0.455
		C60.398,426.12,60.482,425.972,60.566,425.825z M69.239,421.708c3.327,0.501,5.759,1.801,7.807-0.643
		c0.715-0.854,0.498-2.775-0.418-3.038C73.697,417.189,71.971,419.439,69.239,421.708z M64.536,426.714
		c1.929-0.505,3.213-1.249,3.352-3.211c0.02-0.281-0.79-0.944-1.112-0.88C64.788,423.013,64.319,424.434,64.536,426.714z
		 M135.081,432.117c-0.26,0.366-0.817,0.884-1.018,1.518c-0.192,0.604,0.335,1.211,0.94,0.911c0.58-0.287,1.146-0.906,1.39-1.517
		C136.626,432.441,136.137,432.005,135.081,432.117z M138.486,430.257c0.42-0.616,0.695-1.02,0.97-1.423
		c-0.273-0.166-0.611-0.527-0.807-0.46c-0.418,0.145-0.764,0.512-1.14,0.788C137.79,429.477,138.07,429.791,138.486,430.257z"/>
	<path fill-rule="evenodd" clip-rule="evenodd" fill="#B3D0D0" d="M79.661,153.839c3.556,0.906,6.085,3.579,9.032,5.534
		c0.026,1.386,0.282,2.967,1.756,3.103c1.97,0.181,1.367-1.713,1.571-2.883c2.775-0.536,4.94,0.871,6.978,2.448
		c1.947,1.508,3.951,2.625,6.486,2.226c0.107,1.271,1.062,1.862,1.839,2.7c8.583,9.257,19.999,13.841,30.673,19.624
		c2.811,1.524,4.796,5.073,8.029,4.963c4.796-0.165,8.167,2.066,11.336,5.083c2.43,2.315,5.238,3.371,8.479,3.817
		c6.429,0.883,11.603,4.597,17.202,7.676c8.629,4.747,17.265,10.913,28.117,8.115c-0.182,1.563-1.284,2.287-2.542,2.762
		c-6.628,2.499-13.268,4.963-19.906,7.432c-4.384,1.631-8.752,2.014-13.524,2.009c-4.15-0.004-9.074-2.836-11.485-1.254
		c-5.643,3.702-10.664,2.794-16.696,2.729c-6.605-0.073-13.854,0.953-20.451,3.485c-3.749,1.439-7.182,3.851-11.627,2.833
		c-1.836-0.421-1.401,1.753-1.579,2.978c-5.558-3.399-11.169-6.709-16.66-10.22c-6.738-4.306-14.376-4.807-21.906-6.221
		c-7.026-1.32-13.995-2.84-20.796-5.851c-11.771-5.209-22.767-11.729-33.869-18.136c0-8.066,0-16.133,0-24.2
		c3.891-0.888,5.247,5.875,9.673,3.373c0.123,0.355,0.398,0.735,0.347,1.06c-0.603,3.777,3.182,4.889,4.369,7.597
		c0.917,2.087,3.195,2.378,3.86,0.47c1.72-4.93,4.309-1.375,5.953-0.679c6.806,2.881,10.528,1.741,13.524-4.776
		c3.226-7.018,3.433-6.766,9.778-1.824c2.738,2.132,3.454,6.937,8.16,7.007c-2.285-7.878-2.332-8.531,0.767-11.447
		c2.381-2.243,6.624-0.551,8.55-3.999c0.785,0.479,1.73,0.806,2.322,1.466c1.376,1.537,2.581,3.233,3.856,4.865
		c0.951,1.216,1.125,4.023,3.289,2.917c1.603-0.821,0.848-3.107,0.28-4.719c-0.685-1.948-0.72-4.442-2.682-5.521
		c-6.408-3.525-6.643-12.014-12.429-15.986C79.636,154.326,79.683,154.029,79.661,153.839z"/>
	<path fill-rule="evenodd" clip-rule="evenodd" fill="#3C554F" d="M134.681,390.114c1.214,3.768-0.505,4.622-3.88,4.588
		c-11.645-0.115-23.292,0.069-34.937-0.06c-3.913-0.043-8.61,2.925-11.409-2.733c-0.354-0.714-1.621,0.355-2.423,0.801
		c-4.01,2.233-8.247,1.661-12.299,0.465c-1.984-0.587-4.751-0.306-5.18,0.338c-2.032,3.051-3.851,2.777-6.509,1.029
		c-2.828-1.864-2.651,2.563-4.77,2.731c-1.116-1.973-1.465-3.755-5.161-2.492c-5.235,1.788-3.856-3.813-4.701-6.877
		c-1.711,1.319-1.794,4.68-4.029,4.618c-2.15-0.06-2.665-2.953-3.833-4.613c-1.399-1.99-2.42-4.262-3.814-6.789
		c-3.902,3.609-1.448,9.111-4.31,12.624c-4.528-1.997-3.479-8.057-7.307-10.566c0-19.975,0-39.95,0-59.925
		c2.865-0.316,4.027,2.123,5.948,3.537c5.85,4.301,12.151,7.951,18.117,12.096c1.655,1.148,2.368,1.279,3.431-0.528
		c2.132-3.624,3.458-1.842,5.073,0.721c3.862,6.124,9.941,9.933,15.378,14.289c2.796,2.242,4.71-1.992,7.166-2.94
		c2.467-0.95,4.821-5.52,7.572-0.137c0.591,1.157,2.508,0.849,3.683,0.325c7.534-3.353,14.263-2.551,21.674,1.597
		c3.437,1.924,6.861,3.615,9.799,6.318c5.905,5.432,6.867,5.201,9.784-2.221c5.131,0.392,1.464,8.801,8.953,7.492
		c-6.794,4.28-7.325,8.561-0.232,11.217c-1.375,2.126-4.167,1.601-6.295,3.938c3.676,0.7,6.8,1.355,9.944,1.882
		c3.685,0.618,7.652,0.194,10.497,3.534c2.106,2.474,5.198-0.167,8.177,1.99c3.06,2.215,5.875,4.584,8.571,7.193
		c-0.792,0.747-1.585,1.492-2.378,2.239c-6.7-0.906-13.418-1.475-20.184-1.068c-2.68-2.164-4.852-5.374-8.966-4.59
		c-0.372-0.038-0.744-0.059-1.117-0.063c-0.383-0.269-0.766-0.534-1.149-0.803c-0.087,0.139-0.174,0.276-0.261,0.414
		C133.762,389.828,134.221,389.972,134.681,390.114z"/>
	<path fill-rule="evenodd" clip-rule="evenodd" fill="#62888A" d="M163.815,338.313c-1.647-1.106-3.444-1.399-5.363-1.048
		c0.485-2.789,1.3-5.379-2.862-6.367c-3.705-0.881-4.56,1.571-5.631,3.88c-0.859,1.853-1.271,3.924-1.881,5.897
		c-2.16-1.164-1.624,4.264-4.061,1.864c-3.025-2.979-7.848-4.023-8.981-9.101c-0.488-2.187,0.674-5.894-3.664-5.525l-0.094-0.096
		c0.424-3.843-1.255-7.037-4.22-8.725c-2.812-1.602-5.165,1.167-7.464,2.724c-0.615,0.417-1.65,1.146-1.096,1.67
		c5.321,5.017-1.482,3.083-2.469,4.209c-0.702,0.799-2.62,0.451-2.043,2.509c0.46,1.641,1.308,3.803-1.059,4.227
		c-1.927,0.347-4.34-0.329-5.569-2.043c-2.569-3.584-4.757-6.851-9.075-1.957c-1.198,1.356-2.254-0.314-3.184-1.201
		c-1.094-1.044-1.353-4.69-2.893-3.078c-2.042,2.143-6.373,2.101-6.366,5.536c0.006,2.674-0.9,4.559-2.824,4.52
		c-1.852-0.033-3.304-2.432-3.878-4.392c-2.95-10.075-2.884-10.095-12.308-7.828c1.585-4.228,3.319-8.472-1.92-11.13
		c-1.721-0.872-3.401-1.593-5.307-0.497c-1.014,0.583-2.332,2.336-3.177,0.395c-0.659-1.512-3.014-2.325-1.73-4.936
		c1.096-2.229-6.531-16.61-8.474-16.186c-3.274,0.718-4.877,4.039-5.686,6.978c-0.623,2.267-0.836,3.945-3.49,4.147
		c-0.59,0.047-1.668,0.996-1.6,1.332c0.984,4.854-1.762,4.813-5.398,5.712c-4.888,1.211-5.677-2.261-7.614-4.747
		c-0.629-0.809-1.332-1.302-2.317-1.395c0-6.53,0-13.061,0-19.591c0.876-0.966,5.329,3.697,3.106-2.043
		c-0.577-1.49-1.504-3.165-0.07-4.154c2.253-1.556,2.564,1.172,3.583,2.286c0.346,0.378,0.78,0.672,1.479,1.263
		c1.435-4.956,4.45-6.361,8.953-4.785c3.482,1.221,6.263,0.473,7.656-3.435c0.733-2.058,1.368-3.578,3.813-1.188
		c3.419,3.342,4.822,1.193,5.187-2.593c0.109-1.138,0.099-2.345,0.492-3.379c0.683-1.797,1.651-3.438,3.276-0.626
		c0.38,0.659,0.791,1.314,1.067,2.022c1.99,5.088,6.809,7.368,10.998,7.796c7.081,0.726,0.671,2.932,0.999,4.652
		c6.957,1.058,10.711,6.526,14.387,12.063c2.241,3.375,9.345,6.538,12.476,5.376c2.764-1.025,5.006-2.411,4.726-6.133
		c-0.134-1.768,2.05-3.341,2.543-1.448c0.971,3.732,4.203,3.309,6.172,5.001c1.495,1.284,3.887,1.771,2.905,4.745
		c-0.531,1.611,1.052,2.475,2.012,3.121c2.046,1.375,1.785-1.037,2.408-1.907c1.213-1.69,2.286-1.493,3.645-0.103
		c1.438,1.47,2.972,2.906,4.673,4.023c1.707,1.12,3.221,1.989,5.11-0.687c1.5-2.122,4.469-3.231,6.915-4.539
		c1.341-0.718,3.191-2.553,4.383-0.515c0.869,1.487-0.748,3.18-1.898,4.439c-0.76,0.831-1.804,1.413-2.467,2.306
		c-0.723,0.973-0.463,3.127,0.131,2.986c3.307-0.783,5.907,0.339,8.576,2.07c0.4,0.26,1.952-1.57,2.71-0.056
		c0.699,1.396-0.43,2.536-1.448,3.41c-0.558,0.479-1.251,0.845-1.94,1.099c-1.549,0.571-2.189,1.622-1.296,3.073
		c1.127,1.834,2.423,1.337,3.596-0.098c0.461-0.565,0.837-1.324,1.849-0.991c1.293,1.524-0.079,2.777-0.535,4.116
		c-0.419,1.226-1.469,2.525-0.163,3.659c1.256,1.09,3.286,1.152,4.162,0.104c3.089-3.705,6.392-2.143,9.442-0.552
		c1.801,0.937,3.629-0.015,5.776,1.029C165.561,328.972,166.565,334.431,163.815,338.313z"/>
	<path fill-rule="evenodd" clip-rule="evenodd" fill="#A3C5C5" d="M79.661,153.839c0.022,0.19-0.025,0.487,0.076,0.556
		c5.786,3.973,6.021,12.461,12.429,15.986c1.961,1.079,1.997,3.574,2.682,5.521c0.568,1.612,1.323,3.898-0.28,4.719
		c-2.164,1.106-2.338-1.701-3.289-2.917c-1.275-1.631-2.48-3.328-3.856-4.865c-0.592-0.66-1.538-0.987-2.322-1.466
		c-1.927,3.448-6.169,1.756-8.55,3.999c-3.098,2.916-3.051,3.568-0.767,11.447c-4.706-0.071-5.421-4.875-8.16-7.007
		c-6.345-4.942-6.552-5.194-9.778,1.824c-2.996,6.517-6.718,7.657-13.524,4.776c-1.644-0.696-4.232-4.251-5.953,0.679
		c-0.665,1.908-2.943,1.617-3.86-0.47c-1.188-2.708-4.972-3.82-4.369-7.597c0.052-0.325-0.224-0.705-0.347-1.06
		c-4.426,2.502-5.782-4.261-9.673-3.373c0-0.769,0-1.536,0-2.305c3.41,0.21,4.796-1.691,5.171-5.079
		c-2.398,0.062-2.861,3.226-5.171,2.774c0-7.683,0-15.365,0-23.048c6.12-1.817,12.513-2.997,18.298-5.597
		c9.044-4.067,17.296-2.718,25.345,2.076C69.197,146.649,74.37,150.348,79.661,153.839z"/>
	<path fill-rule="evenodd" clip-rule="evenodd" fill="#B3D0D0" d="M20.119,169.981c2.31,0.452,2.772-2.712,5.171-2.774
		c-0.375,3.387-1.761,5.289-5.171,5.079C20.119,171.518,20.119,170.75,20.119,169.981z"/>
	<path fill-rule="evenodd" clip-rule="evenodd" fill="#A3C5C5" d="M478.32,155.042c0.024,19.205,0.049,38.411,0.074,57.616
		c-1.579-0.375-2.924,0.297-4.279,0.978c-8.865,4.454-17.168,10.218-27.205,11.946c-1.271,0.219-2.302,1.832-3.471,2.766
		c-1.318,1.052-2.561,2.745-4.02,2.985c-11.276,1.859-19.176,11.443-30.141,13.782c-13.471,2.872-25.843,10.423-40.047,10.006
		c-3.989-0.115-7.179,1.192-10.339,3.498c-3.64,2.658-7.541,4.945-11.36,7.342c-2.448,1.536-4.878,2.468-7.924,1.268
		c-3.192-1.258-5.761,1.092-8.232,2.666c-4.574,2.911-8.771,6.339-13.67,8.857c-2.871,1.476-5.055,1.76-7.764,0.703
		c0.132-3.265,2.146-7.132-1.693-9.33c-3.513-2.012-7.192-2.828-10.374,1.306c-1.512,1.966-2.979,0.023-4.144-1.14
		c-1.772-1.774-4.138-4.238-6.163-3.229c-4.436,2.21-9.028-2.053-13.364,1.999c2.054-8.717,1.707-9.076-6.733-9.239
		c-1.715-0.033-3.717,0.824-5.302-1.174c2.742-1.707,5.413-3.304,7.997-5.039c0.506-0.341,1.01-1.272,0.922-1.835
		c-0.194-1.244-1.43-1.232-2.241-0.971c-3.494,1.131-7.137,2.505-10.076,4.37c-7.964,5.055-10.689,4.827-15.091-3.278
		c-0.66-1.217-0.835-3.435-2.819-2.913c-1.652,0.435-2.903,1.792-2.256,3.936c0.373,1.237,0.289,2.438-1.044,2.804
		c-1.683,0.462-1.6-1.098-1.826-2.137c-0.371-1.704-1.325-2.726-3.057-2.791c-0.971-0.037-2.25,0.309-2.147,1.336
		c0.538,5.377-4.59,5.712-6.703,8.555c-2.71,3.642-7.03,6.643-7.18,12.002c-6.874,1.758-12.757-1.143-18.187-4.711
		c-3.645-2.397-7.246-3.857-11.468-5.063c-11.219-3.205-22.951-3.516-34.062-7.18c-3.43-1.131-7.394-0.432-11.07-0.92
		c-11.392-1.507-19.786-8.896-28.511-15.597c0.177-1.224-0.258-3.398,1.579-2.977c4.445,1.017,7.879-1.395,11.627-2.833
		c6.597-2.532,13.845-3.559,20.451-3.485c6.032,0.066,11.054,0.974,16.696-2.729c2.412-1.582,7.335,1.25,11.485,1.254
		c4.772,0.005,9.14-0.377,13.524-2.009c6.638-2.469,13.278-4.933,19.906-7.432c1.259-0.475,2.36-1.198,2.542-2.764
		c1.816-0.294,3.982-0.032,5.393-0.967c12.038-7.972,25.818-9.639,39.462-11.856c0.294,0.572,0.502,1.55,0.901,1.642
		c1.156,0.264,1.182-0.84,1.358-1.652c0.748-0.005,1.496-0.011,2.244-0.019c0.891,1.934,2.203,2.124,4.147,1.52
		c3.427-1.067,6.746-0.095,9.604,1.841c4.17,2.825,10.101-0.065,13.688,4.618c0.255,0.334,1.938-0.02,2.595-0.539
		c8.834-6.982,20.748-5.173,29.995-11.086c1.539-0.984,4.231-3.099,5.861-0.598c1.548,2.375-1.545,3.918-2.415,5.91
		c-0.116,0.266,0.1,0.684,0.22,1.361c8.441-1.217,16.432-4.384,24.573-6.597c8.923-2.425,16.595-8.323,24.584-13.197
		c5.012-3.058,10.383-5.022,16.828-4.31c4.314,0.477,8.171,3.331,12.456,2.459c14.267-2.899,27.096-9.361,38.801-17.996
		c3.353-2.473,6.247-3.42,9.674-1.5c3.149,1.765,5.688,1.138,8.179-1.05C464.829,159.38,471.982,158.1,478.32,155.042z
		 M321.787,207.716c-0.288-0.126-0.642-0.42-0.844-0.334c-0.208,0.086-0.27,0.542-0.394,0.837c0.287,0.128,0.639,0.42,0.843,0.336
		C321.601,208.47,321.661,208.013,321.787,207.716z"/>
	<path fill-rule="evenodd" clip-rule="evenodd" fill="#62888A" d="M300.995,360.236c-1.071,1.781-2.247,3.51-3.19,5.362
		c-1.635,3.205-2.375,5.069-5.965,0.896c-3.867-4.493-5.636,1.329-6.746,3.718c-1.48,3.184-2.949,5.623-6.512,6.155
		c-0.561-2.979-0.994-5.705,1.065-8.602c1.972-2.772,4.094-5.129,4.131-9.73c0.035-4.247,6.481-5.218,10.961-5.549
		c1.345-0.1,3.139,1.421,3.683-0.871c0.68-2.878-1.254-5.113-2.618-7.337c-0.977-1.589-1.889-0.53-3.126,0.301
		c-4.502,3.017-14.376-0.767-16.063-5.826c-0.767-2.3,1.424-3.433,1.634-5.238c0.206-1.781,1.177-4.263-1.04-5.101
		c-2.248-0.849-1.78,1.729-2.313,2.965c-0.574,1.329-1.472,2.45-2.994,1.863c-1.78-0.689-1.193-2.282-0.55-3.387
		c4.162-7.143,9.437-13.191,17.425-15.732c7.251-2.306,15.407-0.952,22.125-5.622c0.599-0.415,1.639-0.312,2.061-0.814
		c5.525-6.566,10.508-2.808,15.694,0.617c4.231,2.795,8.026-0.124,10.403-2.755c4.887-5.412,11.927-7.909,16.393-13.765
		c1.183-1.553,3.103-0.74,4.549,0.414c0.295,0.235,0.595,0.469,0.914,0.666c3.414,2.107,4.858,6.39,7.622,8.424
		c1.751,1.288,6.207-3.686,10.025-0.708c0.323,0.251,1.447,0.084,1.463-0.011c1.178-7.48,10.123-7.046,12.748-13.348
		c1.608-3.864,3.258-8.152,7.656-10.184c2.202-1.018,3.519-1.312,3.875,1.645c0.09,0.747,0.147,1.989,0.53,2.132
		c4.546,1.7,7.699,3.334,4.881,9.675c-0.759,1.709,4.695,1.914,7.22,1.225c3.549-0.97,6.268-2.879,10.772-1.387
		c4.136,1.373,7.526-4.067,9.591-7.612c2.886-4.956,8.222-6.175,11.685-9.99c0.75-0.824,1.946-1.245,2.63-2.106
		c2.207-2.781,3.785-8.099,7.1-0.462c0.633,1.455,5.901,0.367,5.214,5.017c-0.245,1.832-1.37,3.384-0.75,5.537
		c0.633,2.198,0.129,4.6-2.402,5.677c-2.26,0.96-2.891,2.279-1.188,4.34c0.688,0.835,0.846,2.313,0.076,2.534
		c-5.062,1.448-3.904,6.945-6.469,9.924c-0.438,0.509-1.8,0.405-2.676,0.241c-1.724-0.32-3.44-1.843-4.86,0.695
		c-1.296,2.314,0.145,3.558,1.501,4.889c1.28,1.257,1.948,3.331-0.282,3.12c-6.609-0.622-7.216,5.545-10.494,8.812
		c-1.177-1.184-0.319-2.354-0.014-3.5c1.063-3.973-1.043-4.962-4.206-4.29c-2.369,0.503-4.869,1.99-6.728-0.402
		c-1.979-2.545,2.577-3.438,1.791-6.335c-3.649,0.86-6.399-0.352-8.189-4.1c-0.986-2.063-2.31-2.144-4.187,0.052
		c-2.192,2.562-3.048,6.554-7.046,7.464c-1.367,0.312-1.108,1.76-0.705,2.902c1.05,2.978,0.099,4.965-1.771,7.642
		c-2.175,3.115-3.339,3.515-6.926,2.505c-4.442-1.251-6.749,2.99-7.633,6.66c-1.12,4.653-3.823,1.784-5.945,2.27
		c-2.404,0.552-3.788,3.328-6.535-0.766c-3.677-5.479-8.417,0.9-9.279,2.539c-3.332,6.333-9.176,3.984-13.735,5.602
		c-2.275,0.805-3.687-1.277-4.813-3.128c-0.698-1.146-1.403-2.52-3.008-1.821c-1.404,0.613-2.757,1.732-2.199,3.515
		c0.973,3.105-1.157,5.394-2.46,7.203c-2.608,3.627-6.113,5.714-11.064,2.89c-7.068-4.032-11.052-1.776-12.754,6.493
		c-5.941-5.456-11.203-3.354-16.947,0.84C299.403,357.092,300.178,358.308,300.995,360.236z"/>
	<path fill-rule="evenodd" clip-rule="evenodd" fill="#B3D0D0" d="M216.648,272.688c0.15-5.359,4.469-8.36,7.18-12.002
		c2.113-2.843,7.24-3.178,6.703-8.555c-0.103-1.027,1.176-1.373,2.147-1.336c1.732,0.065,2.686,1.087,3.057,2.791
		c0.226,1.039,0.143,2.599,1.826,2.137c1.333-0.365,1.417-1.566,1.044-2.804c-0.647-2.144,0.604-3.501,2.256-3.936
		c1.984-0.522,2.159,1.696,2.819,2.913c4.402,8.105,7.127,8.333,15.091,3.278c2.939-1.865,6.582-3.239,10.076-4.37
		c0.812-0.262,2.047-0.273,2.241,0.971c0.088,0.563-0.416,1.494-0.922,1.835c-2.584,1.735-5.255,3.332-7.997,5.039
		c1.585,1.998,3.587,1.141,5.302,1.174c8.44,0.163,8.787,0.522,6.733,9.239c4.336-4.052,8.929,0.211,13.364-1.999
		c2.025-1.01,4.391,1.454,6.163,3.229c1.165,1.163,2.632,3.105,4.144,1.14c3.182-4.134,6.861-3.317,10.374-1.306
		c3.84,2.198,1.825,6.065,1.693,9.33c-5.22,3.76-11.48,5.98-16.41,9.853c-7.862,6.181-15.292,5.948-23.811,2.377
		c-6.432-2.697-12.802-5.244-20.128-5.906c-6.772-0.614-13.582-4.046-19.738-7.449C225.559,275.952,221.424,273.675,216.648,272.688
		z"/>
	<path fill-rule="evenodd" clip-rule="evenodd" fill="#62888A" d="M200.955,346.331c-0.851-0.25-2.242-0.963-2.47-0.681
		c-3.533,4.357-7.96,1.862-12.05,1.817c-0.925-0.172-2.219-0.522-1.567-1.645c2.119-3.648,0.019-2.831-2.11-2.352
		c-2.101,0.472-4.667,1.64-5.253-1.923c-0.515-3.137,0.346-6.237,3.765-6.51c4.163-0.334,7.925-3.782,12.414-1.574
		c0.975,0.479,2.354,0.06,3.037-0.936c1.35-1.968,2.649-2.534,4.392-0.503c1.535,1.788,3.996,3.107,2.141,6.213
		C201.79,340.687,200.614,343.306,200.955,346.331z"/>
	<path fill-rule="evenodd" clip-rule="evenodd" fill="#62888A" d="M478.231,265.664c-0.006,6.928-0.013,13.856-0.021,20.785
		c-2.135,0.021-3.737-0.282-4.769-2.852c-1.246-3.104-3.364-5.84-5.106-8.737C470.821,270.876,472.772,266.283,478.231,265.664z"/>
	<path fill-rule="evenodd" clip-rule="evenodd" fill="#62888A" d="M183.038,354.276c-0.349,0.083-0.702,0.143-1.057,0.18
		c-0.193-0.989-1.675-2.443-0.139-2.833C183.219,351.271,182.816,353.251,183.038,354.276z"/>
	<path fill-rule="evenodd" clip-rule="evenodd" fill="#B3D0D0" d="M478.32,155.042c-6.338,3.057-13.491,4.338-19.012,9.185
		c-2.491,2.188-5.029,2.814-8.179,1.05c-3.427-1.92-6.321-0.973-9.674,1.5c-11.705,8.634-24.534,15.097-38.801,17.996
		c-4.285,0.872-8.142-1.982-12.456-2.459c-6.445-0.712-11.816,1.252-16.828,4.31c-7.989,4.875-15.661,10.772-24.584,13.197
		c-8.142,2.213-16.132,5.379-24.573,6.597c-0.12-0.677-0.336-1.095-0.22-1.361c0.87-1.992,3.963-3.535,2.415-5.91
		c-1.63-2.5-4.322-0.386-5.861,0.598c-9.247,5.913-21.161,4.104-29.995,11.086c-0.656,0.519-2.34,0.874-2.595,0.539
		c-3.587-4.683-9.518-1.793-13.688-4.618c-2.857-1.936-6.177-2.909-9.604-1.841c-1.944,0.604-3.257,0.414-4.147-1.519
		c2.079-2.939,7.202-2.182,7.879-6.825c7.461,2.281,13.167-2.839,19.564-4.951c16.327-5.391,30.993-15.489,47.893-18.988
		c18.797-3.892,34.033-14.958,50.333-23.977c5.909-3.269,11.553-7.102,17.639-9.958c8.766-4.113,17.544-4.35,27.066-0.943
		c10.397,3.723,20.661,8.4,31.942,9.292c5.404,0.428,9.889,4.599,15.484,4.69C478.319,152.837,478.319,153.939,478.32,155.042z"/>
	<path fill-rule="evenodd" clip-rule="evenodd" fill="#D1E1E0" d="M268.398,196.567c-0.677,4.644-5.8,3.886-7.879,6.825
		c-0.748,0.006-1.496,0.012-2.244,0.017c-0.754,0.003-1.507,0.007-2.26,0.01c-13.644,2.217-27.424,3.884-39.462,11.856
		c-1.411,0.936-3.577,0.673-5.393,0.967c-10.852,2.8-19.488-3.367-28.117-8.113c-5.599-3.079-10.773-6.793-17.202-7.676
		c-3.242-0.446-6.049-1.502-8.479-3.817c-3.169-3.018-6.54-5.248-11.336-5.083c-3.233,0.11-5.218-3.439-8.029-4.963
		c-10.674-5.783-22.09-10.367-30.673-19.624c-0.777-0.838-1.731-1.43-1.839-2.7c4.753-2.422,10.15-3.006,15.089-3.074
		c8.704-0.118,16.313-3.979,24.121-6.439c11.432-3.604,21.364-1.813,31.055,3.854c8.574,5.012,17.609,9.911,26.552,13.016
		c11.901,4.131,22.772,10.796,35.188,13.711C248.086,187.82,258.443,191.808,268.398,196.567z"/>
	<path fill-rule="evenodd" clip-rule="evenodd" fill="#A3C5C5" d="M92.02,159.592c-0.205,1.17,0.398,3.064-1.571,2.883
		c-1.474-0.136-1.729-1.717-1.756-3.103C89.802,159.445,90.911,159.519,92.02,159.592z"/>
	<path fill-rule="evenodd" clip-rule="evenodd" fill="#D1E1E0" d="M109.463,66.063c0.606,1.663,0.987,2.358,1.075,3.09
		c0.044,0.371-0.441,0.808-0.687,1.214c-0.549-0.414-1.186-0.755-1.594-1.285C108.12,68.904,108.564,68.253,109.463,66.063z"/>
	<path fill-rule="evenodd" clip-rule="evenodd" fill="#D1E1E0" d="M128.55,69.736c-0.877,0.277-1.392,0.622-1.778,0.509
		c-0.364-0.107-0.688-0.661-0.84-1.09c-0.076-0.212,0.275-0.584,0.434-0.885C126.771,68.543,127.177,68.816,128.55,69.736z"/>
	<path fill-rule="evenodd" clip-rule="evenodd" fill="#738768" d="M164.981,395.796c0.793-0.747,1.585-1.492,2.378-2.239
		c6.125-0.252,12.237-0.23,18.282,0.997c1.944,0.394,3.672-0.133,5.307-1.161c1.639,0.403,3.034-0.242,4.386-1.075
		c2.07,1.633,4.117,3.413,6.799,1.112c3.362,0.458,3.955-1.972,4.455-4.496c2.007,1.565,0.29,4.471,2.417,6.834
		c1.04-4.039,2.47-4.441,6.198-2.968c3.829,1.511,9.03,1.558,12.91,0.152c4.297-1.558,7.916-1.194,11.878-0.092
		c3.138,0.874,6.161,1.214,9.156-0.736c2.397-1.56,4.973-1.079,7.522-0.03c4.069,1.671,8.138,3.059,11.736-1.145
		c0.937-1.094,2.533-1.205,3.697-0.741c6.843,2.715,13.622,0.016,20.417,0.055c10.896,0.063,21.799,0.73,32.671,1.525
		c3.411,0.249,6.995-0.537,10.318,1.394c1.373,0.798,2.38-0.429,2.51-2.086c0.116-1.491-0.266-3.12,1.02-4.328
		c0.742,4.801,2.406,8.079,8.117,5.884c2.058-0.79,4.368-0.888,6.563-1.302c0.159,7.665,3.893,3.498,6.771,2.154
		c0.738,0.032,1.476,0.065,2.214,0.098c1.066,1.567-3.802,3.722-0.25,4.172c3.253,0.413,4.148,6.306,8.28,3.223
		c4.641,4.917,9.192,2.673,13.891-0.004c1.991-1.136,3.011-0.091,4.148,2.089c2.955,5.667,7.446,9.344,14.263,8.434
		c1.013-0.135,1.867-0.272,2.175,0.979c0.242,0.984,0.137,1.987-0.773,2.524c-1.125,0.662-2.357,1.129-3.544,1.681
		c-2.271,0.188-4.728-0.943-6.747,1.009c-2.921,0.346-3.796-1.701-4.444-4.006c-0.445-1.589-1.25-2.798-3.065-2.645
		c-1.512,0.127-2.257,1.24-2.522,2.622c-0.671,3.485-3.324,4.78-6.098,5.957c-5.936,2.52-5.939,2.512-1.74,8.489
		c0.101,1.667-0.405,3.169-1.186,4.596c-1.117-0.045-2.114-0.219-3.135-0.923c-7.265-5.021-9.558-5.735-16.815-1.24
		c-1.419,0.878-3.097,1.304-4.575,2.093c-3.696,1.972-5.625,1.056-5.851-3.382c-0.084-1.673-0.463-4.132-2.409-3.899
		c-2.695,0.323-1.811,2.641-1.281,4.533c0.34,1.211,0.755,3.504-0.798,3.215c-1.989-0.371-3.783-2.163-5.521-3.532
		c-1.162-0.916-0.6-1.786,0.318-2.798c5.319-5.878,5.284-5.909,3.491-13.205c-7.807,9.013-18.063,13.256-29.414,15.281
		c-1.268,0.227-2.163-0.729-2.745-1.677c-2.398-3.894-3.816-2.11-5.431,0.729c-1.854,3.265-3.94,6.164-7.898,2.134
		c-1.237-1.261-2.854-0.736-3.894,0.696c-1.641,2.262-4.149,2.737-6.568,4.047c-0.466-3.01,1.478-4.658,2.114-6.761
		c0.352-1.163,0.669-2.454-0.629-2.961c-0.951-0.372-3.105-0.15-3.117-0.027c-0.437,4.467-6.022,4.924-6.734,8.501
		c-1.297,6.503-8.931,1.262-10.479,6.579c-0.484-0.531-1.196-0.979-1.414-1.605c-0.671-1.937-1.848-3.791-1.133-6.035
		c0.719-2.26,0.006-3.85-2.194-5.052c-2.47,14.522-2.47,14.522-11.885,8.098c-1.943,0.743,0.317,4.063-1.157,3.584
		c-3.074-1.001-7.216,2.267-9.324-2.407c-1.459-3.238-2.388-3.106-4.934-0.266c-2.388,2.665-6.156,4.99-10.457,3.187
		c-1.591-1.978-2.97,0.263-4.463,0.237c-2.843-3.389-5.911-5.719-10.504-3.041c-2.002,1.167-4.107-0.236-5.951-0.753
		c-4.753-1.331-9.303,1.895-13.982,0.179c-6.485-2.377-13.719-2.196-18.962-8.713c-1.589-1.977-6.347-7.701-12.021-3.152
		c-1.846,1.478-5.194,0.398-6.634-2.51c-0.396-0.801-0.433-1.844-0.447-2.777c-0.019-1.282,1.114-2.857,1.836-2.297
		c4.509,3.496,6.136-7.086,10.604-2.173c2.093,2.301,3.823,2.28,3.761-0.973c-0.054-2.859,0.775-2.464,2.828-2.357
		c10.456,0.537,20.861,2.563,31.411,0.827c3.166-0.522,6.497,1.809,9.789-0.191c1.156-0.701,2.443-1.076,2.074-2.859
		c-0.712-3.43-10.359-6.879-12.918-4.604c-0.539,0.481-1.104,1.54-1.519,1.471c-6.79-1.142-14.624,3.153-20.27-3.863
		c-1.897-2.358-3.829-0.54-5.65-0.302c-2.184,0.287-4.432,1.663-6.307-0.361C161.859,399.219,165.635,397.896,164.981,395.796z
		 M254.078,436.982c0.987-1.998,1.288-3.585-0.199-4.896c-0.615-0.541-1.611-0.232-1.86,0.456
		C251.369,434.332,252.104,435.717,254.078,436.982z"/>
	<path fill-rule="evenodd" clip-rule="evenodd" fill="#3C554F" d="M362.704,393.602c-0.738-0.032-1.476-0.065-2.213-0.098
		c-2.354-0.395-2.907-6.754-6.772-2.154c-2.195,0.414-4.506,0.512-6.563,1.302c-5.711,2.195-7.375-1.083-8.117-5.884
		c-0.999-4.178-0.819-6.92,4.692-5.053c2.274,0.771,3.699-1.556,4.785-3.275c1.327-2.104-1.805-1.894-2.054-3.905
		c9.009-0.696,16.241-4.369,19.453-14.229c1.929,5.771,3.3,11.226,8.477,14.458c2.538,1.588,4.425,2.42,7.35,0.404
		c2.413-1.663,4.778-5.019,8.895-2.024c1.694,1.231,2.226-1.66,2.415-3.37c0.222-2.012-2.341-4.952,1.127-5.841
		c3.305-0.849,7.188-2.314,10.079,0.627c1.807,1.84,4.588,2.544,5.723,5.919c0.729-5.979,2.175-7.623,8.158-5.295
		c3.752,1.46,7.986-3.647,10.93-7.309c0.877-1.091,1.13-2.707,1.915-4.718c4.946,6.298,8.36,0.868,12.231-0.993
		c1.3-0.626,1.258-1.64,0.512-2.824c-2.809-4.459-4.896-9.506-10.217-11.737c-1.522-0.637-4.177-1.383-2.434-3.982
		c1.322-1.972,2.824-0.702,4.18,0.589c2.858,2.721,7.421,2.642,9.673,7.172c0.605,1.221,5.896,4.067,9.854,3.751
		c2.562-0.206,4.896-2.031,5.212-3.807c1.229-6.921,7.172-11.862,7.244-19.145c0.017-1.699-0.154-3.976,2.044-4.101
		c2.653-0.152,1.265,2.354,1.82,3.613c1.314,2.989,1.292,4.958,0.139,8.37c-1.277,3.777,3.272,5.09,6.996,4.739
		c0.011,18.8,0.022,37.598,0.033,56.397c-3.23,0.06-1.098-3.883-3.045-4.91c-1.938,2.083-1.259,5.703-4.575,6.249
		c0-3.575,0-7.149,0-10.727c-2.711,2.013-4.736,3.543-6.895,4.901c-1.067-0.532-1.283-2.895-3.456-0.974
		c-3.066,2.713-6.61,4.87-10.014,7.166c-1.376,0.929-3.046,2.409-4.601,1.469c-6.701-4.051-14.145-0.87-21.285-2.508
		c-7.094-1.624-15.127,0.505-22.664,1.597c-13.14,1.901-13.11,2.099-14.438-9.617c-0.015-0.126-0.436-0.204-0.956-0.429
		c0,2.272,0.061,4.362-0.026,6.445c-0.043,1.023,0.419,2.6-1.211,2.707C377.646,393.053,370.326,396.925,362.704,393.602z"/>
	<path fill-rule="evenodd" clip-rule="evenodd" fill="#6E9699" d="M300.995,360.236c-0.817-1.929-1.592-3.145,1.034-5.061
		c5.744-4.193,11.006-6.296,16.947-0.84c0.906,2.989,1.107,5.781-2.591,6.843c-2.459,0.702-3.22,2.327-3.098,4.712
		c0.083,1.624-0.055,3.166-2.146,3.305c-1.949,0.128-3.701-0.022-4.508-2.381C305.631,363.88,304.031,361.384,300.995,360.236z"/>
	<path fill-rule="evenodd" clip-rule="evenodd" fill="#3C554F" d="M206.587,388.934c-0.5,2.524-1.093,4.954-4.455,4.498
		c-1.083-2.688-3.169-4.666-5.768-4.891c-1.532-0.133-0.763,2.428-1.031,3.776c-1.352,0.833-2.747,1.479-4.386,1.075
		c-0.283-2.252,0.978-4.315,0.248-6.771c-0.824-2.773,0.48-4.143,3.35-2.461c0.778,0.455,1.858,1.519,2.418,0.489
		c3.917-7.191,8.655,0.813,12.933-0.734c0.817-0.297,3.257,0.838,2.693,2.839c-0.443,1.575-2.245,0.688-3.435,0.959
		C208.277,387.913,205.699,384.855,206.587,388.934z"/>
	<path fill-rule="evenodd" clip-rule="evenodd" fill="#6E9699" d="M148.078,340.675c0.61-1.974,1.022-4.045,1.881-5.897
		c1.071-2.309,1.926-4.761,5.631-3.88c4.163,0.988,3.348,3.578,2.862,6.367c-0.262,0.897-0.466,1.961-1.737,1.577
		c-3.805-1.149-3.798-1.175-4.628,2.734C151.744,343.195,151.138,343.059,148.078,340.675z"/>
	<path fill-rule="evenodd" clip-rule="evenodd" fill="#62888A" d="M131.372,327.913c-0.099,0.145-0.199,0.29-0.298,0.434
		c0.068-0.176,0.137-0.352,0.205-0.528C131.278,327.817,131.372,327.913,131.372,327.913z"/>
	<path fill-rule="evenodd" clip-rule="evenodd" fill="#5F7156" d="M362.704,393.602c7.622,3.323,14.941-0.549,22.401-1.031
		c1.63-0.107,1.168-1.684,1.211-2.707c0.087-2.083,0.026-4.173,0.026-6.445c0.521,0.225,0.941,0.303,0.956,0.429
		c1.327,11.716,1.298,11.519,14.438,9.617c7.537-1.092,15.57-3.221,22.664-1.597c7.141,1.638,14.584-1.543,21.285,2.508
		c1.555,0.94,3.225-0.54,4.601-1.469c3.403-2.296,6.947-4.453,10.014-7.166c2.173-1.921,2.389,0.441,3.457,0.973
		c0.17,2.016-0.157,4.09,0.831,6.008c0.686,1.332,1.264,2.825,2.958,2.925c2.019,0.12,2.874-1.221,3.104-3.106
		c3.316-0.546,2.637-4.166,4.575-6.249c1.947,1.027-0.186,4.97,3.045,4.91c0.008,14.236,0.014,28.474,0.021,42.709
		c-4.081,2.433-2.167,7.208-4.573,11.836c-1.565-5.413-0.128-10.579-2.979-14.905c-2.638,2.165,0.446,4.84-0.878,6.861
		c-0.76,1.159,0.269,3.55-1.902,3.6c-1.426,0.032-2.058-1.666-2.367-2.911c-1.463-5.885-4.477-11.401-4.042-17.749
		c0.046-0.674-0.327-1.376-0.63-2.542c-2.92,2.399-0.439,5.84-2.577,8.394c-4.049-3.643-6.126-9.408-11.88-12.089
		c0.321,4.047,3.538,5.356,5.315,7.642c1.289,1.656,2.616,2.734-0.488,4.097c-3.058,1.341-3.447,5.253-5.61,7.678
		c-1.969,2.206-3.102,2.313-4.714,0.043c-1.058-1.486-1.686-3.812-4.104-3.147c-2.441,0.669-1.841,2.604-1.74,4.646
		c0.142,2.87-3.422,2.75-4.688,4.966c-2.049,3.595-3.265-0.193-4.781-1.122c-1.427-0.874-2.729-1.576-4.655-1.323
		c-7.676,1.014-11.356-1.959-13.618-9.881c-1.212-4.246-3.593-7.976-6.487-11.302c1.187-0.551,2.419-1.018,3.544-1.68
		c0.91-0.537,1.016-1.54,0.773-2.524c-0.308-1.252-1.162-1.114-2.175-0.979c-6.816,0.91-11.308-2.767-14.263-8.434
		c-1.138-2.18-2.157-3.225-4.148-2.089c-4.698,2.677-9.25,4.921-13.891,0.004c-4.132,3.083-5.027-2.81-8.28-3.223
		C358.902,397.323,363.771,395.169,362.704,393.602z M427.71,406.029c-3.826-1.77-5.887-0.962-7.464,2.57
		c-1.038,2.33-3.67,3.09-5.777,1.748c-1.777-1.133-0.207-2.715,0.836-3.691c0.986-0.923,3.399-1.252,1.627-3.175
		c-1.201-1.305-3.146-1.057-4.511,0.377c-1.172,1.231-2.305,2.521-3.327,3.885c-2.38,3.175-1.224,4.708,2.31,5.386
		C418.286,414.453,422.879,410.689,427.71,406.029z M475.604,394.903c0.179-0.31,0.38-0.574,0.485-0.875
		c0.044-0.13-0.111-0.331-0.177-0.5c-0.228,0.129-0.652,0.267-0.648,0.387C475.278,394.241,475.473,394.56,475.604,394.903z"/>
	<path fill-rule="evenodd" clip-rule="evenodd" fill="#5F7156" d="M221.223,439.628c4.301,1.804,8.068-0.521,10.457-3.187
		c2.545-2.841,3.475-2.973,4.934,0.266c2.108,4.674,6.25,1.406,9.324,2.407c1.474,0.479-0.787-2.841,1.157-3.584
		c9.415,6.425,9.415,6.425,11.885-8.098c2.2,1.202,2.913,2.792,2.194,5.052c-0.715,2.244,0.462,4.099,1.133,6.035
		c0.218,0.627,0.93,1.074,1.414,1.605c1.549-5.317,9.183-0.076,10.479-6.579c0.712-3.577,6.298-4.034,6.734-8.501
		c0.012-0.123,2.166-0.345,3.117,0.027c1.298,0.507,0.98,1.798,0.629,2.961c-0.637,2.103-2.58,3.751-2.114,6.761
		c2.419-1.31,4.928-1.785,6.568-4.047c1.04-1.433,2.656-1.957,3.894-0.696c3.958,4.03,6.044,1.131,7.898-2.134
		c1.614-2.84,3.032-4.623,5.431-0.729c0.582,0.947,1.478,1.903,2.745,1.677c11.352-2.025,21.607-6.269,29.414-15.281
		c1.793,7.296,1.828,7.327-3.491,13.205c-0.918,1.012-1.48,1.882-0.318,2.798c1.737,1.369,3.531,3.161,5.521,3.532
		c1.553,0.289,1.138-2.004,0.798-3.215c-0.529-1.893-1.414-4.21,1.281-4.533c1.946-0.232,2.325,2.227,2.409,3.899
		c0.226,4.438,2.154,5.354,5.851,3.382c1.479-0.789,3.156-1.215,4.575-2.093c7.258-4.495,9.551-3.781,16.815,1.24
		c1.021,0.704,2.018,0.878,3.135,0.923c0.882,2.604,1.604,1.282,2.1-0.157c0.511-1.492,0.884-3.098,2.867-2.768
		c0.951,0.157,1.459,1.083,1.646,2.095c0.34,1.844-0.578,2.632-2.135,3.415c-3.476,1.748-2.354,6.206-4.789,9.007
		c-1.383-1.489-1.597-5.237-4.521-3.929c-2.386,1.066-5.108,2.657-3.95,7.334c-6.86-5.824-9.25-0.624-11.963,4.517
		c-0.995-3.342,1.933-5.935-0.544-8.703c-3.324,4.354-2.393,8.859-1.163,13.396l-0.008,0.008c-5.957-3.524-11.96-7.01-13.528-14.758
		c-0.188-0.928-0.163-2.108-1.471-1.893c-1.196,0.199-1.331,1.31-0.939,2.25c1.127,2.708-2.863,5.153,0.44,8.684
		c1.705,1.822-2.604,3.315-5.101,2.627c-0.879,2.446,1.725,3.791,0.394,6.705c-4.133-4.37-9.38-6.535-14.104-9.46
		c-7.422-4.594-11.24-4.616-15.294,2.982c-1.866,3.499-5.006,3.967-8.031,4.183c-4.975,0.352-9.841-0.756-14.769-2.59
		c-1.425,4.389-4.149,6.552-9.448,4.857c-10.403-3.331-21.341-3.366-32.066-4.657c-3.9-0.47-7.218-4.715-11.807-1.609
		c-1.03,0.697-2.351-1.444-2.097-3.229c0.233-1.647,1.873-2.887,1.318-5.099c-3.646,0.24-2.809,5.206-6.022,5.974
		C219.207,447.606,221.297,443.704,221.223,439.628z M324.082,437.175c1.695,1.558,2.712,4.234,6.016,4.09
		C328.767,438.171,326.802,437.046,324.082,437.175z M328.606,450.319c0.053-0.151,0.105-0.303,0.158-0.453
		c-0.132-0.047-0.339-0.169-0.381-0.126c-0.099,0.105-0.12,0.289-0.173,0.439C328.344,450.227,328.475,450.272,328.606,450.319z"/>
	<path fill-rule="evenodd" clip-rule="evenodd" fill="#5F7156" d="M376.276,428.126c-4.199-5.978-4.195-5.97,1.74-8.489
		c2.773-1.177,5.427-2.472,6.098-5.957c0.266-1.382,1.011-2.495,2.522-2.622c1.815-0.153,2.62,1.056,3.065,2.645
		c0.648,2.305,1.523,4.352,4.444,4.006c0.747,3.237,3.658,3.626,5.999,4.508c3.242,1.224,4.724,3.66,5.21,6.853
		c0.252,1.65,0.585,3.687-0.969,4.835c-1.509,1.118-2.704-0.476-3.99-1.14c-4.434-2.284-5.155-1.485-4.846,5.698
		c1.677-1.157,0.24-6.001,4.026-3.854c2.044,1.159,3.725,2.989,5.805,4.712c-5.93,1.383-5.93,1.383-7.482,12.992
		c-2.006-4.63-3.672-8.623-5.454-12.561c-2.307-5.095-7.897-7.254-10.349-12.485C380.748,424.391,378.258,427.665,376.276,428.126z"
		/>
	<path fill-rule="evenodd" clip-rule="evenodd" fill="#5F7156" d="M87.552,431.952c-0.278,1.49,0.646,3.75-1.88,3.919
		c-1.78,0.117-2.566-1.366-2.517-3.025c0.057-1.892,0.372-4.14,2.597-4.315C87.912,428.356,87.29,430.57,87.552,431.952z"/>
	<path fill-rule="evenodd" clip-rule="evenodd" fill="#5F7156" d="M210.016,444.304c-0.158,0.471-0.316,0.94-0.474,1.411
		c-0.135-0.096-0.392-0.267-0.386-0.275c0.243-0.412,0.508-0.813,0.771-1.213C209.927,444.227,210.016,444.304,210.016,444.304z"/>
	<path fill-rule="evenodd" clip-rule="evenodd" fill="#5F7156" d="M352.638,456.929c0.143,0.083,0.285,0.165,0.428,0.247
		c-0.145-0.079-0.29-0.161-0.436-0.239L352.638,456.929z"/>
	<path fill-rule="evenodd" clip-rule="evenodd" fill="#4A6962" d="M135.831,390.138c4.114-0.784,6.286,2.426,8.966,4.59
		C139.572,397.795,137.705,393.959,135.831,390.138z"/>
	<path fill-rule="evenodd" clip-rule="evenodd" fill="#495941" d="M69.239,421.708c2.731-2.269,4.458-4.519,7.389-3.681
		c0.916,0.263,1.133,2.184,0.418,3.038C74.999,423.509,72.566,422.209,69.239,421.708z"/>
	<path fill-rule="evenodd" clip-rule="evenodd" fill="#495941" d="M64.536,426.714c-0.216-2.28,0.252-3.701,2.239-4.091
		c0.323-0.064,1.132,0.599,1.112,0.88C67.749,425.465,66.465,426.209,64.536,426.714z"/>
	<path fill-rule="evenodd" clip-rule="evenodd" fill="#495941" d="M189.711,454.593c0.092-2.513-0.302-5.367,3.81-5.59
		c-0.867,2.506-1.741,4.463-3.745,5.647L189.711,454.593z"/>
	<path fill-rule="evenodd" clip-rule="evenodd" fill="#495941" d="M26.838,435.015c0.125-1.368,0.474-2.676,1.993-2.936
		c0.875-0.151,1.314,0.69,1.145,1.459c-0.386,1.732-1.864,1.428-3.095,1.521C26.88,435.06,26.838,435.015,26.838,435.015z"/>
	<path fill-rule="evenodd" clip-rule="evenodd" fill="#495941" d="M135.081,432.117c1.057-0.112,1.546,0.324,1.312,0.912
		c-0.243,0.61-0.81,1.229-1.39,1.517c-0.604,0.3-1.132-0.308-0.94-0.911C134.264,433.001,134.82,432.483,135.081,432.117z"/>
	<path fill-rule="evenodd" clip-rule="evenodd" fill="#495941" d="M138.486,430.257c-0.416-0.466-0.696-0.78-0.977-1.095
		c0.375-0.276,0.721-0.644,1.14-0.788c0.196-0.067,0.534,0.294,0.807,0.46C139.181,429.237,138.906,429.641,138.486,430.257z"/>
	<path fill-rule="evenodd" clip-rule="evenodd" fill="#495941" d="M60.552,425.81c0.083-0.149,0.165-0.3,0.247-0.448
		c-0.077,0.154-0.155,0.31-0.232,0.464L60.552,425.81z"/>
	<path fill-rule="evenodd" clip-rule="evenodd" fill="#495941" d="M60.566,425.825c-0.084,0.146-0.168,0.295-0.252,0.44
		c0.08-0.152,0.159-0.304,0.238-0.456C60.552,425.81,60.566,425.825,60.566,425.825z"/>
	<path fill-rule="evenodd" clip-rule="evenodd" fill="#5F7156" d="M134.681,390.114c-0.46-0.143-0.919-0.286-1.378-0.429
		c0.087-0.138,0.174-0.275,0.261-0.414c0.383,0.269,0.767,0.534,1.149,0.803L134.681,390.114z"/>
	<path fill-rule="evenodd" clip-rule="evenodd" fill="#B3D0D0" d="M321.787,207.718c-0.126,0.295-0.187,0.752-0.395,0.837
		c-0.204,0.084-0.556-0.208-0.843-0.336c0.124-0.295,0.186-0.751,0.394-0.837C321.146,207.296,321.499,207.59,321.787,207.718z"/>
	<path fill-rule="evenodd" clip-rule="evenodd" fill="#B3D0D0" d="M256.016,203.42c0.753-0.003,1.506-0.007,2.26-0.01
		c-0.177,0.813-0.202,1.917-1.358,1.652C256.518,204.97,256.31,203.992,256.016,203.42z"/>
	<path fill-rule="evenodd" clip-rule="evenodd" fill="#4A6962" d="M195.333,392.317c0.268-1.349-0.5-3.909,1.031-3.776
		c2.599,0.225,4.685,2.203,5.768,4.891C199.451,395.73,197.404,393.95,195.333,392.317z"/>
	<path fill-rule="evenodd" clip-rule="evenodd" fill="#5F7156" d="M353.719,391.35c3.865-4.6,4.418,1.76,6.772,2.154
		C357.611,394.848,353.878,399.015,353.719,391.35z"/>
	<path fill-rule="evenodd" clip-rule="evenodd" fill="#5F7156" d="M254.078,436.982c-1.975-1.266-2.709-2.65-2.06-4.44
		c0.249-0.688,1.245-0.997,1.86-0.456C255.366,433.397,255.065,434.984,254.078,436.982z"/>
	<path fill-rule="evenodd" clip-rule="evenodd" fill="#495941" d="M470.65,392.539c-0.23,1.886-1.086,3.227-3.104,3.106
		c-1.694-0.1-2.272-1.593-2.958-2.925c-0.988-1.918-0.661-3.992-0.831-6.008c2.157-1.357,4.183-2.888,6.894-4.9
		C470.65,385.39,470.65,388.964,470.65,392.539z"/>
	<path fill-rule="evenodd" clip-rule="evenodd" fill="#738768" d="M427.71,406.029c-4.831,4.66-9.424,8.424-16.307,7.1
		c-3.533-0.678-4.689-2.211-2.31-5.386c1.022-1.364,2.155-2.653,3.327-3.885c1.365-1.434,3.31-1.682,4.511-0.377
		c1.772,1.923-0.641,2.252-1.627,3.175c-1.043,0.977-2.613,2.559-0.836,3.691c2.107,1.342,4.739,0.582,5.777-1.748
		C421.823,405.067,423.884,404.26,427.71,406.029z"/>
	<path fill-rule="evenodd" clip-rule="evenodd" fill="#3C554F" d="M475.604,394.903c-0.131-0.344-0.325-0.662-0.34-0.988
		c-0.004-0.12,0.421-0.258,0.648-0.387c0.065,0.169,0.221,0.37,0.177,0.5C475.983,394.329,475.782,394.594,475.604,394.903z"/>
	<path fill-rule="evenodd" clip-rule="evenodd" fill="#495941" d="M324.082,437.175c2.72-0.129,4.685,0.996,6.016,4.09
		C326.794,441.409,325.777,438.732,324.082,437.175z"/>
	<path fill-rule="evenodd" clip-rule="evenodd" fill="#495941" d="M328.606,450.319c-0.132-0.047-0.263-0.093-0.396-0.14
		c0.053-0.15,0.074-0.334,0.173-0.439c0.042-0.043,0.249,0.079,0.381,0.126C328.712,450.017,328.659,450.168,328.606,450.319z"/>
</g>
</svg>
