<svg version="1.1" id="Layer_1" xmlns="http://www.w3.org/2000/svg" xmlns:xlink="http://www.w3.org/1999/xlink" x="0px" y="0px"
	 width="500px" height="500px" viewBox="0 0 500 500" enable-background="new 0 0 500 500" xml:space="preserve">
<g>
	<path fill-rule="evenodd" clip-rule="evenodd" fill="#3F8480" d="M391.217,184.56c0.593,45.403-6.679,89.027-30.599,128.671
		c-25.628,42.471-62.351,72.165-106.794,92.874c-3.205,1.496-8.358,1.365-11.602-0.153
		c-79.457-37.156-128.054-97.445-136.91-186.264c-2.249-22.537-1.162-45.402-1.684-68.111c-0.188-8.127,3.492-12.057,11.721-12.831
		c45.301-4.262,87.647-17.341,125.488-43.236c4.998-3.421,8.881-3.698,14.115-0.191c37.317,24.98,78.752,38.664,123.164,43.666
		c8.842,0.995,13.346,4.91,13.151,14.09C391.047,163.563,391.217,174.063,391.217,184.56z M125.57,158.713
		c0.946,15.294,1.071,31.692,3.113,47.848c9.172,72.556,44.853,127.93,108.181,165.259c7.889,4.649,13.97,4.562,21.885-0.222
		c78.281-47.29,110.53-118.676,109.88-207.653c-0.039-5.313-1.911-7.261-7.075-7.984c-37.155-5.194-71.526-18.57-104.119-36.664
		c-6.26-3.474-10.835-3.206-17.221-0.1c-18.438,8.982-36.956,18.166-56.28,24.851C165.609,150.385,146.227,153.666,125.57,158.713z"
		/>
	<path fill-rule="evenodd" clip-rule="evenodd" fill="#3F8480" d="M203.458,332.656c66.72-21.235,109.048-68.415,142.278-125.995
		c-5.157,67.693-38.262,117.424-95.052,152.299c-8.456,5.192-13.343-2.651-19.48-5.192c-4.686-1.942-8.55-5.924-12.687-9.117
		C213.852,341.047,209.287,337.309,203.458,332.656z"/>
	<path fill-rule="evenodd" clip-rule="evenodd" fill="#FC9350" d="M302.378,214.854c-15.264-14.735-30.519-29.479-45.777-44.221
		c-3.52-0.085-7.04-0.17-10.564-0.256c-11.849,12.55-23.702,25.1-35.553,37.649c-1.672,2.069-3.345,4.142-5.021,6.211
		c-1.844,2.128-3.685,4.252-5.524,6.377c0.021,2.167,0.042,4.334,0.065,6.5c1.277,0.753,2.558,1.506,3.835,2.259
		c6.316,0.648,12.759,0.758,18.888,2.199c2.548,0.6,4.427,4.044,6.611,6.194c-0.234,0.479-0.271,0.975-0.109,1.481
		c-0.658,2.953-1.317,5.908-1.978,8.861l0.016-0.039c-0.668,2.163-1.337,4.33-2.005,6.497c-9.253,15.132-18.502,30.26-27.753,45.387
		c-1.686,1.812-3.372,3.625-5.057,5.438c0.363,0.571,0.725,1.142,1.088,1.714c4.441-1.378,8.883-2.757,13.319-4.135
		c1.89-0.782,3.771-1.567,5.657-2.35c2.256-0.651,4.513-1.304,6.771-1.955c23.807-10.622,40.721-27.859,50.19-52.253
		c0.651-2.263,1.307-4.527,1.958-6.79c0.261-0.478,0.334-0.978,0.222-1.506c1.351-6.305,5.68-7.23,11.387-7.165
		c6.033,0.071,12.079-1.021,18.117-1.606C309.384,225.171,307.911,220.195,302.378,214.854z"/>
	<path fill-rule="evenodd" clip-rule="evenodd" fill="#FCCA66" d="M269.477,246.414c0.651-2.263,1.307-4.527,1.958-6.79
		C270.783,241.885,270.128,244.15,269.477,246.414z"/>
</g>
</svg>
