<svg version="1.1" id="Layer_1" xmlns="http://www.w3.org/2000/svg" xmlns:xlink="http://www.w3.org/1999/xlink" x="0px" y="0px"
	 width="500px" height="500px" viewBox="0 0 500 500" enable-background="new 0 0 500 500" xml:space="preserve">
<g>
	<path fill-rule="evenodd" clip-rule="evenodd" fill="#3F8480" d="M291.513,244.897c0.882,8.212-0.753,17.485,3.133,22.265
		c3.873,4.763,13.697,4.197,20.185,7.427c11.981,5.967,24.854,11.382,34.721,20.028c10.524,9.225,8.849,22.672-2.967,30.303
		c-11.533,7.451-24.487,13.057-37.41,17.877c-9.523,3.551-15.892,9.103-20.906,17.663c-4.199,7.167-7.41,16.777-18.681,13.813
		c0,16.654,0.011,32.707-0.005,48.76c-0.012,10.939-3.376,14.911-14.073,14.978c-10.112,0.062-20.316-0.193-30.306-1.573
		c-3.723-0.515-9.334-4.272-9.75-7.174c-0.443-3.083,3.604-7.784,6.862-10.189c4.672-3.45,10.407-5.463,17.015-8.746
		c-5.146-21.719-9.832-43.512-15.525-65.037c-7.859-29.719-11.123-59.661-7.866-90.339c0.778-7.323,2.827-11.686,10.854-11.981
		c3.419-0.125,7.068-0.953,10.145-2.433C256.462,231.136,274.158,239.806,291.513,244.897z M265.316,341.537
		c-0.027-16.535,11.846-19.941,24.75-23.231c8.962-2.284,17.499-6.245,26.226-9.454c-0.31-0.911-0.619-1.822-0.929-2.732
		c-16.98,2.155-33.963,4.313-51.984,6.6C263.917,320.722,264.614,331.129,265.316,341.537z"/>
	<path fill-rule="evenodd" clip-rule="evenodd" fill="#3F8480" d="M254.858,145.079c14.675,2.475,29.434,4.561,43.977,7.658
		c4.464,0.95,9.229,3.848,12.336,7.244c17.193,18.791,27.521,41.059,31.19,66.257c1.438,9.894-4.997,14.896-13.443,14.712
		c-13.477-0.293-27.77-0.103-40.167-4.496c-21.09-7.474-40.338-9.585-61.887-0.677c-12.31,5.09-27.348,4.844-41.136,4.723
		c-12.609-0.108-16.564-6.354-14.23-18.853c3.702-19.835,11.767-37.878,23.303-54.483c11.342-16.321,28.239-19.197,46.136-19.982
		c4.534-0.199,9.088-0.031,13.632-0.031C254.666,146.461,254.763,145.77,254.858,145.079z M297.946,207.355
		c-18.9-1.05-19.066-1.236-24.568-18.237c-1.717-5.298-2.955-11.051-5.994-15.524c-2.409-3.546-7.409-7.763-10.934-7.488
		c-4.124,0.319-8.949,4.466-11.543,8.269c-3.042,4.457-4.153,10.282-5.846,15.596c-5.01,15.748-7.618,17.58-24.272,16.665
		c0-7.691,0-15.386,0-23.08c-0.575-0.168-1.151-0.336-1.726-0.502c-4.989,11.116-9.982,22.235-16.226,36.14
		c13.104-2.077,23.898-3.833,34.706-5.49c7.389-1.133,11.347-5.372,13.438-12.554c2.675-9.172,6.324-18.059,9.552-27.067
		c1.309-0.041,2.62-0.083,3.928-0.123c2.644,7.25,5.023,14.607,8.01,21.712c2.24,5.331,3.961,12.782,8.177,15.02
		c11.886,6.309,25.208,8.604,40.299,6.848c-5.487-12.16-10.479-23.226-15.469-34.288c-0.511,0.221-1.021,0.442-1.532,0.664
		C297.946,191.437,297.946,198.961,297.946,207.355z"/>
	<path fill-rule="evenodd" clip-rule="evenodd" fill="#3F8480" d="M255.565,134.646c-20.729-0.14-37.163-16.168-36.927-36.02
		c0.258-21.548,16.786-37.962,37.895-37.63c20.03,0.314,36.878,17.928,36.552,38.21
		C292.761,119.439,276.516,134.785,255.565,134.646z"/>
</g>
</svg>
