<svg version="1.1" id="Layer_1" xmlns="http://www.w3.org/2000/svg" xmlns:xlink="http://www.w3.org/1999/xlink" x="0px" y="0px"
	 width="500px" height="500px" viewBox="0 0 500 500" enable-background="new 0 0 500 500" xml:space="preserve">
<path fill-rule="evenodd" clip-rule="evenodd" fill="#3F8480" d="M177.196,223.047c10.438-14.719,21.25-29.45,31.495-44.566
	c8.548-12.61,16.343-25.729,24.632-38.518c7.985-12.315,14.933-11.99,23.071,0.084c16.817,24.949,34.021,49.639,51.135,74.538
	c12.663-11.92,18.251-11.288,27.772,2.404c33.788,48.583,70.888,94.512,110.945,138.058c1.892,2.058,5,4.298,5.01,6.466
	c0.015,3.182-1.665,6.877-3.786,9.36c-1.134,1.326-4.704,0.737-7.176,0.736c-124.508-0.056-249.016-0.137-373.523-0.234
	c-3.732-0.005-7.521,0.12-11.18-0.458c-2.762-0.432-7.094-1.34-7.628-3.02c-0.812-2.558,0.205-6.611,1.937-8.903
	c6.556-8.683,14.013-16.682,20.59-25.348c26.05-34.329,52.305-68.514,77.593-103.396C156.885,218.11,160.718,214.9,177.196,223.047z
	 M244.63,169.816c-16.74,24.885-33.078,49.064-49.294,73.325c-8.939,13.374-13.202,14.705-26.938,8.172
	c-21.554,28.399-43.05,56.72-64.707,85.251c9.41-4.591,19.24-8.99,28.701-14.075c37.07-19.92,70.799-44.727,103.412-71.156
	c12.06-9.771,19.682-9.51,31.323,0.662c1.828,1.6,3.666,3.196,5.781,5.04c6.195-7.002,12.075-13.655,18.123-20.492
	C275.473,214.169,260.398,192.49,244.63,169.816z M197.302,341.918c8.852-2.385,19.898-4.444,30.263-8.332
	c30.499-11.436,60.827-23.362,91.013-35.608c10.443-4.235,19.46-2.411,28.031,3.68c4.79,3.401,9.112,7.491,13.485,11.443
	c8.299,7.501,16.3,15.337,24.807,22.588c3.04,2.594,7.182,3.89,10.819,5.78c-2.421-5.973-6.248-9.958-9.637-14.282
	c-19.356-24.689-38.466-49.574-57.97-74.147c-7.657-9.648-10.717-9.598-18.649-0.224c-8.627,10.198-16.652,20.903-25.095,31.262
	c-6.449,7.915-12.591,8.629-20.977,2.781c-1.958-1.367-3.863-2.807-4.449-3.233C237.708,303.706,217.035,323.256,197.302,341.918z"
	/>
</svg>
