<svg version="1.1" id="Layer_1" xmlns="http://www.w3.org/2000/svg" xmlns:xlink="http://www.w3.org/1999/xlink" x="0px" y="0px"
	 width="500px" height="500px" viewBox="0 0 500 500" enable-background="new 0 0 500 500" xml:space="preserve">
<g>
	<path fill-rule="evenodd" clip-rule="evenodd" fill="#3F8480" d="M301.259,237.052c-14.631,17.054-4.32,67.708,15.826,83.736
		c-44.346,19.89-88.65,24.201-133.002,0.146c16.677-9.226,20.298-26.587,21.285-44.597c0.702-12.787,2.762-26.033-2.332-38.376
		c-0.965-0.103-1.932-0.207-2.897-0.312c-1.914,6.101-4.17,12.117-5.686,18.315c-11.005,44.982-54.072,65.5-89.183,65.802
		c-10.569,0.091-15.171-3.999-15.255-12.931c-0.093-9.945,6.582-12.163,14.627-12.477c32.588-1.271,56.884-22.845,63.066-52.657
		c7.874-37.976,24.124-51.597,62.929-53.816c20.322-1.161,41.049,1.023,61.318,3.738c20.56,2.755,31.717,17.498,38.045,36.229
		c1.339,3.964,2.213,8.087,3.273,12.146c9.539,36.465,25.646,49.944,63.369,54.583c4.818,0.593,11.332,4.865,13.109,9.094
		c3.771,8.963-2.51,15.771-13.022,16.265c-37.809,1.778-75.944-24.502-87.853-60.604
		C306.312,253.568,303.972,245.726,301.259,237.052z"/>
	<path fill-rule="evenodd" clip-rule="evenodd" fill="#3F8480" d="M343.55,379.448c-29.049-3.381-57.352-8.906-83.66-26.15
		c40.938-15.327,80.482-32.321,124.647-17.184c11.718,4.016,23.997,8.584,25.702,23.035c1.877,15.893-8.486,25.609-21.047,32.069
		c-44.367,22.819-90.051,22.998-135.86,4.976c-14.219-5.595-27.172-14.326-41.065-20.854c-8.912-4.19-18.483-6.977-27.76-10.393
		c-0.627,1.185-1.258,2.368-1.885,3.554c13.84,10.573,27.681,21.147,42.587,32.537c-39.533,9.313-77.339,9.646-113.3-9.775
		C99,384.293,86.727,374.975,89.135,358.098c2.32-16.275,16.927-20.474,30.181-23.636c38.641-9.223,74.656-0.499,109.418,17.021
		c18.336,9.241,36.96,18.198,56.184,25.311C303.772,383.771,323.69,384.697,343.55,379.448z"/>
	<path fill-rule="evenodd" clip-rule="evenodd" fill="#3F8480" d="M250.061,172.964c-24.138,0.007-42.252-17.469-42.515-41.012
		c-0.277-24.829,17.85-43.395,42.502-43.53c25.182-0.138,44.445,18.539,44.34,42.984
		C294.28,155.373,275.524,172.958,250.061,172.964z"/>
</g>
</svg>
