<svg version="1.1" id="Layer_1" xmlns="http://www.w3.org/2000/svg" xmlns:xlink="http://www.w3.org/1999/xlink" x="0px" y="0px"
	 width="500px" height="500px" viewBox="0 0 500 500" enable-background="new 0 0 500 500" xml:space="preserve">
<path fill-rule="evenodd" clip-rule="evenodd" fill="#3F8480" d="M252.675,388.207c-9.894,0-19.789-0.194-29.676,0.034
	c-32.656,0.752-57.74-12.766-72.691-41.636c-15.077-29.107-12.652-59.251,5.956-85.438c10.292-14.485,11-25.617,5.428-41.575
	c-5.611-16.073-7.921-33.784-8.721-50.917c-0.861-18.419,9.385-32.346,25.6-41.05c29.447-15.808,61.542-17.062,93.646-14.272
	c17.105,1.484,34.448,5.291,50.644,11.002c23.957,8.446,37.283,31.543,33.351,56.682c-2.724,17.41-7.827,34.527-12.934,51.453
	c-2.388,7.918-1.99,13.628,3.086,20.57c28.856,39.438,26.656,84.898-4.996,115.269c-14.146,13.573-31.589,19.165-50.71,19.878
	c-12.644,0.47-25.321,0.089-37.981,0.089C252.675,388.268,252.675,388.238,252.675,388.207z M189.115,179.456
	c3.44,8.672,6.743,17.404,10.36,26.001c3.011,7.157,7.367,9.243,15.738,6.73c24.292-7.29,49.28-8.11,73.533-0.501
	c12.442,3.904,18.569-0.513,22.944-10.664c2.319-5.383,4.289-11.053,5.409-16.79c2.567-13.145-0.455-20.186-12.911-23.87
	c-33.692-9.96-67.732-9.792-101.429,0.358C194.545,163.192,189.519,169.264,189.115,179.456z M268.31,236.434
	c41.647,17.286,64.614,46.342,61.068,93.314c12.253-19.617,12.068-38.876,1.646-57.845
	C317.592,247.451,294.938,238.289,268.31,236.434z"/>
</svg>
