<svg version="1.1" id="Layer_1" xmlns="http://www.w3.org/2000/svg" xmlns:xlink="http://www.w3.org/1999/xlink" x="0px" y="0px"
	 width="500px" height="500px" viewBox="0 0 500 500" enable-background="new 0 0 500 500" xml:space="preserve">
<g>
	<path fill-rule="evenodd" clip-rule="evenodd" fill="#3F8480" d="M311.053,226.025c2.397,0,4.799,0,7.083,0
		c1.701-11.431,2.718-22.559,5.129-33.377c2.878-12.919,10.398-17.6,24.84-17.158c18.72,0.572,25.373,4.723,27.563,19.068
		c4.833,31.675,4.631,63.421,0.01,95.149c-1.48,10.167-7.292,15.118-17.25,16.591c-24.358,3.602-34.549-4.104-37.257-28.705
		c-0.727-6.589-1.447-13.178-2.25-20.489c-44.923,0-89.856,0-134.735,0c-1.821,11.284-2.862,22.043-5.407,32.435
		c-3.394,13.864-12.436,18.464-31.283,17.43c-13.691-0.753-16.943-3.992-19.98-19.141c-6.129-30.579-4.67-61.281-1.121-91.924
		c1.745-15.063,7.654-19.26,24.362-19.772c17.654-0.542,25.117,4.146,28.311,18.245c1.075,4.753,1.349,9.688,1.994,14.535
		c0.646,4.849,1.299,9.691,2.317,17.292c40.88,0,81.995,0,123.081,0C307.97,226.146,309.51,226.084,311.053,226.025z"/>
	<path fill-rule="evenodd" clip-rule="evenodd" fill="#3F8480" d="M113.526,202.502c0,26.702,0,53.416,0,80.077
		c-21.409,5.963-29.399-4.868-29.739-20.268c-0.289-13.19-0.478-26.412,0.088-39.584C84.721,203.072,94.026,196.95,113.526,202.502z
		"/>
	<path fill-rule="evenodd" clip-rule="evenodd" fill="#3F8480" d="M389.232,202.325c19.808-4.858,27.84,0.295,29.188,20.37
		c0.927,13.861,1.111,27.915-0.072,41.737c-1.513,17.693-11.321,23.184-29.115,18.055
		C389.232,255.76,389.232,229.052,389.232,202.325z"/>
</g>
</svg>
