<svg version="1.1" id="Layer_1" xmlns="http://www.w3.org/2000/svg" xmlns:xlink="http://www.w3.org/1999/xlink" x="0px" y="0px"
	 width="500px" height="500px" viewBox="0 0 500 500" enable-background="new 0 0 500 500" xml:space="preserve">
<path fill-rule="evenodd" clip-rule="evenodd" fill="#3F8480" d="M346.639,215.833c-16.297-14.542-34.286-23.059-54.794-27.298
	c-5.06,23.628-7.272,47.114-4.254,71.111c1.11,8.818,7.92,10.697,13.443,13.936c20.159,11.814,40.521,23.297,61.035,34.486
	c12.966,7.073,19.181,17.41,18.198,32.186c-1.247,18.751-2.227,37.52-3.565,56.262c-0.327,4.604,0.673,7.246,5.537,8.673
	c4.526,1.329,9.09,3.378,12.852,6.168c2.487,1.847,5.173,5.755,4.854,8.39c-0.308,2.538-4.271,6.482-6.776,6.598
	c-13.364,0.621-26.791,0.595-40.162,0.014c-5.14-0.222-6.549-4.711-6.888-9.678c-1.58-23.125-3.544-46.223-5.137-69.348
	c-0.357-5.193-2.476-8.278-7.299-10.285c-26.521-11.026-52.917-22.354-79.493-33.246c-2.72-1.114-6.729-0.938-9.494,0.203
	c-26.945,11.104-53.791,22.459-80.533,34.047c-2.089,0.906-4.359,3.996-4.564,6.25c-2.139,23.741-4.025,47.51-5.637,71.293
	c-0.529,7.808-3.186,11.187-10.957,11.242c-11.729,0.086-23.479,0.346-35.177-0.284c-3.044-0.165-7.096-2.685-8.607-5.317
	c-2.273-3.957,0.423-7.787,4.229-9.859c4.732-2.578,9.643-4.91,14.675-6.827c3.335-1.272,5.252-2.651,4.872-6.65
	c-1.428-14.984-3.17-29.974-3.679-44.999c-0.32-9.477,0.552-19.172,2.335-28.492c1.893-9.889,11.271-13.614,18.89-18.021
	c21.216-12.269,42.763-23.961,64.157-35.92c4.173-2.334,6.765-5.48,7.641-10.655c4.068-24.025,0.442-47.443-4.426-71.382
	c-20.369,4.745-38.586,12.715-54.783,26.816c10.506,10.192,21.414,18.667,35.666,21.88c1.018,0.229,2.021,0.523,3.037,0.771
	c8.848,2.166,12.952,7.226,11.033,13.61c-2.12,7.053-10.029,10.709-17.951,7.585c-9.299-3.665-18.443-7.771-27.457-12.095
	c-10.516-5.044-18.869-12.806-25.65-22.226c-4.883-6.786-4.146-13.863,0.829-20.733c6.675-9.217,15.553-15.672,25.048-21.439
	c15.547-9.445,31.46-19.302,49.764-20.804c23.242-1.906,46.708-1.249,70.08-1.421c23.932-0.177,44.871,9.177,64.278,21.983
	c8.961,5.914,17.251,13.151,24.794,20.823c7.433,7.563,6.768,16.688-0.066,24.849c-10.916,13.035-25.504,20.48-40.828,26.784
	c-4.023,1.654-8.056,3.346-12.209,4.617c-6.26,1.916-13.059-0.113-15.574-4.83c-2.314-4.342-2.723-9.263,1.25-12.729
	c2.459-2.144,6.075-3.356,9.371-4.073C323.346,234.575,335.166,226.498,346.639,215.833z"/>
<path fill-rule="evenodd" clip-rule="evenodd" fill="#3F8480" d="M249.618,70.949c21.988-0.017,40.092,17.536,40.099,38.876
	c0.006,20.967-18.9,39.673-40.223,39.026c-21.553-0.653-38.684-17.404-38.884-38.782C210.406,88.302,227.914,70.967,249.618,70.949z
	"/>
</svg>
