<svg version="1.1" id="Layer_1" xmlns="http://www.w3.org/2000/svg" xmlns:xlink="http://www.w3.org/1999/xlink" x="0px" y="0px"
	 width="500px" height="500px" viewBox="0 0 500 500" enable-background="new 0 0 500 500" xml:space="preserve">
<g>
	<path fill-rule="evenodd" clip-rule="evenodd" fill="#3F8480" d="M275.893,374.397c2.911,7.108,5.51,12.823,7.599,18.72
		c2.665,7.511-0.473,11.922-8.505,12.559c-12.842,1.014-42.756-20.433-43.958-33.034c-0.399-4.18,4.188-9.95,8.01-13.227
		c15.32-13.142,31.234-25.591,46.938-38.282c1.832-1.48,3.736-2.871,6.734-5.168c-14.253-3.57-26.309-6.383-38.229-9.678
		c-5.354-1.48-10.583-3.621-15.618-5.996c-24.492-11.548-28.818-24.918-14.787-48.457c11.756-19.717,24.451-38.871,37.745-59.879
		c-22.78,1.426-43.966,2.463-63.61,11.216c-13.889,6.19-20.08,19.698-27.592,31.975c-2.502,4.086-8.459,8.395-12.81,8.366
		c-4.522-0.028-10.427-4.274-13.063-8.384c-2.051-3.198-1.14-9.431,0.383-13.611c13.595-37.286,42.268-55.457,79.731-63.163
		c27.728-5.704,54.157-3.328,79.759,8.61c17.093,7.97,34.377,15.567,51.161,24.14c9.625,4.918,16.196,2.691,20.51-6.304
		c4.653-9.708,8.973-19.659,12.379-29.859c4.253-12.726,9.792-17.874,19.279-15.853c10.419,2.222,15.351,9.818,11.197,22.631
		c-5.008,15.447-11.172,30.844-19.217,44.896c-11.481,20.057-31.392,19.893-51.098,16.423c-10.202-1.797-20.088-5.395-30.828-8.378
		c-9.125,14.646-18.654,29.936-27.793,44.601c-10.98-1.918-20.743-3.622-30.505-5.325c-0.279,0.975-0.556,1.951-0.835,2.928
		c1.845,0.914,3.637,1.962,5.545,2.727c22.347,8.961,45.009,17.223,66.997,26.994c22.784,10.123,25.549,26.384,6.624,42.732
		c-15.794,13.643-33.541,25.035-50.475,37.351C283.923,369.314,280.057,371.652,275.893,374.397z"/>
	<path fill-rule="evenodd" clip-rule="evenodd" fill="#3F8480" d="M209.032,297.52c15.854,7.827,30.479,15.045,46.995,23.197
		c-9.177,8.292-17.817,17.66-27.971,24.919c-16.413,11.736-33.434,22.757-50.939,32.783c-12.104,6.933-22.203,14.934-29.239,27.216
		c-9.629,16.804-18.609,16.535-28.973-0.091c-14.065-22.562-12.201-28.47,12.028-40.79c28.433-14.456,51.216-35.807,71.771-59.777
		C204.959,302.348,207.188,299.695,209.032,297.52z"/>
	<path fill-rule="evenodd" clip-rule="evenodd" fill="#3F8480" d="M309.713,154.03c-21.857-0.22-39.553-17.27-39.514-38.072
		c0.043-21.755,17.922-39.355,39.687-39.07c22.135,0.291,39.59,17.618,39.477,39.176
		C349.248,136.854,331.089,154.245,309.713,154.03z"/>
</g>
</svg>
