<svg version="1.1" id="Layer_1" xmlns="http://www.w3.org/2000/svg" xmlns:xlink="http://www.w3.org/1999/xlink" x="0px" y="0px"
	 width="500px" height="500px" viewBox="0 0 500 500" enable-background="new 0 0 500 500" xml:space="preserve">
<path fill-rule="evenodd" clip-rule="evenodd" fill="#3F8480" d="M380.701,262.888c23.558,2.15,46.269,4.223,70.141,6.404
	c-5.256,28.317-17.331,49.862-37.238,65.488c-47.592,37.359-100.046,49.263-158.101,26.15c-3.942-1.57-9.836-1.567-13.6,0.245
	c-52.117,25.086-137.17,4.372-172.418-40.708c-11.345-14.507-19.115-30.435-22.73-50.076c12.41-1.78,24.002-4.089,35.7-4.939
	c11.433-0.833,22.974-0.183,33.864-0.183c-4.221-16.582-9.158-33.45-12.63-50.612c-1.917-9.48-1.434-19.451-1.933-29.206
	c-0.476-9.315,4.453-12.316,13.139-11.444c21.618,2.169,41.34,9.832,60.141,20.277c5.107,2.838,10.154,5.793,15.796,9.02
	c9.112-31.692,25.563-58.272,47.663-81.792c7.609-8.1,12.479-6.939,19.346,0.18c22.4,23.222,39.521,49.547,48.866,81.06
	c22.065-14.315,45.401-24.175,71.03-28.021c14.226-2.136,16.326,0,16.769,14.556C395.296,215.215,389.765,239.917,380.701,262.888z
	 M370.262,201.417c-51.917,2.177-109.531,73.148-108.327,132.762C336.235,316.043,368.682,257.535,370.262,201.417z
	 M236.157,334.127c0.199-60.334-62.01-135.389-109.557-132.178C127.413,252.666,159.833,315.435,236.157,334.127z M249.003,275.108
	c8.865-13.707,19.097-30.962,30.902-47.062c4.779-6.516,6.005-11.859,3.706-19.036c-6.549-20.428-15.744-39.409-29.843-55.767
	c-1.693-1.965-3.781-3.59-5.976-5.644c-17.442,19.938-29.47,41.628-34.757,66.713c-0.66,3.128,0.365,7.389,2.144,10.129
	C226.816,242.375,238.877,260.036,249.003,275.108z M419.31,288.163c-13.793,0-27.248-0.179-40.696,0.072
	c-7.362,0.135-12.449,3.771-16.949,10.062c-15.424,21.552-35.999,36.722-60.82,46.113c-2.671,1.011-5.19,2.412-9.06,4.234
	C344.029,355.64,406.397,325.979,419.31,288.163z M205.384,348.601c-1.684-0.987-2.711-1.798-3.877-2.241
	c-27.998-10.662-51.598-27.061-68.52-52.253c-0.951-1.417-2.127-3.278-3.557-3.688c-16.91-4.871-33.895-3.75-51.695-1.921
	C98.796,333.021,160.571,354.678,205.384,348.601z"/>
</svg>
