<svg version="1.1" id="Layer_1" xmlns="http://www.w3.org/2000/svg" xmlns:xlink="http://www.w3.org/1999/xlink" x="0px" y="0px"
	 width="500px" height="500px" viewBox="0 0 500 500" enable-background="new 0 0 500 500" xml:space="preserve">
<g>
	<path fill-rule="evenodd" clip-rule="evenodd" fill="#3F8480" d="M393.035,181.373c0.895,46.186-6.299,90.614-30.527,130.935
		c-25.69,42.751-62.718,72.581-107.584,93.187c-3.077,1.412-7.953,1.727-10.861,0.281c-49.628-24.69-91.047-58.282-116.003-109.206
		c-15.024-30.659-20.687-63.622-22.534-97.274c-0.881-16.042,0.168-32.188,0.316-48.284c0.078-8.384,3.874-12.489,12.617-13.354
		c44.181-4.367,85.527-17.392,122.631-42.249c6.449-4.32,11.091-4.373,17.72-0.049c36.034,23.51,75.916,36.727,118.375,42.568
		c13.396,1.845,15.446,3.875,15.807,17.203C393.228,163.872,393.035,172.626,393.035,181.373z M128.503,155.886
		c-0.955,28.917,1.333,56.293,8.442,83.197c15.458,58.514,50.64,101.652,102.481,131.968c7.001,4.093,12.649,4.505,20.075,0.145
		c25.307-14.861,47.332-33.237,65.227-56.545c35.801-46.632,47.022-100.211,45.279-158.514
		c-42.174-5.354-80.534-20.444-116.925-41.107c-1.509-0.857-4.651,0.012-6.484,1.048
		C210.066,136.737,171.416,151.17,128.503,155.886z"/>
	<path fill-rule="evenodd" clip-rule="evenodd" fill="#3F8480" d="M208.988,335.063c66.137-8.529,106.784-46.193,133.272-105.194
		c-5.556,53.261-29.972,91.608-72.501,119.748c-15.489,10.248-28.257,12.871-42.457-0.49
		C222.296,344.418,216.373,340.679,208.988,335.063z"/>
	<path fill-rule="evenodd" clip-rule="evenodd" fill="#FCCA66" d="M311.031,219.797c-11.584-8.218-24.71-3.335-37.137-4.38
		c-1.663-3.376-4.301-6.614-4.796-10.151c-1.257-9.021-1.556-18.174-2.237-27.275c-1.378-2.088-2.752-4.18-4.128-6.268
		c-7.86-0.167-15.718-0.334-23.58-0.5c-1.219,0.736-2.436,1.473-3.649,2.209c-0.782,10.479-1.291,20.991-2.489,31.425
		c-0.417,3.617-2.552,7.033-3.9,10.543c-8.306-0.051-16.693-0.824-24.889,0.093c-5.679,0.637-15.212,2.724-15.847,5.697
		c-1.788,8.359-5.424,18.256,2.727,26.066c8.119,0.775,16.225,2.014,24.355,2.238c19.901,0.547,17.086-2.309,17.737,18.022
		c0.239,7.442,1.36,14.855,2.081,22.278c1.388,1.219,2.775,2.434,4.167,3.646c7.293,0.038,14.587,0.075,21.884,0.114
		c1.134-0.888,2.267-1.775,3.396-2.665c1.373-4.002,3.672-7.944,3.933-12.018c0.594-9.296,0.186-18.654,0.186-29.341
		c7.863,0,14.44,0.344,20.964-0.096c6.346-0.431,12.638-1.665,18.956-2.545c1.546-6.882,3.092-13.759,4.64-20.638
		C312.613,224.101,311.823,221.95,311.031,219.797z"/>
	<path fill-rule="evenodd" clip-rule="evenodd" fill="#FCCA66" d="M262.733,171.723c-7.86-0.167-15.718-0.334-23.58-0.5
		C247.013,171.389,254.872,171.556,262.733,171.723z"/>
	<path fill-rule="evenodd" clip-rule="evenodd" fill="#FCCA66" d="M239.446,293.44c7.293,0.038,14.587,0.075,21.884,0.114
		C254.038,293.516,246.74,293.479,239.446,293.44z"/>
	<path fill-rule="evenodd" clip-rule="evenodd" fill="#FCCA66" d="M313.403,226.253c-0.79-2.152-1.58-4.303-2.372-6.456
		C311.82,221.947,312.611,224.101,313.403,226.253z"/>
</g>
</svg>
