<?xml version="1.0" encoding="utf-8"?>
<!-- Generator: Adobe Illustrator 16.0.0, SVG Export Plug-In . SVG Version: 6.00 Build 0)  -->
<!DOCTYPE svg PUBLIC "-//W3C//DTD SVG 1.1//EN" "http://www.w3.org/Graphics/SVG/1.1/DTD/svg11.dtd">
<svg version="1.1" id="Layer_1" xmlns="http://www.w3.org/2000/svg" xmlns:xlink="http://www.w3.org/1999/xlink" x="0px" y="0px"
	 width="500px" height="500px" viewBox="0 0 500 500" enable-background="new 0 0 500 500" xml:space="preserve">
<g>
	<path fill-rule="evenodd" clip-rule="evenodd" fill="#3F8480" d="M294.19,221.68c-1.259-5.527-5.748-8.621-9.782-11.528
		c-21.823-15.731-55.926-14.416-74.344,9.396c-15.129,19.561-12.423,49.772,6.031,66.291c18.524,16.581,39.265,17.521,61.213,8.266
		c3.463-1.46,6.084-1.696,9.729-0.346c19.372,7.181,38.38,15.096,56.368,25.333c7.446,4.237,11.962,9.98,13.89,18.834
		c3.925,18.022,9.173,35.755,13.778,53.633c1.126,4.371,5.008,5.48,8.156,7.454c3.767,2.361,8.294,3.212,11.873,6.065
		c2.153,1.717,3.478,3.529,2.964,6.34c-0.552,3.015-2.99,4.285-5.444,4.328c-11.823,0.211-23.669,0.447-35.475-0.06
		c-5.861-0.251-9.545-4.401-10.956-10.139c-2.912-11.839-7.768-22.981-12.15-34.293c-5.432-14.021-14.415-23.967-29.263-29.042
		c-15.142-5.175-30.219-10.207-46.154-12.024c-22.299-2.544-41.854,5.282-60.486,16.448c-23.117,13.853-45.271,29.168-67.516,44.344
		c-2.594,1.77-4.976,3.846-7.508,5.71c-3.286,2.419-5.876,4.521-4.258,9.697c1.63,5.212-2.301,9.465-7.961,9.578
		c-9.995,0.198-19.998,0.084-29.997,0.051c-3.013-0.01-5.6-1.015-7.006-3.905c-1.462-3.006-0.152-5.57,1.691-7.826
		c7.574-9.264,16.189-17.511,25.077-25.493c20.487-18.4,41.89-35.695,63.415-52.854c9.187-7.322,18.187-14.895,27.007-22.655
		c6.855-6.032,11.094-13.502,11.241-23.045c0.042-2.715-1.023-4.818-1.906-7.056c-3.33-8.436-5.923-17.009-5.487-26.199
		c0.144-3.019-0.477-4.391-4.029-4.416c-24.938-0.179-48.083-7.347-70.094-18.624c-1.746-0.896-3.232-2.308-4.809-3.52
		c-0.618-0.476-1.151-1.063-2.657-2.474c25.461,4.37,49.549,3.244,73.463-2.296c-20.254-0.432-40.353-2.624-60.424-4.855
		c-18.993-2.111-37.856-5.233-55.606-12.843c-7.207-3.09-9.999-7.128-8.635-11.633c1.28-4.225,5.746-5.838,13.307-4.561
		c36.682,6.195,73.612,9.639,110.804,10.588c43.144,1.102,86.29,0.811,129.43,0.352c40.164-0.428,80.129-3.726,119.691-11.033
		c0.327-0.061,0.648-0.161,0.977-0.211c5.624-0.857,10.102,1.119,11.281,4.973c1.218,3.979-1.063,7.94-6.448,10.502
		c-7.854,3.735-16.169,6.22-24.609,8.184c-19.02,4.424-38.363,6.671-57.807,8.111c-12.328,0.914-24.669,1.67-37.001,2.825
		c24.354,5.555,48.847,6.259,73.942,1.94c-0.745,2.432-2.691,3.11-4.216,3.963c-20.589,11.509-42.577,18.527-66.162,20.233
		c-9.292,0.672-9.233,0.595-10.456,9.608c-1.69,12.463-7.406,22.573-18.047,29.817c6.193-9.183,9.504-19.167,8.899-30.266
		c-0.635-11.643-6.63-20.271-15.404-27.327c4.919-0.7,8.024,3.611,12.562,4.851C299.024,225.012,296.429,223.464,294.19,221.68z"/>
	<path fill-rule="evenodd" clip-rule="evenodd" fill="#3F8480" d="M729.277,230.502c15.282-3.4,30.012-3.112,44.598-4.268
		c21.581-1.709,43.138-3.369,63.63-11.234c6.368-2.444,12.048-5.922,17.162-10.437c-24.571,12.547-51.099,13.109-77.773,13.599
		c-25.572,0.468-51.322-0.125-76.29,7.024c-10.226,2.928-20.167,6.517-29.054,12.694c-18.427,12.808-29.757,29.34-28.47,53.075
		c-6.902-12.677-6.976-35.326,3.597-49.553c11.188-15.056,27.495-20.489,45.38-24.232c-6.827-4.066-25.112,2.675-38.783,13.368
		c-11.817,9.244-18.421,21.432-19.761,36.192c-1.331,14.666,5.404,27.421,11.259,40.399c-1.928,0.34-2.753-0.895-3.663-1.668
		c-14.77-12.549-23.445-28.414-24.909-47.79c-1.293-17.127,6.287-30.344,19.776-40.269c16.207-11.925,35.07-16.443,54.656-18.316
		c26.141-2.5,52.208,0.124,78.313,1.396c21.752,1.061,43.619,2.171,65.092-3.283c15.781-4.01,29.254-11.14,36.372-26.882
		c0.393-0.868,0.781-2.129,2.018-1.796c1.239,0.332,1.494,1.664,1.814,2.792c2.2,7.747,1.723,15.536-0.007,23.241
		c-5.021,22.381-14.709,41.771-35.857,53.217c-16.155,8.743-32.918,9.395-49.282,1.02c-14.944-7.648-30.245-13.753-46.893-16.37
		C738.131,231.783,733.871,232.364,729.277,230.502z M832.077,230.048c-3.989,1.034-7.944,2.229-11.973,3.075
		c-15.117,3.175-30.464,1.797-45.723,2.229c-1.904,0.054-5.218-1.498-5.479,1.215c-0.204,2.124,3.355,2.116,5.332,2.449
		c10.941,1.843,21.878,0.54,32.765-0.609C815.943,237.462,824.431,234.703,832.077,230.048z"/>
	<path fill-rule="evenodd" clip-rule="evenodd" fill="#3F8480" d="M711.314,263.004c15.899-13.096,40.177-12.572,56.989-2.211
		c25.71,15.843,31.192,42.662,24.421,69.368c-6.274,24.743-22.135,42.394-43.325,55.643c-21.09,13.187-44.469,19.725-68.858,23.211
		c-19.047,2.722-38.204,2.923-57.327,1.675c-15.188-0.992-30.322-2.944-45.044-7.324c10.296,1.06,20.614,0.753,30.896,0.373
		c30.25-1.115,59.799-5.869,88.271-16.77c20.256-7.754,38.701-18.238,54.593-33.02c5.803-5.399,11.033-11.354,15.702-19.183
		c-3.954,2.319-5.42,5.472-7.601,7.903c-15.48,17.256-34.784,28.714-56.069,37.187c-28.339,11.279-57.785,17.415-88.198,19.417
		c-9.614,0.634-19.149,0.293-28.722,0.408c-0.042-0.407-0.084-0.814-0.126-1.222c6.811-1.116,13.663-2.025,20.426-3.384
		c35.534-7.14,70.101-17.104,101.219-36.435c16.68-10.361,32.359-22.155,44.252-38.001c8.256-10.999,14.922-22.974,12.399-37.688
		c-1.651-9.633-7.737-15.784-16.568-18.91c-12.426-4.397-24.447-2.905-35.687,4.137
		C710.848,266.949,710.807,265.063,711.314,263.004z"/>
	<path fill-rule="evenodd" clip-rule="evenodd" fill="#FC9350" d="M294.19,221.68c2.238,1.784,4.834,3.332,4.692,7.193
		c-4.537-1.239-7.643-5.551-12.562-4.851c-13.545-6.793-27.26-6.994-41.017-0.806c-10.652,4.791-17.117,17.955-16.054,26.937
		c1.523,12.858,7.938,20.159,20.634,22.468c8.718,1.585,20.377-3.16,22.374-14.286c1.357-7.563-5.563-14.213-12.998-12.179
		c-3.46,0.946-3.895,3.982-2.698,6.31c1.202,2.338,1.628,3.672-0.625,5.309c-2.436,1.77-4.906,1.771-7.4,0.37
		c-4.209-2.363-6.991-9.349-5.284-13.868c2.325-6.153,6.113-10.952,13.138-12.049c11.752-1.835,22.739,1.946,28.709,12.668
		c7.574,13.603-0.235,29.847-12.843,37.09c-22.092,12.692-51.922,1.926-57.702-24.217c-4.63-20.939,8.87-42.708,29.921-47.961
		c15.914-3.972,30.161-0.326,43.947,7.31C290.604,218.325,291.618,220.982,294.19,221.68z"/>
	<path fill-rule="evenodd" clip-rule="evenodd" fill="#FC9350" d="M731.666,240.598c-7.757,1.666-14.433,2.009-20.554,4.587
		c-15.863,6.68-26.142,18.121-28.901,35.374c-1.896,11.847,10.195,25.581,22.172,26.37c11.547,0.762,20.583-3.286,27.566-12.453
		c2.593-3.403,2.845-7.653,4.981-12.142c3.278,5.96,2.716,11.783,1.732,17.164c-2.954,16.168-18.401,25.716-31.177,27.746
		c-22.838,3.629-43.333-11.115-47.197-32.795c-2.152-12.078,1.079-23.383,8.811-33.073c10.412-13.051,24.18-19.736,40.702-21.536
		C716.722,239.086,723.495,237.994,731.666,240.598z"/>
	<path fill-rule="evenodd" clip-rule="evenodd" fill="#3F8480" d="M251.19,182.08c-16.977-0.384-29.663-12.766-29.361-28.655
		c0.282-14.854,14.526-27.623,30.146-27.277c16.653,0.368,30.062,14.328,29.312,29.489C280.55,170.509,267.26,182.443,251.19,182.08
		z"/>
	<path fill-rule="evenodd" clip-rule="evenodd" fill="#3F8480" d="M729.211,134.76c19.638,0.552,29.649,16.613,28.624,29.229
		c-1.333,16.402-15.113,27.54-32.268,26.266c-16.091-1.195-27.852-14.531-26.708-30.286
		C699.938,145.092,713.834,133.551,729.211,134.76z"/>
	<path fill-rule="evenodd" clip-rule="evenodd" fill="#FCCA66" d="M824.052,132.269c0.101,2.871-1.479,4.78-3.829,5.953
		c-10.273,5.124-20.547,10.252-30.933,15.141c-3.553,1.673-6.587,0.238-8.317-3.239c-1.712-3.438-0.439-6.47,2.651-8.113
		c10.13-5.389,20.324-10.681,30.698-15.577C818.992,124.229,824.133,127.679,824.052,132.269z"/>
	<path fill-rule="evenodd" clip-rule="evenodd" fill="#FCCA66" d="M631.945,134.204c0.074-5.903,4.906-9.113,9.715-6.854
		c10.515,4.938,20.853,10.266,31.146,15.658c2.831,1.482,3.623,4.324,2.098,7.279c-1.888,3.659-5.25,4.686-8.893,3.514
		c-3.29-1.058-6.337-2.878-9.475-4.396c-6.716-3.252-13.395-6.583-20.144-9.764C633.539,138.296,631.946,136.292,631.945,134.204z"
		/>
	<path fill-rule="evenodd" clip-rule="evenodd" fill="#FCCA66" d="M692.8,132.058c-2.484-0.058-4.53-0.944-5.878-3.136
		c-5.49-8.924-11.013-17.828-16.448-26.785c-2.206-3.635-1.364-6.846,2.209-8.964c3.539-2.099,7.17-1.189,9.281,2.024
		c5.841,8.893,11.45,17.953,16.758,27.174C701.412,127.046,698.027,132.133,692.8,132.058z"/>
	<path fill-rule="evenodd" clip-rule="evenodd" fill="#FCCA66" d="M763.193,132.072c-5.457-0.041-8.956-4.911-6.369-9.291
		c5.641-9.553,11.665-18.896,17.922-28.059c2.217-3.247,5.974-3.713,9.253-1.171c3.037,2.354,3.398,5.454,1.3,8.798
		c-5.375,8.563-10.678,17.171-16.078,25.718C767.771,130.362,765.986,132.361,763.193,132.072z"/>
	<path fill-rule="evenodd" clip-rule="evenodd" fill="#FCCA66" d="M721.838,100.252c0-5.161,0.033-10.321-0.01-15.482
		c-0.036-4.249,2.016-6.57,6.243-6.764c4.468-0.204,7.097,2.327,7.127,6.974c0.065,10.154,0.05,20.311-0.019,30.465
		c-0.032,4.768-2.459,7.291-6.833,7.396c-3.848,0.094-6.458-2.629-6.548-7.108c-0.103-5.158-0.023-10.32-0.023-15.48
		C721.796,100.252,721.817,100.252,721.838,100.252z"/>
	<path fill-rule="evenodd" clip-rule="evenodd" fill="#FCCA66" d="M286.033,121.996c-5.445,0.021-8.789-5.139-6.223-9.504
		c5.133-8.732,10.563-17.299,16.122-25.768c2.463-3.753,6.537-4.287,10.001-1.787c3.78,2.729,3.452,5.89,1.076,9.505
		c-5.109,7.774-10.038,15.667-15.021,23.523C290.467,120.364,288.4,121.828,286.033,121.996z"/>
	<path fill-rule="evenodd" clip-rule="evenodd" fill="#FCCA66" d="M191.648,142.892c-1.777,0.123-3.197-0.804-4.683-1.521
		c-8.803-4.258-17.161-9.405-26.243-13.105c-3.836-1.563-4.647-4.766-3.537-8.211c1.222-3.79,4.764-5.25,8.045-3.742
		c10.383,4.771,20.562,10.004,30.693,15.298c2.27,1.187,3.497,3.602,2.534,6.4C197.357,141.213,194.887,142.625,191.648,142.892z"/>
	<path fill-rule="evenodd" clip-rule="evenodd" fill="#FCCA66" d="M223.255,115.409c0.21,3.125-1.371,5.047-4.133,6.104
		c-2.95,1.13-5.882,0.685-7.622-1.885c-5.856-8.645-11.608-17.372-17.011-26.304c-1.521-2.516-1.644-6.009,1.325-8.088
		c2.949-2.065,6.813-2.682,9.081,0.304c6.709,8.833,12.463,18.343,18.069,27.92C223.272,113.986,223.168,114.754,223.255,115.409z"
		/>
	<path fill-rule="evenodd" clip-rule="evenodd" fill="#FCCA66" d="M303.886,136.182c-0.154-2.493,1.114-4.289,3.399-5.449
		c9.35-4.742,18.636-9.614,28.089-14.14c3.539-1.694,7.221-0.758,9.048,2.851c1.838,3.632,0.561,6.688-3.329,8.59
		c-9.277,4.537-18.439,9.313-27.746,13.787C308.38,144.208,303.775,141.389,303.886,136.182z"/>
	<path fill-rule="evenodd" clip-rule="evenodd" fill="#FCCA66" d="M811.632,172.818c5.491,0,10.982,0.012,16.475-0.004
		c4.124-0.013,6.786,1.759,6.861,6.102c0.073,4.231-2.847,5.966-6.487,6.026c-11.479,0.19-22.964,0.151-34.445,0.09
		c-3.74-0.02-5.941-2.161-6.069-5.872c-0.142-4.076,2.323-6.133,6.194-6.237c5.819-0.157,11.647-0.041,17.472-0.041
		C811.632,172.86,811.632,172.84,811.632,172.818z"/>
	<path fill-rule="evenodd" clip-rule="evenodd" fill="#FCCA66" d="M643.882,185.109c-5.493,0-10.987,0.074-16.479-0.022
		c-4.804-0.085-7.617-2.731-7.202-6.983c0.4-4.101,3.212-5.362,7.05-5.334c10.819,0.081,21.639,0.065,32.458,0.015
		c4.2-0.02,7.272,1.248,7.461,6.021c0.152,3.884-2.51,6.173-7.309,6.25c-5.325,0.086-10.653,0.02-15.979,0.02
		C643.882,185.086,643.882,185.098,643.882,185.109z"/>
	<path fill-rule="evenodd" clip-rule="evenodd" fill="#FCCA66" d="M257.932,92.227c0,4.817,0.004,9.635-0.001,14.453
		c-0.003,4.016-2.024,6.175-6.023,6.391c-4.125,0.224-6.614-1.592-7.15-5.844c-1.336-10.614,0.366-21.209,0.225-31.82
		c-0.051-3.744,3.081-4.7,6.43-4.604c3.917,0.113,6.366,1.958,6.498,5.975c0.168,5.145,0.041,10.299,0.041,15.449
		C257.943,92.227,257.938,92.227,257.932,92.227z"/>
	<path fill-rule="evenodd" clip-rule="evenodd" fill="#FCCA66" d="M333.96,172.218c-5.162,0.002-10.324-0.033-15.485,0.014
		c-3.97,0.036-6.963-1.267-7.383-5.648c-0.351-3.66,2.758-6.433,7.209-6.46c10.489-0.065,20.979-0.078,31.469,0.019
		c4.969,0.046,7.679,2.344,7.346,6.152c-0.402,4.604-3.486,5.99-7.671,5.938C344.283,172.167,339.121,172.216,333.96,172.218z"/>
	<path fill-rule="evenodd" clip-rule="evenodd" fill="#FCCA66" d="M167.744,172.215c-5.313,0-10.627-0.003-15.94,0
		c-4.153,0.003-6.693-1.907-6.786-6.191c-0.094-4.31,2.854-5.807,6.522-5.854c10.625-0.135,21.254-0.146,31.88-0.039
		c4.405,0.044,7.79,2.947,7.507,6.325c-0.392,4.673-3.604,5.828-7.74,5.755c-5.146-0.091-10.295-0.021-15.442-0.021
		C167.744,172.197,167.744,172.206,167.744,172.215z"/>
	<path fill-rule="evenodd" clip-rule="evenodd" fill="#FC9350" d="M711.314,263.004c-0.508,2.06-0.467,3.945,1.643,5.175
		c-8.346,10.398-8.472,10.633-10.259,19.143C697.996,280.22,701.99,268.948,711.314,263.004z"/>
</g>
</svg>
