<svg version="1.1" id="Layer_1" xmlns="http://www.w3.org/2000/svg" xmlns:xlink="http://www.w3.org/1999/xlink" x="0px" y="0px"
	 width="500px" height="500px" viewBox="0 0 500 500" enable-background="new 0 0 500 500" xml:space="preserve">
<path fill-rule="evenodd" clip-rule="evenodd" fill="#05768D" d="M406.152,423.428c-29.634,2.876-58.933,1.913-88.228-0.726
	c2.776-0.274,5.566-0.612,8.366-0.809c2.917-0.204,5.843-0.332,8.768-0.37c1.607-0.021,2.397-0.116,1.882-2.214
	c-0.81-3.284,0.5-6.502,0.975-9.756c1.179-8.074-1.415-15.489-4.717-22.65c-2.399-5.205-5.468-10.095-6.931-15.729
	c-1.665-6.414-1.104-12.744,0.275-19.104c0.887-4.08-2.335-7.33-6.335-6.208c-4.743,1.331-9.594,1.91-14.438,2.429
	c-14.325,1.537-28.595,1.122-42.712-1.99c-2.973-0.656-5.953-1.387-8.818-2.396c-5.216-1.836-10.03-0.654-14.657,1.707
	c-13.356,6.817-26.24,14.533-39.862,20.857c-9.044,4.199-18.649,6.808-27.952,10.271c-2.736,1.019-5.101,2.466-7.1,4.495
	c-10.326,10.479-23.723,14.888-37.29,18.968c-5.437,1.637-10.649,3.847-15.271,7.113c-2.848,2.013-5.696,4.354-5.065,8.67
	c0.262,1.793-1.715,4.091-0.104,5.321c1.214,0.928,3.566,0.32,5.402,0.496c1.109,0.106,2.354-0.253,3.797,1.216
	c-3.543,0.353-6.633,0.77-9.737,0.952c-13.916,0.813-27.838,1.487-41.781,0.724c-1.449-0.08-3.64,0.418-3.948-1.483
	c-0.271-1.678,1.778-2.432,3.106-3.096c3.307-1.655,6.922-2.557,10.314-4.071c4.765-2.131,8.953-5.078,13.183-8.054
	c14.459-10.171,27.749-21.755,40.977-33.434c6.726-5.937,14.592-9.992,22.976-13.109c4.381-1.628,8.752-3.297,12.728-5.836
	c5.549-3.545,9.914-8.406,14.375-13.11c8.491-8.952,17.6-17.124,28.062-23.72c3.364-2.121,6.06-4.825,7.896-8.416
	c1.917-3.746,4.265-7.23,7.424-10.064c7.18-6.443,8.486-14.487,6.691-23.503c-1.523-7.654-5.248-14.43-8.495-21.363
	c-2.175-4.646-6.552-6.299-11.516-5.756c-7.865,0.859-15.701,1.567-23.606,0.463c-6.661-0.929-13.312-1.908-19.897-3.276
	c-5.411-1.125-10.897-0.298-16.327-0.786c-8.555-0.769-16.983-2.386-25.387-4.065c-4.323-0.863-8.494-0.951-12.671,0.412
	c-3.897,1.271-7.597,0.947-11.352-0.756c-4.615-2.094-9.784-2.609-14.4-4.776c-1.771-0.83-3.543-1.653-4.98-3.006
	c-0.637-0.599-1.289-1.366-0.785-2.307c0.488-0.91,1.43-1.007,2.313-0.661c6.298,2.46,12.458,1.209,18.611-0.616
	c1.899-0.563,3.925-0.837,5.781-0.221c10.407,3.455,21.061,2.286,31.616,1.542c13.502-0.95,27.013-1.666,40.528-2.347
	c5.375-0.27,10.713,0.34,16.044,0.899c3.945,0.415,7.755,0.008,11.532-1.214c7.525-2.438,15.216-3.245,23.091-2.158
	c4.1,0.566,8.163,0.476,12.1-1.072c3.06-1.203,5.041-3.303,5.542-6.586c0.333-2.176-0.922-2.32-2.502-4.972
	c-1.135-1.905-2.349-6.814-3.532-8.715c-1.167-1.875-1.731-7.508-1.85-8.483c-1.303-10.772,6.245-18.969,16.92-20.261
	c5.63-0.68,11.104,0.062,16.131,2.902c3.524,1.992,5.731,4.844,5.898,9.1c0.103,2.607,0.899,5.132,0.737,7.821
	c-0.122,2,1.409,3.569,2.686,5.05c1.41,1.638,1.828,3.06-0.678,3.992c-1.262,0.469-1.758,1.316-1.769,2.678
	c-0.022,2.809-1.742,5.231-1.784,8.145c-0.024,1.679-1.918,2.164-3.682,1.96c-2.064-0.24-4.455-1.066-5.308,1.958
	c-0.694,2.468,1.058,5.298,3.972,6.347c3.53,1.27,7.143,1.838,10.918,1.242c6.746-1.065,13.444-0.765,19.947,1.386
	c5.659,1.873,11.326,2.344,17.275,1.695c13.628-1.486,27.244-0.71,40.843,0.812c6.896,0.772,13.808,0.976,20.583-1.133
	c3.532-1.1,6.85-0.93,10.479,0.521c4.278,1.71,8.989,1.427,13.51,0.131c1.318-0.378,2.924-1.044,3.61,0.577
	c0.603,1.421-0.889,2.229-1.961,2.848c-5.86,3.379-12.166,5.703-18.69,7.359c-2.975,0.754-6.031-0.064-8.96-0.787
	c-2.054-0.506-4.099-0.663-6.077-0.15c-12.66,3.279-25.571,5.023-38.479,6.99c-10.73,1.635-21.352,3.295-32.241,2.756
	c-8.617-0.427-10.89,3.843-11.34,11.382c-0.225,3.761-0.956,6.922-3.664,9.531c-1.357,1.309-1.82,3.003-1.891,4.779
	c-0.177,4.524-1.576,8.572-3.875,12.499c-3.33,5.694-4.226,11.96-2.94,18.459c0.581,2.943,3.327,4.726,7.603,4.814
	c11.573,0.242,22.891,2.171,33.986,5.307c7.626,2.153,15.218,4.478,22.529,7.608c5.808,2.486,9.264,7.168,7.913,14.748
	c-0.445,2.492-0.025,5.113,0.411,7.735c1.411,8.478,2.387,17.002,1.747,25.674c-0.651,8.827-1.429,17.683,0.509,26.503
	c0.882,4.008,2.763,6.969,6.593,8.652c3.479,1.532,6.769,3.429,10.063,5.328c3.637,2.099,7.468,3.754,11.719,4.3
	c2.134,0.275,4.26,0.869,5.495,2.905c0.675,1.113,1.706,0.726,2.612,0.769C395.037,422.173,400.48,422.185,406.152,423.428z"/>
<g>
	<radialGradient id="SVGID_1_" cx="263.5" cy="278.5" r="290.1396" gradientUnits="userSpaceOnUse">
		<stop  offset="0.3387" style="stop-color:#FECD0E"/>
		<stop  offset="0.9409" style="stop-color:#FE5210"/>
	</radialGradient>
	<path fill-rule="evenodd" clip-rule="evenodd" fill="url(#SVGID_1_)" d="M364.886,379.902c0.079-5.881,0.758-11.212,0.251-16.552
		c-0.092-0.968,0.071-2.017-0.241-2.903c-1.756-4.988,0.713-8.29,3.963-11.722c18.024-19.036,30.085-41.311,35.502-67.027
		c2.319-11.005,3.339-22.156,2.301-33.41c-0.218-2.376,0.045-4.039,2.41-5.533c3.897-2.461,6.862-5.909,6.393-11.028
		c-0.481-5.259-5.039-9.452-10.972-9.967c-1.679-0.146-2.349-0.724-2.794-2.233c-4.15-14.124-10.493-27.254-18.767-39.376
		c-5.131-7.52-11.147-14.387-17.528-20.926c-7.738-7.932-16.183-15.071-25.627-20.754c-19.478-11.721-40.419-19.468-63.246-21.668
		c-16.872-1.626-33.591-0.467-49.72,4.405c-27.401,8.276-49.835,23.818-66.092,47.815c-8.5,12.548-14.193,26.134-16.647,41.067
		c-0.488,2.972-0.685,6-0.857,9.012c-0.082,1.413-0.428,2.08-1.99,2.138c-3.015,0.113-6.026,0.398-9.029,0.701
		c-2.085,0.21-2.883-0.403-2.855-2.706c0.19-15.784,3.802-30.765,11.189-44.646c18.157-34.116,46.465-55.978,83.377-66.26
		c44.39-12.365,86.298-5.084,125.432,18.644c23.592,14.304,42.397,33.553,56.465,57.321c4.711,7.96,8.735,16.286,11.984,24.965
		c4.16,11.12,7.155,22.535,8.372,34.362c3.952,38.428-5.388,73.182-28.821,104.049c-8.721,11.486-18.986,21.417-30.11,30.514
		C366.636,378.666,365.997,379.092,364.886,379.902z"/>
	<radialGradient id="SVGID_2_" cx="263.5" cy="278.5" r="290.1396" gradientUnits="userSpaceOnUse">
		<stop  offset="0.3387" style="stop-color:#FECD0E"/>
		<stop  offset="0.9409" style="stop-color:#FE5210"/>
	</radialGradient>
	<path fill-rule="evenodd" clip-rule="evenodd" fill="url(#SVGID_2_)" d="M263.421,119.547
		c42.792,0.973,78.247,17.699,106.304,49.978c12.033,13.844,20.931,29.581,26.546,47.102c0.356,1.11,0.584,2.26,0.95,3.365
		c0.431,1.306,0.018,1.759-1.337,1.668c-7.098-0.477-14.197-0.792-21.291,0.021c-1.506,0.173-1.731-0.826-2.02-1.909
		c-5.447-20.373-16.49-37.329-32.046-51.321c-23.936-21.529-52.072-31.688-84.25-29.156c-25.437,2.001-47.407,12.111-64.9,30.974
		c-12.132,13.082-19.635,28.446-21.332,46.398c-0.104,1.104-0.035,2.135-1.673,2.092c-6.361-0.171-12.613,1.045-18.904,1.695
		c-2.937,0.304-3.393-0.793-3.196-3.312c1.196-15.337,5.987-29.464,14.024-42.543c8.446-13.742,19.314-25.202,32.725-34.116
		C214.3,126.339,237.773,119.355,263.421,119.547z"/>
	<radialGradient id="SVGID_3_" cx="263.5" cy="278.5" r="290.1396" gradientUnits="userSpaceOnUse">
		<stop  offset="0.3387" style="stop-color:#FECD0E"/>
		<stop  offset="0.9409" style="stop-color:#FE5210"/>
	</radialGradient>
	<path fill-rule="evenodd" clip-rule="evenodd" fill="url(#SVGID_3_)" d="M154.086,403.815c7.159-3.279,14.149-7.031,19.14-13.102
		c3.008-3.659,6.419-4.419,10.545-4.776c16.886-1.459,33.739-3.117,50.358-6.685c19.572-4.2,38.756-9.532,56.9-18.167
		c0.871-0.416,1.782-0.688,2.805-0.681c5.366,0.039,10.721-0.233,16.027-1.049c1.303-0.2,1.809,0.087,1.727,1.436
		c-0.458,7.492,1.023,14.531,4.96,20.99c1.08,1.771-0.653,1.99-1.518,2.416c-8.304,4.075-16.674,7.988-25.335,11.288
		c-17.176,6.548-34.942,10.721-53.09,13.282c-17.521,2.47-35.117,2.606-52.727,0.84c-9.698-0.973-19.323-2.356-28.763-4.851
		C154.754,404.664,154.316,404.688,154.086,403.815z"/>
	
		<radialGradient id="SVGID_4_" cx="263.501" cy="278.499" r="290.1409" gradientTransform="matrix(0.9994 -0.0344 0.0344 0.9994 -9.6262 4.8645)" gradientUnits="userSpaceOnUse">
		<stop  offset="0.3387" style="stop-color:#FECD0E"/>
		<stop  offset="0.9409" style="stop-color:#FE5210"/>
	</radialGradient>
	<path fill-rule="evenodd" clip-rule="evenodd" fill="url(#SVGID_4_)" d="M45.32,261.035c15.507-2.295,30.464-0.461,45.272,3.323
		c22.516,5.752,43.497,15.592,63.401,28.236c0.317,0.2,0.613,0.439,1.401,1.008c-6.423,0.392-12.321,0.812-18.225,1.101
		c-16.954,0.832-33.756-0.226-50.23-5.15c-13.601-4.064-25.896-10.706-36.171-21.339C48.757,266.135,46.891,263.933,45.32,261.035z"
		/>
	<radialGradient id="SVGID_5_" cx="263.5" cy="278.5" r="290.1396" gradientUnits="userSpaceOnUse">
		<stop  offset="0.3387" style="stop-color:#FECD0E"/>
		<stop  offset="0.9409" style="stop-color:#FE5210"/>
	</radialGradient>
	<path fill-rule="evenodd" clip-rule="evenodd" fill="url(#SVGID_5_)" d="M167.275,311.348c-7.791,3.67-15.756,6.541-23.802,9.185
		c-14.994,4.929-30.391,7.077-46.117,5.713c-9.657-0.838-18.991-3.3-27.483-8.273c-0.339-0.199-0.787-0.299-0.979-1.039
		c1.453-0.548,2.909-1.229,4.437-1.652c4.659-1.294,9.302-2.571,14.068-3.539c5.83-1.184,11.659-2.146,17.552-2.787
		c11.324-1.229,22.671-1.222,34.028-0.479c9.014,0.591,17.955,1.891,26.941,2.748C166.371,311.266,166.823,311.306,167.275,311.348z
		"/>
	<radialGradient id="SVGID_6_" cx="263.5" cy="278.5" r="290.1396" gradientUnits="userSpaceOnUse">
		<stop  offset="0.3387" style="stop-color:#FECD0E"/>
		<stop  offset="0.9409" style="stop-color:#FE5210"/>
	</radialGradient>
	<path fill-rule="evenodd" clip-rule="evenodd" fill="url(#SVGID_6_)" d="M363.38,346.8c-0.42-4.425-0.625-8.606-1.255-12.723
		c-0.936-6.124-3.817-11.253-8.993-14.803c-1.765-1.212-1.386-1.969-0.311-3.332c11.847-15.036,19.864-31.832,22.937-50.821
		c0.652-4.027,0.962-8.118,1.272-12.192c0.105-1.373,0.473-1.89,1.884-1.785c7.411,0.554,14.545-0.69,21.443-3.418
		c2.611-1.033,1.902,1.211,1.954,2.249c0.601,11.859-0.548,23.581-3.604,35.036c-6.06,22.711-16.998,42.794-33.109,59.989
		c-0.399,0.427-0.818,0.837-1.256,1.224C364.139,346.404,363.868,346.513,363.38,346.8z"/>
	<radialGradient id="SVGID_7_" cx="263.5" cy="278.5" r="290.1396" gradientUnits="userSpaceOnUse">
		<stop  offset="0.3387" style="stop-color:#FECD0E"/>
		<stop  offset="0.9409" style="stop-color:#FE5210"/>
	</radialGradient>
	<path fill-rule="evenodd" clip-rule="evenodd" fill="url(#SVGID_7_)" d="M144.8,408.486c2.128-0.873,3.643-0.292,5.099,0.016
		c20.956,4.427,42.146,6.615,63.55,6.069c16.881-0.431,33.57-2.729,50.053-6.488c14.397-3.283,28.19-8.365,41.802-13.963
		c4.293-1.766,8.384-4.035,12.515-6.176c1.415-0.731,2.11-0.578,2.964,0.88c2.229,3.806,4.103,7.696,5.098,12.043
		c0.469,2.052-0.034,2.935-1.894,3.739c-17.685,7.646-35.973,13.271-54.981,16.459c-14.438,2.421-28.983,3.729-43.632,3.499
		c-26.524-0.419-52.3-4.896-77.11-14.481c-0.544-0.211-1.073-0.459-1.605-0.7C146.223,409.184,145.796,408.968,144.8,408.486z"/>
	<radialGradient id="SVGID_8_" cx="263.5" cy="278.5" r="290.1396" gradientUnits="userSpaceOnUse">
		<stop  offset="0.3387" style="stop-color:#FECD0E"/>
		<stop  offset="0.9409" style="stop-color:#FE5210"/>
	</radialGradient>
	<path fill-rule="evenodd" clip-rule="evenodd" fill="url(#SVGID_8_)" d="M66.674,133.291
		c33.144,19.994,45.451,51.728,51.131,87.284c-1.343,0.831-1.809,0.147-2.275-0.256c-12.748-11.033-25.469-22.104-35.079-36.169
		c-8.944-13.092-14.767-27.289-14.893-43.413C65.539,138.318,65.753,135.903,66.674,133.291z"/>
	<radialGradient id="SVGID_9_" cx="263.5" cy="278.5" r="290.1396" gradientUnits="userSpaceOnUse">
		<stop  offset="0.3387" style="stop-color:#FECD0E"/>
		<stop  offset="0.9409" style="stop-color:#FE5210"/>
	</radialGradient>
	<path fill-rule="evenodd" clip-rule="evenodd" fill="url(#SVGID_9_)" d="M193.986,218.193c-1.957-4.957-2.058-10.056-1.339-15.153
		c1.908-13.542,8.655-24.563,18.632-33.534c23.721-21.327,51.363-25.666,80.988-16.314c28.63,9.038,49.002,28.07,61.044,55.714
		c1.457,3.343,2.309,6.945,3.543,10.39c0.727,2.027-0.042,2.456-1.862,2.064c-0.188-0.041-0.393-0.084-0.58-0.06
		c-6.103,0.811-8.357-2.219-10.555-7.853c-12.175-31.216-34.66-50.883-68.003-56.471c-23.199-3.888-44.457,1.681-62.134,17.695
		c-12.35,11.188-19.127,25.366-19.648,42.254C194.059,217.349,194.015,217.771,193.986,218.193z"/>
	<radialGradient id="SVGID_10_" cx="263.5" cy="278.5" r="290.1396" gradientUnits="userSpaceOnUse">
		<stop  offset="0.3387" style="stop-color:#FECD0E"/>
		<stop  offset="0.9409" style="stop-color:#FE5210"/>
	</radialGradient>
	<path fill-rule="evenodd" clip-rule="evenodd" fill="url(#SVGID_10_)" d="M125.661,182.903
		c-7.755-14.426-15.874-27.78-18.952-43.34c-2.729-13.796-2.878-27.427,2.426-40.764c0.903-2.268,1.422-2.435,3.131-0.538
		c15.397,17.096,20.34,37.39,18.779,59.817C130.466,166.402,128.001,174.235,125.661,182.903z"/>
	<radialGradient id="SVGID_11_" cx="263.5" cy="278.5" r="290.1396" gradientUnits="userSpaceOnUse">
		<stop  offset="0.3387" style="stop-color:#FECD0E"/>
		<stop  offset="0.9409" style="stop-color:#FE5210"/>
	</radialGradient>
	<path fill-rule="evenodd" clip-rule="evenodd" fill="url(#SVGID_11_)" d="M196.621,214.717
		c1.173-21.402,11.921-36.964,29.973-47.472c24.372-14.186,49.395-13.131,73.988-0.744c21.529,10.843,35.866,28.251,43.318,51.253
		c0.601,1.858,0.622,2.252-1.726,2.376c-5.589,0.293-7.59-2.106-9.712-7.346c-11.345-28-32.156-44.619-62.342-48.569
		c-27.597-3.611-54.479,10.533-67.283,34.875C200.207,204.095,198.775,209.567,196.621,214.717z"/>
	<radialGradient id="SVGID_12_" cx="232.7847" cy="270.4326" r="237.7818" gradientUnits="userSpaceOnUse">
		<stop  offset="0.3387" style="stop-color:#FECD0E"/>
		<stop  offset="0.9409" style="stop-color:#FE5210"/>
	</radialGradient>
	<path fill-rule="evenodd" clip-rule="evenodd" fill="url(#SVGID_12_)" d="M44.046,193.5c12.903,1.354,41.182,18.638,49.246,30.14
		c-2.383,0.238-4.625,0.042-6.864-0.14c-3.622-0.293-6.756,0.761-9.385,3.3c-1.972,1.904-2.45,4.354-2.484,6.994
		C62.682,227.895,44.98,206.813,44.046,193.5z"/>
	<radialGradient id="SVGID_13_" cx="263.5" cy="278.5" r="290.1396" gradientUnits="userSpaceOnUse">
		<stop  offset="0.3387" style="stop-color:#FECD0E"/>
		<stop  offset="0.9409" style="stop-color:#FE5210"/>
	</radialGradient>
	<path fill-rule="evenodd" clip-rule="evenodd" fill="url(#SVGID_13_)" d="M147.471,146.24c-2.344-14.006-3.621-27.55-1.402-41.191
		c2.057-12.656,6.271-24.395,14.769-34.306c1.272-1.484,1.812-1.447,2.803,0.26c4.995,8.611,6.085,17.97,5.438,27.649
		c-0.977,14.601-5.835,27.696-15.293,39.008C151.615,140.255,149.758,143.113,147.471,146.24z"/>
	<radialGradient id="SVGID_14_" cx="289.7158" cy="264.4707" r="363.7768" gradientUnits="userSpaceOnUse">
		<stop  offset="0.3387" style="stop-color:#FECD0E"/>
		<stop  offset="0.9409" style="stop-color:#FE5210"/>
	</radialGradient>
	<path fill-rule="evenodd" clip-rule="evenodd" fill="url(#SVGID_14_)" d="M94.027,351.924
		c24.845-11.764,50.177-19.527,76.063-23.083c-4.271,4.487-8.896,9.396-13.581,14.246c-1.104,1.143-2.765,1.317-4.178,1.895
		c-6.462,2.635-13.023,4.993-19.099,8.551c-2.417,1.417-5.512,0.954-8.306,1.189c-9.881,0.828-19.707,0.677-29.314-2.218
		C95.308,352.412,95.014,352.286,94.027,351.924z"/>
	<radialGradient id="SVGID_15_" cx="263.5" cy="278.5" r="290.1396" gradientUnits="userSpaceOnUse">
		<stop  offset="0.3387" style="stop-color:#FECD0E"/>
		<stop  offset="0.9409" style="stop-color:#FE5210"/>
	</radialGradient>
	<path fill-rule="evenodd" clip-rule="evenodd" fill="url(#SVGID_15_)" d="M182.068,116.531c2.275-8.192,4.87-15.403,8.038-22.401
		c5.66-12.505,12.812-23.976,23.255-33.129c2.502-2.193,5.314-3.923,8.157-5.625c1.567-0.938,2.21-0.674,2.306,1.212
		c0.277,5.438,0.33,10.825-0.955,16.196c-2.226,9.307-6.188,17.627-12.792,24.667c-3.24,3.453-6.884,6.322-10.977,8.622
		C193.503,109.218,188.04,112.575,182.068,116.531z"/>
	<radialGradient id="SVGID_16_" cx="263.5" cy="278.5" r="290.1396" gradientUnits="userSpaceOnUse">
		<stop  offset="0.3387" style="stop-color:#FECD0E"/>
		<stop  offset="0.9409" style="stop-color:#FE5210"/>
	</radialGradient>
	<path fill-rule="evenodd" clip-rule="evenodd" fill="url(#SVGID_16_)" d="M229.048,97.949c13.7-16.249,28.665-29.491,47.848-37.325
		c2.808-1.146,5.719-1.921,8.6-2.815c2.024-0.628,2.394,0.167,2.005,1.922c-1.131,5.101-3.207,9.779-6.138,14.105
		c-8.76,12.931-21.34,19.083-36.506,20.753C239.736,95.155,234.765,96.539,229.048,97.949z"/>
	<radialGradient id="SVGID_17_" cx="263.5" cy="278.5" r="290.1396" gradientUnits="userSpaceOnUse">
		<stop  offset="0.3387" style="stop-color:#FECD0E"/>
		<stop  offset="0.9409" style="stop-color:#FE5210"/>
	</radialGradient>
	<path fill-rule="evenodd" clip-rule="evenodd" fill="url(#SVGID_17_)" d="M415.431,183.834c7.163,3.096,13.782,7.098,20.141,11.505
		c10.718,7.43,20.619,15.765,28.135,26.605c1.445,2.085,2.646,4.295,3.766,6.569c0.849,1.725,0.316,2.176-1.438,2.235
		c-10.044,0.334-18.917-3.116-27.083-8.561c-6.828-4.556-11.758-10.661-14.159-18.678c-1.913-6.385-5.234-12.114-8.664-17.778
		C415.812,185.208,415.066,184.81,415.431,183.834z"/>
	<radialGradient id="SVGID_18_" cx="263.5" cy="278.5" r="290.1396" gradientUnits="userSpaceOnUse">
		<stop  offset="0.3387" style="stop-color:#FECD0E"/>
		<stop  offset="0.9409" style="stop-color:#FE5210"/>
	</radialGradient>
	<path fill-rule="evenodd" clip-rule="evenodd" fill="url(#SVGID_18_)" d="M153.654,255.927c6.623,0.021,12.192,2.876,18.111,2.771
		c5.334-0.095,8.676,2.185,12.047,6.205c7.596,9.056,17.537,14.714,29.168,17.127c2.385,0.493,3.084,1.455,2.184,3.659
		c-0.257,0.627-0.443,1.286-0.7,1.916c-1.751,4.281-2.332,4.64-6.966,4.155c-16.504-1.725-30.629-8.497-42.369-20.181
		C160.632,267.104,157.062,261.905,153.654,255.927z"/>
	<radialGradient id="SVGID_19_" cx="263.5" cy="278.5" r="290.1396" gradientUnits="userSpaceOnUse">
		<stop  offset="0.3387" style="stop-color:#FECD0E"/>
		<stop  offset="0.9409" style="stop-color:#FE5210"/>
	</radialGradient>
	<path fill-rule="evenodd" clip-rule="evenodd" fill="url(#SVGID_19_)" d="M382.032,141.879c11.62,1.226,23.022,3.197,33.94,7.21
		c10.345,3.804,20.354,8.333,29.06,15.286c2.427,1.938,2.438,2.155-0.424,3.171c-13.582,4.822-26.761,4.088-39.364-3.174
		c-1.668-0.962-3.337-2.129-4.598-3.559C394.804,154.188,389.102,147.438,382.032,141.879z"/>
	<radialGradient id="SVGID_20_" cx="263.5" cy="278.5" r="290.1396" gradientUnits="userSpaceOnUse">
		<stop  offset="0.3387" style="stop-color:#FECD0E"/>
		<stop  offset="0.9409" style="stop-color:#FE5210"/>
	</radialGradient>
	<path fill-rule="evenodd" clip-rule="evenodd" fill="url(#SVGID_20_)" d="M335.003,109.967c6.812-1.228,13.637-2.121,20.509-2.249
		c6.28-0.118,12.541,0.258,18.832,0.751c9.588,0.751,18.837,2.383,27.845,5.596c1.14,0.406,2.939,0.538,3.08,1.811
		c0.138,1.236-1.536,1.858-2.566,2.493c-12.355,7.629-25.536,10.086-39.678,6.097c-2.452-0.691-4.599-2.048-6.73-3.438
		C349.596,116.666,342.362,113.331,335.003,109.967z"/>
	<radialGradient id="SVGID_21_" cx="263.5" cy="278.5" r="290.1396" gradientUnits="userSpaceOnUse">
		<stop  offset="0.3387" style="stop-color:#FECD0E"/>
		<stop  offset="0.9409" style="stop-color:#FE5210"/>
	</radialGradient>
	<path fill-rule="evenodd" clip-rule="evenodd" fill="url(#SVGID_21_)" d="M283.065,95.528c6.551-4.055,13.311-7.41,20.47-9.92
		c14.372-5.04,28.981-8.785,44.402-7.975c0.925,0.049,2.205-0.334,2.668,0.56c0.477,0.92-0.583,1.768-1.121,2.504
		c-7.952,10.881-18.956,16.548-32.028,18.696c-4.805,0.79-9.478,0.292-14.159-0.881C296.683,96.854,289.858,96.595,283.065,95.528z"
		/>
	<radialGradient id="SVGID_22_" cx="263.5" cy="278.5" r="290.1396" gradientUnits="userSpaceOnUse">
		<stop  offset="0.3387" style="stop-color:#FECD0E"/>
		<stop  offset="0.9409" style="stop-color:#FE5210"/>
	</radialGradient>
	<path fill-rule="evenodd" clip-rule="evenodd" fill="url(#SVGID_22_)" d="M453.441,305.693
		c-11.347-10.635-18.764-22.484-17.753-38.197c0.653-10.157,0.246-20.241-1.898-30.968c3.349,3.376,5.369,6.88,7.555,10.204
		c3.637,5.534,6.903,11.319,9.494,17.417c2.402,5.66,3.688,11.646,4.97,17.678C457.536,289.965,456.439,297.562,453.441,305.693z"/>
	<radialGradient id="SVGID_23_" cx="263.5" cy="278.5" r="290.1396" gradientUnits="userSpaceOnUse">
		<stop  offset="0.3387" style="stop-color:#FECD0E"/>
		<stop  offset="0.9409" style="stop-color:#FE5210"/>
	</radialGradient>
	<path fill-rule="evenodd" clip-rule="evenodd" fill="url(#SVGID_23_)" d="M135.385,253.437c4.753,0.452,8.914,1.638,13.201,1.634
		c1.723-0.001,1.995,1.348,2.58,2.384c10.314,18.284,25.821,29.795,45.954,35.271c3.292,0.896,6.639,1.497,10.04,1.853
		c0.723,0.074,2.207-0.573,2.141,1.144c-0.058,1.519-1.227,1.46-2.314,1.573c-10.881,1.115-21.335-0.433-31.443-4.673
		c-17.511-7.35-30.7-19.261-38.989-36.442C136.183,255.409,135.881,254.604,135.385,253.437z"/>
	<radialGradient id="SVGID_24_" cx="263.5" cy="278.5" r="290.1396" gradientUnits="userSpaceOnUse">
		<stop  offset="0.3387" style="stop-color:#FECD0E"/>
		<stop  offset="0.9409" style="stop-color:#FE5210"/>
	</radialGradient>
	<path fill-rule="evenodd" clip-rule="evenodd" fill="url(#SVGID_24_)" d="M359.54,254.01c-2.827,21.938-13.39,39.016-29.272,53.151
		c-0.638,0.568-1.157,1.287-2.253,0.852c-3.856-1.526-7.917-2.4-12.296-3.551c2.4-1.92,4.536-3.567,6.608-5.292
		c12.791-10.663,21.027-24.088,24.345-40.448c0.261-1.285,0.556-1.973,2.039-2.24C352.219,255.848,355.673,254.914,359.54,254.01z"
		/>
	<radialGradient id="SVGID_25_" cx="263.5" cy="278.5" r="290.1396" gradientUnits="userSpaceOnUse">
		<stop  offset="0.3387" style="stop-color:#FECD0E"/>
		<stop  offset="0.9409" style="stop-color:#FE5210"/>
	</radialGradient>
	<path fill-rule="evenodd" clip-rule="evenodd" fill="url(#SVGID_25_)" d="M300.74,302.222c6.477-4.359,12.084-8.667,17.104-13.716
		c7.539-7.587,13.42-16.17,16.305-26.577c0.526-1.904,1.362-2.998,3.43-3.188c1.536-0.141,3.043-0.63,4.556-0.989
		c3.146-0.746,3.385-0.535,2.628,2.676c-3.771,16.03-12.774,28.522-25.553,38.693c-4.426,3.525-8.715,5.453-14.279,3.628
		C303.85,302.394,302.634,302.444,300.74,302.222z"/>
	<radialGradient id="SVGID_26_" cx="263.5" cy="278.5" r="290.1396" gradientUnits="userSpaceOnUse">
		<stop  offset="0.3387" style="stop-color:#FECD0E"/>
		<stop  offset="0.9409" style="stop-color:#FE5210"/>
	</radialGradient>
	<path fill-rule="evenodd" clip-rule="evenodd" fill="url(#SVGID_26_)" d="M380.171,386.671c3.287-2.706,6.68-5.295,9.842-8.14
		c12.663-11.39,21.219-25.772,29.244-40.52c5.546-10.192,9.008-21.067,10.383-32.727c1.005,0.403,0.696,1.156,0.703,1.694
		c0.453,31.175-12.104,55.541-38.217,72.746c-3.854,2.539-7.49,5.501-12.013,6.896L380.171,386.671z"/>
	<radialGradient id="SVGID_27_" cx="263.5" cy="278.5" r="290.1396" gradientUnits="userSpaceOnUse">
		<stop  offset="0.3387" style="stop-color:#FECD0E"/>
		<stop  offset="0.9409" style="stop-color:#FE5210"/>
	</radialGradient>
	<path fill-rule="evenodd" clip-rule="evenodd" fill="url(#SVGID_27_)" d="M298.095,185.455c3.993,1.367,7.413,3.753,10.586,6.393
		c6.536,5.438,11.546,12.07,14.596,20.081c0.876,2.299,1.281,4.686,1.226,7.146c-0.01,0.47,0.065,1.043-0.55,1.188
		c-0.555,0.13-0.905-0.264-1.131-0.712c-1.218-2.432-2.539-4.82-3.605-7.318C314.586,201.398,307.036,192.923,298.095,185.455z"/>
	<radialGradient id="SVGID_28_" cx="263.5" cy="278.5" r="290.1396" gradientUnits="userSpaceOnUse">
		<stop  offset="0.3387" style="stop-color:#FECD0E"/>
		<stop  offset="0.9409" style="stop-color:#FE5210"/>
	</radialGradient>
	<path fill-rule="evenodd" clip-rule="evenodd" fill="url(#SVGID_28_)" d="M123.727,258.009c-4.734-1.792-8.779-3.322-12.823-4.853
		c2.251-0.554,4.48-0.403,6.591-1.126c1.048-0.358,1.651,0.369,2.212,1.037C120.957,254.555,122.162,256.078,123.727,258.009z"/>
	<radialGradient id="SVGID_29_" cx="263.5" cy="278.5" r="290.1396" gradientUnits="userSpaceOnUse">
		<stop  offset="0.3387" style="stop-color:#FECD0E"/>
		<stop  offset="0.9409" style="stop-color:#FE5210"/>
	</radialGradient>
	<path fill-rule="evenodd" clip-rule="evenodd" fill="url(#SVGID_29_)" d="M380.113,386.621c-0.082,0.174-0.165,0.345-0.246,0.518
		c-0.072-0.044-0.145-0.086-0.216-0.131c0.173-0.112,0.346-0.224,0.52-0.337L380.113,386.621z"/>
</g>
</svg>
