<svg version="1.1" id="Layer_1" xmlns="http://www.w3.org/2000/svg" xmlns:xlink="http://www.w3.org/1999/xlink" x="0px" y="0px"
	 width="500px" height="500px" viewBox="0 0 500 500" enable-background="new 0 0 500 500" xml:space="preserve">
<g>
	<path fill-rule="evenodd" clip-rule="evenodd" fill="#E8EAE4" d="M21.197,124.044c0-31.605,0-63.211,0-94.815
		c1.92,0.051,2.904-1.534,4.249-2.525c6.166-4.545,12.697-7.927,20.604-7.923c135.194,0.044,270.389,0.016,405.583,0.076
		c8.312,0.003,15.745,2.787,21.696,9.089c2.191,2.322,4.396,4.658,7.406,5.908c0,24.283,0,48.564,0,72.846
		c-6.919-1.82-14.314-0.057-21.065-4.174c-7.932-4.839-17.06-6.032-26.242-6.335c-2.367-0.079-4.885-2.089-7.076-0.611
		c-9.102,6.141-20.659,1.437-29.786,7.36c-1.28,0.83-2.912-0.465-4.335-0.495c-5.287-0.109-11.492-2.624-15.505,1.954
		c-4.165,4.749-8.817,4.811-14.017,4.623c-1.688-0.062-3.283,0.283-4.933,0.794c-8.149,2.523-16.375,4.618-25.026,3.825
		c-1.915-0.175-3.078-1.032-3.897-2.751c-0.687-1.442-0.697-2.534,0.848-3.327c4.142-2.124,1.61-3.295-0.477-5.016
		c-2.518-2.074-5.288-1.49-8.035-1.626l0,0c0.038-3.77-1.887-6.392-5.398-5.59c-3.9,0.891-8.991,0.341-10.692,5.88
		c-0.447,1.459-1.893,2.438-3.093,1.693c-4.94-3.061-7.719-0.53-10.644,3.399c-2.443,3.284-5.536,0.215-8.218-0.282
		c-2.896-0.536-1.104-2.496-0.891-4.333c0.437-3.774-1.822-3.169-4.294-2.023c-4.234,1.965-8.889,2.631-12.654-0.442
		c-3.291-2.687-6.647-3.73-10.675-4.19c-6.377-0.727-12.409,2.6-18.574,1.585c-4.029-0.664-9.458,2.11-11.936-3.915
		c-0.34-0.826-1.235-0.95-1.912-0.547c-0.996,0.593-1.025,1.631-0.333,2.443c0.969,1.136,1.706,2.234,0.183,3.344
		c-1.517,1.107-2.789,0.263-3.992-0.829c-1.362-1.235-2.528-3.542-4.561-2.845c-6.045,2.074-11.169-0.549-16.698-2.304
		c-3.101-0.984-3.843-2.13-3.726-5.029c0.058-1.43,2.142-3.667-0.672-4.263c-2.34-0.497-4.459,0.514-4.933,3.415
		c-0.375,2.293-2.201,4.139-3.808,3.004c-5.925-4.182-9.065,1.2-12.26,3.921c-3.603,3.066-5.748,3.86-9.212,0.061
		c-2.333-2.559-5.574-4.569-7.697,0.978c-0.61,1.596-2.536,3.293-4.483,2.896c-5.512-1.128-10.658,1.459-15.921,1.363
		c-5.312-0.096-7.167,2.541-8.594,7.008c-1.1,3.438-3.448,4.903-5.96,1.138c-2.183-3.271-5.22-3.177-8.439-3.271
		c-1.908-0.057-4.242,0.954-5.519-1.57c-2.245-4.434-4.138-3.747-5.984,0.333c-0.791,1.749-2.51,2.196-4.208,2.428
		c-1.39,0.191-2.42,0.754-3.132,2.078c-3.158,5.863-3.405,5.711-8.083,1.069c-1.815-1.8-1.586-4.054-2.253-6.502
		c-2.717,3.999-5.441,7.254-3.384,13.252c-3.395-3.218-5.658-5.771-8.673-2.609c-1.815,1.903-2.749,5.618-6.449,2.896
		c-2.374-1.747-5.865,0.287-7.855-2.31c-4.101-5.349-8.469-5.121-12.559-0.413c-3.246,3.737-9.396,2.069-11.673,7.075
		C29.248,123.49,25.695,124.678,21.197,124.044z"/>
	<path fill-rule="evenodd" clip-rule="evenodd" fill="#F4F1E7" d="M480.735,173.764c0,1.156,0,2.313,0,3.469
		c-1.659,1.524-1.076,3.565-1.103,5.42c-0.092,5.955-0.09,11.912-0.125,17.867c-2.231-0.073-4.462-0.224-6.692-0.208
		c-14.635,0.101-29.271,0.237-43.904,0.361c-5.675,0.048-9.309,3.505-8.602,9.308c1.305,10.721-1.006,21.352-0.189,32.025
		c-3.776-1.487-7.552-1.531-11.324,0.013c-0.733-0.586-1.525-1.112-2.192-1.772c-7.254-7.166-8.943-7.197-16.597-0.293
		c-0.799,0.721-1.569,1.994-2.81,1.216c-1.348-0.845-0.798-2.441-0.8-3.713c-0.034-20.227-0.244-40.459,0.135-60.678
		c0.092-4.853,0.784-8.487-3.485-12.591c-5.753-5.53-10.883-10.712-19.442-10.126c-4.661,0.318-9.358,0.14-14.037,0.034
		c-5.582-0.126-11.286-0.583-15.808,3.639c-5.03,4.696-10.659,8.689-10.464,17.283c0.442,19.447,0.144,38.911,0.137,58.366
		c-0.002,7.68-0.649,8.237-7.945,7.458c-1.606-0.171-2.818-0.439-3.464-2.24c-1.071-3-3.478-3.666-6.351-3.583
		c-3.363,0.096-6.735-0.046-10.104-0.086c-0.055-7.459-0.173-14.918-0.129-22.377c0.015-2.784-0.74-4.52-3.771-4.146
		c-4.382,0.54-5.594-1.868-5.271-5.82c0.2-2.467-0.166-4.67-2.989-5.317c-5.333-1.223-10.479-3.714-16.169-2.584
		c-0.171-7.726-2.75-10.438-10.001-10.48c-3.735-0.021-7.471-0.035-11.206-0.004c-6.319,0.051-12.679-0.556-18.855,1.563
		c-4.523,1.551-7.473,6.167-7.203,10.943c0.216,3.826-0.016,7.679-0.049,11.52c-4.447-0.59-5.692,1.458-5.641,5.941
		c0.207,18.106,0.06,36.217,0.042,54.327c-3.731,0.144-7.514-0.206-11.11,1.23c-1.359-2.272-1.058-4.807-1.107-7.296
		c-0.474-23.433,1.686-46.818,1.125-70.261c-0.339-14.221-0.03-28.458-0.013-42.687c9.423-0.226,11.146-1.869,13.739-12.186
		c0.608-2.422,2.534-3.326,4.792-1.664c1.727,1.271,3.543,1.502,5.252,0.381c6.917-4.538,13.699,1.588,20.581,0.245
		c0.386-0.076,1.136,1.322,1.572,2.119c1.43,2.612,8.667,5.809,11.208,4.607c4.129-1.95,8.627-2.642,12.623-5.393
		c3.931-2.706,8.627-5.236,14.014-3.22c1.125,0.422,2.991,0.429,3.814-0.26c3.537-2.954,7.108-1.428,10.631-0.439
		c3.966,1.113,7.719,1.898,12.011,1.015c3.888-0.801,8.017-0.507,12.082,1.223c5.496,2.342,10.865,1.56,16.564-1.196
		c4.517-2.183,8.047-6.702,13.111-7.011c4.687-0.285,6.446-2.534,7.666-6.697c1.594-5.443,5.728-7.965,11.165-7.282
		c3.5,0.439,6.95,1.297,10.448,1.761c8.179,1.083,15.741,4.933,23.833,5.942c5.467,0.681,10.122,2.344,14.272,5.812
		c1.449,1.21,2.887,1.333,4.677,1.16c4.963-0.48,9.584-0.652,13.569,3.994c3.111,3.625,9.05,6.056,12.614,3.324
		c6.288-4.816,11.392-3.003,17.042-0.144c2.98,1.509,5.675,1.876,7.989-1.127c1.756,1.707,1.073,3.931,1.088,5.946
		c0.066,9.143-0.011,18.286,0.058,27.428C479.653,169.836,478.964,172.063,480.735,173.764z"/>
	<path fill-rule="evenodd" clip-rule="evenodd" fill="#EEEEE5" d="M478.492,134.45c-2.314,3.003-5.009,2.636-7.989,1.127
		c-5.65-2.859-10.754-4.673-17.042,0.144c-3.564,2.732-9.503,0.302-12.614-3.324c-3.985-4.646-8.606-4.474-13.569-3.994
		c-1.79,0.173-3.228,0.051-4.677-1.16c-4.15-3.467-8.806-5.131-14.272-5.812c-8.092-1.01-15.654-4.859-23.833-5.942
		c-3.498-0.463-6.948-1.321-10.448-1.761c-5.438-0.683-9.571,1.838-11.165,7.282c-1.22,4.163-2.979,6.412-7.666,6.697
		c-5.064,0.309-8.595,4.828-13.111,7.011c-5.699,2.756-11.068,3.538-16.564,1.196c-4.065-1.73-8.194-2.024-12.082-1.223
		c-4.292,0.883-8.045,0.098-12.011-1.015c-3.522-0.989-7.094-2.515-10.631,0.439c-0.823,0.689-2.689,0.682-3.814,0.26
		c-5.387-2.017-10.083,0.514-14.014,3.22c-3.996,2.751-8.494,3.442-12.623,5.393c-2.541,1.202-9.778-1.996-11.208-4.607
		c-0.436-0.796-1.186-2.194-1.572-2.119c-6.881,1.343-13.664-4.783-20.581-0.245c-1.709,1.121-3.526,0.89-5.252-0.381
		c-2.258-1.662-4.184-0.759-4.792,1.664c-2.593,10.316-4.316,11.959-13.739,12.186c-0.337-3.604,1.709-8.691-4.994-8.302
		c-1.052,0.061-1.329-1.028-1.681-1.971c-2.355-6.3-8.109-10.143-14.733-10.574c-9.154-0.595-18.243,2.163-27.265,0.938
		c-5.667-0.769-10.421-0.056-15.052,3.04c-5.068,3.387-8.122,8.62-11.653,13.415c-5.259,3.007-11.417,2.584-16.836,2.777
		c-9.099,0.324-17.868,0.104-25.917,5.299c-1.81,1.169-4.174,2.482-5.531-0.911c-0.626-1.566-1.562-2.952-3.323-1.707
		c-1.401,0.993-3.348,1.542-3.113,4.226c0.835,9.557-5.43,17.401-6.365,26.584c-0.065,0.638-1.32,1.608-2.048,1.633
		c-2.736,0.093-2.908,2.574-4.113,4.133c-2.885,3.733,0.572,7.43-0.074,11.126c-7.107,0.229-12.75,3.208-16.28,9.669
		c-0.97,1.776-1.598,3.429-3.95,3.042c-0.207-1.584,0.623-3.719-1.579-4.358c-4.882-1.416-10.07-4.557-13.811,2.218
		c-0.717,1.299-2.079,2.152-3.707,2.159c0-27.366,0-54.73,0-82.096c0.567-0.298,1.535-0.505,1.624-0.913
		c0.262-1.207-0.826-1.221-1.624-1.4c0-1.156,0-2.313,0-3.468c4.498,0.633,8.051-0.555,10.131-5.133
		c2.276-5.006,8.427-3.338,11.673-7.075c4.089-4.708,8.458-4.936,12.559,0.413c1.99,2.597,5.481,0.563,7.855,2.31
		c3.701,2.723,4.634-0.993,6.449-2.896c3.015-3.162,5.278-0.609,8.673,2.609c-2.057-5.998,0.667-9.254,3.384-13.252
		c0.667,2.448,0.438,4.702,2.253,6.502c4.678,4.642,4.925,4.794,8.083-1.069c0.712-1.324,1.743-1.887,3.132-2.078
		c1.698-0.232,3.418-0.68,4.208-2.428c1.846-4.08,3.739-4.767,5.984-0.333c1.277,2.524,3.61,1.513,5.519,1.57
		c3.22,0.094,6.257,0,8.439,3.271c2.512,3.765,4.86,2.3,5.96-1.138c1.428-4.467,3.282-7.104,8.594-7.008
		c5.263,0.096,10.409-2.491,15.921-1.363c1.947,0.397,3.873-1.3,4.483-2.896c2.124-5.547,5.364-3.537,7.697-0.978
		c3.464,3.799,5.61,3.005,9.212-0.061c3.195-2.721,6.335-8.103,12.26-3.921c1.607,1.135,3.432-0.71,3.808-3.004
		c0.474-2.901,2.593-3.912,4.933-3.415c2.814,0.596,0.73,2.833,0.672,4.263c-0.117,2.899,0.625,4.045,3.726,5.029
		c5.529,1.755,10.653,4.378,16.698,2.304c2.032-0.697,3.198,1.609,4.561,2.845c1.203,1.092,2.475,1.936,3.992,0.829
		c1.523-1.11,0.786-2.208-0.183-3.344c-0.692-0.812-0.662-1.85,0.333-2.443c0.677-0.403,1.572-0.279,1.912,0.547
		c2.478,6.025,7.907,3.251,11.936,3.915c6.165,1.014,12.196-2.313,18.574-1.585c4.027,0.46,7.384,1.503,10.675,4.19
		c3.766,3.074,8.42,2.408,12.654,0.442c2.472-1.146,4.73-1.751,4.294,2.023c-0.213,1.837-2.005,3.797,0.891,4.333
		c2.682,0.497,5.774,3.566,8.218,0.282c2.925-3.929,5.703-6.459,10.644-3.399c1.2,0.745,2.646-0.234,3.093-1.693
		c1.701-5.54,6.792-4.989,10.692-5.88c3.512-0.802,5.437,1.82,5.398,5.59c-5.044,2.407-5.149,2.842-1.817,8.891
		c0.654-3.203,1.236-6.046,1.817-8.891c2.747,0.137,5.518-0.447,8.035,1.626c2.087,1.721,4.618,2.892,0.477,5.016
		c-1.545,0.793-1.534,1.885-0.848,3.327c0.819,1.719,1.982,2.576,3.897,2.751c8.651,0.793,16.877-1.302,25.026-3.825
		c1.649-0.511,3.245-0.856,4.933-0.794c5.199,0.188,9.852,0.126,14.017-4.623c4.013-4.577,10.218-2.063,15.505-1.954
		c1.423,0.029,3.055,1.325,4.335,0.495c9.127-5.923,20.685-1.219,29.786-7.36c2.191-1.478,4.709,0.532,7.076,0.611
		c9.183,0.304,18.311,1.496,26.242,6.335c6.751,4.117,14.146,2.354,21.065,4.174c0,5.397,0,10.792,0,16.188
		C478.459,126.427,480.393,130.833,478.492,134.45z M243.412,102.685c-0.122-0.691-0.33-1.386-1.216-1.462
		c-0.778-0.067-1.406,0.215-1.573,1.074c-0.223,1.134,0.365,1.769,1.396,1.806C242.792,104.13,243.289,103.574,243.412,102.685z"/>
	<path fill-rule="evenodd" clip-rule="evenodd" fill="#8FAAA4" d="M21.197,357.612c0-13.491,0-26.979,0-40.471
		c1.917,0.082,1.789,2.866,3.641,3.018c1.29-1.65,2.524-3.247,3.778-4.831c6.281-7.926,8.804-8.504,17.442-4.104
		c0.63,0.32,1.431,0.289,2.151,0.418c0.958,1.714,2.519,2.163,4.281,2.046c4.305-0.289,5.439,2.861,6.892,6.139
		c1.211,2.735-1.42,6.697,1.076,7.86c2.513,1.17,6.059-0.016,9.154-0.149c0.927-0.038,1.866,0.089,2.782-0.02
		c3.261-0.387,6.104,0.587,7.54,3.629c1.566,3.318-2.567,3.558-3.462,5.636c-0.147,0.341-0.196,0.729-0.289,1.098
		c-0.711,0.129-1.423,0.253-2.135,0.379c0.13,0.237,0.35,0.689,0.378,0.676c0.635-0.275,1.248-0.604,1.866-0.922
		c4.833,2.537,10.106,4.366,10.638,11.47c0.248,3.318,4.516,4.561,6.762,2.233c3.161-3.272,6.596-3.981,10.628-2.175
		c0.161,0.081,0.321,0.16,0.482,0.242c-0.147-0.096-0.294-0.19-0.441-0.285c0.138-1.657,0.961-2.631,2.575-1.98
		c1.59,0.639,2.669,0.327,4.069-0.68c6.193-4.452,12.828-4.192,17.445,1.443c1.302,1.59,4.726,3.482,3.446,5.908
		c-1.786,3.386-0.498,3.485,2.069,3.436c3.549-0.07,5.821,0.599,4.623,5.346c-0.528,2.094,1.564,4.466,3.868,3.04
		c4.731-2.929,7.566,1.082,11.142,2.441c7.195,2.733,12.116,11.136,21.305,9.039c0.657-0.15,1.552,0.893,2.359,1.34
		c2.972,1.646,4.765,4.533,6.664,7.277c2.92-2.236-0.96-4.944,1.508-7.472c0.616,3.336,2.885,3.921,5.488,4.757
		c4.282,1.373,2.866-4.64,6.233-4.226c1.75,5.612-5.445,6.653-5.823,11.555c4.071-0.354,7.592-1.543,10.684-3.663
		c4.305-2.957,8.211,3.193,12.482,0.388c0.204-0.133,1.126,1.46,0.86,2.462c-1.316,4.958,1.603,3.188,4.001,2.871
		c7.54-0.991,14.382,1.084,21.082,4.714c5.682,3.078,12.22,2.238,18.435,2.645c1.025,0.065,1.409-1.072,1.614-2.062
		c0.847-4.082,3.535-3.903,6.472-2.846c4.944,1.781,6.812,0.598,7.017-4.658c0.083-2.116,0.03-4.234,0.039-6.355
		c1.672-0.083,2.16,1.626,3.319,2.317c0.015,1.342-0.077,2.699,0.065,4.027c0.47,4.389,3.315,7.668,6.628,9.306
		c3.206,1.585,3.498-2.971,5.048-4.85c1.56-1.893,3.215-1.953,4.643-0.014c2.086,2.835,3.626,1.958,5.064-0.54
		c1.965-3.41,3.431-5.17,8.204-2.679c7.982,4.168,7.847,2.896,14.931-3.937c1.883-1.815,4.756-8.265,10.135-4.063
		c1.005,0.784,1.87-0.436,2.82-1.059c2.926-1.918,4.238-8.389,9.754-3.718c0.977,0.826,2.061-1.146,2.664-2.343
		c0.586-1.16,0.946-2.593,1.837-3.399c0.904-0.817,4.027,1.333,3.116-2.039c-0.754-2.78-3.245-3.713-5.868-3.031
		c-2.37,0.617-4.696,1.134-7.142,0.955c-0.051-1.321,0.02-2.681-1.501-3.319c-2.642-1.109-2.236-3.189-0.51-4.287
		c4.433-2.816,4.458-7.903,6.48-11.943c3.857-3.05,9.401-1.529,13.248-6.345c1.636-2.044,6.858-3.74,10.569-5.182
		c2.948-1.145,6.479-1.181,9.701-0.955c2.526,0.179,3.082,2.798,3.788,5.1c0.672,2.188,1.991,0.427,3.09,0.027
		c4.298-1.559,7.695-1.01,9.044,4.23c0.385,1.493,1.675,3.72,2.798,1.987c2.633-4.063,5.809-3.063,9.294-2.462
		c1.513,0.262,3.183-0.408,3.913-1.769c0.749-1.387-0.847-1.789-1.738-2.362c-5.084-3.298-5.026-7.804,0.213-10.968
		c1.021-0.617,1.646-1.347,2.23-2.395c5.254-9.418,14.033-11.494,22.838-5.463c1.409,0.964,2.125,2.019,3.631-0.556
		c2.269-3.89,5.491-7.239,8.579-10.553c2.389-2.562,4.501-4.768,9.128-2.871c2.715,1.111,5.923,3.246,9.072,2.686
		c2.027-0.358,4.204-3.981,4.634,1.134c0.234,2.813,5.012,1.392,4.007,5.087c-1.881,6.923,0.485,6.168,4.719,2.868
		c1.003-0.783,1.956-1.681,3.001-2.428c-0.003,13.461-0.003,26.923-0.005,40.387c-1.556-0.184-3.581,2.15-4.6-1.058
		c-0.376-1.179-1.568-1.075-2.221-0.176c-2.408,3.322-5.857,2.634-9.089,3.539c-5.456,1.527-4.888-1.452-5.203-4.189
		c-0.527-4.585-0.581-9.227-0.854-14.182c-3.559,1.556-3.893,3.765-3.157,7.101c1.061,4.809-1.104,6.979-5.672,6.491
		c-0.372,2.272,3.159,2.236,2.533,4.848c-3.503-0.378-6.276,2.106-9.642,2.739c-4.949,0.931-9.933,2.123-10.909,8.619
		c-0.069,0.458-1.248,1.111-1.856,1.053c-4.408-0.418-4.322,2.884-4.388,6.186c-3.791-4.788-6.78-10.326-12.55-11.272
		c-2.688-0.442-4.991-0.783-6.712-2.706c-2.649-2.961-5.109-2.428-7.835-0.31c-2.811,2.185-5.456,4.1-9.58,2.941
		c-2.172-0.612-5.438,0.298-7.244,1.771c-1.332,1.089,1.686,2.99,1.934,4.874c0.096,0.731,0.104,1.504-0.005,2.234
		c-0.441,2.896,0.871,3.3,3.265,2.719c1.98-0.479,4.077-0.458,6.055-0.946c3.322-0.817,4.84,2.428,4.139,3.727
		c-2.264,4.199-2.912,9.271-7.198,12.522c-4.708,3.57-10.081,2.593-15.071,3.938c-4.377,1.18-7.022,0.246-8.816-3.912
		c-0.413-0.955-0.688-2.268-2.553-2.387c-0.911,2.078-0.56,6.717-4.587,4.838c-3.441-1.606-4.968,1.118-7.362,1.872
		c-0.166,0.052-0.81-0.766-0.877-1.23c-0.72-5.019-4.251-5.173-8.001-4.982c-0.105-0.724-0.109-1.545-1.025-1.689
		c-0.177-0.027-0.628,0.434-0.602,0.616c0.14,0.944,0.942,0.944,1.641,1.06c1.089,3.649,2.431,5.213-3.861,5.949
		c-8,0.935-16.077,3.381-24.259,4.75c-4.632,0.776-9.235,1.992-13.968,2.498c-1.361,0.145-3.355,0.91-3.28,2.622
		c0.101,2.254,2.251,1.308,3.57,1.479c4.548,0.596,9.267-1.107,13.699,1.084c-1.385,1.951-3.417,1.129-5.188,1.199
		c-10.456,0.42-20.814-1.308-31.291-1.308c-17.752,0.002-35.54,1.233-53.271-0.723c-0.329-0.635-0.558-1.715-1.003-1.82
		c-1.275-0.299-1.229,0.996-1.515,1.824c-2.89,0.01-5.779,0.021-8.669,0.032c-3.499-5.43-7.039-0.879-10.563-0.046
		c-0.959,0.062-1.918,0.122-2.876,0.186c-0.399-6.713-6.813-6.796-10.59-9.26c-2.594-1.689-7.348-4.464-10.679,1.332
		c-1.135,1.972-4.676,0.081-6.259-1.895c-1.552-1.936-0.765-4.027,1.001-5.579c0.987-0.867,2.202-1.466,3.17-2.354
		c0.771-0.705,1.981-1.559,0.931-2.825c-0.725-0.875-1.904-0.533-2.5,0.178c-5.051,6.031-12.471,7.002-19.122,9.613l0.007,0.009
		c1.786-3.964,4.148-7.693,5.198-12.418c-3.958,0.872-4.757,4.32-6.494,6.575c-2.7,3.505-5.561,4.171-8.519,0.329
		c-2.736-3.555-7.488-3.286-10.222-6.676c-0.807-1.001-1.737,0.286-2.496,1.287c-2.611,3.442-5.633,5.667-10.285,3.539
		c-1.938-0.888-4.346-0.131-5.196,2.015c-1.873,4.721-4.983,2.842-7.242,1.245c-5.327-3.766-6.436-8.471-4.479-15.337
		c0.363-1.273,0.766-2.839-0.321-3.819c-1.166-1.05-1.828,0.852-2.827,0.992c-3.075,0.429-6.011,1.353-9.286,0.158
		c-4.457-1.627-9.217-2.675-11.296,3.849c-0.061,0.189-0.641,0.203-1.084,0.329c-1.323-1.929-2.358-6.73-4.837-0.72
		c-0.161,0.391-1.245,0.833-1.332,0.733c-1.789-2.071-5.406,0.179-5.987-1.33c-1.315-3.408-3.716-5.283-6.074-7.611
		c-1.122-1.109,0.837-2.061,2.301-1.674c1.28,0.337,2.92,1.03,3.093-0.936c0.149-1.703-1.538-2.669-3.045-2.751
		c-2.592-0.138-5.21,0.021-7.804,0.233c-1.096,0.088-2.341,0.79-2.581-0.94c-0.157-1.129,0.814-1.542,1.807-1.748
		c1.443-0.298,3.517-0.564,2.684-2.61c-0.62-1.522-2.633-0.874-4.077-0.538c-2.319,0.538-4.519,3.632-6.557,2.218
		c-2.225-1.547-0.417-5.048-1.07-7.6c-0.121-0.473-0.572-0.856-0.958-1.403c-2.283,1.934-2.975,4.425-3.501,7.074
		c-0.39,1.963-1.958,3.723-3.421,1.762c-3.865-5.174-7.509-1.85-11.261-0.313c-0.829,0.341-1.603,1.346-2.473,0.603
		c-0.981-0.835-0.892-2.227-0.274-3.183C29.662,354.507,23.532,357.926,21.197,357.612z M459.1,339.595
		c-0.13,0.303-0.422,0.671-0.338,0.891c0.081,0.217,0.539,0.284,0.831,0.417c0.13-0.302,0.422-0.67,0.341-0.885
		C459.85,339.799,459.394,339.729,459.1,339.595z"/>
	<path fill-rule="evenodd" clip-rule="evenodd" fill="#7F9790" d="M154.897,400.389c6.65-2.611,14.07-3.582,19.122-9.613
		c0.596-0.711,1.775-1.053,2.5-0.178c1.05,1.267-0.161,2.12-0.931,2.825c-0.968,0.888-2.183,1.486-3.17,2.354
		c-1.766,1.552-2.553,3.644-1.001,5.579c1.583,1.976,5.125,3.866,6.259,1.895c3.332-5.796,8.085-3.021,10.679-1.332
		c3.777,2.464,10.191,2.547,10.588,9.256c-1.921,1.052-4.013,0.68-6.035,0.697c-11.914,0.102-23.829,0.151-35.744,0.217
		c-30.691,0.065-61.383,0.134-92.074,0.201c-7.87,0.025-15.74,0.05-23.61,0.074c-6.761-0.135-13.523-0.271-20.284-0.406
		c0-18.116,0-36.23,0-54.345c2.335,0.313,8.465-3.105,3.794,4.119c-0.618,0.956-0.707,2.348,0.274,3.183
		c0.87,0.743,1.644-0.262,2.473-0.603c3.751-1.536,7.396-4.86,11.261,0.313c1.463,1.961,3.031,0.201,3.421-1.762
		c0.526-2.649,1.218-5.141,3.501-7.074c0.386,0.547,0.838,0.931,0.958,1.403c0.652,2.552-1.155,6.053,1.07,7.6
		c2.038,1.414,4.238-1.68,6.557-2.218c1.443-0.336,3.457-0.984,4.077,0.538c0.833,2.046-1.24,2.313-2.684,2.61
		c-0.993,0.206-1.964,0.619-1.807,1.748c0.24,1.73,1.484,1.028,2.581,0.94c2.594-0.213,5.212-0.371,7.804-0.233
		c1.507,0.082,3.194,1.048,3.045,2.751c-0.172,1.966-1.813,1.272-3.093,0.936c-1.464-0.387-3.423,0.564-2.301,1.674
		c2.358,2.328,4.759,4.203,6.074,7.611c0.582,1.509,4.199-0.741,5.987,1.33c0.087,0.1,1.17-0.343,1.332-0.733
		c2.479-6.011,3.514-1.209,4.837,0.72c0.443-0.126,1.023-0.14,1.084-0.329c2.08-6.523,6.84-5.476,11.296-3.849
		c3.275,1.194,6.211,0.271,9.286-0.158c1-0.141,1.662-2.042,2.827-0.992c1.087,0.98,0.684,2.546,0.321,3.819
		c-1.957,6.866-0.849,11.571,4.479,15.337c2.259,1.597,5.369,3.476,7.242-1.245c0.85-2.146,3.258-2.902,5.196-2.015
		c4.652,2.128,7.674-0.097,10.285-3.539c0.759-1.001,1.688-2.288,2.496-1.287c2.734,3.39,7.486,3.121,10.222,6.676
		c2.958,3.842,5.819,3.176,8.519-0.329c1.737-2.255,2.537-5.703,6.494-6.575c-1.049,4.725-3.412,8.454-5.198,12.418
		c-0.08,0.143-0.16,0.287-0.24,0.432C154.743,400.682,154.82,400.535,154.897,400.389z"/>
	<path fill-rule="evenodd" clip-rule="evenodd" fill="#B3C1BF" d="M86.353,477.816c-14.019,0.036-28.037,0.104-42.055,0.095
		c-9.165-0.004-16.146-5.224-23.102-10.453c0-18.5,0-37,0-55.501c6.761,0.136,13.523,0.271,20.283,0.402
		c-0.711,2.882,3.183,3.871,2.874,5.707c-0.93,5.512,2.597,4.181,5.32,4.292c1.309,0.054,2.623-0.01,3.932,0.045
		c1.544,0.065,3.297,0.42,3.91,1.827c0.866,1.985-1.194,2.414-2.373,3.217c-1.042,0.709-2.666,1.138-2.054,2.908
		c0.57,1.649,2.171,1.101,3.412,1.256c1.848,0.233,3.946-0.594,6.673,1.887c-5.393,0.65-9.482,0.637-13.63-0.581
		c-1.135-0.332-2.918-0.506-3.178,1.347c-0.281,2.005,1.468,2.041,2.691,1.91c3.89-0.415,7.684,1.231,11.65,0.184
		c2.956-0.782,5.464-0.104,5.862,3.968c0.373,3.809-1.183,5.545-4.632,6.376c-9.271,2.229-13.242,7.772-11.317,17.092
		c0.911,4.406,1.329,10.134,8.952,9.289c2.835-0.313,5.211-2.732,7.795-1.786c4.431,1.622,6.989,0.601,7.296-4.574
		c2.107,1.123,1.15,2.817,1.774,3.862c1.302,2.183,2.77,5.333,5.68,3.829C86.699,472.041,86.307,474.91,86.353,477.816z"/>
	<path fill-rule="evenodd" clip-rule="evenodd" fill="#D9DDD6" d="M48.211,311.645c-0.722-0.131-1.522-0.1-2.153-0.42
		c-8.638-4.4-11.162-3.822-17.442,4.104c-1.254,1.584-2.488,3.181-3.778,4.831c-1.852-0.151-1.724-2.936-3.641-3.018
		c0-18.887,0-37.772,0-56.658c3.408-4.065,7.972-1.82,12.021-2.239c2.467-0.255,5.038,0.175,4.968-3.583
		c4.373-0.801,7.755,0.651,10.008,4.67c-0.034,1.918-0.068,3.838-0.101,5.758c-1.324,0.149-2.692,0.54-2.847,2.058
		c-0.199,1.943,1.329,2.376,2.839,2.61C48.126,283.72,48.169,297.682,48.211,311.645z"/>
	<path fill-rule="evenodd" clip-rule="evenodd" fill="#F4F1E7" d="M38.187,254.66c0.069,3.759-2.502,3.329-4.969,3.584
		c-4.049,0.419-8.613-1.826-12.021,2.239c0-16.188,0-32.375,0-48.563c1.628-0.007,2.989-0.86,3.707-2.159
		c3.74-6.775,8.929-3.634,13.811-2.218c2.202,0.639,1.373,2.774,1.579,4.358c-2.976,0.651-2.185,3.127-2.188,5.065
		C38.088,229.531,38.15,242.096,38.187,254.66z"/>
	<path fill-rule="evenodd" clip-rule="evenodd" fill="#E8EAE4" d="M21.197,127.512c0.798,0.18,1.885,0.193,1.624,1.4
		c-0.089,0.408-1.057,0.615-1.624,0.913C21.197,129.054,21.197,128.284,21.197,127.512z"/>
	<path fill-rule="evenodd" clip-rule="evenodd" fill="#B3C1BF" d="M479.508,200.521c-0.013,39.299-0.028,78.596-0.041,117.896
		c-1.045,0.747-1.998,1.645-3.001,2.428c-4.233,3.3-6.6,4.055-4.719-2.868c1.005-3.695-3.772-2.274-4.007-5.087
		c-0.43-5.115-2.606-1.492-4.634-1.134c-3.149,0.561-6.357-1.574-9.072-2.686c-4.627-1.896-6.739,0.31-9.128,2.871
		c-3.088,3.313-6.311,6.663-8.579,10.553c-1.506,2.574-2.222,1.52-3.631,0.556c-8.805-6.031-17.584-3.955-22.838,5.463
		c-0.584,1.048-1.21,1.777-2.23,2.395c-5.239,3.164-5.297,7.67-0.213,10.968c0.892,0.573,2.487,0.976,1.738,2.362
		c-0.73,1.36-2.4,2.03-3.913,1.769c-3.485-0.601-6.661-1.602-9.294,2.462c-1.123,1.732-2.413-0.494-2.798-1.987
		c-1.349-5.24-4.746-5.789-9.044-4.23c-1.099,0.399-2.418,2.161-3.09-0.027c-0.706-2.302-1.262-4.921-3.788-5.1
		c-3.222-0.226-6.753-0.189-9.701,0.955c-3.711,1.441-8.934,3.138-10.569,5.182c-3.847,4.815-9.391,3.295-13.248,6.345
		c-0.356-2.675,0.346-4.893,2.406-6.697c3.188-2.792,2.157-6.06-0.614-7.654c-3.159-1.818-4.191-4.016-4.142-7.353
		c0.018-1.186-0.256-2.466-1.798-2.306c-1.369,0.143-1.088,1.242-0.84,2.193c0.489,1.875,0.454,3.844-1.881,3.801
		c-2.245-0.043-1.994-2.299-2.18-4.007c-0.463-4.264-0.346-8.354-4.815-11.367c-3.608-2.431-2.537-6.044,1.374-7.203
		c0.949-0.28,1.959-0.477,1.969-1.619c0.013-1.538-1.229-1.669-2.379-1.777c-2.945-0.282-5.135,0.745-6.188,3.751
		c-0.329,0.939-0.712,1.823-1.894,1.715c-0.958-0.088-1.278-0.813-1.042-1.624c0.62-2.128-0.079-3.427-2.179-3.745
		c-2.154-0.325-4.213-0.155-4.979,2.494c-0.719,2.486-2.16,1.375-3.51,0.819c0.647-10.378-0.573-20.698-1.117-31.028
		c-0.262-4.967,1.545-6.422,6.091-6.041c4.084,0.343,8.217,0.103,12.327,0.042c1.422-0.021,3.557,0.441,3.772-1.521
		c0.889-8.08,6.332-5.231,10.547-4.671c3.745,0.498,7.461,0.036,11.148,0.315c5.46,0.413,12.271-3.395,15.607,4.796
		c0.521,1.275,2.288,1.079,3.599,1.073c5.417-0.021,10.873,0.321,16.236-0.242c3.068-0.322,3.913,0.183,3.979,3.317
		c0.118,5.734,0.642,11.462,0.978,17.192c0.101,1.723-0.126,3.792,2.247,3.896c2.133,0.093,5.411,1.373,6.187-0.964
		c2.286-6.898,7.744-5.598,12.457-5.653c3.938-0.048,5.158-1.371,5.099-5.37c-0.19-12.497-0.049-24.997-0.035-37.498
		c-0.007-1.554-0.013-3.108-0.019-4.661c-0.816-10.673,1.494-21.304,0.189-32.025c-0.707-5.803,2.927-9.26,8.602-9.308
		c14.634-0.124,29.27-0.261,43.904-0.361C475.046,200.297,477.276,200.447,479.508,200.521z"/>
	<path fill-rule="evenodd" clip-rule="evenodd" fill="#D0D7D0" d="M127.843,146.03c3.531-4.795,6.585-10.028,11.653-13.415
		c4.631-3.096,9.385-3.809,15.052-3.04c9.022,1.225,18.111-1.533,27.265-0.938c6.624,0.431,12.378,4.273,14.733,10.574
		c0.353,0.943,0.629,2.032,1.681,1.971c6.703-0.39,4.657,4.698,4.994,8.302c-0.018,14.229-0.327,28.466,0.013,42.687
		c0.561,23.443-1.599,46.828-1.125,70.261c0.05,2.489-0.252,5.023,1.107,7.296c0.45,2.279-1.268,5.269,1.523,6.739
		c2.581,1.358,4.357,2.587,3.273,6.063c-0.527,1.69,0.831,2.404,2.391,1.817c1.363-0.513,2.641-1.27,3.957-1.918
		c-0.003,1.56-0.005,3.12-0.007,4.682c-3.346-0.027-5.074,1.211-3.719,4.948c0.855,2.363-0.457,3.576-2.317,4.506
		c-1.66,0.829-3.155,1.342-4.092-1.025c-0.67-1.691-2.048-1.726-3.196-0.763c-2.226,1.867-3.069,0.811-3.969-1.403
		c-0.666-1.64-2.301-1.929-3.848-1.354c-1.012,0.375-1.434,1.518-0.704,2.333c2.389,2.66,0.167,2.973-1.583,3.682
		c-2.058,0.831-2.892,0.179-3.563-2.04c-0.901-2.979-2.538-5.409-6.053-2.555c-1.673,1.36-3.584,2.42-5.661,1.164
		c-2.296-1.387-1.62-3.551-0.956-5.638c0.938-2.952-1.512-3.03-3.121-3.648c-1.867-0.716-3.894-1.077-4.255,1.806
		c-0.56,4.44-3.49,6.07-7.229,6.76c-1.73,0.318-2.993,0.858-4.04,2.572c-2.066,3.377-3.759,3.492-5.852-0.553
		c-1.819-3.518-4.42-6.941-8.839-7.702c-2.133-5.403-0.919-11.053-1.003-16.576c-0.198-12.979-0.061-12.981-12.548-13.66
		c0.033-2.247,0.066-4.494,0.099-6.74C127.884,216.158,127.864,181.094,127.843,146.03z M153.313,290.85
		c-0.116-0.306-0.161-0.775-0.367-0.87c-0.206-0.093-0.574,0.19-0.871,0.308c0.116,0.305,0.16,0.772,0.367,0.869
		C152.646,291.251,153.015,290.969,153.313,290.85z"/>
	<path fill-rule="evenodd" clip-rule="evenodd" fill="#D9DDD6" d="M420.139,246.667c-0.014,12.5-0.155,25,0.035,37.498
		c0.06,3.999-1.161,5.322-5.099,5.37c-4.713,0.056-10.171-1.245-12.457,5.653c-0.775,2.337-4.054,1.057-6.187,0.964
		c-2.373-0.104-2.146-2.173-2.247-3.896c-0.336-5.73-0.859-11.458-0.978-17.192c-0.066-3.135-0.911-3.64-3.979-3.317
		c-5.363,0.563-10.819,0.221-16.236,0.242c-1.311,0.006-3.078,0.202-3.599-1.073c-3.337-8.19-10.147-4.383-15.607-4.796
		c-3.688-0.279-7.403,0.183-11.148-0.315c-4.215-0.561-9.658-3.409-10.547,4.671c-0.216,1.963-2.351,1.5-3.772,1.521
		c-4.11,0.061-8.243,0.301-12.327-0.042c-4.546-0.381-6.353,1.074-6.091,6.041c0.544,10.33,1.765,20.65,1.117,31.028
		c-5.216-0.002-10.432-0.007-15.646-0.011c0.065-24.693,0.133-49.387,0.199-74.082c3.368,0.04,6.74,0.182,10.104,0.086
		c2.873-0.083,5.279,0.584,6.351,3.583c0.646,1.801,1.857,2.069,3.464,2.24c7.296,0.779,7.943,0.222,7.945-7.458
		c0.007-19.456,0.306-38.919-0.137-58.366c-0.195-8.594,5.434-12.587,10.464-17.283c4.521-4.222,10.226-3.765,15.808-3.639
		c4.679,0.106,9.376,0.285,14.037-0.034c8.56-0.586,13.689,4.596,19.442,10.126c4.27,4.104,3.577,7.738,3.485,12.591
		c-0.379,20.219-0.169,40.451-0.135,60.678c0.002,1.271-0.548,2.868,0.8,3.713c1.24,0.778,2.011-0.495,2.81-1.216
		c7.653-6.904,9.343-6.872,16.597,0.293c0.667,0.66,1.459,1.186,2.192,1.772c0.278,2.654,1.943,3.593,4.268,3.388
		C415.556,245.187,417.801,246.132,420.139,246.667z"/>
	<path fill-rule="evenodd" clip-rule="evenodd" fill="#B3C1BF" d="M295.569,234.932c-0.066,24.695-0.134,49.389-0.199,74.084
		c-0.211,1.49-0.621,2.985-0.599,4.475c0.133,8.49,0.039,17.005,0.736,25.452c0.268,3.228-3.039,5.479-1.399,8.63
		c0.794,1.527,2.216,3.359-0.522,3.892c-1.89,0.371-3.604-0.937-3.793-3.302c-0.107-1.34-0.036-2.692-0.062-4.038
		c-0.074-3.974,1.444-8.812-5.106-9.123c-0.784-0.038-2.193-2.082-2.099-3.078c0.531-5.694-1.9-11.35-0.116-17.015
		c0.568-1.807,1.001-3.578-0.185-5.273c-1.883,0.556-2.127,1.958-2.52,3.182c-0.363,1.125-0.691,2.479-1.927,2.56
		c-1.836,0.122-1.571-1.825-2.06-2.935c-0.373-0.847-0.426-1.852-0.576-2.794c-0.226-1.413,0.394-3.771-1.652-3.627
		c-2.549,0.179-1.231,2.441-1.29,4.057c-0.136,3.79,2.655,10.195-5.708,7.623c-0.431-0.134-1.329,0.607-1.71,1.158
		c-3.331,4.834-6.797,2.277-10.376,0.802c1.589-3.107,5.145,1.209,5.792-1.915c0.717-3.463,1.305-7.446-0.513-10.713
		c-1.399-2.512-4.434-1.289-6.777-1.428c-5.329-0.313-3.051,4.694-4.517,7.083c-0.926,1.51,0.753,4.495-1.505,5.06
		c-2.909,0.728-1.875-3.212-3.561-4.244c-0.298-0.183-0.661-0.255-0.999-0.372c-2.192,4.695-8.303,1.838-10.938,5.936
		c-0.217,0.337-1.663-1.389-1.875-2.467c-0.332-1.673-0.265-3.426-0.47-5.131c-0.231-1.925,0.735-5.268-2.048-4.989
		c-2.478,0.25-0.91,3.51-1.207,5.423c-0.028,0.181,0.041,0.382,0.083,0.568c0.89,3.881,1.207,10.09-2.594,9.658
		c-7.336-0.833-1.786,8.394-7.117,7.704c-0.552-0.069-1.121,0.007-1.682,0.014c-0.042-14.245-0.084-28.49-0.126-42.735
		c0.003-1.562,0.005-3.122,0.009-4.682c-0.011-4.644-0.023-9.289-0.035-13.933c0.017-18.109,0.165-36.22-0.042-54.327
		c-0.052-4.483,1.193-6.532,5.643-5.939c3.112-1.211,2.89-4.967,5.228-7.02c4.942-4.34,10.285-5.746,16.727-5.697
		c8.437,0.063,16.978,1.459,25.358-0.827c5.69-1.13,10.836,1.361,16.169,2.584c2.823,0.647,3.189,2.85,2.989,5.317
		c-0.322,3.953,0.89,6.36,5.271,5.82c3.031-0.374,3.786,1.362,3.771,4.146C295.396,220.014,295.515,227.473,295.569,234.932z"/>
	<path fill-rule="evenodd" clip-rule="evenodd" fill="#D9DDD6" d="M267.239,194.688c-8.38,2.286-16.921,0.89-25.358,0.827
		c-6.442-0.048-11.784,1.357-16.727,5.697c-2.337,2.053-2.116,5.809-5.228,7.02c0.032-3.843,0.264-7.696,0.047-11.522
		c-0.27-4.776,2.68-9.392,7.203-10.943c6.176-2.119,12.536-1.512,18.855-1.563c3.735-0.031,7.47-0.017,11.206,0.004
		C264.489,184.249,267.068,186.962,267.239,194.688z"/>
	<path fill-rule="evenodd" clip-rule="evenodd" fill="#D9DDD6" d="M214.327,268.497c0.012,4.644,0.024,9.289,0.035,13.933
		c-1.317,0.648-2.595,1.405-3.958,1.918c-1.561,0.587-2.918-0.127-2.391-1.817c1.084-3.477-0.692-4.705-3.273-6.063
		c-2.792-1.471-1.073-4.46-1.523-6.739C206.813,268.291,210.596,268.641,214.327,268.497z"/>
	<path fill-rule="evenodd" clip-rule="evenodd" fill="#E8EAE4" d="M420.139,246.667c-2.338-0.535-4.583-1.48-7.075-1.26
		c-2.324,0.206-3.989-0.734-4.268-3.388c3.772-1.544,7.548-1.5,11.324-0.013C420.126,243.56,420.132,245.114,420.139,246.667z"/>
	<path fill-rule="evenodd" clip-rule="evenodd" fill="#F4F1E7" d="M127.843,146.03c0.021,35.064,0.042,70.128,0.063,105.194
		c-4.491,0.009-8.982,0.016-13.475,0.024c-0.727-0.475-1.454-0.951-2.18-1.426c0.363-7.712-5.28-4.985-9.048-5.516
		c-0.004-7.311,0.259-14.638-0.117-21.929c-0.211-4.106,2.831-10.105-4.694-11.189c-0.353-0.051-0.798-1.313-0.764-1.986
		c0.145-2.875-2.127-3.694-3.728-5.255c-4.256-4.151-9.209-5.135-14.871-4.811c-6.151,0.353-12.336,0.063-18.506,0.054
		c0.646-3.696-2.812-7.393,0.074-11.126c1.206-1.56,1.377-4.041,4.113-4.133c0.728-0.025,1.983-0.995,2.048-1.633
		c0.935-9.183,7.2-17.027,6.365-26.584c-0.234-2.685,1.712-3.233,3.113-4.226c1.761-1.246,2.697,0.14,3.323,1.707
		c1.356,3.394,3.721,2.08,5.531,0.911c8.049-5.195,16.817-4.975,25.917-5.299C116.426,148.614,122.584,149.037,127.843,146.03z
		 M67.301,193.838c-0.511-0.397-0.883-0.687-1.255-0.977c-0.271,0.408-0.772,0.83-0.748,1.217c0.023,0.366,0.598,0.697,0.929,1.042
		C66.538,194.75,66.848,194.379,67.301,193.838z"/>
	<path fill-rule="evenodd" clip-rule="evenodd" fill="#D0D7D0" d="M60.523,199.19c6.17,0.009,12.355,0.298,18.506-0.054
		c5.661-0.324,10.614,0.66,14.871,4.811c1.601,1.561,3.873,2.38,3.728,5.255c-0.034,0.674,0.411,1.936,0.764,1.986
		c7.525,1.084,4.483,7.083,4.694,11.189c0.376,7.291,0.113,14.618,0.117,21.929c0.028,1.892,0.057,3.783,0.085,5.675
		c-8.403,0.039-16.805,0.081-25.208,0.112c-2.312,0.008-5.125,0.006-5.001,3.124c0.22,5.54-3.187,4.786-6.604,4.99
		c-6.093,0.363-12.314-1.313-18.282,1.124c-2.252-4.019-5.635-5.471-10.008-4.67c-0.035-12.565-0.097-25.13-0.08-37.694
		c0.003-1.938-0.789-4.414,2.188-5.065c2.352,0.386,2.979-1.266,3.95-3.042C47.772,202.397,53.416,199.419,60.523,199.19z"/>
	<path fill-rule="evenodd" clip-rule="evenodd" fill="#E8EAE4" d="M321.188,100.918c-0.581,2.845-1.163,5.688-1.817,8.891
		C316.039,103.76,316.145,103.325,321.188,100.918L321.188,100.918z"/>
	<path fill-rule="evenodd" clip-rule="evenodd" fill="#E8EAE4" d="M243.412,102.685c-0.123,0.89-0.619,1.445-1.393,1.417
		c-1.031-0.037-1.619-0.672-1.396-1.806c0.167-0.858,0.795-1.141,1.573-1.074C243.082,101.299,243.29,101.993,243.412,102.685z"/>
	<path fill-rule="evenodd" clip-rule="evenodd" fill="#B3C1BF" d="M48.193,259.331c5.968-2.438,12.188-0.761,18.282-1.124
		c3.417-0.204,6.824,0.55,6.604-4.99c-0.124-3.118,2.689-3.116,5.001-3.124c8.402-0.031,16.805-0.073,25.207-0.11
		c2.987-0.053,5.976-0.106,8.964-0.161c0.727,0.475,1.454,0.952,2.181,1.426c-0.838,5.483,1.937,7.156,6.72,6.844
		c2.212-0.146,4.436-0.092,6.655-0.128c12.488,0.679,12.35,0.682,12.548,13.66c0.084,5.523-1.13,11.173,1.003,16.576
		c-0.986,4.504-1.115,9.063-1.088,13.662c0.06,10.15-0.103,20.301,0.002,30.451c0.118,11.515-1.814,10.295,10.104,10.168
		c5.631,2.236,11.262,1.739,16.955,0.188c1.383-0.377,2.942-0.074,4.42-0.083c5.933,0.056,12.471-1.433,15.125,6.694
		c0.234,0.718,1.868,0.951,2.851,1.407c-0.417,3.144,0.702,6.062,1.337,9.036c0.282,1.317,1.548,3.022,2.673,1.502
		c2.267-3.063,3.96-1.931,6.497-0.47c2.699,1.555,5.521,1.369,7.817-1.664c2.563-3.384,5.905-3.566,9.434-1.328
		c1.097,0.695,2.484,1.913,3.447,1.669c6.428-1.624,10.386,3.79,15.622,5.412c4.289,1.33-0.33,7.144,4.214,8.029
		c-0.533,0.485-0.996,1.129-1.615,1.423c-1.087,0.517-2.271,0.819-3.629,1.285c2.566,2.223,5.008,1.703,7.622,0.931
		c3.072-0.908,5.941-0.92,7.172,3.119c0.892,2.925,3.316,2.997,4.689,1.118c2.483-3.402,4.412-1.044,5.935,0.345
		c3.905,3.564,7.814,6.049,13.079,3.124c-0.009,2.121,0.044,4.239-0.039,6.355c-0.205,5.256-2.072,6.439-7.017,4.658
		c-2.937-1.058-5.625-1.236-6.472,2.846c-0.205,0.989-0.589,2.127-1.614,2.062c-6.215-0.406-12.753,0.434-18.435-2.645
		c-6.7-3.63-13.542-5.705-21.082-4.714c-2.398,0.316-5.317,2.087-4.001-2.871c0.266-1.002-0.657-2.595-0.86-2.462
		c-4.271,2.806-8.177-3.345-12.482-0.388c-3.092,2.12-6.613,3.309-10.684,3.663c0.377-4.901,7.573-5.942,5.823-11.555
		c-3.367-0.414-1.951,5.599-6.233,4.226c-2.603-0.836-4.872-1.421-5.488-4.757c-2.468,2.527,1.412,5.235-1.508,7.472
		c-1.899-2.744-3.692-5.631-6.664-7.277c-0.807-0.447-1.702-1.49-2.359-1.34c-9.189,2.097-14.11-6.306-21.305-9.039
		c-3.576-1.359-6.411-5.37-11.142-2.441c-2.304,1.426-4.396-0.946-3.868-3.04c1.198-4.747-1.073-5.416-4.623-5.346
		c-2.566,0.05-3.855-0.05-2.069-3.436c1.28-2.426-2.144-4.318-3.446-5.908c-4.617-5.636-11.252-5.896-17.445-1.443
		c-1.399,1.007-2.479,1.318-4.069,0.68c-1.614-0.65-2.437,0.323-2.575,1.98l-0.042,0.045c-4.032-1.809-7.467-1.1-10.628,2.173
		c-2.247,2.327-6.514,1.085-6.762-2.233c-0.532-7.104-5.806-8.933-10.638-11.47l-0.11-0.133c0.094-0.368,0.142-0.757,0.29-1.098
		c0.895-2.078,5.028-2.317,3.462-5.636c-1.436-3.042-4.279-4.016-7.54-3.629c-0.916,0.108-1.855-0.019-2.782,0.02
		c-3.095,0.134-6.641,1.319-9.154,0.149c-2.497-1.163,0.135-5.125-1.076-7.86c-1.453-3.277-2.586-6.428-6.892-6.139
		c-1.762,0.117-3.323-0.332-4.281-2.046c-0.041-13.961-0.083-27.923-0.125-41.886c0.002-1.556,0.004-3.111,0.006-4.668
		C48.125,263.169,48.159,261.249,48.193,259.331z M198.052,376.429c0.302,0.134,0.673,0.442,0.886,0.353
		c0.22-0.093,0.287-0.571,0.42-0.883c-0.3-0.134-0.673-0.445-0.88-0.355C198.255,375.641,198.187,376.115,198.052,376.429z"/>
	<path fill-rule="evenodd" clip-rule="evenodd" fill="#BEC9C5" d="M274.02,384.219c-5.265,2.925-9.174,0.44-13.079-3.124
		c-1.522-1.389-3.451-3.747-5.935-0.345c-1.373,1.879-3.798,1.807-4.689-1.118c-1.231-4.039-4.1-4.027-7.172-3.119
		c-2.614,0.772-5.056,1.292-7.622-0.931c1.358-0.466,2.542-0.769,3.629-1.285c0.62-0.294,1.082-0.938,1.615-1.423
		c-4.544-0.886,0.074-6.699-4.214-8.029c-5.235-1.622-9.193-7.036-15.622-5.412c-0.963,0.244-2.35-0.974-3.447-1.669
		c-3.528-2.238-6.87-2.056-9.434,1.328c-2.296,3.033-5.118,3.219-7.817,1.664c-2.537-1.461-4.23-2.593-6.497,0.47
		c-1.125,1.521-2.391-0.185-2.673-1.502c-0.636-2.975-1.755-5.893-1.337-9.036c3.542-3.781,9.364-3.678,12.504-8.924
		c1.951-3.262,7.284-1.15,11.093-1.502c0.369-0.387,0.739-0.771,1.108-1.154c0.016-3.088,0.032-6.173,0.048-9.261
		c0.561-0.007,1.129-0.083,1.681-0.014c5.331,0.689-0.219-8.537,7.117-7.704c3.801,0.432,3.483-5.777,2.594-9.658
		c-0.043-0.187-0.111-0.388-0.083-0.568c0.297-1.913-1.271-5.173,1.207-5.423c2.784-0.278,1.817,3.064,2.048,4.989
		c0.205,1.705,0.138,3.458,0.47,5.131c0.212,1.078,1.659,2.804,1.875,2.467c2.635-4.098,8.746-1.24,10.938-5.936
		c0.337,0.117,0.7,0.189,0.999,0.372c1.687,1.032,0.652,4.972,3.561,4.244c2.258-0.564,0.58-3.55,1.505-5.06
		c1.466-2.389-0.813-7.396,4.517-7.083c2.344,0.139,5.378-1.084,6.777,1.428c1.817,3.267,1.229,7.25,0.513,10.713
		c-0.647,3.124-4.203-1.192-5.792,1.915c3.579,1.476,7.045,4.032,10.376-0.802c0.381-0.551,1.279-1.292,1.71-1.158
		c8.363,2.572,5.572-3.833,5.708-7.623c0.059-1.615-1.259-3.878,1.29-4.057c2.046-0.145,1.427,2.214,1.652,3.627
		c0.15,0.942,0.203,1.947,0.576,2.794c0.488,1.109,0.224,3.057,2.06,2.935c1.235-0.081,1.563-1.435,1.927-2.56
		c0.393-1.224,0.637-2.626,2.52-3.182c1.186,1.695,0.753,3.467,0.185,5.273c-1.784,5.665,0.647,11.32,0.116,17.015
		c-0.095,0.996,1.314,3.04,2.099,3.078c6.551,0.312,5.032,5.149,5.106,9.123c0.025,1.346-0.046,2.698,0.062,4.038
		c0.188,2.365,1.903,3.673,3.793,3.302c2.738-0.532,1.316-2.364,0.522-3.892c-1.64-3.15,1.667-5.402,1.399-8.63
		c-0.697-8.447-0.604-16.962-0.736-25.452c-0.022-1.489,0.388-2.984,0.599-4.475c5.215,0.002,10.431,0.007,15.646,0.009
		c1.35,0.556,2.791,1.667,3.51-0.819c0.767-2.649,2.825-2.819,4.979-2.494c2.1,0.318,2.799,1.617,2.179,3.745
		c-0.236,0.811,0.084,1.536,1.042,1.624c1.182,0.108,1.564-0.775,1.894-1.715c1.054-3.006,3.243-4.033,6.188-3.751
		c1.15,0.108,2.392,0.239,2.379,1.777c-0.01,1.143-1.02,1.339-1.969,1.619c-3.911,1.159-4.982,4.772-1.374,7.203
		c4.47,3.013,4.353,7.104,4.815,11.367c0.186,1.708-0.065,3.964,2.18,4.007c2.335,0.043,2.37-1.926,1.881-3.801
		c-0.248-0.951-0.529-2.051,0.84-2.193c1.542-0.16,1.815,1.12,1.798,2.306c-0.05,3.337,0.982,5.534,4.142,7.353
		c2.771,1.595,3.803,4.862,0.614,7.654c-2.061,1.805-2.763,4.022-2.406,6.697c-2.022,4.04-2.048,9.127-6.48,11.943
		c-1.727,1.098-2.132,3.178,0.51,4.287c1.521,0.639,1.45,1.998,1.499,3.322c-2.862,0.556-5.885,2.412-8.577,0.108
		c-5.097-4.359-6.748,0.678-8.028,3.548c-2.649,5.945-2.451,6.333-7.635,1.913c-2.524-2.154-4.715-2.455-6.887-0.396
		c-2.833,2.684-4.981,7.179-9.366,2.052c-0.215-0.251-1.326-0.161-1.554,0.142c-3,3.993-8.885,3.44-11.591,7.865
		c-2.071,3.383-5.018,3.419-8.26,2.147C276.18,385.845,275.691,384.136,274.02,384.219z M284.94,338.473
		c-1.046,0.3-1.689,1.091-1.803,2.297c-0.106,1.129-0.107,2.376,1.313,2.591c1.461,0.222,1.798-0.938,1.824-2.112
		C286.3,340.198,286.562,338.951,284.94,338.473z M332.109,323.775c0.155-1.181-0.521-1.736-1.499-1.852
		c-0.864-0.1-1.925-0.149-2.094,1.095c-0.148,1.104,0.672,1.679,1.559,1.911C331.01,325.176,331.851,324.923,332.109,323.775z"/>
	<path fill-rule="evenodd" clip-rule="evenodd" fill="#7F9790" d="M479.462,358.803c0.049,17.717,0.095,35.431,0.143,53.147
		c-2.034,0.091-4.067,0.249-6.103,0.262c-13.347,0.079-26.694,0.127-40.042,0.184c-22.453-0.604-44.906-0.585-67.36-0.163
		c-17.593-0.133-35.186-0.267-52.779-0.399c-4.433-2.191-9.151-0.488-13.699-1.084c-1.319-0.172-3.47,0.774-3.57-1.479
		c-0.075-1.712,1.919-2.478,3.28-2.622c4.732-0.506,9.336-1.722,13.968-2.498c8.182-1.369,16.259-3.815,24.259-4.75
		c6.292-0.736,4.95-2.3,3.861-5.949l-0.014,0.014c3.75-0.19,7.281-0.036,8.001,4.982c0.067,0.465,0.711,1.282,0.877,1.23
		c2.395-0.754,3.921-3.479,7.362-1.872c4.027,1.879,3.676-2.76,4.587-4.838c1.865,0.119,2.14,1.432,2.553,2.387
		c1.794,4.158,4.439,5.092,8.816,3.912c4.99-1.346,10.363-0.368,15.071-3.938c4.286-3.251,4.935-8.323,7.198-12.522
		c0.701-1.299-0.816-4.544-4.139-3.727c-1.978,0.488-4.074,0.468-6.055,0.946c-2.394,0.581-3.706,0.177-3.265-2.719
		c0.109-0.73,0.101-1.503,0.005-2.234c-0.248-1.884-3.266-3.785-1.934-4.874c1.806-1.473,5.072-2.383,7.244-1.771
		c4.124,1.158,6.77-0.757,9.58-2.941c2.726-2.118,5.186-2.651,7.835,0.31c1.721,1.923,4.023,2.264,6.712,2.706
		c5.77,0.946,8.759,6.484,12.55,11.272c0.065-3.302-0.021-6.604,4.388-6.186c0.608,0.059,1.787-0.595,1.856-1.053
		c0.977-6.496,5.96-7.688,10.909-8.619c3.365-0.633,6.139-3.117,9.642-2.739c0.626-2.611-2.905-2.575-2.533-4.848
		c4.568,0.488,6.732-1.683,5.672-6.491c-0.735-3.336-0.401-5.545,3.157-7.101c0.272,4.955,0.326,9.597,0.854,14.182
		c0.315,2.737-0.253,5.717,5.203,4.189c3.231-0.905,6.681-0.217,9.089-3.539c0.652-0.899,1.845-1.003,2.221,0.176
		C475.881,360.953,477.906,358.619,479.462,358.803z"/>
	<path fill-rule="evenodd" clip-rule="evenodd" fill="#D9DDD6" d="M313.32,411.833c17.594,0.133,35.187,0.267,52.779,0.397
		c-0.739,3.386-1.479,6.773-2.219,10.159c-0.742-0.002-1.486-0.007-2.228-0.011c-11.663-0.839-23.221,1.673-34.874,1.165
		c-6.286,1.561-12.688,1.118-19.061,1.143c-9.131-0.122-18.186,0.213-26.951,3.401c-3.792,1.378-7.618,2.896-11.768,0.31
		c-1.371-0.854-3.654-0.165-5.521-0.167c-8.696-0.007-17.408,0.605-26.005-1.581c-7.868-2.001-15.623-4.784-23.956-1.089
		c-2.374,1.053-5.65,0.906-8.729,0.516c-11.062-1.398-22.181-2.429-33.352-2.573c-4.643-0.061-12.643-6.534-14.274-11.415
		c11.915-0.065,23.83-0.115,35.744-0.217c2.022-0.018,4.114,0.354,6.035-0.697c0.96-0.06,1.919-0.12,2.882-0.184
		c3.522,0.016,7.041,0.032,10.559,0.048c2.89-0.012,5.779-0.022,8.67-0.034c0.84-0.002,1.678-0.002,2.517-0.002
		c17.731,1.956,35.519,0.725,53.271,0.723c10.477,0,20.835,1.728,31.291,1.308C309.903,412.962,311.936,413.784,313.32,411.833z"/>
	<path fill-rule="evenodd" clip-rule="evenodd" fill="#B3C1BF" d="M277.339,386.536c3.242,1.271,6.188,1.235,8.26-2.147
		c2.706-4.425,8.591-3.872,11.591-7.865c0.228-0.303,1.339-0.393,1.554-0.142c4.385,5.127,6.533,0.632,9.366-2.052
		c2.172-2.06,4.362-1.759,6.887,0.396c5.184,4.42,4.985,4.032,7.635-1.913c1.28-2.87,2.932-7.907,8.028-3.548
		c2.692,2.304,5.715,0.447,8.577-0.108c2.447,0.176,4.773-0.341,7.144-0.958c2.623-0.682,5.114,0.251,5.868,3.031
		c0.911,3.372-2.212,1.222-3.116,2.039c-0.891,0.807-1.251,2.239-1.837,3.399c-0.604,1.197-1.688,3.169-2.664,2.343
		c-5.516-4.671-6.828,1.8-9.754,3.718c-0.95,0.623-1.815,1.843-2.82,1.059c-5.379-4.201-8.252,2.248-10.135,4.063
		c-7.084,6.833-6.948,8.104-14.931,3.937c-4.773-2.491-6.239-0.731-8.204,2.679c-1.438,2.498-2.979,3.375-5.064,0.54
		c-1.428-1.939-3.083-1.879-4.643,0.014c-1.55,1.879-1.842,6.435-5.048,4.85c-3.313-1.638-6.158-4.917-6.628-9.306
		C277.262,389.235,277.354,387.878,277.339,386.536z"/>
	<path fill-rule="evenodd" clip-rule="evenodd" fill="#7F9790" d="M212.384,411.038c-3.519-0.016-7.037-0.032-10.559-0.048
		C205.346,410.159,208.885,405.608,212.384,411.038z"/>
	<path fill-rule="evenodd" clip-rule="evenodd" fill="#7F9790" d="M223.571,411.002c-0.838,0-1.677,0-2.517,0.002
		c0.285-0.826,0.238-2.121,1.513-1.822C223.014,409.287,223.243,410.367,223.571,411.002z"/>
	<path fill-rule="evenodd" clip-rule="evenodd" fill="#7F9790" d="M459.1,339.595c0.294,0.134,0.75,0.204,0.834,0.423
		c0.081,0.215-0.211,0.583-0.341,0.885c-0.292-0.133-0.75-0.2-0.831-0.417C458.678,340.266,458.97,339.897,459.1,339.595z"/>
	<path fill-rule="evenodd" clip-rule="evenodd" fill="#7F9790" d="M341.419,393.45c-0.698-0.115-1.501-0.115-1.641-1.06
		c-0.026-0.183,0.425-0.644,0.602-0.616c0.916,0.145,0.92,0.966,1.025,1.689L341.419,393.45z"/>
	<path fill-rule="evenodd" clip-rule="evenodd" fill="#B3C1BF" d="M76.292,338.014c-0.618,0.318-1.231,0.646-1.866,0.922
		c-0.028,0.014-0.248-0.438-0.378-0.676c0.712-0.126,1.424-0.25,2.135-0.379C76.183,337.881,76.292,338.014,76.292,338.014z"/>
	<path fill-rule="evenodd" clip-rule="evenodd" fill="#B3C1BF" d="M104.363,349.499c0.146,0.095,0.293,0.189,0.441,0.285
		c-0.161-0.082-0.322-0.161-0.482-0.242C104.321,349.544,104.363,349.499,104.363,349.499z"/>
	<path fill-rule="evenodd" clip-rule="evenodd" fill="#BEC9C5" d="M307.719,424.687c6.373-0.024,12.774,0.418,19.061-1.143
		c0.201,1.235,0.766,1.775,2.091,2.19c6.585,2.067,13.437,0.938,20.124,1.643c4.04,0.427,9.136-1.43,12.659-4.998
		c0.741,0.004,1.485,0.009,2.228,0.011c2.08,1.997,4.757,1.432,6.955,0.996c4.825-0.962,9.644-1.186,14.489-0.98
		c13.531,0.578,27.054,0.729,40.579-0.074c0.899-0.052,1.904,0.106,2.413-1.01c0.007-1.646-2.488-1.854-1.924-4.301
		c3.895,1.218,6.955,0.468,7.066-4.625c13.348-0.057,26.695-0.104,40.042-0.184c2.035-0.013,4.068-0.171,6.103-0.262
		c-0.046,1.168-0.09,2.336-0.136,3.501c-1.982,0.172-4.231-0.725-5.785,1.242c-1.895,2.403,2.75,2.93,1.526,5.313
		c-8.815,2.482-17.689-0.397-26.522,0.316c-5.908,0.479-6.894,1.552-6.318,7.532c0.199,2.073,1.17,4.998-2.564,5.096
		c-7.64,0.201-14.974,3.274-22.717,2.486c-0.95-0.097-2.145,0.199-2.083,1.333c0.057,1.065,0.687,2.17,1.284,3.107
		c0.56,0.879,1.593,1.281,2.305,0.249c2.646-3.84,2.659-0.929,3.843,1.186c2.104,3.768,1.325,6.887-0.199,10.575
		c-1.131,2.734-3.971,3.482-4.996,5.705c-2.479,5.371-6.396,6.973-11.176,3.799c-1.263-0.838-2.269-2.405-3.722-0.678
		c-1.119,1.33-1.671,2.979-1.047,4.838c0.488,1.455,3.896,2.182,1.896,3.826c-1.546,1.274-4.325,2.754-6.743,1.046
		c-4.138-2.923-8.829,2.758-12.889-0.978c-0.103-0.093-1.088,0.479-1.306,0.924c-1.854,3.801-4.746,3.155-7.534,1.683
		c-2.688-1.419-6.434,0.47-8.35-2.501c-2.229-3.46-3.702-1.901-6.115-0.194c-2.14,1.514-4.502,4.349-7.86,1.168
		c-3.328-3.148-10.292,0.373-10.972,5.283c-2.256-0.007-4.512-0.014-6.769-0.019c-0.077-1.305,0.178-3.056-1.603-3.112
		c-1.932-0.063-3.646,0.762-3.984,3.136c-2.259-0.003-4.515-0.007-6.772-0.01c-0.198-2.225-1.333-3.431-3.552-3.288
		c-2.072,0.131-1.988,1.777-2.037,3.291c-59.225,0.052-118.448,0.117-177.672,0.146c-17.561,0.009-35.121-0.088-52.682-0.136
		c-0.046-2.906,0.346-5.775-4.236-3.403c-2.91,1.504-4.378-1.646-5.68-3.829c-0.624-1.045,0.333-2.739-1.774-3.862
		c-0.308,5.175-2.866,6.196-7.296,4.574c-2.584-0.946-4.96,1.473-7.795,1.786c-7.623,0.845-8.042-4.883-8.952-9.289
		c-1.924-9.319,2.046-14.862,11.317-17.092c3.449-0.831,5.005-2.567,4.632-6.376c-0.398-4.072-2.906-4.75-5.862-3.968
		c-3.966,1.048-7.76-0.599-11.65-0.184c-1.224,0.131-2.972,0.095-2.691-1.91c0.26-1.853,2.043-1.679,3.178-1.347
		c4.148,1.218,8.237,1.231,13.63,0.581c-2.727-2.48-4.825-1.653-6.673-1.887c-1.241-0.155-2.842,0.394-3.412-1.256
		c-0.611-1.771,1.012-2.199,2.054-2.908c1.179-0.803,3.238-1.231,2.373-3.217c-0.613-1.407-2.366-1.762-3.91-1.827
		c-1.309-0.055-2.623,0.009-3.932-0.045c-2.723-0.111-6.25,1.22-5.32-4.292c0.31-1.836-3.585-2.825-2.874-5.707
		c7.87-0.021,15.741-0.045,23.61-0.072c0.219,0.905,0.27,1.906,0.688,2.703c2.436,4.648,6.742,3.96,10.828,3.941
		c1.041-0.004,2.555-0.145,2.355,1.567c-0.162,1.392-1.322,1.646-2.586,1.313c-1.346-0.354-2.799-1.304-4.204,0.998
		c3.048,1.111,5.845,0.834,8.71,0.093c4.426-1.143,9.213-1.357,13.341-0.246c4.425,1.192,10.853-3.476,12.824,1.882
		c3.112,8.454,7.801-0.854,10.857,2.125c0.271,0.265,0.601,0.47,0.852,0.75c5.083,5.671,11.848,5.504,18.103,4.239
		c12.05-2.438,24.189-0.822,36.262-1.767c5.951-0.465,12.272,1.638,18.281,2.84c10.836,2.168,21.477,5.239,32.554,6.313
		c4.643,0.447,9.127-1.507,13.804-0.048c7.394,2.307,14.928,5.322,22.174-0.647c1.387-1.144,2.769-0.143,4.211,0.289
		c7.281,2.173,14.48,0.219,21.637-0.888c5.004-0.777,9.086-4.59,13.895-5.66c2.355-0.524,5.958,1.75,8.097,0.361
		C310.577,430.625,306.341,427.381,307.719,424.687z M66.708,431.809c-0.292,0.188-0.903,0.358-1.078,0.74
		c-0.298,0.65,0.269,1.096,0.826,1.082c0.447-0.011,1.105-0.289,1.278-0.648C68.04,432.351,67.482,432.019,66.708,431.809z"/>
	<path fill-rule="evenodd" clip-rule="evenodd" fill="#D0D7D0" d="M307.719,424.687c-1.378,2.694,2.858,5.938,0.054,7.759
		c-2.139,1.389-5.741-0.886-8.097-0.361c-4.809,1.07-8.891,4.883-13.895,5.66c-7.156,1.106-14.355,3.061-21.637,0.888
		c-1.442-0.432-2.824-1.433-4.211-0.289c-7.246,5.97-14.78,2.954-22.174,0.647c-4.676-1.459-9.161,0.495-13.804,0.048
		c-11.077-1.073-21.718-4.145-32.554-6.313c-6.008-1.202-12.33-3.305-18.281-2.84c-12.073,0.944-24.212-0.671-36.262,1.767
		c-6.255,1.265-13.021,1.432-18.103-4.239c-0.251-0.28-0.581-0.485-0.852-0.75c-3.056-2.979-7.745,6.329-10.857-2.125
		c-1.971-5.357-8.399-0.689-12.824-1.882c-4.127-1.111-8.915-0.896-13.341,0.246c-2.866,0.741-5.662,1.019-8.71-0.093
		c1.405-2.302,2.858-1.353,4.204-0.998c1.264,0.334,2.424,0.079,2.586-1.313c0.2-1.712-1.314-1.571-2.355-1.567
		c-4.086,0.019-8.392,0.707-10.828-3.941c-0.418-0.797-0.469-1.798-0.688-2.703c30.691-0.065,61.383-0.134,92.074-0.199
		c1.631,4.881,9.631,11.354,14.274,11.415c11.17,0.145,22.29,1.175,33.352,2.573c3.078,0.391,6.355,0.537,8.729-0.516
		c8.333-3.695,16.088-0.912,23.956,1.089c8.597,2.187,17.309,1.574,26.005,1.581c1.866,0.002,4.149-0.687,5.521,0.167
		c4.149,2.586,7.976,1.068,11.768-0.31C289.533,424.899,298.588,424.564,307.719,424.687z"/>
	<path fill-rule="evenodd" clip-rule="evenodd" fill="#8FAAA4" d="M154.897,400.389c-0.077,0.146-0.154,0.293-0.232,0.44
		c0.08-0.145,0.16-0.289,0.24-0.432L154.897,400.389z"/>
	<path fill-rule="evenodd" clip-rule="evenodd" fill="#B3C1BF" d="M341.424,477.808c0.68-4.91,7.644-8.432,10.972-5.283
		c3.358,3.181,5.721,0.346,7.86-1.168c2.413-1.707,3.886-3.266,6.115,0.194c1.916,2.971,5.661,1.082,8.35,2.501
		c2.788,1.473,5.68,2.118,7.534-1.683c0.218-0.445,1.203-1.017,1.306-0.924c4.06,3.735,8.751-1.945,12.889,0.978
		c2.418,1.708,5.197,0.229,6.743-1.046c2-1.645-1.407-2.371-1.896-3.826c-0.624-1.858-0.072-3.508,1.047-4.838
		c1.453-1.728,2.459-0.16,3.722,0.678c4.78,3.174,8.696,1.572,11.176-3.799c1.025-2.223,3.865-2.971,4.996-5.705
		c1.524-3.688,2.304-6.808,0.199-10.575c-1.184-2.114-1.197-5.025-3.843-1.186c-0.712,1.032-1.745,0.63-2.305-0.249
		c-0.598-0.938-1.228-2.042-1.284-3.107c-0.062-1.134,1.133-1.43,2.083-1.333c7.743,0.788,15.077-2.285,22.717-2.486
		c3.734-0.098,2.764-3.022,2.564-5.096c-0.575-5.98,0.41-7.054,6.318-7.532c8.833-0.714,17.707,2.166,26.522-0.316
		c1.224-2.383-3.421-2.909-1.526-5.313c1.554-1.967,3.803-1.07,5.785-1.242c0.059,14.415,0.076,28.829,0.224,43.241
		c0.026,2.474-0.7,4.445-2.145,6.324c-6.151,8.019-14.355,12.724-24.067,12.8C416.131,478.11,378.776,477.857,341.424,477.808z"/>
	<path fill-rule="evenodd" clip-rule="evenodd" fill="#B3C1BF" d="M316.707,477.806c0.049-1.514-0.035-3.16,2.037-3.291
		c2.219-0.143,3.354,1.063,3.552,3.288C320.434,477.803,318.57,477.806,316.707,477.806z"/>
	<path fill-rule="evenodd" clip-rule="evenodd" fill="#B3C1BF" d="M329.068,477.813c0.338-2.374,2.053-3.198,3.984-3.136
		c1.78,0.057,1.525,1.808,1.603,3.112C332.792,477.796,330.932,477.803,329.068,477.813z"/>
	<path fill-rule="evenodd" clip-rule="evenodd" fill="#D0D7D0" d="M48.092,265.089c-0.002,1.557-0.004,3.112-0.006,4.668
		c-1.512-0.234-3.039-0.667-2.84-2.61C45.4,265.629,46.768,265.238,48.092,265.089z"/>
	<path fill-rule="evenodd" clip-rule="evenodd" fill="#D9DDD6" d="M213.324,340.262c-3.81,0.352-9.143-1.76-11.093,1.502
		c-3.14,5.246-8.963,5.143-12.504,8.924c-0.983-0.456-2.616-0.689-2.851-1.407c-2.653-8.127-9.192-6.639-15.125-6.694
		c2.701-4.848,1.158-6.498-3.971-5.825c-3.624,0.477-7.434,1.378-10.902,0.695c-4.623-0.908-6.18,0.817-6.501,5.025
		c-11.917,0.127-9.985,1.347-10.104-10.168c-0.104-10.15,0.058-20.301-0.002-30.451c-0.027-4.599,0.102-9.158,1.088-13.662
		c4.418,0.761,7.02,4.185,8.839,7.702c2.093,4.045,3.785,3.93,5.852,0.553c1.047-1.714,2.31-2.254,4.04-2.572
		c3.739-0.689,6.669-2.319,7.229-6.76c0.362-2.883,2.389-2.521,4.255-1.806c1.609,0.618,4.06,0.696,3.121,3.648
		c-0.665,2.087-1.34,4.251,0.956,5.638c2.076,1.256,3.988,0.196,5.661-1.164c3.515-2.854,5.152-0.424,6.053,2.555
		c0.67,2.219,1.505,2.871,3.563,2.04c1.751-0.709,3.972-1.021,1.583-3.682c-0.73-0.815-0.309-1.958,0.704-2.333
		c1.547-0.574,3.182-0.285,3.848,1.354c0.9,2.214,1.743,3.271,3.969,1.403c1.147-0.963,2.526-0.929,3.196,0.763
		c0.938,2.367,2.433,1.854,4.092,1.025c1.86-0.93,3.172-2.143,2.317-4.506c-1.355-3.737,0.374-4.976,3.719-4.948
		c0.041,14.245,0.083,28.49,0.125,42.735c-0.015,3.088-0.031,6.173-0.047,9.261C214.063,339.491,213.693,339.875,213.324,340.262z"
		/>
	<path fill-rule="evenodd" clip-rule="evenodd" fill="#E8EAE4" d="M127.807,257.964c-2.219,0.036-4.443-0.018-6.655,0.128
		c-4.783,0.313-7.558-1.36-6.72-6.844c4.492-0.009,8.983-0.016,13.474-0.024C127.873,253.47,127.839,255.717,127.807,257.964z"/>
	<path fill-rule="evenodd" clip-rule="evenodd" fill="#D9DDD6" d="M153.312,290.85c-0.297,0.119-0.667,0.401-0.87,0.307
		c-0.208-0.097-0.251-0.564-0.367-0.869c0.297-0.117,0.665-0.4,0.871-0.308C153.152,290.074,153.197,290.544,153.312,290.85z"/>
	<path fill-rule="evenodd" clip-rule="evenodd" fill="#E8EAE4" d="M112.251,249.822c-2.988,0.054-5.977,0.107-8.964,0.161
		c-0.028-1.893-0.056-3.785-0.084-5.676C106.971,244.837,112.614,242.11,112.251,249.822z"/>
	<path fill-rule="evenodd" clip-rule="evenodd" fill="#EEEEE5" d="M67.301,193.838c-0.453,0.541-0.763,0.911-1.074,1.283
		c-0.332-0.346-0.906-0.676-0.929-1.042c-0.024-0.387,0.477-0.81,0.748-1.217C66.418,193.152,66.79,193.441,67.301,193.838z"/>
	<path fill-rule="evenodd" clip-rule="evenodd" fill="#D0D7D0" d="M150.376,342.481c0.322-4.208,1.879-5.934,6.501-5.025
		c3.468,0.683,7.279-0.219,10.902-0.695c5.129-0.673,6.672,0.978,3.971,5.825c-1.478,0.009-3.037-0.294-4.42,0.083
		C161.638,344.221,156.007,344.718,150.376,342.481z"/>
	<path fill-rule="evenodd" clip-rule="evenodd" fill="#8FAAA4" d="M198.052,376.427c0.135-0.312,0.203-0.786,0.426-0.884
		c0.207-0.09,0.581,0.222,0.88,0.355c-0.133,0.312-0.2,0.79-0.42,0.883C198.726,376.871,198.354,376.563,198.052,376.427z"/>
	<path fill-rule="evenodd" clip-rule="evenodd" fill="#B3C1BF" d="M284.94,338.473c1.621,0.479,1.359,1.726,1.335,2.775
		c-0.026,1.175-0.363,2.334-1.824,2.112c-1.421-0.215-1.42-1.462-1.313-2.591C283.251,339.563,283.895,338.772,284.94,338.473z"/>
	<path fill-rule="evenodd" clip-rule="evenodd" fill="#B3C1BF" d="M332.118,323.78c-0.268,1.143-1.108,1.396-2.043,1.149
		c-0.887-0.232-1.707-0.807-1.559-1.911c0.169-1.244,1.229-1.194,2.094-1.095C331.589,322.039,332.265,322.595,332.118,323.78z"/>
	<path fill-rule="evenodd" clip-rule="evenodd" fill="#D0D7D0" d="M213.324,340.262c0.369-0.387,0.739-0.771,1.108-1.154
		C214.063,339.491,213.693,339.875,213.324,340.262z"/>
	<path fill-rule="evenodd" clip-rule="evenodd" fill="#D0D7D0" d="M433.46,412.396c-0.111,5.093-3.172,5.843-7.066,4.625
		c-0.564,2.446,1.931,2.654,1.924,4.301c-0.509,1.116-1.514,0.958-2.413,1.01c-13.525,0.804-27.048,0.652-40.579,0.074
		c-4.846-0.205-9.664,0.019-14.489,0.98c-2.198,0.436-4.875,1.001-6.955-0.996c0.739-3.386,1.479-6.773,2.219-10.159
		C388.554,411.811,411.007,411.792,433.46,412.396z"/>
	<path fill-rule="evenodd" clip-rule="evenodd" fill="#D0D7D0" d="M361.653,422.379c-3.523,3.568-8.619,5.425-12.659,4.998
		c-6.688-0.705-13.539,0.425-20.124-1.643c-1.325-0.415-1.89-0.955-2.091-2.19C338.433,424.052,349.99,421.54,361.653,422.379z"/>
	<path fill-rule="evenodd" clip-rule="evenodd" fill="#B3C1BF" d="M66.708,431.809c0.773,0.21,1.332,0.542,1.026,1.174
		c-0.173,0.359-0.831,0.638-1.278,0.648c-0.558,0.014-1.124-0.432-0.826-1.082C65.806,432.167,66.417,431.996,66.708,431.809z"/>
</g>
</svg>
